%TF.GenerationSoftware,KiCad,Pcbnew,7.0.2*%
%TF.CreationDate,2023-10-26T15:36:34+02:00*%
%TF.ProjectId,Gnerator_poprawiony,476e6572-6174-46f7-925f-706f70726177,rev?*%
%TF.SameCoordinates,Original*%
%TF.FileFunction,Soldermask,Top*%
%TF.FilePolarity,Negative*%
%FSLAX46Y46*%
G04 Gerber Fmt 4.6, Leading zero omitted, Abs format (unit mm)*
G04 Created by KiCad (PCBNEW 7.0.2) date 2023-10-26 15:36:34*
%MOMM*%
%LPD*%
G01*
G04 APERTURE LIST*
G04 Aperture macros list*
%AMRoundRect*
0 Rectangle with rounded corners*
0 $1 Rounding radius*
0 $2 $3 $4 $5 $6 $7 $8 $9 X,Y pos of 4 corners*
0 Add a 4 corners polygon primitive as box body*
4,1,4,$2,$3,$4,$5,$6,$7,$8,$9,$2,$3,0*
0 Add four circle primitives for the rounded corners*
1,1,$1+$1,$2,$3*
1,1,$1+$1,$4,$5*
1,1,$1+$1,$6,$7*
1,1,$1+$1,$8,$9*
0 Add four rect primitives between the rounded corners*
20,1,$1+$1,$2,$3,$4,$5,0*
20,1,$1+$1,$4,$5,$6,$7,0*
20,1,$1+$1,$6,$7,$8,$9,0*
20,1,$1+$1,$8,$9,$2,$3,0*%
G04 Aperture macros list end*
%ADD10C,0.150000*%
%ADD11RoundRect,0.250000X-0.400000X-0.600000X0.400000X-0.600000X0.400000X0.600000X-0.400000X0.600000X0*%
%ADD12RoundRect,0.250000X-0.475000X0.250000X-0.475000X-0.250000X0.475000X-0.250000X0.475000X0.250000X0*%
%ADD13RoundRect,0.250000X0.475000X-0.250000X0.475000X0.250000X-0.475000X0.250000X-0.475000X-0.250000X0*%
%ADD14RoundRect,0.225000X-0.250000X0.225000X-0.250000X-0.225000X0.250000X-0.225000X0.250000X0.225000X0*%
%ADD15RoundRect,0.250000X0.250000X0.475000X-0.250000X0.475000X-0.250000X-0.475000X0.250000X-0.475000X0*%
%ADD16RoundRect,0.250000X-0.250000X-0.475000X0.250000X-0.475000X0.250000X0.475000X-0.250000X0.475000X0*%
%ADD17RoundRect,0.225000X0.250000X-0.225000X0.250000X0.225000X-0.250000X0.225000X-0.250000X-0.225000X0*%
%ADD18R,0.300000X0.800000*%
%ADD19R,0.800000X0.300000*%
%ADD20R,3.250000X3.250000*%
%ADD21RoundRect,0.225000X0.225000X0.250000X-0.225000X0.250000X-0.225000X-0.250000X0.225000X-0.250000X0*%
%ADD22C,2.200000*%
%ADD23RoundRect,0.150000X0.150000X-0.512500X0.150000X0.512500X-0.150000X0.512500X-0.150000X-0.512500X0*%
%ADD24RoundRect,0.150000X-0.150000X0.512500X-0.150000X-0.512500X0.150000X-0.512500X0.150000X0.512500X0*%
%ADD25R,2.000000X0.700000*%
%ADD26R,3.000000X1.500000*%
%ADD27R,1.700000X0.650000*%
%ADD28R,1.400000X1.200000*%
%ADD29R,1.800000X1.800000*%
%ADD30O,2.000000X2.000000*%
%ADD31R,3.050000X2.290000*%
%ADD32R,2.000000X1.500000*%
%ADD33R,0.850000X0.850000*%
%ADD34O,0.850000X0.850000*%
%ADD35R,2.000000X2.000000*%
%ADD36C,1.600000*%
%ADD37O,3.300000X2.000000*%
%ADD38R,4.000000X2.000000*%
G04 APERTURE END LIST*
D10*
X142748000Y-60909200D02*
X144475200Y-60909200D01*
X144475200Y-72593200D01*
X142748000Y-72593200D01*
X142748000Y-60909200D01*
G36*
X142748000Y-60909200D02*
G01*
X144475200Y-60909200D01*
X144475200Y-72593200D01*
X142748000Y-72593200D01*
X142748000Y-60909200D01*
G37*
X143510000Y-73558400D02*
G75*
G03*
X144475200Y-72593200I0J965200D01*
G01*
X105562400Y-36220400D02*
X106070400Y-36220400D01*
X106070400Y-36372800D01*
X105562400Y-36372800D01*
X105562400Y-36220400D01*
X143611600Y-72745600D02*
X144424400Y-72745600D01*
X144424400Y-72898000D01*
X143611600Y-72898000D01*
X143611600Y-72745600D01*
X141935200Y-73050400D02*
X142595600Y-73050400D01*
X142595600Y-73202800D01*
X141935200Y-73202800D01*
X141935200Y-73050400D01*
X105105200Y-37947600D02*
X106883200Y-37947600D01*
X106883200Y-55118000D01*
X105105200Y-55118000D01*
X105105200Y-37947600D01*
G36*
X105105200Y-37947600D02*
G01*
X106883200Y-37947600D01*
X106883200Y-55118000D01*
X105105200Y-55118000D01*
X105105200Y-37947600D01*
G37*
X105308400Y-72898000D02*
X106070400Y-72898000D01*
X106070400Y-73050400D01*
X105308400Y-73050400D01*
X105308400Y-72898000D01*
X105257600Y-72745600D02*
X106019600Y-72745600D01*
X106019600Y-72898000D01*
X105257600Y-72898000D01*
X105257600Y-72745600D01*
X105359200Y-36372800D02*
X106070400Y-36372800D01*
X106070400Y-36626800D01*
X105359200Y-36626800D01*
X105359200Y-36372800D01*
G36*
X105359200Y-36372800D02*
G01*
X106070400Y-36372800D01*
X106070400Y-36626800D01*
X105359200Y-36626800D01*
X105359200Y-36372800D01*
G37*
X141935200Y-73202800D02*
X142392400Y-73202800D01*
X142392400Y-73304400D01*
X141935200Y-73304400D01*
X141935200Y-73202800D01*
X141884400Y-72237600D02*
X143510000Y-72237600D01*
X143510000Y-73558400D01*
X141884400Y-73558400D01*
X141884400Y-72237600D01*
G36*
X141884400Y-72237600D02*
G01*
X143510000Y-72237600D01*
X143510000Y-73558400D01*
X141884400Y-73558400D01*
X141884400Y-72237600D01*
G37*
X143611600Y-72593200D02*
X144475200Y-72593200D01*
X143611600Y-72593200D01*
X105816400Y-36118800D02*
X106070400Y-36118800D01*
X106070400Y-36220400D01*
X105816400Y-36220400D01*
X105816400Y-36118800D01*
X105729151Y-73275699D02*
X106172000Y-73275699D01*
X106172000Y-73406000D01*
X105729151Y-73406000D01*
X105729151Y-73275699D01*
X141935200Y-72796400D02*
X142697200Y-72796400D01*
X142697200Y-72948800D01*
X141935200Y-72948800D01*
X141935200Y-72796400D01*
X143256000Y-36271200D02*
X143967200Y-36271200D01*
X143967200Y-36474400D01*
X143256000Y-36474400D01*
X143256000Y-36271200D01*
G36*
X143256000Y-36271200D02*
G01*
X143967200Y-36271200D01*
X143967200Y-36474400D01*
X143256000Y-36474400D01*
X143256000Y-36271200D01*
G37*
X105206800Y-72593200D02*
X106121200Y-72593200D01*
X106121200Y-72999600D01*
X105206800Y-72999600D01*
X105206800Y-72593200D01*
G36*
X105206800Y-72593200D02*
G01*
X106121200Y-72593200D01*
X106121200Y-72999600D01*
X105206800Y-72999600D01*
X105206800Y-72593200D01*
G37*
X106070400Y-36017200D02*
X143256000Y-36017200D01*
X143256000Y-37947600D01*
X106070400Y-37947600D01*
X106070400Y-36017200D01*
G36*
X106070400Y-36017200D02*
G01*
X143256000Y-36017200D01*
X143256000Y-37947600D01*
X106070400Y-37947600D01*
X106070400Y-36017200D01*
G37*
X143256000Y-36068000D02*
X143611600Y-36068000D01*
X143611600Y-36271200D01*
X143256000Y-36271200D01*
X143256000Y-36068000D01*
G36*
X143256000Y-36068000D02*
G01*
X143611600Y-36068000D01*
X143611600Y-36271200D01*
X143256000Y-36271200D01*
X143256000Y-36068000D01*
G37*
X143611600Y-72593200D02*
X144322800Y-72593200D01*
X144322800Y-72745600D01*
X143611600Y-72745600D01*
X143611600Y-72593200D01*
X141935200Y-72644000D02*
X142748000Y-72644000D01*
X142748000Y-72796400D01*
X141935200Y-72796400D01*
X141935200Y-72644000D01*
X142748000Y-37134800D02*
X144373600Y-37134800D01*
X144373600Y-43078400D01*
X142748000Y-43078400D01*
X142748000Y-37134800D01*
G36*
X142748000Y-37134800D02*
G01*
X144373600Y-37134800D01*
X144373600Y-43078400D01*
X142748000Y-43078400D01*
X142748000Y-37134800D01*
G37*
X144373600Y-37134800D02*
G75*
G03*
X143256000Y-36017200I-1117600J0D01*
G01*
X141935200Y-72948800D02*
X142646400Y-72948800D01*
X142646400Y-73050400D01*
X141935200Y-73050400D01*
X141935200Y-72948800D01*
X143510000Y-73275699D02*
X143916400Y-73275699D01*
X143916400Y-73456800D01*
X143510000Y-73456800D01*
X143510000Y-73275699D01*
G36*
X143510000Y-73275699D02*
G01*
X143916400Y-73275699D01*
X143916400Y-73456800D01*
X143510000Y-73456800D01*
X143510000Y-73275699D01*
G37*
X144119600Y-36804600D02*
X144221200Y-36804600D01*
X144221200Y-37338000D01*
X144119600Y-37338000D01*
X144119600Y-36804600D01*
X105105200Y-36982400D02*
X106070400Y-36982400D01*
X106070400Y-37947600D01*
X105105200Y-37947600D01*
X105105200Y-36982400D01*
G36*
X105105200Y-36982400D02*
G01*
X106070400Y-36982400D01*
X106070400Y-37947600D01*
X105105200Y-37947600D01*
X105105200Y-36982400D01*
G37*
X105105200Y-61061600D02*
X106934000Y-61061600D01*
X106934000Y-72593200D01*
X105105200Y-72593200D01*
X105105200Y-61061600D01*
G36*
X105105200Y-61061600D02*
G01*
X106934000Y-61061600D01*
X106934000Y-72593200D01*
X105105200Y-72593200D01*
X105105200Y-61061600D01*
G37*
X143510000Y-72898000D02*
X144272000Y-72898000D01*
X144272000Y-73101200D01*
X143510000Y-73101200D01*
X143510000Y-72898000D01*
G36*
X143510000Y-72898000D02*
G01*
X144272000Y-72898000D01*
X144272000Y-73101200D01*
X143510000Y-73101200D01*
X143510000Y-72898000D01*
G37*
X106070400Y-72237600D02*
X141884400Y-72237600D01*
X141884400Y-73558400D01*
X106070400Y-73558400D01*
X106070400Y-72237600D01*
G36*
X106070400Y-72237600D02*
G01*
X141884400Y-72237600D01*
X141884400Y-73558400D01*
X106070400Y-73558400D01*
X106070400Y-72237600D01*
G37*
X105562400Y-73304400D02*
X105729151Y-73304400D01*
X105729151Y-73406000D01*
X105562400Y-73406000D01*
X105562400Y-73304400D01*
X143510000Y-73101200D02*
X144192499Y-73101200D01*
X144192499Y-73275699D01*
X143510000Y-73275699D01*
X143510000Y-73101200D01*
G36*
X143510000Y-73101200D02*
G01*
X144192499Y-73101200D01*
X144192499Y-73275699D01*
X143510000Y-73275699D01*
X143510000Y-73101200D01*
G37*
X105105200Y-72593200D02*
G75*
G03*
X106070400Y-73558400I965200J0D01*
G01*
X141935200Y-73304400D02*
X142240000Y-73304400D01*
X142240000Y-73456800D01*
X141935200Y-73456800D01*
X141935200Y-73304400D01*
X105387901Y-73050400D02*
X106070400Y-73050400D01*
X106070400Y-73275699D01*
X105387901Y-73275699D01*
X105387901Y-73050400D01*
G36*
X105387901Y-73050400D02*
G01*
X106070400Y-73050400D01*
X106070400Y-73275699D01*
X105387901Y-73275699D01*
X105387901Y-73050400D01*
G37*
X106070400Y-36017200D02*
G75*
G03*
X105105200Y-36982400I0J-965200D01*
G01*
X105206800Y-72593200D02*
X106019600Y-72593200D01*
X106019600Y-72745600D01*
X105206800Y-72745600D01*
X105206800Y-72593200D01*
X143256000Y-36474400D02*
X144119600Y-36474400D01*
X144119600Y-37134800D01*
X143256000Y-37134800D01*
X143256000Y-36474400D01*
G36*
X143256000Y-36474400D02*
G01*
X144119600Y-36474400D01*
X144119600Y-37134800D01*
X143256000Y-37134800D01*
X143256000Y-36474400D01*
G37*
X105206800Y-36626800D02*
X106070400Y-36626800D01*
X106070400Y-36982400D01*
X105206800Y-36982400D01*
X105206800Y-36626800D01*
G36*
X105206800Y-36626800D02*
G01*
X106070400Y-36626800D01*
X106070400Y-36982400D01*
X105206800Y-36982400D01*
X105206800Y-36626800D01*
G37*
D11*
%TO.C,D2*%
X125417600Y-76504800D03*
X128917600Y-76504800D03*
%TD*%
D12*
%TO.C,C20*%
X127889000Y-39817000D03*
X127889000Y-41717000D03*
%TD*%
%TO.C,C27*%
X129426000Y-68252000D03*
X129426000Y-70152000D03*
%TD*%
D13*
%TO.C,R6*%
X125362000Y-65834000D03*
X125362000Y-63934000D03*
%TD*%
D14*
%TO.C,C5*%
X130061000Y-63969000D03*
X130061000Y-65519000D03*
%TD*%
D15*
%TO.C,R7*%
X135951000Y-55626000D03*
X134051000Y-55626000D03*
%TD*%
%TO.C,C16*%
X110297000Y-52832000D03*
X108397000Y-52832000D03*
%TD*%
D14*
%TO.C,C35*%
X115697000Y-51028000D03*
X115697000Y-52578000D03*
%TD*%
D13*
%TO.C,R12*%
X119253000Y-47305000D03*
X119253000Y-45405000D03*
%TD*%
D16*
%TO.C,C18*%
X108397000Y-43815000D03*
X110297000Y-43815000D03*
%TD*%
D14*
%TO.C,R11*%
X118631000Y-64109000D03*
X118631000Y-65659000D03*
%TD*%
D17*
%TO.C,C34*%
X114694000Y-65659000D03*
X114694000Y-64109000D03*
%TD*%
D12*
%TO.C,R5*%
X131699000Y-50866000D03*
X131699000Y-52766000D03*
%TD*%
D15*
%TO.C,C14*%
X124648000Y-58039000D03*
X122748000Y-58039000D03*
%TD*%
D12*
%TO.C,R3*%
X126365000Y-50866000D03*
X126365000Y-52766000D03*
%TD*%
D13*
%TO.C,R8*%
X123698000Y-52766000D03*
X123698000Y-50866000D03*
%TD*%
D15*
%TO.C,C17*%
X110297000Y-49911000D03*
X108397000Y-49911000D03*
%TD*%
D17*
%TO.C,L1*%
X117729000Y-52591000D03*
X117729000Y-51041000D03*
%TD*%
D14*
%TO.C,C25*%
X120409000Y-68548500D03*
X120409000Y-70098500D03*
%TD*%
%TO.C,C37*%
X138684000Y-51549000D03*
X138684000Y-53099000D03*
%TD*%
D13*
%TO.C,R13*%
X124333000Y-47305000D03*
X124333000Y-45405000D03*
%TD*%
D17*
%TO.C,C9*%
X119634000Y-52591000D03*
X119634000Y-51041000D03*
%TD*%
D16*
%TO.C,R14*%
X108397000Y-46863000D03*
X110297000Y-46863000D03*
%TD*%
D17*
%TO.C,C26*%
X118999000Y-41542000D03*
X118999000Y-39992000D03*
%TD*%
D18*
%TO.C,U2*%
X130896000Y-55905000D03*
X130396000Y-55905000D03*
X129896000Y-55905000D03*
X129396000Y-55905000D03*
X128896000Y-55905000D03*
X128396000Y-55905000D03*
X127896000Y-55905000D03*
X127396000Y-55905000D03*
D19*
X126746000Y-56555000D03*
X126746000Y-57055000D03*
X126746000Y-57555000D03*
X126746000Y-58055000D03*
X126746000Y-58555000D03*
X126746000Y-59055000D03*
X126746000Y-59555000D03*
X126746000Y-60055000D03*
D18*
X127396000Y-60705000D03*
X127896000Y-60705000D03*
X128396000Y-60705000D03*
X128896000Y-60705000D03*
X129396000Y-60705000D03*
X129896000Y-60705000D03*
X130396000Y-60705000D03*
X130896000Y-60705000D03*
D19*
X131546000Y-60055000D03*
X131546000Y-59555000D03*
X131546000Y-59055000D03*
X131546000Y-58555000D03*
X131546000Y-58055000D03*
X131546000Y-57555000D03*
X131546000Y-57055000D03*
X131546000Y-56555000D03*
D20*
X129146000Y-58305000D03*
%TD*%
D12*
%TO.C,C22*%
X116586000Y-39690000D03*
X116586000Y-41590000D03*
%TD*%
D17*
%TO.C,C31*%
X112662000Y-65659000D03*
X112662000Y-64109000D03*
%TD*%
D14*
%TO.C,C6*%
X123076000Y-64109000D03*
X123076000Y-65659000D03*
%TD*%
D21*
%TO.C,L2*%
X110109000Y-55372000D03*
X108559000Y-55372000D03*
%TD*%
D12*
%TO.C,R1*%
X132093000Y-63715000D03*
X132093000Y-65615000D03*
%TD*%
D14*
%TO.C,C8*%
X128029000Y-63982000D03*
X128029000Y-65532000D03*
%TD*%
D13*
%TO.C,C28*%
X136525000Y-41656000D03*
X136525000Y-39756000D03*
%TD*%
D22*
%TO.C,REF\u002A\u002A*%
X104698800Y-77500000D03*
%TD*%
D23*
%TO.C,U4*%
X131905000Y-70199500D03*
X132855000Y-70199500D03*
X133805000Y-70199500D03*
X133805000Y-67924500D03*
X131905000Y-67924500D03*
%TD*%
D12*
%TO.C,R4*%
X129032000Y-50866000D03*
X129032000Y-52766000D03*
%TD*%
%TO.C,C10*%
X116713000Y-45405000D03*
X116713000Y-47305000D03*
%TD*%
D24*
%TO.C,U7*%
X122997000Y-39629500D03*
X122047000Y-39629500D03*
X121097000Y-39629500D03*
X121097000Y-41904500D03*
X122997000Y-41904500D03*
%TD*%
D21*
%TO.C,C32*%
X124600000Y-55499000D03*
X123050000Y-55499000D03*
%TD*%
D24*
%TO.C,U5*%
X134046000Y-39502500D03*
X133096000Y-39502500D03*
X132146000Y-39502500D03*
X132146000Y-41777500D03*
X134046000Y-41777500D03*
%TD*%
D12*
%TO.C,C1*%
X136144000Y-58384400D03*
X136144000Y-60284400D03*
%TD*%
D22*
%TO.C,REF\u002A\u002A*%
X104698800Y-38400000D03*
%TD*%
D13*
%TO.C,C21*%
X122756000Y-70273500D03*
X122756000Y-68373500D03*
%TD*%
D17*
%TO.C,CC*%
X134252000Y-65313000D03*
X134252000Y-63763000D03*
%TD*%
D12*
%TO.C,C29*%
X113612000Y-68506000D03*
X113612000Y-70406000D03*
%TD*%
D17*
%TO.C,C13*%
X126619000Y-47130000D03*
X126619000Y-45580000D03*
%TD*%
D13*
%TO.C,C19*%
X138570000Y-70139000D03*
X138570000Y-68239000D03*
%TD*%
D25*
%TO.C,SW1*%
X147040600Y-46456600D03*
X147040600Y-45059600D03*
X150164800Y-45059600D03*
X150139400Y-46431200D03*
%TD*%
D17*
%TO.C,C11*%
X121539000Y-52591000D03*
X121539000Y-51041000D03*
%TD*%
D14*
%TO.C,R10*%
X116599000Y-64109000D03*
X116599000Y-65659000D03*
%TD*%
D15*
%TO.C,C15*%
X110170000Y-58039000D03*
X108270000Y-58039000D03*
%TD*%
D26*
%TO.C,J2*%
X102895400Y-58000000D03*
X102895400Y-62250000D03*
X102895400Y-53750000D03*
%TD*%
D12*
%TO.C,C12*%
X121869200Y-45405000D03*
X121869200Y-47305000D03*
%TD*%
D27*
%TO.C,U1*%
X141318000Y-48641000D03*
X141318000Y-47371000D03*
X141318000Y-46101000D03*
X141318000Y-44831000D03*
X134018000Y-44831000D03*
X134018000Y-46101000D03*
X134018000Y-47371000D03*
X134018000Y-48641000D03*
%TD*%
D28*
%TO.C,Y1*%
X136454000Y-65261000D03*
X138654000Y-65261000D03*
X138654000Y-63561000D03*
X136454000Y-63561000D03*
%TD*%
D14*
%TO.C,C4*%
X125108000Y-68427000D03*
X125108000Y-69977000D03*
%TD*%
D22*
%TO.C,REF\u002A\u002A*%
X148945600Y-38400000D03*
%TD*%
D29*
%TO.C,D1*%
X149833800Y-49733200D03*
D30*
X147243000Y-49733200D03*
%TD*%
D12*
%TO.C,C33*%
X134366000Y-51374000D03*
X134366000Y-53274000D03*
%TD*%
D22*
%TO.C,REF\u002A\u002A*%
X134264400Y-77520800D03*
%TD*%
D14*
%TO.C,C23*%
X136157000Y-68414000D03*
X136157000Y-69964000D03*
%TD*%
D31*
%TO.C,U3*%
X116583400Y-55345400D03*
D32*
X119183400Y-58045400D03*
D26*
X113383400Y-58045400D03*
D31*
X116583400Y-60745400D03*
%TD*%
D26*
%TO.C,J1*%
X150749000Y-58000000D03*
X150749000Y-53758200D03*
X150749000Y-62250000D03*
%TD*%
D23*
%TO.C,U6*%
X116157000Y-70461000D03*
X117107000Y-70461000D03*
X118057000Y-70461000D03*
X118057000Y-68186000D03*
X116157000Y-68186000D03*
%TD*%
D33*
%TO.C,J3*%
X139192000Y-41275000D03*
D34*
X139192000Y-40275000D03*
X140192000Y-40275000D03*
X140192000Y-41275000D03*
X141192000Y-41275000D03*
X141192000Y-40275000D03*
%TD*%
D13*
%TO.C,R2*%
X141097000Y-53274000D03*
X141097000Y-51374000D03*
%TD*%
D16*
%TO.C,R9*%
X138496000Y-55626000D03*
X140396000Y-55626000D03*
%TD*%
D15*
%TO.C,R15*%
X121346000Y-76504800D03*
X119446000Y-76504800D03*
%TD*%
D17*
%TO.C,C24*%
X130175000Y-41542000D03*
X130175000Y-39992000D03*
%TD*%
D14*
%TO.C,C36*%
X136652000Y-51549000D03*
X136652000Y-53099000D03*
%TD*%
D15*
%TO.C,C2*%
X140396000Y-58369200D03*
X138496000Y-58369200D03*
%TD*%
D35*
%TO.C,D3*%
X113167200Y-76200000D03*
D30*
X115707200Y-76200000D03*
%TD*%
D14*
%TO.C,C7*%
X127140000Y-68427000D03*
X127140000Y-69977000D03*
%TD*%
D13*
%TO.C,C30*%
X125222000Y-41717000D03*
X125222000Y-39817000D03*
%TD*%
D14*
%TO.C,C3*%
X120917000Y-64109000D03*
X120917000Y-65659000D03*
%TD*%
D36*
%TO.C,J4*%
X148056600Y-79347600D03*
D37*
X148031200Y-75543200D03*
D38*
X148031200Y-69543200D03*
%TD*%
M02*
