M48
; DRILL file {KiCad 8.0.0} date 2024-07-29T11:46:47+0200
; FORMAT={-:-/ absolute / inch / decimal}
; #@! TF.CreationDate,2024-07-29T11:46:47+02:00
; #@! TF.GenerationSoftware,Kicad,Pcbnew,8.0.0
; #@! TF.FileFunction,Plated,1,4,PTH
FMAT,2
INCH
; #@! TA.AperFunction,Plated,PTH,ViaDrill
T1C0.0118
; #@! TA.AperFunction,Plated,PTH,ViaDrill
T2C0.0157
; #@! TA.AperFunction,Plated,PTH,ComponentDrill
T3C0.0197
; #@! TA.AperFunction,Plated,PTH,ComponentDrill
T4C0.0394
; #@! TA.AperFunction,Plated,PTH,ComponentDrill
T5C0.0472
; #@! TA.AperFunction,Plated,PTH,ViaDrill
T6C0.0591
%
G90
G05
T1
X4.004Y-2.116
X4.25Y-1.702
X4.25Y-1.744
X4.25Y-1.866
X4.25Y-1.986
X4.252Y-1.822
X4.252Y-1.944
X4.254Y-2.058
X4.254Y-2.102
X4.356Y-1.704
X4.356Y-1.748
X4.3925Y-2.5245
X4.3925Y-2.5845
X4.4505Y-2.7865
X4.4545Y-2.6965
X4.4765Y-2.5245
X4.4765Y-2.5845
X4.4965Y-2.7885
X4.536Y-2.142
X4.536Y-2.166
X4.536Y-2.19
X4.536Y-2.214
X4.538Y-2.356
X4.538Y-2.38
X4.538Y-2.404
X4.538Y-2.428
X4.558Y-2.142
X4.558Y-2.166
X4.558Y-2.19
X4.558Y-2.214
X4.56Y-2.356
X4.56Y-2.38
X4.56Y-2.404
X4.56Y-2.428
X4.5645Y-2.7525
X4.5645Y-2.7965
X4.566Y-1.654
X4.568Y-1.544
X4.5685Y-2.6925
X4.5725Y-2.6305
X4.58Y-2.142
X4.58Y-2.166
X4.58Y-2.19
X4.58Y-2.214
X4.582Y-2.356
X4.582Y-2.38
X4.582Y-2.404
X4.582Y-2.428
X4.59Y-1.714
X4.594Y-2.01
X4.602Y-2.142
X4.602Y-2.166
X4.602Y-2.19
X4.602Y-2.214
X4.604Y-2.356
X4.604Y-2.38
X4.604Y-2.404
X4.604Y-2.428
X4.61Y-1.656
X4.6105Y-2.7505
X4.6105Y-2.7985
X4.612Y-1.544
X4.622Y-2.142
X4.622Y-2.166
X4.622Y-2.19
X4.622Y-2.214
X4.624Y-2.356
X4.624Y-2.38
X4.624Y-2.404
X4.624Y-2.428
X4.6305Y-2.5845
X4.642Y-2.142
X4.642Y-2.166
X4.642Y-2.19
X4.642Y-2.214
X4.644Y-1.604
X4.644Y-1.788
X4.644Y-2.356
X4.644Y-2.38
X4.644Y-2.404
X4.644Y-2.428
X4.6565Y-2.7985
X4.6985Y-2.7605
X4.71Y-2.128
X4.718Y-1.774
X4.7405Y-2.7985
X4.748Y-2.01
X4.768Y-1.536
X4.768Y-1.582
X4.792Y-2.184
X4.7945Y-2.6285
X4.804Y-1.608
X4.8085Y-2.7825
X4.8105Y-2.6745
X4.842Y-1.538
X4.842Y-1.58
X4.842Y-1.674
X4.85Y-1.992
X4.8545Y-2.6745
X4.8545Y-2.7845
X4.8865Y-2.6305
X4.89Y-1.992
X4.894Y-1.906
X4.9125Y-2.7665
X4.922Y-2.172
X4.9365Y-2.7665
X4.938Y-2.38
X4.944Y-1.794
X4.952Y-1.658
X4.98Y-1.606
X4.988Y-2.1626
X4.9925Y-2.7665
X5.01Y-1.552
X5.01Y-1.658
X5.0165Y-2.7665
X5.03Y-2.244
X5.03Y-2.348
X5.032Y-2.164
X5.0405Y-2.6185
X5.052Y-1.658
X5.054Y-2.982
X5.054Y-3.038
X5.058Y-1.552
X5.06Y-2.164
X5.0705Y-2.7765
X5.074Y-3.014
X5.0745Y-2.6745
X5.078Y-2.434
X5.096Y-2.982
X5.096Y-3.04
X5.1165Y-2.7765
X5.1205Y-2.6165
X5.125Y-1.54
X5.132Y-1.732
X5.134Y-2.344
X5.136Y-2.244
X5.1505Y-2.6885
X5.1925Y-2.6285
X5.1925Y-2.7385
X5.1925Y-2.7885
X5.202Y-1.578
X5.204Y-1.532
X5.222Y-2.226
X5.2285Y-2.7885
X5.2305Y-2.7385
X5.244Y-2.336
X5.244Y-2.38
X5.2685Y-2.7385
X5.2685Y-2.7885
X5.2725Y-2.5865
X5.2763Y-1.9677
X5.278Y-1.534
X5.278Y-1.578
X5.324Y-1.64
X5.33Y-1.766
X5.332Y-1.814
X5.332Y-1.864
X5.336Y-1.908
X5.34Y-2.024
X5.342Y-2.09
X5.3465Y-2.7685
X5.356Y-1.546
X5.366Y-2.166
X5.3725Y-2.7685
X5.396Y-1.546
X5.42Y-2.024
X5.422Y-2.09
X5.4305Y-2.7785
X5.4325Y-2.6725
X5.4585Y-2.6165
X5.4765Y-2.6725
X5.4765Y-2.7785
X5.488Y-1.916
X5.502Y-2.044
X5.5085Y-2.5685
X5.54Y-1.764
X5.806Y-2.118
X5.98Y-2.116
T2
X4.026Y-2.434
X4.026Y-2.476
X4.028Y-2.096
X4.028Y-2.138
X4.064Y-2.476
X4.066Y-2.096
X4.066Y-2.138
X4.066Y-2.434
X4.104Y-2.096
X4.104Y-2.136
X4.104Y-2.434
X4.104Y-2.476
X4.142Y-1.438
X4.142Y-1.606
X4.142Y-1.648
X4.142Y-1.688
X4.142Y-1.728
X4.142Y-1.77
X4.142Y-1.81
X4.142Y-1.85
X4.142Y-1.892
X4.142Y-1.932
X4.142Y-1.974
X4.142Y-2.014
X4.142Y-2.056
X4.142Y-2.096
X4.142Y-2.136
X4.142Y-2.434
X4.142Y-2.476
X4.142Y-2.516
X4.142Y-2.556
X4.142Y-2.598
X4.142Y-2.638
X4.142Y-2.678
X4.142Y-2.72
X4.142Y-2.76
X4.142Y-2.802
X4.142Y-2.842
X4.142Y-2.884
X4.18Y-1.564
X4.18Y-1.606
X4.18Y-1.648
X4.18Y-1.688
X4.18Y-1.728
X4.18Y-1.77
X4.18Y-1.81
X4.18Y-1.85
X4.18Y-1.892
X4.18Y-1.932
X4.18Y-1.974
X4.18Y-2.014
X4.18Y-2.056
X4.18Y-2.096
X4.18Y-2.136
X4.18Y-2.434
X4.18Y-2.476
X4.18Y-2.516
X4.18Y-2.556
X4.18Y-2.598
X4.18Y-2.638
X4.18Y-2.678
X4.18Y-2.72
X4.18Y-2.76
X4.18Y-2.802
X4.18Y-2.842
X4.18Y-2.884
X4.184Y-1.438
X4.184Y-1.476
X4.226Y-1.438
X4.226Y-1.476
X4.228Y-2.86
X4.228Y-2.898
X4.266Y-1.438
X4.266Y-1.476
X4.268Y-2.86
X4.268Y-2.898
X4.306Y-1.438
X4.306Y-1.476
X4.308Y-2.86
X4.308Y-2.898
X4.348Y-1.438
X4.348Y-1.476
X4.35Y-2.86
X4.35Y-2.898
X4.388Y-1.438
X4.388Y-1.476
X4.39Y-2.86
X4.39Y-2.898
X4.428Y-1.438
X4.428Y-1.476
X4.43Y-2.86
X4.43Y-2.898
X4.47Y-1.438
X4.47Y-1.476
X4.472Y-2.86
X4.472Y-2.898
X4.51Y-1.438
X4.51Y-1.476
X4.512Y-2.86
X4.512Y-2.898
X4.55Y-1.438
X4.55Y-1.476
X4.552Y-2.86
X4.552Y-2.898
X4.592Y-1.438
X4.592Y-1.476
X4.594Y-2.86
X4.594Y-2.898
X4.632Y-1.438
X4.632Y-1.476
X4.634Y-2.86
X4.634Y-2.898
X4.672Y-1.438
X4.672Y-1.476
X4.674Y-2.86
X4.674Y-2.898
X4.712Y-1.438
X4.712Y-1.476
X4.714Y-2.86
X4.714Y-2.898
X4.752Y-1.438
X4.752Y-1.476
X4.754Y-2.86
X4.754Y-2.898
X4.792Y-1.438
X4.792Y-1.476
X4.794Y-2.86
X4.794Y-2.898
X4.834Y-1.438
X4.834Y-1.476
X4.836Y-2.86
X4.836Y-2.898
X4.874Y-1.438
X4.874Y-1.476
X4.876Y-2.86
X4.876Y-2.898
X4.914Y-1.438
X4.914Y-1.476
X4.9146Y-2.98
X4.9146Y-3.044
X4.916Y-2.86
X4.916Y-2.898
X4.952Y-1.438
X4.952Y-1.476
X4.954Y-2.864
X4.954Y-2.902
X4.9626Y-2.982
X4.9626Y-3.042
X4.992Y-1.438
X4.992Y-1.476
X4.994Y-2.864
X4.994Y-2.902
X5.032Y-1.438
X5.032Y-1.476
X5.034Y-2.864
X5.034Y-2.902
X5.074Y-1.438
X5.074Y-1.476
X5.076Y-2.864
X5.076Y-2.902
X5.114Y-1.438
X5.114Y-1.476
X5.116Y-2.864
X5.116Y-2.902
X5.154Y-1.438
X5.154Y-1.476
X5.156Y-2.864
X5.156Y-2.902
X5.194Y-1.438
X5.194Y-1.476
X5.196Y-2.864
X5.234Y-1.438
X5.234Y-1.476
X5.236Y-2.864
X5.274Y-1.438
X5.274Y-1.476
X5.276Y-2.864
X5.316Y-1.438
X5.316Y-1.476
X5.318Y-2.864
X5.356Y-1.438
X5.356Y-1.476
X5.358Y-2.864
X5.396Y-1.438
X5.396Y-1.476
X5.398Y-2.864
X5.44Y-1.438
X5.44Y-1.476
X5.442Y-2.864
X5.48Y-1.438
X5.48Y-1.476
X5.482Y-2.864
X5.52Y-1.438
X5.52Y-1.476
X5.522Y-2.864
X5.562Y-1.438
X5.562Y-1.476
X5.564Y-2.864
X5.602Y-1.438
X5.602Y-1.476
X5.604Y-2.864
X5.642Y-1.438
X5.642Y-1.476
X5.642Y-1.52
X5.642Y-1.558
X5.642Y-1.596
X5.642Y-1.636
X5.642Y-1.674
X5.642Y-2.466
X5.642Y-2.506
X5.642Y-2.548
X5.642Y-2.588
X5.642Y-2.628
X5.642Y-2.67
X5.642Y-2.71
X5.642Y-2.832
X5.644Y-2.424
X5.644Y-2.752
X5.644Y-2.792
X5.682Y-2.424
X5.682Y-2.466
X5.682Y-2.506
X5.682Y-2.548
X5.682Y-2.588
X5.682Y-2.63
X5.682Y-2.67
X5.682Y-2.71
X5.682Y-2.752
X5.682Y-2.792
X5.684Y-1.438
X5.684Y-1.476
X5.684Y-1.52
X5.684Y-1.558
X5.684Y-1.596
X5.684Y-1.636
X5.684Y-1.674
X5.724Y-1.636
X5.724Y-1.674
X5.766Y-1.636
X5.766Y-1.674
X5.802Y-2.424
X5.802Y-2.466
X5.808Y-1.636
X5.808Y-1.674
X5.842Y-2.424
X5.842Y-2.466
X5.848Y-1.636
X5.848Y-1.674
X5.88Y-2.466
X5.882Y-2.424
X5.89Y-1.636
X5.89Y-1.676
X5.89Y-1.718
X5.89Y-1.76
X5.89Y-1.8
X5.89Y-1.842
X5.89Y-1.882
X5.89Y-2.03
X5.89Y-2.072
X5.89Y-2.112
X5.89Y-2.154
X5.92Y-2.424
X5.92Y-2.466
X5.928Y-1.636
X5.928Y-1.676
X5.928Y-1.718
X5.928Y-1.76
X5.928Y-1.8
X5.928Y-1.842
X5.928Y-1.882
X5.928Y-2.03
X5.928Y-2.072
X5.928Y-2.112
X5.928Y-2.154
X5.96Y-2.424
X5.96Y-2.466
X5.972Y-1.844
X5.972Y-1.884
X5.972Y-1.948
X5.972Y-1.988
X5.972Y-2.03
T3
X5.48Y-1.5856
X5.48Y-1.625
X5.5194Y-1.5856
X5.5194Y-1.625
X5.5587Y-1.5856
X5.5587Y-1.625
T5
X4.4554Y-3.0
X4.5554Y-3.0
X5.797Y-1.958
X5.899Y-1.958
T6
X5.082Y-2.298
T4
G00X5.8674Y-2.7379
M15
G01X5.7886Y-2.7379
M16
G05
G00X5.8536Y-2.9741
M15
G01X5.8024Y-2.9741
M16
G05
M30
