%TF.GenerationSoftware,KiCad,Pcbnew,7.0.2*%
%TF.CreationDate,2023-10-26T15:36:34+02:00*%
%TF.ProjectId,Gnerator_poprawiony,476e6572-6174-46f7-925f-706f70726177,rev?*%
%TF.SameCoordinates,Original*%
%TF.FileFunction,Copper,L2,Inr*%
%TF.FilePolarity,Positive*%
%FSLAX46Y46*%
G04 Gerber Fmt 4.6, Leading zero omitted, Abs format (unit mm)*
G04 Created by KiCad (PCBNEW 7.0.2) date 2023-10-26 15:36:34*
%MOMM*%
%LPD*%
G01*
G04 APERTURE LIST*
%TA.AperFunction,ComponentPad*%
%ADD10R,1.800000X1.800000*%
%TD*%
%TA.AperFunction,ComponentPad*%
%ADD11O,2.000000X2.000000*%
%TD*%
%TA.AperFunction,ComponentPad*%
%ADD12R,0.850000X0.850000*%
%TD*%
%TA.AperFunction,ComponentPad*%
%ADD13O,0.850000X0.850000*%
%TD*%
%TA.AperFunction,ComponentPad*%
%ADD14R,2.000000X2.000000*%
%TD*%
%TA.AperFunction,ComponentPad*%
%ADD15O,3.300000X2.000000*%
%TD*%
%TA.AperFunction,ComponentPad*%
%ADD16R,4.000000X2.000000*%
%TD*%
%TA.AperFunction,ViaPad*%
%ADD17C,0.450000*%
%TD*%
%TA.AperFunction,ViaPad*%
%ADD18C,0.800000*%
%TD*%
%TA.AperFunction,ViaPad*%
%ADD19C,2.000000*%
%TD*%
G04 APERTURE END LIST*
D10*
%TO.N,GND*%
%TO.C,D1*%
X149833800Y-49733200D03*
D11*
%TO.N,Net-(D1-A)*%
X147243000Y-49733200D03*
%TD*%
D12*
%TO.N,Vdd2*%
%TO.C,J3*%
X139192000Y-41275000D03*
D13*
%TO.N,Net-(J3-Pin_2)*%
X139192000Y-40275000D03*
%TO.N,GND*%
X140192000Y-40275000D03*
%TO.N,Net-(J3-Pin_4)*%
X140192000Y-41275000D03*
%TO.N,Net-(J3-Pin_5)*%
X141192000Y-41275000D03*
%TO.N,Net-(J3-Pin_6)*%
X141192000Y-40275000D03*
%TD*%
D14*
%TO.N,GND*%
%TO.C,D3*%
X113167200Y-76200000D03*
D11*
%TO.N,Net-(D3-A)*%
X115707200Y-76200000D03*
%TD*%
D15*
%TO.N,GND*%
%TO.C,J4*%
X148031200Y-75543200D03*
D16*
%TO.N,+5V*%
X148031200Y-69543200D03*
%TD*%
D17*
%TO.N,GND*%
X117449600Y-61671200D03*
D18*
X111506000Y-72644000D03*
X106172000Y-70104000D03*
X107391200Y-72644000D03*
X117703600Y-73609200D03*
D17*
X110642400Y-43281600D03*
D18*
X140208000Y-37490400D03*
X136093200Y-72745600D03*
X105206800Y-69088000D03*
X106172000Y-52222400D03*
X105206800Y-49072800D03*
X151384000Y-61569600D03*
X125780800Y-37490400D03*
D17*
X138646200Y-66458800D03*
D18*
X106172000Y-42875200D03*
X109423200Y-73609200D03*
X105206800Y-61823600D03*
D17*
X115214400Y-55626000D03*
X117957600Y-60452000D03*
X132855000Y-69557600D03*
X116941600Y-59842400D03*
D18*
X129946400Y-72745600D03*
X126847600Y-73710800D03*
X106172000Y-44958000D03*
D17*
X123304600Y-67932000D03*
D18*
X142290800Y-37490400D03*
X147523200Y-42519600D03*
X144322800Y-63652400D03*
D17*
X120409000Y-71081600D03*
X115824000Y-59842400D03*
D18*
X151688800Y-47853600D03*
D17*
X117906800Y-55016400D03*
D18*
X113588800Y-72644000D03*
D17*
X117398800Y-55626000D03*
X115824000Y-60452000D03*
X107950000Y-50444400D03*
X114211400Y-70827600D03*
D18*
X144373600Y-41554400D03*
D17*
X119837200Y-45059600D03*
X115773200Y-54406800D03*
D18*
X143306800Y-63652400D03*
X143306800Y-42519600D03*
D17*
X124117400Y-66814400D03*
D18*
X137058400Y-37490400D03*
X106172000Y-71170800D03*
X105206800Y-73253600D03*
X131927600Y-37490400D03*
D17*
X128029000Y-66509600D03*
X117449600Y-61061600D03*
X128320800Y-42113200D03*
D18*
X124815600Y-37490400D03*
X150571200Y-44704000D03*
D17*
X117957600Y-59842400D03*
X122021600Y-40843200D03*
D18*
X144322800Y-62636400D03*
D17*
X121716800Y-55473600D03*
D18*
X114554000Y-36525200D03*
X104241600Y-54254400D03*
X149606000Y-46786800D03*
D17*
X147472400Y-53797200D03*
D18*
X140208000Y-36525200D03*
D17*
X116332000Y-54406800D03*
X139103400Y-67881200D03*
D18*
X149606000Y-44704000D03*
X141325600Y-72745600D03*
X118719600Y-72644000D03*
X138226800Y-72745600D03*
D19*
X129082800Y-58369200D03*
D18*
X115570000Y-36525200D03*
X105206800Y-36525200D03*
X136042400Y-36525200D03*
X124866400Y-73609200D03*
D17*
X115265200Y-61671200D03*
D18*
X105206800Y-42875200D03*
X105206800Y-41859200D03*
X127812800Y-36525200D03*
X106172000Y-43891200D03*
D17*
X120599200Y-51054000D03*
D18*
X103276400Y-54305200D03*
X144373600Y-38608000D03*
X144322800Y-61569600D03*
X121716800Y-37490400D03*
X106172000Y-39725600D03*
X123799600Y-37490400D03*
X148539200Y-42519600D03*
X119684800Y-36525200D03*
D17*
X137718800Y-53086000D03*
D18*
X149606000Y-47802800D03*
X110490000Y-72644000D03*
X129946400Y-73710800D03*
D17*
X115265200Y-59842400D03*
D18*
X150368000Y-61569600D03*
X106172000Y-67005200D03*
X105206800Y-70104000D03*
X149402800Y-61569600D03*
X139242800Y-72745600D03*
X126847600Y-72745600D03*
X144373600Y-36525200D03*
D17*
X101701600Y-53746400D03*
D18*
X117703600Y-72644000D03*
X143306800Y-67818000D03*
D17*
X135801400Y-70319600D03*
D18*
X119735600Y-72644000D03*
X105206800Y-67005200D03*
X149606000Y-43637200D03*
D17*
X116382800Y-60452000D03*
D18*
X105206800Y-63906400D03*
X117652800Y-36525200D03*
X143306800Y-36525200D03*
D17*
X116941600Y-61671200D03*
D18*
X144322800Y-68834000D03*
X150571200Y-42570400D03*
D17*
X117449600Y-59842400D03*
D18*
X112522000Y-73609200D03*
D17*
X116890800Y-54406800D03*
D18*
X103225600Y-62890400D03*
X122834400Y-73609200D03*
D17*
X133921800Y-65696800D03*
D18*
X105206800Y-62890400D03*
D17*
X136461800Y-70319600D03*
D18*
X150571200Y-43637200D03*
X105206800Y-51155600D03*
X106172000Y-72186800D03*
X148386800Y-61569600D03*
X109372400Y-36525200D03*
D17*
X126695200Y-54931300D03*
D18*
X145389600Y-41554400D03*
X151688800Y-49479200D03*
X151688800Y-51562000D03*
X149352000Y-62636400D03*
X111455200Y-36525200D03*
X110439200Y-37490400D03*
X142290800Y-36525200D03*
D17*
X116890800Y-55626000D03*
D18*
X116636800Y-37490400D03*
D17*
X132804200Y-70827600D03*
X151892000Y-53746400D03*
X127254000Y-42113200D03*
D18*
X133959600Y-36525200D03*
X106172000Y-46990000D03*
X108356400Y-36525200D03*
X123850400Y-72644000D03*
X116636800Y-36525200D03*
D17*
X137985800Y-67881200D03*
D18*
X111455200Y-37490400D03*
X102260400Y-62890400D03*
D17*
X115773200Y-55626000D03*
X117957600Y-61061600D03*
D18*
X149606000Y-51562000D03*
D17*
X130061000Y-66458800D03*
X115824000Y-61671200D03*
D18*
X109372400Y-37490400D03*
X108407200Y-73609200D03*
X138176000Y-37490400D03*
X126796800Y-37490400D03*
X135026400Y-36525200D03*
X146456400Y-41554400D03*
D17*
X135686800Y-53086000D03*
D18*
X143357600Y-69900800D03*
X105206800Y-40792400D03*
X105206800Y-68021200D03*
X122783600Y-36525200D03*
D17*
X115265200Y-60452000D03*
D18*
X102311200Y-54305200D03*
X128930400Y-72745600D03*
X143306800Y-64719200D03*
X104241600Y-62890400D03*
X137109200Y-72745600D03*
X114554000Y-37490400D03*
X151688800Y-50495200D03*
X136042400Y-37490400D03*
X130962400Y-72745600D03*
X144322800Y-70916800D03*
X106172000Y-65989200D03*
X130962400Y-73710800D03*
X148539200Y-41554400D03*
X151688800Y-46837600D03*
X117652800Y-37490400D03*
D17*
X117449600Y-60452000D03*
X116382800Y-61671200D03*
D18*
X111506000Y-73609200D03*
X105206800Y-48056800D03*
X143357600Y-70916800D03*
D17*
X113043000Y-70776800D03*
X110642400Y-44399200D03*
X117906800Y-54406800D03*
D18*
X112471200Y-36525200D03*
X138176000Y-36525200D03*
D17*
X121780600Y-66763600D03*
D18*
X105206800Y-50139600D03*
X105206800Y-65989200D03*
X110490000Y-73609200D03*
D17*
X140716000Y-44805600D03*
D18*
X118668800Y-36525200D03*
D17*
X115265200Y-61061600D03*
D18*
X107340400Y-37490400D03*
D17*
X117957600Y-61671200D03*
D18*
X105206800Y-54254400D03*
X143306800Y-39573200D03*
X114604800Y-72644000D03*
X106273600Y-36525200D03*
X120700800Y-37490400D03*
X119735600Y-73609200D03*
X106172000Y-48056800D03*
X113538000Y-37490400D03*
X149606000Y-45720000D03*
X127812800Y-37490400D03*
X125831600Y-72745600D03*
X144322800Y-66802000D03*
X114604800Y-73609200D03*
X105206800Y-43891200D03*
X143357600Y-61569600D03*
X143306800Y-65735200D03*
D17*
X116586000Y-43535600D03*
D18*
X121716800Y-36525200D03*
D17*
X115773200Y-56235600D03*
D18*
X144322800Y-69900800D03*
X132994400Y-72745600D03*
D17*
X108051600Y-52273200D03*
D18*
X102311200Y-53238400D03*
X150571200Y-45720000D03*
D17*
X115214400Y-56235600D03*
X117957600Y-45415200D03*
D18*
X150368000Y-62636400D03*
X113538000Y-36525200D03*
X106172000Y-73253600D03*
X112522000Y-72644000D03*
X109423200Y-72644000D03*
X150571200Y-54711600D03*
D17*
X117398800Y-56235600D03*
D18*
X150571200Y-53644800D03*
D17*
X122187000Y-67932000D03*
D18*
X121767600Y-73609200D03*
X104241600Y-53238400D03*
X108407200Y-72644000D03*
X106273600Y-37490400D03*
X143306800Y-41554400D03*
X105206800Y-44958000D03*
D17*
X116382800Y-61061600D03*
D18*
X107391200Y-73609200D03*
X123799600Y-36525200D03*
X106172000Y-62890400D03*
X134010400Y-72745600D03*
D17*
X108000800Y-49377600D03*
D18*
X150571200Y-41554400D03*
X128879600Y-37490400D03*
X143306800Y-38608000D03*
X104241600Y-61823600D03*
X105206800Y-46990000D03*
D17*
X117107000Y-71081600D03*
X116382800Y-59842400D03*
D18*
X143306800Y-40538400D03*
X121767600Y-72644000D03*
D17*
X111569800Y-64122000D03*
D18*
X105206800Y-64922400D03*
X144322800Y-65735200D03*
D17*
X117398800Y-55016400D03*
X115976400Y-42011600D03*
X130454400Y-56997600D03*
X127762000Y-59639200D03*
X115824000Y-61061600D03*
X115773200Y-55016400D03*
X130403600Y-59537600D03*
D18*
X124815600Y-36525200D03*
X144322800Y-67818000D03*
X106172000Y-50139600D03*
D17*
X116332000Y-55626000D03*
D18*
X144373600Y-42519600D03*
X108356400Y-37490400D03*
X145389600Y-42519600D03*
D17*
X116941600Y-61061600D03*
D18*
X128930400Y-73710800D03*
X141274800Y-37490400D03*
X115620800Y-73609200D03*
D17*
X117398800Y-54406800D03*
D18*
X106172000Y-64922400D03*
X107340400Y-36525200D03*
X146456400Y-42519600D03*
X135026400Y-37490400D03*
X142341600Y-72745600D03*
X106172000Y-41859200D03*
X144322800Y-64719200D03*
D17*
X126492000Y-40792400D03*
D18*
X144373600Y-37490400D03*
X119684800Y-37490400D03*
X129895600Y-37490400D03*
X118668800Y-37490400D03*
D17*
X116890800Y-56235600D03*
D18*
X103276400Y-61823600D03*
D17*
X119342200Y-70116400D03*
X115214400Y-55016400D03*
X129959400Y-70522800D03*
D18*
X112471200Y-37490400D03*
X122834400Y-72644000D03*
X115570000Y-37490400D03*
X147523200Y-41554400D03*
X113588800Y-73609200D03*
X105206800Y-72186800D03*
X127863600Y-72745600D03*
X110439200Y-36525200D03*
X137058400Y-36525200D03*
X105206800Y-45974000D03*
X149606000Y-54711600D03*
X147370800Y-61569600D03*
X115620800Y-72644000D03*
D17*
X127762000Y-56997600D03*
D18*
X141274800Y-36525200D03*
X143306800Y-71932800D03*
X129895600Y-36525200D03*
X131978400Y-72745600D03*
X125780800Y-36525200D03*
X140258800Y-72745600D03*
X151384000Y-62636400D03*
D17*
X117094000Y-42062400D03*
D18*
X144373600Y-40538400D03*
X123850400Y-73609200D03*
X143306800Y-68834000D03*
X150571200Y-52628800D03*
D17*
X116941600Y-60452000D03*
D18*
X128879600Y-36525200D03*
D17*
X115214400Y-54406800D03*
X116332000Y-56235600D03*
D18*
X106172000Y-68021200D03*
X116687600Y-73609200D03*
X120751600Y-73609200D03*
X148386800Y-62636400D03*
X149606000Y-53644800D03*
X120751600Y-72644000D03*
D17*
X128791000Y-70522800D03*
D18*
X149606000Y-52628800D03*
X144373600Y-39573200D03*
X105206800Y-71170800D03*
X102260400Y-61823600D03*
X124866400Y-72644000D03*
X132943600Y-36525200D03*
X130911600Y-37490400D03*
X150571200Y-51562000D03*
D17*
X116890800Y-55016400D03*
D18*
X150571200Y-46786800D03*
D17*
X130175000Y-39116000D03*
D18*
X118719600Y-73609200D03*
D17*
X116332000Y-55016400D03*
D18*
X143306800Y-66751200D03*
X105206800Y-52222400D03*
D17*
X139916200Y-65239600D03*
X127419400Y-70268800D03*
D18*
X122783600Y-37490400D03*
D17*
X125387400Y-70268800D03*
D18*
X127863600Y-73710800D03*
X106172000Y-63906400D03*
D17*
X113703400Y-64122000D03*
D18*
X106172000Y-45974000D03*
X139192000Y-37490400D03*
X116687600Y-72644000D03*
X133959600Y-37490400D03*
X135077200Y-72745600D03*
X143306800Y-37490400D03*
X150571200Y-47802800D03*
X126796800Y-36525200D03*
X130911600Y-36525200D03*
X143306800Y-62636400D03*
X132943600Y-37490400D03*
X106172000Y-69088000D03*
D17*
X117107000Y-69862400D03*
D18*
X125831600Y-73710800D03*
D17*
X108051600Y-53390800D03*
D18*
X147370800Y-62636400D03*
D17*
X126809800Y-70268800D03*
D18*
X106172000Y-53238400D03*
D17*
X137058400Y-39268400D03*
D18*
X139192000Y-36525200D03*
X105206800Y-53238400D03*
X106172000Y-40792400D03*
X103276400Y-53238400D03*
D17*
X117906800Y-55626000D03*
D18*
X120700800Y-36525200D03*
X149606000Y-41554400D03*
D17*
X117957600Y-40741600D03*
D18*
X131927600Y-36525200D03*
X149606000Y-42570400D03*
D17*
X136042400Y-39268400D03*
D18*
X106172000Y-61823600D03*
D17*
X124777800Y-70268800D03*
D18*
X106172000Y-51155600D03*
X106172000Y-54254400D03*
D17*
X117906800Y-56235600D03*
D18*
X106172000Y-49072800D03*
D17*
%TO.N,Net-(C11-Pad1)*%
X125425200Y-60452000D03*
X119634000Y-54051200D03*
%TO.N,Net-(U2-CPout)*%
X124307600Y-48412400D03*
X127812800Y-54965600D03*
%TO.N,Net-(U2-VTUNE)*%
X128981200Y-61823600D03*
X125577600Y-45567600D03*
%TO.N,5V*%
X139103400Y-70573600D03*
X133820200Y-70827600D03*
X137935000Y-70573600D03*
X122986800Y-39065200D03*
X121107200Y-39014400D03*
X107950000Y-43230800D03*
D18*
X124830800Y-75692000D03*
D17*
X131889800Y-69557600D03*
D18*
X126050000Y-77266800D03*
D17*
X107950000Y-47396400D03*
X115938600Y-71030800D03*
X123304600Y-70726000D03*
X132130800Y-40081200D03*
X128473200Y-39420800D03*
X134061200Y-40081200D03*
X116027200Y-39217600D03*
X117144800Y-39217600D03*
X132181600Y-38912800D03*
X107950000Y-44297600D03*
X134061200Y-38963600D03*
X122986800Y-40132000D03*
X121107200Y-40182800D03*
X118275400Y-71081600D03*
X127254000Y-39420800D03*
X133820200Y-69557600D03*
D18*
X126050000Y-75742800D03*
D17*
X131889800Y-70827600D03*
X108000800Y-46278800D03*
D18*
X124830800Y-77317600D03*
D17*
X115938600Y-69913200D03*
X122136200Y-70675200D03*
%TO.N,Vdd1*%
X130823000Y-68287600D03*
X128892600Y-67932000D03*
X131889800Y-66763600D03*
%TO.N,Vdd2*%
X135229600Y-41656000D03*
X133197600Y-59334400D03*
X124206000Y-50596800D03*
X123190000Y-50596800D03*
X137668000Y-51409600D03*
X132638800Y-56540400D03*
X139750800Y-51917600D03*
X135534400Y-48463200D03*
X134018000Y-49979600D03*
X135636000Y-51409600D03*
X130352800Y-43992800D03*
%TO.N,Vdd3*%
X113144600Y-68490800D03*
X113703400Y-65646000D03*
X117615000Y-65646000D03*
X111569800Y-65646000D03*
X116040200Y-68389200D03*
X116141800Y-66814400D03*
%TO.N,Vdd4*%
X125018800Y-55168800D03*
X125780800Y-42113200D03*
X122986800Y-42519600D03*
X128524000Y-54965600D03*
X116687600Y-51054000D03*
%TO.N,+5V*%
X129438400Y-75742800D03*
X128371600Y-75742800D03*
X128879600Y-76555600D03*
X128371600Y-77165200D03*
X129438400Y-77216000D03*
%TO.N,Net-(J3-Pin_2)*%
X135382000Y-44856400D03*
%TO.N,Net-(J3-Pin_4)*%
X135432800Y-46075600D03*
%TO.N,Net-(J3-Pin_5)*%
X135432800Y-47345600D03*
%TO.N,Net-(J3-Pin_6)*%
X139395200Y-48666400D03*
%TO.N,Net-(U2-PDB_RF)*%
X133197600Y-60452000D03*
X136296400Y-55016400D03*
%TD*%
%TA.AperFunction,Conductor*%
%TO.N,GND*%
G36*
X148948887Y-35001872D02*
G01*
X149078917Y-35008686D01*
X149297759Y-35020977D01*
X149310146Y-35022302D01*
X149472008Y-35047939D01*
X149656928Y-35079359D01*
X149668226Y-35081827D01*
X149832957Y-35125966D01*
X150007674Y-35176301D01*
X150017737Y-35179676D01*
X150178362Y-35241334D01*
X150181192Y-35242463D01*
X150345786Y-35310641D01*
X150354607Y-35314707D01*
X150509023Y-35393386D01*
X150512649Y-35395311D01*
X150667374Y-35480824D01*
X150674928Y-35485357D01*
X150820819Y-35580100D01*
X150825039Y-35582965D01*
X150968636Y-35684852D01*
X150974917Y-35689616D01*
X151110413Y-35799339D01*
X151115004Y-35803245D01*
X151246050Y-35920354D01*
X151251104Y-35925133D01*
X151374465Y-36048494D01*
X151379244Y-36053548D01*
X151496353Y-36184594D01*
X151500259Y-36189185D01*
X151609982Y-36324681D01*
X151614746Y-36330962D01*
X151716633Y-36474559D01*
X151719498Y-36478779D01*
X151814241Y-36624670D01*
X151818774Y-36632224D01*
X151904271Y-36786919D01*
X151906228Y-36790605D01*
X151984886Y-36944981D01*
X151988962Y-36953823D01*
X152057098Y-37118315D01*
X152058301Y-37121331D01*
X152119915Y-37281843D01*
X152123305Y-37291952D01*
X152173633Y-37466643D01*
X152217771Y-37631369D01*
X152220240Y-37642676D01*
X152251671Y-37827663D01*
X152277292Y-37989426D01*
X152278623Y-38001865D01*
X152290917Y-38220760D01*
X152297730Y-38350756D01*
X152297900Y-38357245D01*
X152297900Y-38405149D01*
X152297967Y-38405769D01*
X152321529Y-56619440D01*
X152301931Y-56686504D01*
X152249186Y-56732328D01*
X152197529Y-56743600D01*
X138074400Y-56743600D01*
X137601669Y-57068603D01*
X137293337Y-57280581D01*
X137226941Y-57302340D01*
X137223087Y-57302400D01*
X133035980Y-57302400D01*
X132968941Y-57282715D01*
X132923186Y-57229911D01*
X132913242Y-57160753D01*
X132942267Y-57097197D01*
X132978355Y-57068603D01*
X132996734Y-57058957D01*
X133110432Y-56958230D01*
X133196721Y-56833219D01*
X133250585Y-56691191D01*
X133268894Y-56540400D01*
X133250585Y-56389609D01*
X133196721Y-56247581D01*
X133196721Y-56247580D01*
X133110431Y-56122568D01*
X132996736Y-56021844D01*
X132862232Y-55951251D01*
X132762990Y-55926790D01*
X132714749Y-55914900D01*
X132562851Y-55914900D01*
X132526499Y-55923859D01*
X132415367Y-55951251D01*
X132280863Y-56021844D01*
X132167168Y-56122568D01*
X132080878Y-56247580D01*
X132027015Y-56389608D01*
X132008705Y-56540400D01*
X132027015Y-56691191D01*
X132080878Y-56833219D01*
X132167168Y-56958231D01*
X132280864Y-57058956D01*
X132299245Y-57068603D01*
X132349458Y-57117187D01*
X132365433Y-57185206D01*
X132342098Y-57251064D01*
X132286863Y-57293852D01*
X132241620Y-57302400D01*
X132181600Y-57302400D01*
X132181599Y-57657999D01*
X132181600Y-57658000D01*
X137464800Y-57658000D01*
X137464801Y-57658000D01*
X138142277Y-57125697D01*
X138207153Y-57099756D01*
X138218887Y-57099200D01*
X152198310Y-57099200D01*
X152265349Y-57118885D01*
X152311104Y-57171689D01*
X152322310Y-57223040D01*
X152325078Y-59362640D01*
X152305480Y-59429704D01*
X152252735Y-59475528D01*
X152201078Y-59486800D01*
X137617200Y-59486800D01*
X137617200Y-60452000D01*
X139700000Y-62331600D01*
X140236400Y-62331600D01*
X140303439Y-62351285D01*
X140349194Y-62404089D01*
X140360400Y-62455600D01*
X140360400Y-66932000D01*
X140340715Y-66999039D01*
X140287911Y-67044794D01*
X140236400Y-67056000D01*
X135404400Y-67056000D01*
X135337361Y-67036315D01*
X135291606Y-66983511D01*
X135280400Y-66932000D01*
X135280400Y-61976000D01*
X134642400Y-61976000D01*
X134575361Y-61956315D01*
X134529606Y-61903511D01*
X134518400Y-61852000D01*
X134518400Y-58420000D01*
X132130800Y-58420000D01*
X132130800Y-58724800D01*
X132622075Y-58724800D01*
X132689114Y-58744485D01*
X132734869Y-58797289D01*
X132744813Y-58866447D01*
X132724125Y-58919240D01*
X132639678Y-59041580D01*
X132585815Y-59183608D01*
X132567505Y-59334400D01*
X132585815Y-59485191D01*
X132639678Y-59627219D01*
X132725967Y-59752228D01*
X132725968Y-59752230D01*
X132780324Y-59800385D01*
X132817450Y-59859572D01*
X132816684Y-59929437D01*
X132780325Y-59986014D01*
X132725967Y-60034171D01*
X132639678Y-60159180D01*
X132585815Y-60301208D01*
X132567505Y-60451999D01*
X132585815Y-60602791D01*
X132639678Y-60744819D01*
X132725968Y-60869831D01*
X132839663Y-60970555D01*
X132839664Y-60970555D01*
X132839666Y-60970557D01*
X132974166Y-61041148D01*
X133121651Y-61077500D01*
X133121652Y-61077500D01*
X133273548Y-61077500D01*
X133273549Y-61077500D01*
X133421034Y-61041148D01*
X133555534Y-60970557D01*
X133669232Y-60869830D01*
X133755521Y-60744819D01*
X133809385Y-60602791D01*
X133827694Y-60452000D01*
X133809385Y-60301209D01*
X133755521Y-60159181D01*
X133755521Y-60159180D01*
X133669233Y-60034171D01*
X133669230Y-60034168D01*
X133614874Y-59986013D01*
X133577749Y-59926826D01*
X133578517Y-59856961D01*
X133614874Y-59800386D01*
X133669232Y-59752230D01*
X133755521Y-59627219D01*
X133809385Y-59485191D01*
X133827694Y-59334400D01*
X133809385Y-59183609D01*
X133755521Y-59041581D01*
X133755521Y-59041580D01*
X133671075Y-58919240D01*
X133649192Y-58852886D01*
X133666657Y-58785234D01*
X133717925Y-58737764D01*
X133773125Y-58724800D01*
X134038800Y-58724800D01*
X134105839Y-58744485D01*
X134151594Y-58797289D01*
X134162799Y-58848800D01*
X134162800Y-62331600D01*
X134851600Y-62331600D01*
X134918639Y-62351285D01*
X134964394Y-62404089D01*
X134975600Y-62455600D01*
X134975600Y-67360800D01*
X140766800Y-67360800D01*
X140766800Y-67056000D01*
X140766758Y-67054149D01*
X140614400Y-61976000D01*
X139850840Y-61976000D01*
X139783801Y-61956315D01*
X139765774Y-61942221D01*
X138062534Y-60336309D01*
X138027261Y-60275997D01*
X138023600Y-60246088D01*
X138023600Y-59966400D01*
X138043285Y-59899361D01*
X138096089Y-59853606D01*
X138147600Y-59842400D01*
X152201859Y-59842400D01*
X152268898Y-59862085D01*
X152314653Y-59914889D01*
X152325859Y-59966240D01*
X152348695Y-77619075D01*
X152348525Y-77625724D01*
X152341717Y-77755638D01*
X152329424Y-77974530D01*
X152328092Y-77986975D01*
X152302471Y-78148736D01*
X152271041Y-78333717D01*
X152268569Y-78345034D01*
X152224433Y-78509756D01*
X152174104Y-78684453D01*
X152170718Y-78694548D01*
X152109101Y-78855067D01*
X152107898Y-78858083D01*
X152039762Y-79022575D01*
X152035686Y-79031417D01*
X151957028Y-79185793D01*
X151955071Y-79189479D01*
X151869574Y-79344174D01*
X151865041Y-79351728D01*
X151770298Y-79497619D01*
X151767433Y-79501839D01*
X151665546Y-79645436D01*
X151660782Y-79651717D01*
X151551059Y-79787213D01*
X151547153Y-79791804D01*
X151430044Y-79922850D01*
X151425265Y-79927904D01*
X151301904Y-80051265D01*
X151296850Y-80056044D01*
X151165804Y-80173153D01*
X151161213Y-80177059D01*
X151025717Y-80286782D01*
X151019436Y-80291546D01*
X150875839Y-80393433D01*
X150871619Y-80396298D01*
X150725728Y-80491041D01*
X150718174Y-80495574D01*
X150563479Y-80581071D01*
X150559793Y-80583028D01*
X150405417Y-80661686D01*
X150396575Y-80665762D01*
X150232083Y-80733898D01*
X150229067Y-80735101D01*
X150068555Y-80796715D01*
X150058446Y-80800105D01*
X149883756Y-80850433D01*
X149719029Y-80894571D01*
X149707722Y-80897040D01*
X149522736Y-80928471D01*
X149360972Y-80954092D01*
X149348533Y-80955423D01*
X149129639Y-80967717D01*
X148999643Y-80974530D01*
X148993154Y-80974700D01*
X104651246Y-80974700D01*
X104644756Y-80974530D01*
X104514760Y-80967717D01*
X104295868Y-80955424D01*
X104283423Y-80954092D01*
X104121663Y-80928471D01*
X103936681Y-80897041D01*
X103925364Y-80894569D01*
X103760643Y-80850433D01*
X103585945Y-80800104D01*
X103575850Y-80796718D01*
X103415331Y-80735101D01*
X103412329Y-80733903D01*
X103370403Y-80716537D01*
X103247823Y-80665762D01*
X103238981Y-80661686D01*
X103084605Y-80583028D01*
X103080919Y-80581071D01*
X102926224Y-80495574D01*
X102918670Y-80491041D01*
X102772779Y-80396298D01*
X102768559Y-80393433D01*
X102624962Y-80291546D01*
X102618681Y-80286782D01*
X102483185Y-80177059D01*
X102478594Y-80173153D01*
X102347548Y-80056044D01*
X102342494Y-80051265D01*
X102219133Y-79927904D01*
X102214354Y-79922850D01*
X102097245Y-79791804D01*
X102093339Y-79787213D01*
X101983616Y-79651717D01*
X101978852Y-79645436D01*
X101876965Y-79501839D01*
X101874100Y-79497619D01*
X101779357Y-79351728D01*
X101776880Y-79347600D01*
X147001017Y-79347600D01*
X147021299Y-79553532D01*
X147021300Y-79553534D01*
X147081368Y-79751554D01*
X147178915Y-79934050D01*
X147230208Y-79996552D01*
X147310189Y-80094010D01*
X147334114Y-80113644D01*
X147470150Y-80225285D01*
X147652646Y-80322832D01*
X147850666Y-80382900D01*
X148004992Y-80398100D01*
X148008042Y-80398100D01*
X148105158Y-80398100D01*
X148108208Y-80398100D01*
X148262534Y-80382900D01*
X148460554Y-80322832D01*
X148643050Y-80225285D01*
X148803010Y-80094010D01*
X148934285Y-79934050D01*
X149031832Y-79751554D01*
X149091900Y-79553534D01*
X149112183Y-79347600D01*
X149091900Y-79141666D01*
X149031832Y-78943646D01*
X148934285Y-78761150D01*
X148862791Y-78674034D01*
X148803010Y-78601189D01*
X148669338Y-78491489D01*
X148643050Y-78469915D01*
X148460554Y-78372368D01*
X148333154Y-78333722D01*
X148262532Y-78312299D01*
X148111241Y-78297398D01*
X148111226Y-78297397D01*
X148108208Y-78297100D01*
X148004992Y-78297100D01*
X148001974Y-78297397D01*
X148001958Y-78297398D01*
X147850667Y-78312299D01*
X147652643Y-78372369D01*
X147470151Y-78469914D01*
X147310189Y-78601189D01*
X147178914Y-78761151D01*
X147081369Y-78943643D01*
X147021299Y-79141667D01*
X147001017Y-79347600D01*
X101776880Y-79347600D01*
X101774824Y-79344174D01*
X101689311Y-79189449D01*
X101687386Y-79185823D01*
X101608707Y-79031407D01*
X101604641Y-79022586D01*
X101536463Y-78857992D01*
X101535334Y-78855162D01*
X101473681Y-78694551D01*
X101470293Y-78684445D01*
X101419966Y-78509755D01*
X101409291Y-78469915D01*
X101375821Y-78345003D01*
X101373358Y-78333722D01*
X101373357Y-78333717D01*
X101341927Y-78148730D01*
X101334679Y-78102968D01*
X101316303Y-77986952D01*
X101314976Y-77974546D01*
X101302693Y-77755845D01*
X101295877Y-77625782D01*
X101295708Y-77619031D01*
X101296016Y-77499999D01*
X103343140Y-77499999D01*
X103363736Y-77735407D01*
X103400834Y-77873858D01*
X103424897Y-77963663D01*
X103524765Y-78177829D01*
X103660305Y-78371401D01*
X103827399Y-78538495D01*
X104020971Y-78674035D01*
X104235137Y-78773903D01*
X104463392Y-78835063D01*
X104639834Y-78850500D01*
X104642542Y-78850500D01*
X104755058Y-78850500D01*
X104757766Y-78850500D01*
X104934208Y-78835063D01*
X105162463Y-78773903D01*
X105376629Y-78674035D01*
X105570201Y-78538495D01*
X105737295Y-78371401D01*
X105872835Y-78177830D01*
X105972703Y-77963663D01*
X106033863Y-77735408D01*
X106054459Y-77500000D01*
X106054183Y-77496851D01*
X106033863Y-77264592D01*
X106028484Y-77244518D01*
X111667200Y-77244518D01*
X111667554Y-77251132D01*
X111673600Y-77307371D01*
X111723847Y-77442089D01*
X111810011Y-77557188D01*
X111925110Y-77643352D01*
X112059828Y-77693599D01*
X112116067Y-77699645D01*
X112122682Y-77700000D01*
X112917200Y-77700000D01*
X112917200Y-76745881D01*
X113010569Y-76784556D01*
X113127877Y-76800000D01*
X113206523Y-76800000D01*
X113323831Y-76784556D01*
X113417200Y-76745881D01*
X113417200Y-77700000D01*
X114211718Y-77700000D01*
X114218332Y-77699645D01*
X114274571Y-77693599D01*
X114409289Y-77643352D01*
X114524388Y-77557188D01*
X114610552Y-77442088D01*
X114644286Y-77351644D01*
X114686157Y-77295710D01*
X114751621Y-77271293D01*
X114819894Y-77286144D01*
X114836630Y-77297124D01*
X114938568Y-77376466D01*
X114938570Y-77376467D01*
X114938574Y-77376470D01*
X115142697Y-77486936D01*
X115252458Y-77524616D01*
X115362215Y-77562297D01*
X115362217Y-77562297D01*
X115362219Y-77562298D01*
X115591151Y-77600500D01*
X115591152Y-77600500D01*
X115823248Y-77600500D01*
X115823249Y-77600500D01*
X116052181Y-77562298D01*
X116271703Y-77486936D01*
X116475826Y-77376470D01*
X116551462Y-77317600D01*
X124025234Y-77317600D01*
X124045431Y-77496851D01*
X124045431Y-77496853D01*
X124045432Y-77496855D01*
X124105011Y-77667122D01*
X124121648Y-77693599D01*
X124200985Y-77819864D01*
X124328535Y-77947414D01*
X124328537Y-77947415D01*
X124328538Y-77947416D01*
X124481278Y-78043389D01*
X124651545Y-78102968D01*
X124830800Y-78123165D01*
X125010055Y-78102968D01*
X125180322Y-78043389D01*
X125333062Y-77947416D01*
X125378118Y-77902359D01*
X125439441Y-77868874D01*
X125509133Y-77873858D01*
X125535064Y-77890525D01*
X125535908Y-77889183D01*
X125582000Y-77918144D01*
X125700478Y-77992589D01*
X125870745Y-78052168D01*
X126050000Y-78072365D01*
X126229255Y-78052168D01*
X126399522Y-77992589D01*
X126552262Y-77896616D01*
X126679816Y-77769062D01*
X126775789Y-77616322D01*
X126835368Y-77446055D01*
X126855565Y-77266800D01*
X126844117Y-77165199D01*
X127741505Y-77165199D01*
X127759815Y-77315991D01*
X127813678Y-77458019D01*
X127899968Y-77583031D01*
X128013663Y-77683755D01*
X128013664Y-77683755D01*
X128013666Y-77683757D01*
X128148166Y-77754348D01*
X128295651Y-77790700D01*
X128295652Y-77790700D01*
X128447548Y-77790700D01*
X128447549Y-77790700D01*
X128595034Y-77754348D01*
X128729534Y-77683757D01*
X128794102Y-77626554D01*
X128857334Y-77596833D01*
X128926598Y-77606016D01*
X128958556Y-77626555D01*
X129080463Y-77734555D01*
X129080464Y-77734555D01*
X129080466Y-77734557D01*
X129214966Y-77805148D01*
X129362451Y-77841500D01*
X129362452Y-77841500D01*
X129514348Y-77841500D01*
X129514349Y-77841500D01*
X129661834Y-77805148D01*
X129796334Y-77734557D01*
X129910032Y-77633830D01*
X129988051Y-77520800D01*
X132908740Y-77520800D01*
X132929336Y-77756207D01*
X132968498Y-77902360D01*
X132990497Y-77984463D01*
X133090365Y-78198629D01*
X133225905Y-78392201D01*
X133392999Y-78559295D01*
X133586571Y-78694835D01*
X133800737Y-78794703D01*
X134028992Y-78855863D01*
X134205434Y-78871300D01*
X134208142Y-78871300D01*
X134320658Y-78871300D01*
X134323366Y-78871300D01*
X134499808Y-78855863D01*
X134728063Y-78794703D01*
X134942229Y-78694835D01*
X135135801Y-78559295D01*
X135302895Y-78392201D01*
X135438435Y-78198630D01*
X135538303Y-77984463D01*
X135599463Y-77756208D01*
X135620059Y-77520800D01*
X135599463Y-77285392D01*
X135538303Y-77057137D01*
X135438435Y-76842971D01*
X135302895Y-76649399D01*
X135135801Y-76482305D01*
X134942229Y-76346765D01*
X134728063Y-76246897D01*
X134697449Y-76238694D01*
X134499807Y-76185736D01*
X134326067Y-76170536D01*
X134326059Y-76170535D01*
X134323366Y-76170300D01*
X134205434Y-76170300D01*
X134202741Y-76170535D01*
X134202732Y-76170536D01*
X134028992Y-76185736D01*
X133800736Y-76246897D01*
X133586570Y-76346765D01*
X133392998Y-76482305D01*
X133225908Y-76649395D01*
X133225905Y-76649398D01*
X133225905Y-76649399D01*
X133104930Y-76822170D01*
X133090364Y-76842972D01*
X132990497Y-77057137D01*
X132929336Y-77285392D01*
X132908740Y-77520800D01*
X129988051Y-77520800D01*
X129996321Y-77508819D01*
X130050185Y-77366791D01*
X130068494Y-77216000D01*
X130050185Y-77065209D01*
X129996321Y-76923181D01*
X129996321Y-76923180D01*
X129910031Y-76798168D01*
X129796336Y-76697444D01*
X129717948Y-76656303D01*
X129661834Y-76626852D01*
X129661833Y-76626851D01*
X129661832Y-76626851D01*
X129597022Y-76610877D01*
X129536641Y-76575721D01*
X129504853Y-76513501D01*
X129503603Y-76505438D01*
X129500988Y-76483906D01*
X129512451Y-76414983D01*
X129559356Y-76363198D01*
X129594408Y-76348566D01*
X129661834Y-76331948D01*
X129796334Y-76261357D01*
X129905170Y-76164937D01*
X129910031Y-76160631D01*
X129917552Y-76149736D01*
X129996321Y-76035619D01*
X130050185Y-75893591D01*
X130068494Y-75742800D01*
X130050185Y-75592009D01*
X130016748Y-75503844D01*
X129996321Y-75449980D01*
X129910031Y-75324968D01*
X129874171Y-75293199D01*
X145902176Y-75293199D01*
X145902178Y-75293200D01*
X146947514Y-75293200D01*
X146921707Y-75333356D01*
X146881200Y-75471311D01*
X146881200Y-75615089D01*
X146921707Y-75753044D01*
X146947514Y-75793200D01*
X145902177Y-75793200D01*
X145922116Y-75912691D01*
X146002831Y-76147806D01*
X146121146Y-76366433D01*
X146273831Y-76562603D01*
X146456722Y-76730966D01*
X146664834Y-76866933D01*
X146892478Y-76966786D01*
X147133462Y-77027812D01*
X147316612Y-77042988D01*
X147321727Y-77043200D01*
X147781200Y-77043200D01*
X147781200Y-76043200D01*
X148281200Y-76043200D01*
X148281200Y-77043200D01*
X148740673Y-77043200D01*
X148745787Y-77042988D01*
X148928937Y-77027812D01*
X149169921Y-76966786D01*
X149397565Y-76866933D01*
X149605677Y-76730966D01*
X149788568Y-76562603D01*
X149941253Y-76366433D01*
X150059568Y-76147806D01*
X150140283Y-75912691D01*
X150160223Y-75793200D01*
X149114886Y-75793200D01*
X149140693Y-75753044D01*
X149181200Y-75615089D01*
X149181200Y-75471311D01*
X149140693Y-75333356D01*
X149114886Y-75293200D01*
X150160222Y-75293200D01*
X150160223Y-75293199D01*
X150140283Y-75173708D01*
X150059568Y-74938593D01*
X149941253Y-74719966D01*
X149788568Y-74523796D01*
X149605677Y-74355433D01*
X149397565Y-74219466D01*
X149169921Y-74119613D01*
X148928937Y-74058587D01*
X148745787Y-74043411D01*
X148740673Y-74043200D01*
X148281200Y-74043200D01*
X148281200Y-75043200D01*
X147781200Y-75043200D01*
X147781200Y-74043200D01*
X147321727Y-74043200D01*
X147316612Y-74043411D01*
X147133462Y-74058587D01*
X146892478Y-74119613D01*
X146664834Y-74219466D01*
X146456722Y-74355433D01*
X146273831Y-74523796D01*
X146121146Y-74719966D01*
X146002831Y-74938593D01*
X145922116Y-75173708D01*
X145902176Y-75293199D01*
X129874171Y-75293199D01*
X129796336Y-75224244D01*
X129729084Y-75188947D01*
X129661834Y-75153652D01*
X129661833Y-75153651D01*
X129661832Y-75153651D01*
X129559858Y-75128517D01*
X129514349Y-75117300D01*
X129362451Y-75117300D01*
X129326099Y-75126259D01*
X129214967Y-75153651D01*
X129080465Y-75224243D01*
X128987227Y-75306845D01*
X128923994Y-75336566D01*
X128854730Y-75327382D01*
X128822773Y-75306845D01*
X128729534Y-75224243D01*
X128663784Y-75189735D01*
X128595034Y-75153652D01*
X128595033Y-75153651D01*
X128595032Y-75153651D01*
X128493058Y-75128517D01*
X128447549Y-75117300D01*
X128295651Y-75117300D01*
X128259300Y-75126259D01*
X128148167Y-75153651D01*
X128013663Y-75224244D01*
X127899968Y-75324968D01*
X127813678Y-75449980D01*
X127759815Y-75592008D01*
X127741505Y-75742799D01*
X127759815Y-75893591D01*
X127813678Y-76035619D01*
X127899968Y-76160631D01*
X128013663Y-76261355D01*
X128013664Y-76261355D01*
X128013666Y-76261357D01*
X128148166Y-76331948D01*
X128148168Y-76331949D01*
X128154879Y-76333603D01*
X128215260Y-76368758D01*
X128247050Y-76430977D01*
X128240155Y-76500506D01*
X128196764Y-76555269D01*
X128154885Y-76574395D01*
X128148166Y-76576052D01*
X128120638Y-76590500D01*
X128013664Y-76646643D01*
X127899968Y-76747368D01*
X127813678Y-76872380D01*
X127759815Y-77014408D01*
X127741505Y-77165199D01*
X126844117Y-77165199D01*
X126835368Y-77087545D01*
X126775789Y-76917278D01*
X126679816Y-76764538D01*
X126679815Y-76764537D01*
X126679814Y-76764535D01*
X126552262Y-76636983D01*
X126508990Y-76609794D01*
X126462698Y-76557460D01*
X126452049Y-76488407D01*
X126480424Y-76424558D01*
X126508990Y-76399806D01*
X126552262Y-76372616D01*
X126679814Y-76245064D01*
X126679813Y-76245064D01*
X126679816Y-76245062D01*
X126775789Y-76092322D01*
X126835368Y-75922055D01*
X126855565Y-75742800D01*
X126835368Y-75563545D01*
X126775789Y-75393278D01*
X126679816Y-75240538D01*
X126679815Y-75240537D01*
X126679814Y-75240535D01*
X126552264Y-75112985D01*
X126449404Y-75048354D01*
X126399522Y-75017011D01*
X126229255Y-74957432D01*
X126229253Y-74957431D01*
X126229251Y-74957431D01*
X126049999Y-74937234D01*
X125870748Y-74957431D01*
X125870745Y-74957431D01*
X125870745Y-74957432D01*
X125700478Y-75017011D01*
X125700476Y-75017011D01*
X125700476Y-75017012D01*
X125535908Y-75120417D01*
X125534233Y-75117752D01*
X125492128Y-75140731D01*
X125422437Y-75135729D01*
X125378118Y-75107239D01*
X125333064Y-75062185D01*
X125261170Y-75017011D01*
X125180322Y-74966211D01*
X125010055Y-74906632D01*
X125010053Y-74906631D01*
X125010051Y-74906631D01*
X124830799Y-74886434D01*
X124651548Y-74906631D01*
X124651545Y-74906631D01*
X124651545Y-74906632D01*
X124481278Y-74966211D01*
X124481276Y-74966211D01*
X124481276Y-74966212D01*
X124328535Y-75062185D01*
X124200985Y-75189735D01*
X124105012Y-75342476D01*
X124105011Y-75342478D01*
X124067394Y-75449981D01*
X124045431Y-75512748D01*
X124025234Y-75692000D01*
X124045431Y-75871251D01*
X124045431Y-75871253D01*
X124045432Y-75871255D01*
X124105011Y-76041522D01*
X124161779Y-76131867D01*
X124200985Y-76194264D01*
X124328536Y-76321815D01*
X124452658Y-76399806D01*
X124498949Y-76452141D01*
X124509597Y-76521194D01*
X124481222Y-76585043D01*
X124452658Y-76609794D01*
X124328536Y-76687784D01*
X124200985Y-76815335D01*
X124105823Y-76966786D01*
X124105011Y-76968078D01*
X124063208Y-77087545D01*
X124045431Y-77138348D01*
X124025234Y-77317600D01*
X116551462Y-77317600D01*
X116658984Y-77233913D01*
X116816179Y-77063153D01*
X116943124Y-76868849D01*
X117036357Y-76656300D01*
X117093334Y-76431305D01*
X117112500Y-76200000D01*
X117093334Y-75968695D01*
X117036357Y-75743700D01*
X116943124Y-75531151D01*
X116816179Y-75336847D01*
X116658984Y-75166087D01*
X116475826Y-75023530D01*
X116271703Y-74913064D01*
X116271699Y-74913062D01*
X116271698Y-74913062D01*
X116052184Y-74837702D01*
X115880482Y-74809050D01*
X115823249Y-74799500D01*
X115591151Y-74799500D01*
X115545364Y-74807140D01*
X115362215Y-74837702D01*
X115142701Y-74913062D01*
X115142697Y-74913063D01*
X115142697Y-74913064D01*
X114938574Y-75023530D01*
X114938572Y-75023530D01*
X114938569Y-75023533D01*
X114836629Y-75102875D01*
X114771635Y-75128517D01*
X114703095Y-75114950D01*
X114652771Y-75066481D01*
X114644286Y-75048354D01*
X114610552Y-74957911D01*
X114524388Y-74842811D01*
X114409289Y-74756647D01*
X114274571Y-74706400D01*
X114218332Y-74700354D01*
X114211718Y-74700000D01*
X113417200Y-74700000D01*
X113417200Y-75654118D01*
X113323831Y-75615444D01*
X113206523Y-75600000D01*
X113127877Y-75600000D01*
X113010569Y-75615444D01*
X112917200Y-75654118D01*
X112917200Y-74700000D01*
X112122682Y-74700000D01*
X112116067Y-74700354D01*
X112059828Y-74706400D01*
X111925110Y-74756647D01*
X111810011Y-74842811D01*
X111723847Y-74957910D01*
X111673600Y-75092628D01*
X111667554Y-75148867D01*
X111667200Y-75155481D01*
X111667200Y-75950000D01*
X112621318Y-75950000D01*
X112582644Y-76043369D01*
X112562023Y-76200000D01*
X112582644Y-76356631D01*
X112621318Y-76450000D01*
X111667200Y-76450000D01*
X111667200Y-77244518D01*
X106028484Y-77244518D01*
X106000036Y-77138348D01*
X105972703Y-77036337D01*
X105872835Y-76822171D01*
X105737295Y-76628599D01*
X105570201Y-76461505D01*
X105376629Y-76325965D01*
X105162463Y-76226097D01*
X105162463Y-76226096D01*
X104934207Y-76164936D01*
X104760467Y-76149736D01*
X104760459Y-76149735D01*
X104757766Y-76149500D01*
X104639834Y-76149500D01*
X104637141Y-76149735D01*
X104637132Y-76149736D01*
X104463392Y-76164936D01*
X104235136Y-76226097D01*
X104020970Y-76325965D01*
X103827398Y-76461505D01*
X103660308Y-76628595D01*
X103660305Y-76628598D01*
X103660305Y-76628599D01*
X103541572Y-76798168D01*
X103524764Y-76822172D01*
X103424897Y-77036337D01*
X103363736Y-77264592D01*
X103343140Y-77499999D01*
X101296016Y-77499999D01*
X101312776Y-71030799D01*
X115308505Y-71030799D01*
X115326815Y-71181591D01*
X115380678Y-71323619D01*
X115466968Y-71448631D01*
X115580663Y-71549355D01*
X115580664Y-71549355D01*
X115580666Y-71549357D01*
X115715166Y-71619948D01*
X115862651Y-71656300D01*
X115862652Y-71656300D01*
X116014548Y-71656300D01*
X116014549Y-71656300D01*
X116162034Y-71619948D01*
X116296534Y-71549357D01*
X116410232Y-71448630D01*
X116496521Y-71323619D01*
X116550385Y-71181591D01*
X116562526Y-71081600D01*
X117645305Y-71081600D01*
X117663615Y-71232391D01*
X117717478Y-71374419D01*
X117803768Y-71499431D01*
X117917463Y-71600155D01*
X117917464Y-71600155D01*
X117917466Y-71600157D01*
X118051966Y-71670748D01*
X118199451Y-71707100D01*
X118199452Y-71707100D01*
X118351348Y-71707100D01*
X118351349Y-71707100D01*
X118498834Y-71670748D01*
X118633334Y-71600157D01*
X118747032Y-71499430D01*
X118833321Y-71374419D01*
X118887185Y-71232391D01*
X118905494Y-71081600D01*
X118887185Y-70930809D01*
X118833321Y-70788781D01*
X118833321Y-70788780D01*
X118754922Y-70675200D01*
X121506105Y-70675200D01*
X121524415Y-70825991D01*
X121578278Y-70968019D01*
X121664568Y-71093031D01*
X121778263Y-71193755D01*
X121778264Y-71193755D01*
X121778266Y-71193757D01*
X121912766Y-71264348D01*
X122060251Y-71300700D01*
X122060252Y-71300700D01*
X122212148Y-71300700D01*
X122212149Y-71300700D01*
X122359634Y-71264348D01*
X122494134Y-71193757D01*
X122607832Y-71093030D01*
X122607831Y-71093030D01*
X122619102Y-71083046D01*
X122621851Y-71086149D01*
X122655056Y-71059219D01*
X122724502Y-71051533D01*
X122787079Y-71082612D01*
X122804917Y-71103191D01*
X122832968Y-71143831D01*
X122946663Y-71244555D01*
X122946664Y-71244555D01*
X122946666Y-71244557D01*
X123081166Y-71315148D01*
X123228651Y-71351500D01*
X123228652Y-71351500D01*
X123380548Y-71351500D01*
X123380549Y-71351500D01*
X123528034Y-71315148D01*
X123662534Y-71244557D01*
X123776232Y-71143830D01*
X123862521Y-71018819D01*
X123916385Y-70876791D01*
X123922358Y-70827600D01*
X131259705Y-70827600D01*
X131278015Y-70978391D01*
X131331878Y-71120419D01*
X131418168Y-71245431D01*
X131531863Y-71346155D01*
X131531864Y-71346155D01*
X131531866Y-71346157D01*
X131666366Y-71416748D01*
X131813851Y-71453100D01*
X131813852Y-71453100D01*
X131965748Y-71453100D01*
X131965749Y-71453100D01*
X132113234Y-71416748D01*
X132247734Y-71346157D01*
X132361432Y-71245430D01*
X132447721Y-71120419D01*
X132501585Y-70978391D01*
X132519894Y-70827600D01*
X132519894Y-70827599D01*
X133190105Y-70827599D01*
X133208415Y-70978391D01*
X133262278Y-71120419D01*
X133348568Y-71245431D01*
X133462263Y-71346155D01*
X133462264Y-71346155D01*
X133462266Y-71346157D01*
X133596766Y-71416748D01*
X133744251Y-71453100D01*
X133744252Y-71453100D01*
X133896148Y-71453100D01*
X133896149Y-71453100D01*
X134043634Y-71416748D01*
X134178134Y-71346157D01*
X134291832Y-71245430D01*
X134378121Y-71120419D01*
X134431985Y-70978391D01*
X134450294Y-70827600D01*
X134431985Y-70676809D01*
X134393268Y-70574721D01*
X134392842Y-70573599D01*
X137304905Y-70573599D01*
X137323215Y-70724391D01*
X137377078Y-70866419D01*
X137463368Y-70991431D01*
X137577063Y-71092155D01*
X137577064Y-71092155D01*
X137577066Y-71092157D01*
X137711566Y-71162748D01*
X137859051Y-71199100D01*
X137859052Y-71199100D01*
X138010948Y-71199100D01*
X138010949Y-71199100D01*
X138158434Y-71162748D01*
X138292934Y-71092157D01*
X138406632Y-70991430D01*
X138417149Y-70976192D01*
X138471431Y-70932201D01*
X138540880Y-70924541D01*
X138603445Y-70955643D01*
X138621251Y-70976193D01*
X138631768Y-70991430D01*
X138745463Y-71092155D01*
X138745464Y-71092155D01*
X138745466Y-71092157D01*
X138879966Y-71162748D01*
X139027451Y-71199100D01*
X139027452Y-71199100D01*
X139179348Y-71199100D01*
X139179349Y-71199100D01*
X139326834Y-71162748D01*
X139461334Y-71092157D01*
X139575032Y-70991430D01*
X139661321Y-70866419D01*
X139715185Y-70724391D01*
X139733359Y-70574714D01*
X145630700Y-70574714D01*
X145635886Y-70607460D01*
X145645554Y-70668504D01*
X145645554Y-70668505D01*
X145645555Y-70668506D01*
X145703149Y-70781542D01*
X145792856Y-70871249D01*
X145792858Y-70871250D01*
X145905896Y-70928846D01*
X145999681Y-70943700D01*
X150062718Y-70943699D01*
X150156504Y-70928846D01*
X150269542Y-70871250D01*
X150359250Y-70781542D01*
X150416846Y-70668504D01*
X150431700Y-70574719D01*
X150431699Y-68511682D01*
X150416846Y-68417896D01*
X150382165Y-68349831D01*
X150359250Y-68304857D01*
X150269543Y-68215150D01*
X150156502Y-68157553D01*
X150062721Y-68142700D01*
X145999685Y-68142700D01*
X145952789Y-68150127D01*
X145905896Y-68157554D01*
X145905894Y-68157554D01*
X145905893Y-68157555D01*
X145792857Y-68215149D01*
X145703150Y-68304856D01*
X145645553Y-68417897D01*
X145630700Y-68511678D01*
X145630700Y-70574714D01*
X139733359Y-70574714D01*
X139733494Y-70573600D01*
X139715185Y-70422809D01*
X139674318Y-70315052D01*
X139661321Y-70280780D01*
X139575031Y-70155768D01*
X139461336Y-70055044D01*
X139326832Y-69984451D01*
X139227590Y-69959990D01*
X139179349Y-69948100D01*
X139027451Y-69948100D01*
X138991100Y-69957059D01*
X138879967Y-69984451D01*
X138745463Y-70055044D01*
X138631768Y-70155769D01*
X138621250Y-70171008D01*
X138566967Y-70214998D01*
X138497518Y-70222658D01*
X138434954Y-70191554D01*
X138417150Y-70171008D01*
X138407235Y-70156644D01*
X138406632Y-70155770D01*
X138385277Y-70136851D01*
X138292936Y-70055044D01*
X138158432Y-69984451D01*
X138059190Y-69959990D01*
X138010949Y-69948100D01*
X137859051Y-69948100D01*
X137822700Y-69957059D01*
X137711567Y-69984451D01*
X137577063Y-70055044D01*
X137463368Y-70155768D01*
X137377078Y-70280780D01*
X137323215Y-70422808D01*
X137304905Y-70573599D01*
X134392842Y-70573599D01*
X134378121Y-70534780D01*
X134291831Y-70409768D01*
X134178135Y-70309043D01*
X134165471Y-70302397D01*
X134115258Y-70253813D01*
X134099283Y-70185794D01*
X134122618Y-70119936D01*
X134165471Y-70082803D01*
X134178134Y-70076157D01*
X134291832Y-69975430D01*
X134378121Y-69850419D01*
X134431985Y-69708391D01*
X134450294Y-69557600D01*
X134431985Y-69406809D01*
X134378121Y-69264781D01*
X134378121Y-69264780D01*
X134291831Y-69139768D01*
X134178136Y-69039044D01*
X134043632Y-68968451D01*
X133944390Y-68943990D01*
X133896149Y-68932100D01*
X133744251Y-68932100D01*
X133707899Y-68941059D01*
X133596767Y-68968451D01*
X133462263Y-69039044D01*
X133348568Y-69139768D01*
X133262278Y-69264780D01*
X133208415Y-69406808D01*
X133190105Y-69557600D01*
X133208415Y-69708391D01*
X133262278Y-69850419D01*
X133348568Y-69975431D01*
X133462264Y-70076156D01*
X133474930Y-70082804D01*
X133525142Y-70131389D01*
X133541116Y-70199408D01*
X133517780Y-70265266D01*
X133474930Y-70302396D01*
X133462264Y-70309043D01*
X133348568Y-70409768D01*
X133262278Y-70534780D01*
X133208415Y-70676808D01*
X133190105Y-70827599D01*
X132519894Y-70827599D01*
X132501585Y-70676809D01*
X132462868Y-70574721D01*
X132447721Y-70534780D01*
X132361431Y-70409768D01*
X132247735Y-70309043D01*
X132235071Y-70302397D01*
X132184858Y-70253813D01*
X132168883Y-70185794D01*
X132192218Y-70119936D01*
X132235071Y-70082803D01*
X132247734Y-70076157D01*
X132361432Y-69975430D01*
X132447721Y-69850419D01*
X132501585Y-69708391D01*
X132519894Y-69557600D01*
X132501585Y-69406809D01*
X132447721Y-69264781D01*
X132447721Y-69264780D01*
X132361431Y-69139768D01*
X132247736Y-69039044D01*
X132113232Y-68968451D01*
X132013990Y-68943990D01*
X131965749Y-68932100D01*
X131813851Y-68932100D01*
X131777500Y-68941059D01*
X131666367Y-68968451D01*
X131531863Y-69039044D01*
X131418168Y-69139768D01*
X131331878Y-69264780D01*
X131278015Y-69406808D01*
X131259705Y-69557600D01*
X131278015Y-69708391D01*
X131331878Y-69850419D01*
X131418168Y-69975431D01*
X131531864Y-70076156D01*
X131544530Y-70082804D01*
X131594742Y-70131389D01*
X131610716Y-70199408D01*
X131587380Y-70265266D01*
X131544530Y-70302396D01*
X131531864Y-70309043D01*
X131418168Y-70409768D01*
X131331878Y-70534780D01*
X131278015Y-70676808D01*
X131259705Y-70827600D01*
X123922358Y-70827600D01*
X123934694Y-70726000D01*
X123916385Y-70575209D01*
X123864490Y-70438372D01*
X123862521Y-70433180D01*
X123776231Y-70308168D01*
X123662536Y-70207444D01*
X123593113Y-70171008D01*
X123528034Y-70136852D01*
X123528033Y-70136851D01*
X123528032Y-70136851D01*
X123428790Y-70112390D01*
X123380549Y-70100500D01*
X123228651Y-70100500D01*
X123192300Y-70109459D01*
X123081167Y-70136851D01*
X122946663Y-70207444D01*
X122821698Y-70318154D01*
X122818950Y-70315052D01*
X122785684Y-70342005D01*
X122716235Y-70349655D01*
X122653674Y-70318544D01*
X122635882Y-70298008D01*
X122623991Y-70280781D01*
X122607832Y-70257370D01*
X122551476Y-70207443D01*
X122494136Y-70156644D01*
X122359632Y-70086051D01*
X122233826Y-70055043D01*
X122212149Y-70049700D01*
X122060251Y-70049700D01*
X122038574Y-70055043D01*
X121912767Y-70086051D01*
X121778263Y-70156644D01*
X121664568Y-70257368D01*
X121578278Y-70382380D01*
X121524415Y-70524408D01*
X121506105Y-70675200D01*
X118754922Y-70675200D01*
X118747031Y-70663768D01*
X118633336Y-70563044D01*
X118498832Y-70492451D01*
X118399590Y-70467990D01*
X118351349Y-70456100D01*
X118199451Y-70456100D01*
X118163099Y-70465059D01*
X118051967Y-70492451D01*
X117917463Y-70563044D01*
X117803768Y-70663768D01*
X117717478Y-70788780D01*
X117663615Y-70930808D01*
X117645305Y-71081600D01*
X116562526Y-71081600D01*
X116568694Y-71030800D01*
X116550385Y-70880009D01*
X116513042Y-70781543D01*
X116496521Y-70737980D01*
X116410233Y-70612971D01*
X116367608Y-70575209D01*
X116355874Y-70564813D01*
X116318749Y-70505626D01*
X116319517Y-70435761D01*
X116355874Y-70379186D01*
X116410232Y-70331030D01*
X116496521Y-70206019D01*
X116550385Y-70063991D01*
X116568694Y-69913200D01*
X116550385Y-69762409D01*
X116496521Y-69620381D01*
X116496521Y-69620380D01*
X116410231Y-69495368D01*
X116296536Y-69394644D01*
X116162032Y-69324051D01*
X116062790Y-69299590D01*
X116014549Y-69287700D01*
X115862651Y-69287700D01*
X115826299Y-69296659D01*
X115715167Y-69324051D01*
X115580663Y-69394644D01*
X115466968Y-69495368D01*
X115380678Y-69620380D01*
X115326815Y-69762408D01*
X115308505Y-69913200D01*
X115326815Y-70063991D01*
X115380678Y-70206019D01*
X115466967Y-70331028D01*
X115466968Y-70331030D01*
X115521324Y-70379185D01*
X115558450Y-70438372D01*
X115557684Y-70508237D01*
X115521325Y-70564814D01*
X115466967Y-70612971D01*
X115380678Y-70737980D01*
X115326815Y-70880008D01*
X115308505Y-71030799D01*
X101312776Y-71030799D01*
X101319356Y-68490800D01*
X112514505Y-68490800D01*
X112532815Y-68641591D01*
X112586678Y-68783619D01*
X112672968Y-68908631D01*
X112786663Y-69009355D01*
X112786664Y-69009355D01*
X112786666Y-69009357D01*
X112921166Y-69079948D01*
X113068651Y-69116300D01*
X113068652Y-69116300D01*
X113220548Y-69116300D01*
X113220549Y-69116300D01*
X113368034Y-69079948D01*
X113502534Y-69009357D01*
X113616232Y-68908630D01*
X113702521Y-68783619D01*
X113756385Y-68641591D01*
X113774694Y-68490800D01*
X113762358Y-68389200D01*
X115410105Y-68389200D01*
X115428415Y-68539991D01*
X115482278Y-68682019D01*
X115568568Y-68807031D01*
X115682263Y-68907755D01*
X115682264Y-68907755D01*
X115682266Y-68907757D01*
X115816766Y-68978348D01*
X115964251Y-69014700D01*
X115964252Y-69014700D01*
X116116148Y-69014700D01*
X116116149Y-69014700D01*
X116263634Y-68978348D01*
X116398134Y-68907757D01*
X116511832Y-68807030D01*
X116598121Y-68682019D01*
X116651985Y-68539991D01*
X116670294Y-68389200D01*
X116651985Y-68238409D01*
X116598121Y-68096381D01*
X116598121Y-68096380D01*
X116511831Y-67971368D01*
X116467392Y-67931999D01*
X128262505Y-67931999D01*
X128280815Y-68082791D01*
X128334678Y-68224819D01*
X128420968Y-68349831D01*
X128534663Y-68450555D01*
X128534664Y-68450555D01*
X128534666Y-68450557D01*
X128669166Y-68521148D01*
X128816651Y-68557500D01*
X128816652Y-68557500D01*
X128968548Y-68557500D01*
X128968549Y-68557500D01*
X129116034Y-68521148D01*
X129250534Y-68450557D01*
X129364232Y-68349830D01*
X129407187Y-68287599D01*
X130192905Y-68287599D01*
X130211215Y-68438391D01*
X130265078Y-68580419D01*
X130351368Y-68705431D01*
X130465063Y-68806155D01*
X130465064Y-68806155D01*
X130465066Y-68806157D01*
X130599566Y-68876748D01*
X130747051Y-68913100D01*
X130747052Y-68913100D01*
X130898948Y-68913100D01*
X130898949Y-68913100D01*
X131046434Y-68876748D01*
X131180934Y-68806157D01*
X131294632Y-68705430D01*
X131380921Y-68580419D01*
X131434785Y-68438391D01*
X131453094Y-68287600D01*
X131434785Y-68136809D01*
X131380921Y-67994781D01*
X131380921Y-67994780D01*
X131294631Y-67869768D01*
X131180936Y-67769044D01*
X131046432Y-67698451D01*
X130947190Y-67673990D01*
X130898949Y-67662100D01*
X130747051Y-67662100D01*
X130710700Y-67671059D01*
X130599567Y-67698451D01*
X130465063Y-67769044D01*
X130351368Y-67869768D01*
X130265078Y-67994780D01*
X130211215Y-68136808D01*
X130192905Y-68287599D01*
X129407187Y-68287599D01*
X129450521Y-68224819D01*
X129504385Y-68082791D01*
X129522694Y-67932000D01*
X129504385Y-67781209D01*
X129450521Y-67639181D01*
X129450521Y-67639180D01*
X129364231Y-67514168D01*
X129250536Y-67413444D01*
X129116032Y-67342851D01*
X129016790Y-67318390D01*
X128968549Y-67306500D01*
X128816651Y-67306500D01*
X128780299Y-67315459D01*
X128669167Y-67342851D01*
X128534663Y-67413444D01*
X128420968Y-67514168D01*
X128334678Y-67639180D01*
X128280815Y-67781208D01*
X128262505Y-67931999D01*
X116467392Y-67931999D01*
X116398136Y-67870644D01*
X116263632Y-67800051D01*
X116137826Y-67769043D01*
X116116149Y-67763700D01*
X115964251Y-67763700D01*
X115942574Y-67769043D01*
X115816767Y-67800051D01*
X115682263Y-67870644D01*
X115568568Y-67971368D01*
X115482278Y-68096380D01*
X115428415Y-68238408D01*
X115410105Y-68389200D01*
X113762358Y-68389200D01*
X113756385Y-68340009D01*
X113712699Y-68224819D01*
X113702521Y-68197980D01*
X113616231Y-68072968D01*
X113502536Y-67972244D01*
X113368032Y-67901651D01*
X113238676Y-67869768D01*
X113220549Y-67865300D01*
X113068651Y-67865300D01*
X113050524Y-67869768D01*
X112921167Y-67901651D01*
X112786663Y-67972244D01*
X112672968Y-68072968D01*
X112586678Y-68197980D01*
X112532815Y-68340008D01*
X112514505Y-68490800D01*
X101319356Y-68490800D01*
X101323699Y-66814400D01*
X115511705Y-66814400D01*
X115530015Y-66965191D01*
X115583878Y-67107219D01*
X115670168Y-67232231D01*
X115783863Y-67332955D01*
X115783864Y-67332955D01*
X115783866Y-67332957D01*
X115918366Y-67403548D01*
X116065851Y-67439900D01*
X116065852Y-67439900D01*
X116217748Y-67439900D01*
X116217749Y-67439900D01*
X116365234Y-67403548D01*
X116499734Y-67332957D01*
X116613432Y-67232230D01*
X116699721Y-67107219D01*
X116753585Y-66965191D01*
X116771894Y-66814400D01*
X116765726Y-66763600D01*
X131259705Y-66763600D01*
X131278015Y-66914391D01*
X131331878Y-67056419D01*
X131418168Y-67181431D01*
X131531863Y-67282155D01*
X131531864Y-67282155D01*
X131531866Y-67282157D01*
X131666366Y-67352748D01*
X131813851Y-67389100D01*
X131813852Y-67389100D01*
X131965748Y-67389100D01*
X131965749Y-67389100D01*
X132113234Y-67352748D01*
X132247734Y-67282157D01*
X132361432Y-67181430D01*
X132447721Y-67056419D01*
X132501585Y-66914391D01*
X132519894Y-66763600D01*
X132501585Y-66612809D01*
X132447721Y-66470781D01*
X132447721Y-66470780D01*
X132361431Y-66345768D01*
X132247736Y-66245044D01*
X132113232Y-66174451D01*
X132013990Y-66149990D01*
X131965749Y-66138100D01*
X131813851Y-66138100D01*
X131777500Y-66147059D01*
X131666367Y-66174451D01*
X131531863Y-66245044D01*
X131418168Y-66345768D01*
X131331878Y-66470780D01*
X131278015Y-66612808D01*
X131259705Y-66763600D01*
X116765726Y-66763600D01*
X116753585Y-66663609D01*
X116699721Y-66521581D01*
X116699721Y-66521580D01*
X116613431Y-66396568D01*
X116499736Y-66295844D01*
X116432484Y-66260547D01*
X116365234Y-66225252D01*
X116365233Y-66225251D01*
X116365232Y-66225251D01*
X116265990Y-66200790D01*
X116217749Y-66188900D01*
X116065851Y-66188900D01*
X116029500Y-66197859D01*
X115918367Y-66225251D01*
X115783863Y-66295844D01*
X115670168Y-66396568D01*
X115583878Y-66521580D01*
X115530015Y-66663608D01*
X115511705Y-66814400D01*
X101323699Y-66814400D01*
X101326726Y-65645999D01*
X110939705Y-65645999D01*
X110958015Y-65796791D01*
X111011878Y-65938819D01*
X111098168Y-66063831D01*
X111211863Y-66164555D01*
X111211864Y-66164555D01*
X111211866Y-66164557D01*
X111346366Y-66235148D01*
X111493851Y-66271500D01*
X111493852Y-66271500D01*
X111645748Y-66271500D01*
X111645749Y-66271500D01*
X111793234Y-66235148D01*
X111927734Y-66164557D01*
X112041432Y-66063830D01*
X112127721Y-65938819D01*
X112181585Y-65796791D01*
X112199894Y-65646000D01*
X112199894Y-65645999D01*
X113073305Y-65645999D01*
X113091615Y-65796791D01*
X113145478Y-65938819D01*
X113231768Y-66063831D01*
X113345463Y-66164555D01*
X113345464Y-66164555D01*
X113345466Y-66164557D01*
X113479966Y-66235148D01*
X113627451Y-66271500D01*
X113627452Y-66271500D01*
X113779348Y-66271500D01*
X113779349Y-66271500D01*
X113926834Y-66235148D01*
X114061334Y-66164557D01*
X114175032Y-66063830D01*
X114261321Y-65938819D01*
X114315185Y-65796791D01*
X114333494Y-65646000D01*
X116984905Y-65646000D01*
X117003215Y-65796791D01*
X117057078Y-65938819D01*
X117143368Y-66063831D01*
X117257063Y-66164555D01*
X117257064Y-66164555D01*
X117257066Y-66164557D01*
X117391566Y-66235148D01*
X117539051Y-66271500D01*
X117539052Y-66271500D01*
X117690948Y-66271500D01*
X117690949Y-66271500D01*
X117838434Y-66235148D01*
X117972934Y-66164557D01*
X118086632Y-66063830D01*
X118172921Y-65938819D01*
X118226785Y-65796791D01*
X118245094Y-65646000D01*
X118226785Y-65495209D01*
X118172921Y-65353181D01*
X118172921Y-65353180D01*
X118086631Y-65228168D01*
X117972936Y-65127444D01*
X117838432Y-65056851D01*
X117739190Y-65032390D01*
X117690949Y-65020500D01*
X117539051Y-65020500D01*
X117502700Y-65029459D01*
X117391567Y-65056851D01*
X117257063Y-65127444D01*
X117143368Y-65228168D01*
X117057078Y-65353180D01*
X117003215Y-65495208D01*
X116984905Y-65646000D01*
X114333494Y-65646000D01*
X114315185Y-65495209D01*
X114261321Y-65353181D01*
X114261321Y-65353180D01*
X114175031Y-65228168D01*
X114061336Y-65127444D01*
X113926832Y-65056851D01*
X113827590Y-65032390D01*
X113779349Y-65020500D01*
X113627451Y-65020500D01*
X113591100Y-65029459D01*
X113479967Y-65056851D01*
X113345463Y-65127444D01*
X113231768Y-65228168D01*
X113145478Y-65353180D01*
X113091615Y-65495208D01*
X113073305Y-65645999D01*
X112199894Y-65645999D01*
X112181585Y-65495209D01*
X112127721Y-65353181D01*
X112127721Y-65353180D01*
X112041431Y-65228168D01*
X111927736Y-65127444D01*
X111793232Y-65056851D01*
X111693990Y-65032390D01*
X111645749Y-65020500D01*
X111493851Y-65020500D01*
X111457500Y-65029459D01*
X111346367Y-65056851D01*
X111211863Y-65127444D01*
X111098168Y-65228168D01*
X111011878Y-65353180D01*
X110958015Y-65495208D01*
X110939705Y-65645999D01*
X101326726Y-65645999D01*
X101336629Y-61823600D01*
X128351105Y-61823600D01*
X128369415Y-61974391D01*
X128423278Y-62116419D01*
X128509568Y-62241431D01*
X128623263Y-62342155D01*
X128623264Y-62342155D01*
X128623266Y-62342157D01*
X128757766Y-62412748D01*
X128905251Y-62449100D01*
X128905252Y-62449100D01*
X129057148Y-62449100D01*
X129057149Y-62449100D01*
X129204634Y-62412748D01*
X129339134Y-62342157D01*
X129452832Y-62241430D01*
X129539121Y-62116419D01*
X129592985Y-61974391D01*
X129611294Y-61823600D01*
X129592985Y-61672809D01*
X129539121Y-61530781D01*
X129539121Y-61530780D01*
X129452831Y-61405768D01*
X129339136Y-61305044D01*
X129204632Y-61234451D01*
X129105390Y-61209990D01*
X129057149Y-61198100D01*
X128905251Y-61198100D01*
X128868899Y-61207059D01*
X128757767Y-61234451D01*
X128623263Y-61305044D01*
X128509568Y-61405768D01*
X128423278Y-61530780D01*
X128369415Y-61672808D01*
X128351105Y-61823600D01*
X101336629Y-61823600D01*
X101340182Y-60452000D01*
X124795105Y-60452000D01*
X124813415Y-60602791D01*
X124867278Y-60744819D01*
X124953568Y-60869831D01*
X125067263Y-60970555D01*
X125067264Y-60970555D01*
X125067266Y-60970557D01*
X125201766Y-61041148D01*
X125349251Y-61077500D01*
X125349252Y-61077500D01*
X125501148Y-61077500D01*
X125501149Y-61077500D01*
X125648634Y-61041148D01*
X125783134Y-60970557D01*
X125896832Y-60869830D01*
X125983121Y-60744819D01*
X126036985Y-60602791D01*
X126055294Y-60452000D01*
X126036985Y-60301209D01*
X125983121Y-60159181D01*
X125983121Y-60159180D01*
X125896831Y-60034168D01*
X125783136Y-59933444D01*
X125648632Y-59862851D01*
X125549390Y-59838390D01*
X125501149Y-59826500D01*
X125349251Y-59826500D01*
X125312900Y-59835459D01*
X125201767Y-59862851D01*
X125067263Y-59933444D01*
X124953568Y-60034168D01*
X124867278Y-60159180D01*
X124813415Y-60301208D01*
X124795105Y-60452000D01*
X101340182Y-60452000D01*
X101353869Y-55168800D01*
X124388705Y-55168800D01*
X124407015Y-55319591D01*
X124460878Y-55461619D01*
X124547168Y-55586631D01*
X124660863Y-55687355D01*
X124660864Y-55687355D01*
X124660866Y-55687357D01*
X124795366Y-55757948D01*
X124942851Y-55794300D01*
X124942852Y-55794300D01*
X125094748Y-55794300D01*
X125094749Y-55794300D01*
X125242234Y-55757948D01*
X125376734Y-55687357D01*
X125490432Y-55586630D01*
X125576721Y-55461619D01*
X125630585Y-55319591D01*
X125648894Y-55168800D01*
X125630585Y-55018009D01*
X125610709Y-54965600D01*
X127182705Y-54965600D01*
X127201015Y-55116391D01*
X127254878Y-55258419D01*
X127341168Y-55383431D01*
X127454863Y-55484155D01*
X127454864Y-55484155D01*
X127454866Y-55484157D01*
X127589366Y-55554748D01*
X127736851Y-55591100D01*
X127736852Y-55591100D01*
X127888747Y-55591100D01*
X127888749Y-55591100D01*
X128036234Y-55554748D01*
X128110777Y-55515624D01*
X128179281Y-55501899D01*
X128226020Y-55515623D01*
X128300566Y-55554748D01*
X128448051Y-55591100D01*
X128448053Y-55591100D01*
X128599948Y-55591100D01*
X128599949Y-55591100D01*
X128747434Y-55554748D01*
X128881934Y-55484157D01*
X128995632Y-55383430D01*
X129081921Y-55258419D01*
X129135785Y-55116391D01*
X129147926Y-55016399D01*
X135666305Y-55016399D01*
X135684615Y-55167191D01*
X135738478Y-55309219D01*
X135824768Y-55434231D01*
X135938463Y-55534955D01*
X135938464Y-55534955D01*
X135938466Y-55534957D01*
X136072966Y-55605548D01*
X136220451Y-55641900D01*
X136220452Y-55641900D01*
X136372348Y-55641900D01*
X136372349Y-55641900D01*
X136519834Y-55605548D01*
X136654334Y-55534957D01*
X136768032Y-55434230D01*
X136854321Y-55309219D01*
X136908185Y-55167191D01*
X136926494Y-55016400D01*
X136908185Y-54865609D01*
X136864708Y-54750970D01*
X136854321Y-54723580D01*
X136768031Y-54598568D01*
X136654336Y-54497844D01*
X136587084Y-54462547D01*
X136519834Y-54427252D01*
X136519833Y-54427251D01*
X136519832Y-54427251D01*
X136420590Y-54402790D01*
X136372349Y-54390900D01*
X136220451Y-54390900D01*
X136184099Y-54399859D01*
X136072967Y-54427251D01*
X135938463Y-54497844D01*
X135824768Y-54598568D01*
X135738478Y-54723580D01*
X135684615Y-54865608D01*
X135666305Y-55016399D01*
X129147926Y-55016399D01*
X129154094Y-54965600D01*
X129135785Y-54814809D01*
X129101186Y-54723580D01*
X129081921Y-54672780D01*
X128995631Y-54547768D01*
X128881936Y-54447044D01*
X128747432Y-54376451D01*
X128648190Y-54351990D01*
X128599949Y-54340100D01*
X128448051Y-54340100D01*
X128432151Y-54344019D01*
X128300565Y-54376451D01*
X128226025Y-54415573D01*
X128157516Y-54429297D01*
X128110775Y-54415573D01*
X128036234Y-54376451D01*
X127917911Y-54347288D01*
X127888749Y-54340100D01*
X127736851Y-54340100D01*
X127700499Y-54349059D01*
X127589367Y-54376451D01*
X127454863Y-54447044D01*
X127341168Y-54547768D01*
X127254878Y-54672780D01*
X127201015Y-54814808D01*
X127182705Y-54965600D01*
X125610709Y-54965600D01*
X125576721Y-54875981D01*
X125576721Y-54875980D01*
X125490431Y-54750968D01*
X125376736Y-54650244D01*
X125242232Y-54579651D01*
X125112876Y-54547768D01*
X125094749Y-54543300D01*
X124942851Y-54543300D01*
X124924724Y-54547768D01*
X124795367Y-54579651D01*
X124660863Y-54650244D01*
X124547168Y-54750968D01*
X124460878Y-54875980D01*
X124407015Y-55018008D01*
X124388705Y-55168800D01*
X101353869Y-55168800D01*
X101356764Y-54051200D01*
X119003905Y-54051200D01*
X119022215Y-54201991D01*
X119076078Y-54344019D01*
X119162368Y-54469031D01*
X119276063Y-54569755D01*
X119276064Y-54569755D01*
X119276066Y-54569757D01*
X119410566Y-54640348D01*
X119558051Y-54676700D01*
X119558052Y-54676700D01*
X119709948Y-54676700D01*
X119709949Y-54676700D01*
X119857434Y-54640348D01*
X119991934Y-54569757D01*
X120105632Y-54469030D01*
X120191921Y-54344019D01*
X120245785Y-54201991D01*
X120264094Y-54051200D01*
X120245785Y-53900409D01*
X120191921Y-53758381D01*
X120191921Y-53758380D01*
X120105631Y-53633368D01*
X119991936Y-53532644D01*
X119857432Y-53462051D01*
X119758190Y-53437590D01*
X119709949Y-53425700D01*
X119558051Y-53425700D01*
X119521699Y-53434659D01*
X119410567Y-53462051D01*
X119276063Y-53532644D01*
X119162368Y-53633368D01*
X119076078Y-53758380D01*
X119022215Y-53900408D01*
X119003905Y-54051200D01*
X101356764Y-54051200D01*
X101364529Y-51054000D01*
X116057505Y-51054000D01*
X116075815Y-51204791D01*
X116129678Y-51346819D01*
X116215968Y-51471831D01*
X116329663Y-51572555D01*
X116329664Y-51572555D01*
X116329666Y-51572557D01*
X116464166Y-51643148D01*
X116611651Y-51679500D01*
X116611652Y-51679500D01*
X116763548Y-51679500D01*
X116763549Y-51679500D01*
X116911034Y-51643148D01*
X117045534Y-51572557D01*
X117159232Y-51471830D01*
X117202186Y-51409600D01*
X135005905Y-51409600D01*
X135024215Y-51560391D01*
X135078078Y-51702419D01*
X135164368Y-51827431D01*
X135278063Y-51928155D01*
X135278064Y-51928155D01*
X135278066Y-51928157D01*
X135412566Y-51998748D01*
X135560051Y-52035100D01*
X135560052Y-52035100D01*
X135711948Y-52035100D01*
X135711949Y-52035100D01*
X135859434Y-51998748D01*
X135993934Y-51928157D01*
X136107632Y-51827430D01*
X136193921Y-51702419D01*
X136247785Y-51560391D01*
X136266094Y-51409600D01*
X137037905Y-51409600D01*
X137056215Y-51560391D01*
X137110078Y-51702419D01*
X137196368Y-51827431D01*
X137310063Y-51928155D01*
X137310064Y-51928155D01*
X137310066Y-51928157D01*
X137444566Y-51998748D01*
X137592051Y-52035100D01*
X137592052Y-52035100D01*
X137743948Y-52035100D01*
X137743949Y-52035100D01*
X137891434Y-51998748D01*
X138025934Y-51928157D01*
X138037852Y-51917599D01*
X139120705Y-51917599D01*
X139139015Y-52068391D01*
X139192878Y-52210419D01*
X139279168Y-52335431D01*
X139392863Y-52436155D01*
X139392864Y-52436155D01*
X139392866Y-52436157D01*
X139527366Y-52506748D01*
X139674851Y-52543100D01*
X139674852Y-52543100D01*
X139826748Y-52543100D01*
X139826749Y-52543100D01*
X139974234Y-52506748D01*
X140108734Y-52436157D01*
X140222432Y-52335430D01*
X140308721Y-52210419D01*
X140362585Y-52068391D01*
X140380894Y-51917600D01*
X140362585Y-51766809D01*
X140308721Y-51624781D01*
X140308721Y-51624780D01*
X140222431Y-51499768D01*
X140108736Y-51399044D01*
X139974232Y-51328451D01*
X139874990Y-51303990D01*
X139826749Y-51292100D01*
X139674851Y-51292100D01*
X139638500Y-51301059D01*
X139527367Y-51328451D01*
X139392863Y-51399044D01*
X139279168Y-51499768D01*
X139192878Y-51624780D01*
X139139015Y-51766808D01*
X139120705Y-51917599D01*
X138037852Y-51917599D01*
X138139632Y-51827430D01*
X138225921Y-51702419D01*
X138279785Y-51560391D01*
X138298094Y-51409600D01*
X138279785Y-51258809D01*
X138232148Y-51133200D01*
X138225921Y-51116780D01*
X138139631Y-50991768D01*
X138025936Y-50891044D01*
X137891432Y-50820451D01*
X137792190Y-50795990D01*
X137743949Y-50784100D01*
X137592051Y-50784100D01*
X137555700Y-50793059D01*
X137444567Y-50820451D01*
X137310063Y-50891044D01*
X137196368Y-50991768D01*
X137110078Y-51116780D01*
X137056215Y-51258808D01*
X137037905Y-51409600D01*
X136266094Y-51409600D01*
X136247785Y-51258809D01*
X136200148Y-51133200D01*
X136193921Y-51116780D01*
X136107631Y-50991768D01*
X135993936Y-50891044D01*
X135859432Y-50820451D01*
X135760190Y-50795990D01*
X135711949Y-50784100D01*
X135560051Y-50784100D01*
X135523700Y-50793059D01*
X135412567Y-50820451D01*
X135278063Y-50891044D01*
X135164368Y-50991768D01*
X135078078Y-51116780D01*
X135024215Y-51258808D01*
X135005905Y-51409600D01*
X117202186Y-51409600D01*
X117245521Y-51346819D01*
X117299385Y-51204791D01*
X117317694Y-51054000D01*
X117299385Y-50903209D01*
X117247771Y-50767113D01*
X117245521Y-50761180D01*
X117159231Y-50636168D01*
X117114793Y-50596800D01*
X122559905Y-50596800D01*
X122578215Y-50747591D01*
X122632078Y-50889619D01*
X122718368Y-51014631D01*
X122832063Y-51115355D01*
X122832064Y-51115355D01*
X122832066Y-51115357D01*
X122966566Y-51185948D01*
X123114051Y-51222300D01*
X123114052Y-51222300D01*
X123265948Y-51222300D01*
X123265949Y-51222300D01*
X123413434Y-51185948D01*
X123547934Y-51115357D01*
X123615774Y-51055255D01*
X123679005Y-51025535D01*
X123748269Y-51034718D01*
X123780223Y-51055253D01*
X123848066Y-51115357D01*
X123982566Y-51185948D01*
X124130051Y-51222300D01*
X124130052Y-51222300D01*
X124281948Y-51222300D01*
X124281949Y-51222300D01*
X124429434Y-51185948D01*
X124563934Y-51115357D01*
X124677632Y-51014630D01*
X124763921Y-50889619D01*
X124817785Y-50747591D01*
X124836094Y-50596800D01*
X124817785Y-50446009D01*
X124763921Y-50303981D01*
X124763921Y-50303980D01*
X124677631Y-50178968D01*
X124563936Y-50078244D01*
X124429432Y-50007651D01*
X124315619Y-49979599D01*
X133387905Y-49979599D01*
X133406215Y-50130391D01*
X133460078Y-50272419D01*
X133546368Y-50397431D01*
X133660063Y-50498155D01*
X133660064Y-50498155D01*
X133660066Y-50498157D01*
X133794566Y-50568748D01*
X133942051Y-50605100D01*
X133942052Y-50605100D01*
X134093948Y-50605100D01*
X134093949Y-50605100D01*
X134241434Y-50568748D01*
X134375934Y-50498157D01*
X134489632Y-50397430D01*
X134575921Y-50272419D01*
X134629785Y-50130391D01*
X134648094Y-49979600D01*
X134629785Y-49828809D01*
X134593525Y-49733200D01*
X145837699Y-49733200D01*
X145856865Y-49964499D01*
X145856865Y-49964501D01*
X145856866Y-49964505D01*
X145913843Y-50189500D01*
X145913844Y-50189503D01*
X145976876Y-50333200D01*
X146007076Y-50402049D01*
X146134021Y-50596353D01*
X146291216Y-50767113D01*
X146474374Y-50909670D01*
X146678497Y-51020136D01*
X146780801Y-51055257D01*
X146898015Y-51095497D01*
X146898017Y-51095497D01*
X146898019Y-51095498D01*
X147126951Y-51133700D01*
X147126952Y-51133700D01*
X147359048Y-51133700D01*
X147359049Y-51133700D01*
X147587981Y-51095498D01*
X147807503Y-51020136D01*
X148011626Y-50909670D01*
X148194784Y-50767113D01*
X148239665Y-50718358D01*
X148299549Y-50682368D01*
X148369387Y-50684467D01*
X148427004Y-50723990D01*
X148447076Y-50759007D01*
X148490447Y-50875288D01*
X148576611Y-50990388D01*
X148691710Y-51076552D01*
X148826428Y-51126799D01*
X148882667Y-51132845D01*
X148889282Y-51133200D01*
X149583800Y-51133200D01*
X149583800Y-50279081D01*
X149677169Y-50317756D01*
X149794477Y-50333200D01*
X149873123Y-50333200D01*
X149990431Y-50317756D01*
X150083800Y-50279081D01*
X150083800Y-51133200D01*
X150778318Y-51133200D01*
X150784932Y-51132845D01*
X150841171Y-51126799D01*
X150975889Y-51076552D01*
X151090988Y-50990388D01*
X151177152Y-50875289D01*
X151227399Y-50740571D01*
X151233445Y-50684332D01*
X151233800Y-50677718D01*
X151233800Y-49983200D01*
X150379682Y-49983200D01*
X150418356Y-49889831D01*
X150438977Y-49733200D01*
X150418356Y-49576569D01*
X150379682Y-49483200D01*
X151233800Y-49483200D01*
X151233800Y-48788681D01*
X151233445Y-48782067D01*
X151227399Y-48725828D01*
X151177152Y-48591110D01*
X151090988Y-48476011D01*
X150975889Y-48389847D01*
X150841171Y-48339600D01*
X150784932Y-48333554D01*
X150778318Y-48333200D01*
X150083800Y-48333200D01*
X150083800Y-49187318D01*
X149990431Y-49148644D01*
X149873123Y-49133200D01*
X149794477Y-49133200D01*
X149677169Y-49148644D01*
X149583800Y-49187318D01*
X149583800Y-48333200D01*
X148889282Y-48333200D01*
X148882667Y-48333554D01*
X148826428Y-48339600D01*
X148691710Y-48389847D01*
X148576611Y-48476011D01*
X148490445Y-48591113D01*
X148447075Y-48707392D01*
X148405204Y-48763326D01*
X148339739Y-48787742D01*
X148271466Y-48772890D01*
X148239664Y-48748040D01*
X148194787Y-48699289D01*
X148055801Y-48591113D01*
X148011626Y-48556730D01*
X147807503Y-48446264D01*
X147807499Y-48446262D01*
X147807498Y-48446262D01*
X147587984Y-48370902D01*
X147400398Y-48339600D01*
X147359049Y-48332700D01*
X147126951Y-48332700D01*
X147085602Y-48339600D01*
X146898015Y-48370902D01*
X146678501Y-48446262D01*
X146678497Y-48446263D01*
X146678497Y-48446264D01*
X146550361Y-48515608D01*
X146474372Y-48556731D01*
X146291215Y-48699287D01*
X146134020Y-48870048D01*
X146007076Y-49064350D01*
X145913844Y-49276896D01*
X145913842Y-49276900D01*
X145913843Y-49276900D01*
X145861601Y-49483200D01*
X145856865Y-49501900D01*
X145837699Y-49733200D01*
X134593525Y-49733200D01*
X134575921Y-49686781D01*
X134575921Y-49686780D01*
X134489631Y-49561768D01*
X134375936Y-49461044D01*
X134241432Y-49390451D01*
X134142190Y-49365990D01*
X134093949Y-49354100D01*
X133942051Y-49354100D01*
X133905699Y-49363059D01*
X133794567Y-49390451D01*
X133660063Y-49461044D01*
X133546368Y-49561768D01*
X133460078Y-49686780D01*
X133406215Y-49828808D01*
X133387905Y-49979599D01*
X124315619Y-49979599D01*
X124281949Y-49971300D01*
X124130051Y-49971300D01*
X124096381Y-49979599D01*
X123982567Y-50007651D01*
X123848065Y-50078243D01*
X123780227Y-50138343D01*
X123716994Y-50168064D01*
X123647730Y-50158880D01*
X123615773Y-50138343D01*
X123547934Y-50078243D01*
X123413432Y-50007651D01*
X123299619Y-49979599D01*
X123265949Y-49971300D01*
X123114051Y-49971300D01*
X123080381Y-49979599D01*
X122966567Y-50007651D01*
X122832063Y-50078244D01*
X122718368Y-50178968D01*
X122632078Y-50303980D01*
X122578215Y-50446008D01*
X122559905Y-50596800D01*
X117114793Y-50596800D01*
X117045536Y-50535444D01*
X116911032Y-50464851D01*
X116811790Y-50440390D01*
X116763549Y-50428500D01*
X116611651Y-50428500D01*
X116575300Y-50437459D01*
X116464167Y-50464851D01*
X116329663Y-50535444D01*
X116215968Y-50636168D01*
X116129678Y-50761180D01*
X116075815Y-50903208D01*
X116057505Y-51054000D01*
X101364529Y-51054000D01*
X101371373Y-48412400D01*
X123677505Y-48412400D01*
X123695815Y-48563191D01*
X123749678Y-48705219D01*
X123835968Y-48830231D01*
X123949663Y-48930955D01*
X123949664Y-48930955D01*
X123949666Y-48930957D01*
X124084166Y-49001548D01*
X124231651Y-49037900D01*
X124231652Y-49037900D01*
X124383548Y-49037900D01*
X124383549Y-49037900D01*
X124531034Y-49001548D01*
X124665534Y-48930957D01*
X124779232Y-48830230D01*
X124865521Y-48705219D01*
X124919385Y-48563191D01*
X124937694Y-48412400D01*
X124919385Y-48261609D01*
X124876240Y-48147844D01*
X124865521Y-48119580D01*
X124779231Y-47994568D01*
X124665536Y-47893844D01*
X124531032Y-47823251D01*
X124431790Y-47798790D01*
X124383549Y-47786900D01*
X124231651Y-47786900D01*
X124195300Y-47795859D01*
X124084167Y-47823251D01*
X123949663Y-47893844D01*
X123835968Y-47994568D01*
X123749678Y-48119580D01*
X123695815Y-48261608D01*
X123677505Y-48412400D01*
X101371373Y-48412400D01*
X101374005Y-47396400D01*
X107319905Y-47396400D01*
X107338215Y-47547191D01*
X107392078Y-47689219D01*
X107478368Y-47814231D01*
X107592063Y-47914955D01*
X107592064Y-47914955D01*
X107592066Y-47914957D01*
X107726566Y-47985548D01*
X107874051Y-48021900D01*
X107874052Y-48021900D01*
X108025948Y-48021900D01*
X108025949Y-48021900D01*
X108173434Y-47985548D01*
X108307934Y-47914957D01*
X108421632Y-47814230D01*
X108507921Y-47689219D01*
X108561785Y-47547191D01*
X108580094Y-47396400D01*
X108561785Y-47245609D01*
X108507921Y-47103581D01*
X108507921Y-47103580D01*
X108421631Y-46978569D01*
X108392676Y-46952917D01*
X108355549Y-46893728D01*
X108356317Y-46823863D01*
X108392674Y-46767288D01*
X108472432Y-46696630D01*
X108558721Y-46571619D01*
X108612585Y-46429591D01*
X108630894Y-46278800D01*
X108612585Y-46128009D01*
X108558721Y-45985981D01*
X108558721Y-45985980D01*
X108472431Y-45860968D01*
X108358736Y-45760244D01*
X108224232Y-45689651D01*
X108094876Y-45657768D01*
X108076749Y-45653300D01*
X107924851Y-45653300D01*
X107906724Y-45657768D01*
X107777367Y-45689651D01*
X107642863Y-45760244D01*
X107529168Y-45860968D01*
X107442878Y-45985980D01*
X107389015Y-46128008D01*
X107370705Y-46278799D01*
X107389015Y-46429591D01*
X107442878Y-46571619D01*
X107496560Y-46649389D01*
X107529168Y-46696630D01*
X107558125Y-46722283D01*
X107595250Y-46781469D01*
X107594484Y-46851335D01*
X107558124Y-46907912D01*
X107478368Y-46978568D01*
X107392078Y-47103580D01*
X107338215Y-47245608D01*
X107319905Y-47396400D01*
X101374005Y-47396400D01*
X101378743Y-45567600D01*
X124947505Y-45567600D01*
X124965815Y-45718391D01*
X125019678Y-45860419D01*
X125105968Y-45985431D01*
X125219663Y-46086155D01*
X125219664Y-46086155D01*
X125219666Y-46086157D01*
X125354166Y-46156748D01*
X125501651Y-46193100D01*
X125501652Y-46193100D01*
X125653548Y-46193100D01*
X125653549Y-46193100D01*
X125801034Y-46156748D01*
X125935534Y-46086157D01*
X126049232Y-45985430D01*
X126135521Y-45860419D01*
X126189385Y-45718391D01*
X126207694Y-45567600D01*
X126189385Y-45416809D01*
X126135521Y-45274781D01*
X126135521Y-45274780D01*
X126049231Y-45149768D01*
X125935536Y-45049044D01*
X125801032Y-44978451D01*
X125701790Y-44953990D01*
X125653549Y-44942100D01*
X125501651Y-44942100D01*
X125465299Y-44951059D01*
X125354167Y-44978451D01*
X125219663Y-45049044D01*
X125105968Y-45149768D01*
X125019678Y-45274780D01*
X124965815Y-45416808D01*
X124947505Y-45567600D01*
X101378743Y-45567600D01*
X101382033Y-44297600D01*
X107319905Y-44297600D01*
X107338215Y-44448391D01*
X107392078Y-44590419D01*
X107478368Y-44715431D01*
X107592063Y-44816155D01*
X107592064Y-44816155D01*
X107592066Y-44816157D01*
X107726566Y-44886748D01*
X107874051Y-44923100D01*
X107874052Y-44923100D01*
X108025948Y-44923100D01*
X108025949Y-44923100D01*
X108173434Y-44886748D01*
X108231259Y-44856399D01*
X134751905Y-44856399D01*
X134770215Y-45007191D01*
X134824078Y-45149219D01*
X134910368Y-45274231D01*
X135024066Y-45374957D01*
X135025968Y-45375956D01*
X135034377Y-45384092D01*
X135035336Y-45384942D01*
X135035298Y-45384984D01*
X135076181Y-45424541D01*
X135092155Y-45492560D01*
X135068820Y-45558417D01*
X135050569Y-45578567D01*
X134961168Y-45657768D01*
X134874878Y-45782780D01*
X134821015Y-45924808D01*
X134802705Y-46075599D01*
X134821015Y-46226391D01*
X134874878Y-46368419D01*
X134961168Y-46493431D01*
X135074864Y-46594156D01*
X135087530Y-46600804D01*
X135137742Y-46649389D01*
X135153716Y-46717408D01*
X135130380Y-46783266D01*
X135087530Y-46820396D01*
X135074864Y-46827043D01*
X134961168Y-46927768D01*
X134874878Y-47052780D01*
X134821015Y-47194808D01*
X134802705Y-47345600D01*
X134821015Y-47496391D01*
X134874878Y-47638419D01*
X134961166Y-47763428D01*
X134961167Y-47763429D01*
X134961168Y-47763430D01*
X135066323Y-47856589D01*
X135103450Y-47915778D01*
X135102682Y-47985643D01*
X135066327Y-48042216D01*
X135062769Y-48045367D01*
X134976478Y-48170380D01*
X134922615Y-48312408D01*
X134904305Y-48463200D01*
X134922615Y-48613991D01*
X134976478Y-48756019D01*
X135062768Y-48881031D01*
X135176463Y-48981755D01*
X135176464Y-48981755D01*
X135176466Y-48981757D01*
X135310966Y-49052348D01*
X135458451Y-49088700D01*
X135458452Y-49088700D01*
X135610348Y-49088700D01*
X135610349Y-49088700D01*
X135757834Y-49052348D01*
X135892334Y-48981757D01*
X136006032Y-48881030D01*
X136092321Y-48756019D01*
X136126309Y-48666399D01*
X138765105Y-48666399D01*
X138783415Y-48817191D01*
X138837278Y-48959219D01*
X138923568Y-49084231D01*
X139037263Y-49184955D01*
X139037264Y-49184955D01*
X139037266Y-49184957D01*
X139171766Y-49255548D01*
X139319251Y-49291900D01*
X139319252Y-49291900D01*
X139471148Y-49291900D01*
X139471149Y-49291900D01*
X139618634Y-49255548D01*
X139753134Y-49184957D01*
X139866832Y-49084230D01*
X139953121Y-48959219D01*
X140006985Y-48817191D01*
X140025294Y-48666400D01*
X140006985Y-48515609D01*
X139953121Y-48373581D01*
X139953121Y-48373580D01*
X139866831Y-48248568D01*
X139753136Y-48147844D01*
X139618632Y-48077251D01*
X139489272Y-48045367D01*
X139471149Y-48040900D01*
X139319251Y-48040900D01*
X139301128Y-48045367D01*
X139171767Y-48077251D01*
X139037263Y-48147844D01*
X138923568Y-48248568D01*
X138837278Y-48373580D01*
X138783415Y-48515608D01*
X138765105Y-48666399D01*
X136126309Y-48666399D01*
X136146185Y-48613991D01*
X136164494Y-48463200D01*
X136146185Y-48312409D01*
X136092321Y-48170381D01*
X136092321Y-48170380D01*
X136006033Y-48045371D01*
X136006032Y-48045370D01*
X135900875Y-47952209D01*
X135863749Y-47893021D01*
X135864517Y-47823156D01*
X135900877Y-47766579D01*
X135904432Y-47763430D01*
X135990721Y-47638419D01*
X136044585Y-47496391D01*
X136062894Y-47345600D01*
X136044585Y-47194809D01*
X135990721Y-47052781D01*
X135990721Y-47052780D01*
X135904431Y-46927768D01*
X135790733Y-46827041D01*
X135778068Y-46820394D01*
X135727856Y-46771808D01*
X135711883Y-46703789D01*
X135735220Y-46637932D01*
X135778069Y-46600803D01*
X135790734Y-46594157D01*
X135904432Y-46493430D01*
X135990721Y-46368419D01*
X136044585Y-46226391D01*
X136062894Y-46075600D01*
X136044585Y-45924809D01*
X135990721Y-45782781D01*
X135990721Y-45782780D01*
X135904431Y-45657768D01*
X135790734Y-45557042D01*
X135788828Y-45556042D01*
X135780405Y-45547892D01*
X135779464Y-45547058D01*
X135779500Y-45547016D01*
X135738617Y-45507456D01*
X135722644Y-45439436D01*
X135745981Y-45373579D01*
X135764226Y-45353435D01*
X135853632Y-45274230D01*
X135939921Y-45149219D01*
X135993785Y-45007191D01*
X136012094Y-44856400D01*
X135993785Y-44705609D01*
X135939921Y-44563581D01*
X135939921Y-44563580D01*
X135853631Y-44438568D01*
X135739936Y-44337844D01*
X135605432Y-44267251D01*
X135506190Y-44242790D01*
X135457949Y-44230900D01*
X135306051Y-44230900D01*
X135269700Y-44239859D01*
X135158567Y-44267251D01*
X135024063Y-44337844D01*
X134910368Y-44438568D01*
X134824078Y-44563580D01*
X134770215Y-44705608D01*
X134751905Y-44856399D01*
X108231259Y-44856399D01*
X108307934Y-44816157D01*
X108421632Y-44715430D01*
X108507921Y-44590419D01*
X108561785Y-44448391D01*
X108580094Y-44297600D01*
X108561785Y-44146809D01*
X108507921Y-44004781D01*
X108507921Y-44004780D01*
X108499652Y-43992800D01*
X129722705Y-43992800D01*
X129741015Y-44143591D01*
X129794878Y-44285619D01*
X129881168Y-44410631D01*
X129994863Y-44511355D01*
X129994864Y-44511355D01*
X129994866Y-44511357D01*
X130129366Y-44581948D01*
X130276851Y-44618300D01*
X130276852Y-44618300D01*
X130428748Y-44618300D01*
X130428749Y-44618300D01*
X130576234Y-44581948D01*
X130710734Y-44511357D01*
X130824432Y-44410630D01*
X130910721Y-44285619D01*
X130964585Y-44143591D01*
X130982894Y-43992800D01*
X130964585Y-43842009D01*
X130922324Y-43730575D01*
X130910721Y-43699980D01*
X130824431Y-43574968D01*
X130710736Y-43474244D01*
X130576232Y-43403651D01*
X130476990Y-43379190D01*
X130428749Y-43367300D01*
X130276851Y-43367300D01*
X130240500Y-43376259D01*
X130129367Y-43403651D01*
X129994863Y-43474244D01*
X129881168Y-43574968D01*
X129794878Y-43699980D01*
X129741015Y-43842008D01*
X129722705Y-43992800D01*
X108499652Y-43992800D01*
X108421633Y-43879771D01*
X108421632Y-43879770D01*
X108395945Y-43857014D01*
X108358820Y-43797826D01*
X108359588Y-43727961D01*
X108395945Y-43671385D01*
X108421632Y-43648630D01*
X108507921Y-43523619D01*
X108561785Y-43381591D01*
X108580094Y-43230800D01*
X108561785Y-43080009D01*
X108507921Y-42937981D01*
X108507921Y-42937980D01*
X108421631Y-42812968D01*
X108307936Y-42712244D01*
X108173432Y-42641651D01*
X108074190Y-42617190D01*
X108025949Y-42605300D01*
X107874051Y-42605300D01*
X107837700Y-42614259D01*
X107726567Y-42641651D01*
X107592063Y-42712244D01*
X107478368Y-42812968D01*
X107392078Y-42937980D01*
X107338215Y-43080008D01*
X107319905Y-43230799D01*
X107338215Y-43381591D01*
X107392078Y-43523619D01*
X107478367Y-43648629D01*
X107504053Y-43671385D01*
X107541179Y-43730575D01*
X107540411Y-43800441D01*
X107504053Y-43857015D01*
X107478367Y-43879770D01*
X107392078Y-44004780D01*
X107338215Y-44146808D01*
X107319905Y-44297600D01*
X101382033Y-44297600D01*
X101386639Y-42519600D01*
X122356705Y-42519600D01*
X122375015Y-42670391D01*
X122428878Y-42812419D01*
X122515168Y-42937431D01*
X122628863Y-43038155D01*
X122628864Y-43038155D01*
X122628866Y-43038157D01*
X122763366Y-43108748D01*
X122910851Y-43145100D01*
X122910852Y-43145100D01*
X123062748Y-43145100D01*
X123062749Y-43145100D01*
X123210234Y-43108748D01*
X123344734Y-43038157D01*
X123458432Y-42937430D01*
X123544721Y-42812419D01*
X123598585Y-42670391D01*
X123616894Y-42519600D01*
X123598585Y-42368809D01*
X123544721Y-42226781D01*
X123544721Y-42226780D01*
X123466322Y-42113200D01*
X125150705Y-42113200D01*
X125169015Y-42263991D01*
X125222878Y-42406019D01*
X125309168Y-42531031D01*
X125422863Y-42631755D01*
X125422864Y-42631755D01*
X125422866Y-42631757D01*
X125557366Y-42702348D01*
X125704851Y-42738700D01*
X125704852Y-42738700D01*
X125856748Y-42738700D01*
X125856749Y-42738700D01*
X126004234Y-42702348D01*
X126138734Y-42631757D01*
X126252432Y-42531030D01*
X126338721Y-42406019D01*
X126392585Y-42263991D01*
X126410894Y-42113200D01*
X126392585Y-41962409D01*
X126338721Y-41820381D01*
X126338721Y-41820380D01*
X126252431Y-41695368D01*
X126207993Y-41656000D01*
X134599505Y-41656000D01*
X134617815Y-41806791D01*
X134671678Y-41948819D01*
X134757968Y-42073831D01*
X134871663Y-42174555D01*
X134871664Y-42174555D01*
X134871666Y-42174557D01*
X135006166Y-42245148D01*
X135153651Y-42281500D01*
X135153652Y-42281500D01*
X135305548Y-42281500D01*
X135305549Y-42281500D01*
X135453034Y-42245148D01*
X135587534Y-42174557D01*
X135701232Y-42073830D01*
X135787521Y-41948819D01*
X135841385Y-41806791D01*
X135859694Y-41656000D01*
X135841385Y-41505209D01*
X135787521Y-41363181D01*
X135787521Y-41363180D01*
X135701231Y-41238168D01*
X135587536Y-41137444D01*
X135453032Y-41066851D01*
X135353790Y-41042390D01*
X135305549Y-41030500D01*
X135153651Y-41030500D01*
X135117300Y-41039459D01*
X135006167Y-41066851D01*
X134871663Y-41137444D01*
X134757968Y-41238168D01*
X134671678Y-41363180D01*
X134617815Y-41505208D01*
X134599505Y-41656000D01*
X126207993Y-41656000D01*
X126138736Y-41594644D01*
X126004232Y-41524051D01*
X125904990Y-41499590D01*
X125856749Y-41487700D01*
X125704851Y-41487700D01*
X125668500Y-41496659D01*
X125557367Y-41524051D01*
X125422863Y-41594644D01*
X125309168Y-41695368D01*
X125222878Y-41820380D01*
X125169015Y-41962408D01*
X125150705Y-42113200D01*
X123466322Y-42113200D01*
X123458431Y-42101768D01*
X123344736Y-42001044D01*
X123210232Y-41930451D01*
X123110990Y-41905990D01*
X123062749Y-41894100D01*
X122910851Y-41894100D01*
X122874499Y-41903059D01*
X122763367Y-41930451D01*
X122628863Y-42001044D01*
X122515168Y-42101768D01*
X122428878Y-42226780D01*
X122375015Y-42368808D01*
X122356705Y-42519600D01*
X101386639Y-42519600D01*
X101392693Y-40182799D01*
X120477105Y-40182799D01*
X120495415Y-40333591D01*
X120549278Y-40475619D01*
X120635568Y-40600631D01*
X120749263Y-40701355D01*
X120749264Y-40701355D01*
X120749266Y-40701357D01*
X120883766Y-40771948D01*
X121031251Y-40808300D01*
X121031252Y-40808300D01*
X121183148Y-40808300D01*
X121183149Y-40808300D01*
X121330634Y-40771948D01*
X121465134Y-40701357D01*
X121578832Y-40600630D01*
X121665121Y-40475619D01*
X121718985Y-40333591D01*
X121737294Y-40182800D01*
X121731126Y-40132000D01*
X122356705Y-40132000D01*
X122375015Y-40282791D01*
X122428878Y-40424819D01*
X122515168Y-40549831D01*
X122628863Y-40650555D01*
X122628864Y-40650555D01*
X122628866Y-40650557D01*
X122763366Y-40721148D01*
X122910851Y-40757500D01*
X122910852Y-40757500D01*
X123062748Y-40757500D01*
X123062749Y-40757500D01*
X123210234Y-40721148D01*
X123344734Y-40650557D01*
X123458432Y-40549830D01*
X123544721Y-40424819D01*
X123598585Y-40282791D01*
X123616894Y-40132000D01*
X123610726Y-40081200D01*
X131500705Y-40081200D01*
X131519015Y-40231991D01*
X131572878Y-40374019D01*
X131659168Y-40499031D01*
X131772863Y-40599755D01*
X131772864Y-40599755D01*
X131772866Y-40599757D01*
X131907366Y-40670348D01*
X132054851Y-40706700D01*
X132054852Y-40706700D01*
X132206748Y-40706700D01*
X132206749Y-40706700D01*
X132354234Y-40670348D01*
X132488734Y-40599757D01*
X132602432Y-40499030D01*
X132688721Y-40374019D01*
X132742585Y-40231991D01*
X132760894Y-40081200D01*
X133431105Y-40081200D01*
X133449415Y-40231991D01*
X133503278Y-40374019D01*
X133589568Y-40499031D01*
X133703263Y-40599755D01*
X133703264Y-40599755D01*
X133703266Y-40599757D01*
X133837766Y-40670348D01*
X133985251Y-40706700D01*
X133985252Y-40706700D01*
X134137148Y-40706700D01*
X134137149Y-40706700D01*
X134284634Y-40670348D01*
X134419134Y-40599757D01*
X134532832Y-40499030D01*
X134619121Y-40374019D01*
X134656674Y-40275000D01*
X138361953Y-40275000D01*
X138380092Y-40447576D01*
X138400535Y-40510495D01*
X138419692Y-40569455D01*
X138421686Y-40639297D01*
X138412246Y-40664065D01*
X138381353Y-40724697D01*
X138366500Y-40818478D01*
X138366500Y-41731514D01*
X138366501Y-41731518D01*
X138381354Y-41825304D01*
X138381354Y-41825305D01*
X138381355Y-41825306D01*
X138438949Y-41938342D01*
X138528656Y-42028049D01*
X138528658Y-42028050D01*
X138641696Y-42085646D01*
X138735481Y-42100500D01*
X139648518Y-42100499D01*
X139742304Y-42085646D01*
X139801927Y-42055265D01*
X139870595Y-42042369D01*
X139908658Y-42052471D01*
X139935501Y-42064422D01*
X140105234Y-42100500D01*
X140105236Y-42100500D01*
X140278766Y-42100500D01*
X140404237Y-42073830D01*
X140448499Y-42064422D01*
X140607024Y-41993842D01*
X140619114Y-41985057D01*
X140684919Y-41961577D01*
X140752974Y-41977402D01*
X140764879Y-41985053D01*
X140776976Y-41993842D01*
X140908659Y-42052471D01*
X140935501Y-42064422D01*
X141105234Y-42100500D01*
X141105236Y-42100500D01*
X141278766Y-42100500D01*
X141448496Y-42064423D01*
X141448497Y-42064422D01*
X141448499Y-42064422D01*
X141607024Y-41993842D01*
X141747410Y-41891845D01*
X141863522Y-41762889D01*
X141950286Y-41612611D01*
X142003908Y-41447576D01*
X142022047Y-41275000D01*
X142003908Y-41102424D01*
X141950286Y-40937389D01*
X141950285Y-40937389D01*
X141892326Y-40836999D01*
X141875853Y-40769099D01*
X141892325Y-40713001D01*
X141950286Y-40612611D01*
X142003908Y-40447576D01*
X142022047Y-40275000D01*
X142003908Y-40102424D01*
X141950286Y-39937389D01*
X141863522Y-39787111D01*
X141747410Y-39658155D01*
X141636195Y-39577352D01*
X141607023Y-39556157D01*
X141448496Y-39485576D01*
X141278766Y-39449500D01*
X141278764Y-39449500D01*
X141105236Y-39449500D01*
X141105234Y-39449500D01*
X140935503Y-39485576D01*
X140841960Y-39527225D01*
X140772710Y-39536509D01*
X140718639Y-39514263D01*
X140657047Y-39469513D01*
X140479413Y-39390427D01*
X140442000Y-39382474D01*
X140442000Y-39892247D01*
X140435931Y-39930564D01*
X140400535Y-40039505D01*
X140380092Y-40102424D01*
X140379720Y-40105955D01*
X140372240Y-40094760D01*
X140289545Y-40039505D01*
X140216624Y-40025000D01*
X140167376Y-40025000D01*
X140094455Y-40039505D01*
X140011760Y-40094760D01*
X140004279Y-40105955D01*
X140003908Y-40102424D01*
X139964524Y-39981209D01*
X139948069Y-39930564D01*
X139942000Y-39892247D01*
X139942000Y-39382474D01*
X139904585Y-39390427D01*
X139726952Y-39469514D01*
X139665357Y-39514264D01*
X139599550Y-39537742D01*
X139542039Y-39527224D01*
X139448497Y-39485576D01*
X139278766Y-39449500D01*
X139278764Y-39449500D01*
X139105236Y-39449500D01*
X139105234Y-39449500D01*
X138935505Y-39485576D01*
X138776975Y-39556158D01*
X138636589Y-39658156D01*
X138520477Y-39787111D01*
X138433713Y-39937389D01*
X138400535Y-40039505D01*
X138380092Y-40102424D01*
X138361953Y-40275000D01*
X134656674Y-40275000D01*
X134672985Y-40231991D01*
X134691294Y-40081200D01*
X134672985Y-39930409D01*
X134619121Y-39788381D01*
X134619121Y-39788380D01*
X134532833Y-39663371D01*
X134532830Y-39663368D01*
X134478474Y-39615213D01*
X134441349Y-39556026D01*
X134442117Y-39486161D01*
X134478474Y-39429586D01*
X134532832Y-39381430D01*
X134619121Y-39256419D01*
X134672985Y-39114391D01*
X134691294Y-38963600D01*
X134672985Y-38812809D01*
X134629840Y-38699044D01*
X134619121Y-38670780D01*
X134532831Y-38545768D01*
X134419136Y-38445044D01*
X134333312Y-38400000D01*
X147589940Y-38400000D01*
X147610536Y-38635407D01*
X147663120Y-38831652D01*
X147671697Y-38863663D01*
X147771565Y-39077829D01*
X147907105Y-39271401D01*
X148074199Y-39438495D01*
X148267771Y-39574035D01*
X148481937Y-39673903D01*
X148710192Y-39735063D01*
X148886634Y-39750500D01*
X148889342Y-39750500D01*
X149001858Y-39750500D01*
X149004566Y-39750500D01*
X149181008Y-39735063D01*
X149409263Y-39673903D01*
X149623429Y-39574035D01*
X149817001Y-39438495D01*
X149984095Y-39271401D01*
X150119635Y-39077830D01*
X150219503Y-38863663D01*
X150280663Y-38635408D01*
X150301259Y-38400000D01*
X150280663Y-38164592D01*
X150219503Y-37936337D01*
X150119635Y-37722171D01*
X149984095Y-37528599D01*
X149817001Y-37361505D01*
X149623429Y-37225965D01*
X149409263Y-37126097D01*
X149380220Y-37118315D01*
X149181007Y-37064936D01*
X149007267Y-37049736D01*
X149007259Y-37049735D01*
X149004566Y-37049500D01*
X148886634Y-37049500D01*
X148883941Y-37049735D01*
X148883932Y-37049736D01*
X148710192Y-37064936D01*
X148481936Y-37126097D01*
X148267770Y-37225965D01*
X148074198Y-37361505D01*
X147907108Y-37528595D01*
X147907105Y-37528598D01*
X147907105Y-37528599D01*
X147781615Y-37707818D01*
X147771564Y-37722172D01*
X147671697Y-37936337D01*
X147610536Y-38164592D01*
X147589940Y-38400000D01*
X134333312Y-38400000D01*
X134284634Y-38374452D01*
X134284633Y-38374451D01*
X134284632Y-38374451D01*
X134185390Y-38349990D01*
X134137149Y-38338100D01*
X133985251Y-38338100D01*
X133948900Y-38347059D01*
X133837767Y-38374451D01*
X133703263Y-38445044D01*
X133589568Y-38545768D01*
X133503278Y-38670780D01*
X133449415Y-38812808D01*
X133431105Y-38963599D01*
X133449415Y-39114391D01*
X133503278Y-39256419D01*
X133580568Y-39368391D01*
X133589568Y-39381430D01*
X133643924Y-39429585D01*
X133681050Y-39488772D01*
X133680284Y-39558637D01*
X133643925Y-39615214D01*
X133621774Y-39634838D01*
X133595454Y-39658156D01*
X133589567Y-39663371D01*
X133503278Y-39788380D01*
X133449415Y-39930408D01*
X133431105Y-40081200D01*
X132760894Y-40081200D01*
X132742585Y-39930409D01*
X132688721Y-39788381D01*
X132688721Y-39788380D01*
X132602433Y-39663371D01*
X132602430Y-39663368D01*
X132544803Y-39612316D01*
X132507678Y-39553128D01*
X132508446Y-39483263D01*
X132544803Y-39426689D01*
X132653232Y-39330630D01*
X132739521Y-39205619D01*
X132793385Y-39063591D01*
X132811694Y-38912800D01*
X132793385Y-38762009D01*
X132749908Y-38647370D01*
X132739521Y-38619980D01*
X132653231Y-38494968D01*
X132539536Y-38394244D01*
X132405032Y-38323651D01*
X132305790Y-38299190D01*
X132257549Y-38287300D01*
X132105651Y-38287300D01*
X132069299Y-38296259D01*
X131958167Y-38323651D01*
X131823663Y-38394244D01*
X131709968Y-38494968D01*
X131623678Y-38619980D01*
X131569815Y-38762008D01*
X131551505Y-38912799D01*
X131569815Y-39063591D01*
X131623678Y-39205619D01*
X131709966Y-39330628D01*
X131709967Y-39330629D01*
X131709968Y-39330630D01*
X131767595Y-39381682D01*
X131804721Y-39440871D01*
X131803953Y-39510736D01*
X131767594Y-39567312D01*
X131659168Y-39663368D01*
X131572878Y-39788380D01*
X131519015Y-39930408D01*
X131500705Y-40081200D01*
X123610726Y-40081200D01*
X123598585Y-39981209D01*
X123563986Y-39889980D01*
X123544721Y-39839180D01*
X123458433Y-39714171D01*
X123458432Y-39714170D01*
X123432745Y-39691414D01*
X123395620Y-39632226D01*
X123396388Y-39562361D01*
X123432745Y-39505785D01*
X123458432Y-39483030D01*
X123501386Y-39420800D01*
X126623905Y-39420800D01*
X126642215Y-39571591D01*
X126696078Y-39713619D01*
X126782368Y-39838631D01*
X126896063Y-39939355D01*
X126896064Y-39939355D01*
X126896066Y-39939357D01*
X127030566Y-40009948D01*
X127178051Y-40046300D01*
X127178052Y-40046300D01*
X127329948Y-40046300D01*
X127329949Y-40046300D01*
X127477434Y-40009948D01*
X127611934Y-39939357D01*
X127725632Y-39838630D01*
X127761550Y-39786592D01*
X127815830Y-39742603D01*
X127885279Y-39734943D01*
X127947844Y-39766045D01*
X127965647Y-39786590D01*
X128001568Y-39838630D01*
X128001569Y-39838631D01*
X128001570Y-39838632D01*
X128115263Y-39939355D01*
X128115264Y-39939355D01*
X128115266Y-39939357D01*
X128249766Y-40009948D01*
X128397251Y-40046300D01*
X128397252Y-40046300D01*
X128549148Y-40046300D01*
X128549149Y-40046300D01*
X128696634Y-40009948D01*
X128831134Y-39939357D01*
X128944832Y-39838630D01*
X129031121Y-39713619D01*
X129084985Y-39571591D01*
X129103294Y-39420800D01*
X129084985Y-39270009D01*
X129031121Y-39127981D01*
X129031121Y-39127980D01*
X128944831Y-39002968D01*
X128831136Y-38902244D01*
X128696632Y-38831651D01*
X128597390Y-38807190D01*
X128549149Y-38795300D01*
X128397251Y-38795300D01*
X128379124Y-38799768D01*
X128249767Y-38831651D01*
X128115263Y-38902244D01*
X128001568Y-39002969D01*
X127965650Y-39055006D01*
X127911367Y-39098996D01*
X127841918Y-39106656D01*
X127779353Y-39075552D01*
X127761550Y-39055006D01*
X127753776Y-39043744D01*
X127725632Y-39002970D01*
X127725630Y-39002968D01*
X127611936Y-38902244D01*
X127477432Y-38831651D01*
X127378190Y-38807190D01*
X127329949Y-38795300D01*
X127178051Y-38795300D01*
X127159924Y-38799768D01*
X127030567Y-38831651D01*
X126896063Y-38902244D01*
X126782368Y-39002968D01*
X126696078Y-39127980D01*
X126642215Y-39270008D01*
X126623905Y-39420800D01*
X123501386Y-39420800D01*
X123544721Y-39358019D01*
X123598585Y-39215991D01*
X123616894Y-39065200D01*
X123598585Y-38914409D01*
X123555108Y-38799770D01*
X123544721Y-38772380D01*
X123458431Y-38647368D01*
X123344736Y-38546644D01*
X123277484Y-38511347D01*
X123210234Y-38476052D01*
X123210233Y-38476051D01*
X123210232Y-38476051D01*
X123084426Y-38445043D01*
X123062749Y-38439700D01*
X122910851Y-38439700D01*
X122889174Y-38445043D01*
X122763367Y-38476051D01*
X122628863Y-38546644D01*
X122515168Y-38647368D01*
X122428878Y-38772380D01*
X122375015Y-38914408D01*
X122356705Y-39065200D01*
X122375015Y-39215991D01*
X122428878Y-39358019D01*
X122515166Y-39483028D01*
X122515167Y-39483029D01*
X122515168Y-39483030D01*
X122540853Y-39505785D01*
X122577978Y-39564972D01*
X122577211Y-39634838D01*
X122540854Y-39691412D01*
X122515170Y-39714167D01*
X122428878Y-39839180D01*
X122375015Y-39981208D01*
X122356705Y-40132000D01*
X121731126Y-40132000D01*
X121718985Y-40032009D01*
X121680453Y-39930408D01*
X121665121Y-39889980D01*
X121578833Y-39764971D01*
X121578830Y-39764968D01*
X121495802Y-39691412D01*
X121458678Y-39632226D01*
X121459446Y-39562361D01*
X121495803Y-39505786D01*
X121578832Y-39432230D01*
X121665121Y-39307219D01*
X121718985Y-39165191D01*
X121737294Y-39014400D01*
X121718985Y-38863609D01*
X121665121Y-38721581D01*
X121665121Y-38721580D01*
X121578831Y-38596568D01*
X121465136Y-38495844D01*
X121389256Y-38456019D01*
X121330634Y-38425252D01*
X121330633Y-38425251D01*
X121330632Y-38425251D01*
X121204826Y-38394243D01*
X121183149Y-38388900D01*
X121031251Y-38388900D01*
X121009574Y-38394243D01*
X120883767Y-38425251D01*
X120749263Y-38495844D01*
X120635568Y-38596568D01*
X120549278Y-38721580D01*
X120495415Y-38863608D01*
X120477105Y-39014400D01*
X120495415Y-39165191D01*
X120549278Y-39307219D01*
X120635568Y-39432231D01*
X120718594Y-39505785D01*
X120755721Y-39564974D01*
X120754953Y-39634840D01*
X120718594Y-39691415D01*
X120635568Y-39764968D01*
X120549278Y-39889980D01*
X120495415Y-40032008D01*
X120477105Y-40182799D01*
X101392693Y-40182799D01*
X101397165Y-38456473D01*
X101397300Y-38456019D01*
X101397300Y-38408044D01*
X101397470Y-38401555D01*
X101397551Y-38400000D01*
X103343140Y-38400000D01*
X103363736Y-38635407D01*
X103416320Y-38831652D01*
X103424897Y-38863663D01*
X103524765Y-39077829D01*
X103660305Y-39271401D01*
X103827399Y-39438495D01*
X104020971Y-39574035D01*
X104235137Y-39673903D01*
X104463392Y-39735063D01*
X104639834Y-39750500D01*
X104642542Y-39750500D01*
X104755058Y-39750500D01*
X104757766Y-39750500D01*
X104934208Y-39735063D01*
X105162463Y-39673903D01*
X105376629Y-39574035D01*
X105570201Y-39438495D01*
X105737295Y-39271401D01*
X105774967Y-39217600D01*
X115397105Y-39217600D01*
X115415415Y-39368391D01*
X115469278Y-39510419D01*
X115555568Y-39635431D01*
X115669263Y-39736155D01*
X115669264Y-39736155D01*
X115669266Y-39736157D01*
X115803766Y-39806748D01*
X115951251Y-39843100D01*
X115951252Y-39843100D01*
X116103148Y-39843100D01*
X116103149Y-39843100D01*
X116250634Y-39806748D01*
X116385134Y-39736157D01*
X116498832Y-39635430D01*
X116498833Y-39635428D01*
X116503773Y-39631052D01*
X116567005Y-39601330D01*
X116636269Y-39610513D01*
X116668227Y-39631052D01*
X116673166Y-39635428D01*
X116673168Y-39635430D01*
X116716594Y-39673902D01*
X116786863Y-39736155D01*
X116786864Y-39736155D01*
X116786866Y-39736157D01*
X116921366Y-39806748D01*
X117068851Y-39843100D01*
X117068852Y-39843100D01*
X117220748Y-39843100D01*
X117220749Y-39843100D01*
X117368234Y-39806748D01*
X117502734Y-39736157D01*
X117584896Y-39663368D01*
X117616431Y-39635431D01*
X117616841Y-39634838D01*
X117702721Y-39510419D01*
X117756585Y-39368391D01*
X117774894Y-39217600D01*
X117756585Y-39066809D01*
X117702721Y-38924781D01*
X117702721Y-38924780D01*
X117616431Y-38799768D01*
X117502736Y-38699044D01*
X117404275Y-38647368D01*
X117368234Y-38628452D01*
X117368233Y-38628451D01*
X117368232Y-38628451D01*
X117238876Y-38596568D01*
X117220749Y-38592100D01*
X117068851Y-38592100D01*
X117050724Y-38596568D01*
X116921367Y-38628451D01*
X116786865Y-38699043D01*
X116668226Y-38804148D01*
X116604993Y-38833869D01*
X116535729Y-38824685D01*
X116503772Y-38804147D01*
X116498832Y-38799771D01*
X116498832Y-38799770D01*
X116453395Y-38759516D01*
X116385136Y-38699044D01*
X116286675Y-38647368D01*
X116250634Y-38628452D01*
X116250633Y-38628451D01*
X116250632Y-38628451D01*
X116121276Y-38596568D01*
X116103149Y-38592100D01*
X115951251Y-38592100D01*
X115933124Y-38596568D01*
X115803767Y-38628451D01*
X115669263Y-38699044D01*
X115555568Y-38799768D01*
X115469278Y-38924780D01*
X115415415Y-39066808D01*
X115397105Y-39217600D01*
X105774967Y-39217600D01*
X105872835Y-39077830D01*
X105972703Y-38863663D01*
X106033863Y-38635408D01*
X106054459Y-38400000D01*
X106033863Y-38164592D01*
X105972703Y-37936337D01*
X105872835Y-37722171D01*
X105737295Y-37528599D01*
X105570201Y-37361505D01*
X105376629Y-37225965D01*
X105162463Y-37126097D01*
X105133420Y-37118315D01*
X104934207Y-37064936D01*
X104760467Y-37049736D01*
X104760459Y-37049735D01*
X104757766Y-37049500D01*
X104639834Y-37049500D01*
X104637141Y-37049735D01*
X104637132Y-37049736D01*
X104463392Y-37064936D01*
X104235136Y-37126097D01*
X104020970Y-37225965D01*
X103827398Y-37361505D01*
X103660308Y-37528595D01*
X103660305Y-37528598D01*
X103660305Y-37528599D01*
X103534815Y-37707818D01*
X103524764Y-37722172D01*
X103424897Y-37936337D01*
X103363736Y-38164592D01*
X103343140Y-38400000D01*
X101397551Y-38400000D01*
X101404284Y-38271533D01*
X101416577Y-38052636D01*
X101417902Y-38040258D01*
X101443533Y-37878429D01*
X101452159Y-37827663D01*
X101474961Y-37693462D01*
X101477423Y-37682187D01*
X101521577Y-37517402D01*
X101571905Y-37342711D01*
X101575271Y-37332676D01*
X101636955Y-37171984D01*
X101638042Y-37169259D01*
X101706249Y-37004593D01*
X101710297Y-36995811D01*
X101789012Y-36841325D01*
X101790884Y-36837798D01*
X101876440Y-36682995D01*
X101880940Y-36675498D01*
X101975718Y-36529551D01*
X101978546Y-36525385D01*
X102080467Y-36381741D01*
X102085199Y-36375502D01*
X102194959Y-36239961D01*
X102198824Y-36235417D01*
X102315988Y-36104311D01*
X102320698Y-36099330D01*
X102444130Y-35975898D01*
X102449111Y-35971188D01*
X102580217Y-35854024D01*
X102584761Y-35850159D01*
X102720302Y-35740399D01*
X102726541Y-35735667D01*
X102870185Y-35633746D01*
X102874351Y-35630918D01*
X103020298Y-35536140D01*
X103027795Y-35531640D01*
X103182598Y-35446084D01*
X103186125Y-35444212D01*
X103340611Y-35365497D01*
X103349393Y-35361449D01*
X103514059Y-35293242D01*
X103516784Y-35292155D01*
X103677462Y-35230476D01*
X103687540Y-35227097D01*
X103862227Y-35176770D01*
X104027005Y-35132618D01*
X104038264Y-35130160D01*
X104223245Y-35098730D01*
X104385051Y-35073103D01*
X104397449Y-35071776D01*
X104616333Y-35059484D01*
X104739651Y-35053021D01*
X104746357Y-35052670D01*
X104752845Y-35052500D01*
X104800844Y-35052500D01*
X104801377Y-35052440D01*
X148942316Y-35001703D01*
X148948887Y-35001872D01*
G37*
%TD.AperFunction*%
%TD*%
M02*
