%TF.GenerationSoftware,KiCad,Pcbnew,7.0.2*%
%TF.CreationDate,2023-10-26T15:36:34+02:00*%
%TF.ProjectId,Gnerator_poprawiony,476e6572-6174-46f7-925f-706f70726177,rev?*%
%TF.SameCoordinates,Original*%
%TF.FileFunction,Copper,L1,Top*%
%TF.FilePolarity,Positive*%
%FSLAX46Y46*%
G04 Gerber Fmt 4.6, Leading zero omitted, Abs format (unit mm)*
G04 Created by KiCad (PCBNEW 7.0.2) date 2023-10-26 15:36:34*
%MOMM*%
%LPD*%
G01*
G04 APERTURE LIST*
G04 Aperture macros list*
%AMRoundRect*
0 Rectangle with rounded corners*
0 $1 Rounding radius*
0 $2 $3 $4 $5 $6 $7 $8 $9 X,Y pos of 4 corners*
0 Add a 4 corners polygon primitive as box body*
4,1,4,$2,$3,$4,$5,$6,$7,$8,$9,$2,$3,0*
0 Add four circle primitives for the rounded corners*
1,1,$1+$1,$2,$3*
1,1,$1+$1,$4,$5*
1,1,$1+$1,$6,$7*
1,1,$1+$1,$8,$9*
0 Add four rect primitives between the rounded corners*
20,1,$1+$1,$2,$3,$4,$5,0*
20,1,$1+$1,$4,$5,$6,$7,0*
20,1,$1+$1,$6,$7,$8,$9,0*
20,1,$1+$1,$8,$9,$2,$3,0*%
G04 Aperture macros list end*
%TA.AperFunction,SMDPad,CuDef*%
%ADD10RoundRect,0.250000X-0.400000X-0.600000X0.400000X-0.600000X0.400000X0.600000X-0.400000X0.600000X0*%
%TD*%
%TA.AperFunction,SMDPad,CuDef*%
%ADD11RoundRect,0.250000X-0.475000X0.250000X-0.475000X-0.250000X0.475000X-0.250000X0.475000X0.250000X0*%
%TD*%
%TA.AperFunction,SMDPad,CuDef*%
%ADD12RoundRect,0.250000X0.475000X-0.250000X0.475000X0.250000X-0.475000X0.250000X-0.475000X-0.250000X0*%
%TD*%
%TA.AperFunction,SMDPad,CuDef*%
%ADD13RoundRect,0.225000X-0.250000X0.225000X-0.250000X-0.225000X0.250000X-0.225000X0.250000X0.225000X0*%
%TD*%
%TA.AperFunction,SMDPad,CuDef*%
%ADD14RoundRect,0.250000X0.250000X0.475000X-0.250000X0.475000X-0.250000X-0.475000X0.250000X-0.475000X0*%
%TD*%
%TA.AperFunction,SMDPad,CuDef*%
%ADD15RoundRect,0.250000X-0.250000X-0.475000X0.250000X-0.475000X0.250000X0.475000X-0.250000X0.475000X0*%
%TD*%
%TA.AperFunction,SMDPad,CuDef*%
%ADD16RoundRect,0.225000X0.250000X-0.225000X0.250000X0.225000X-0.250000X0.225000X-0.250000X-0.225000X0*%
%TD*%
%TA.AperFunction,SMDPad,CuDef*%
%ADD17R,0.300000X0.800000*%
%TD*%
%TA.AperFunction,SMDPad,CuDef*%
%ADD18R,0.800000X0.300000*%
%TD*%
%TA.AperFunction,SMDPad,CuDef*%
%ADD19R,3.250000X3.250000*%
%TD*%
%TA.AperFunction,SMDPad,CuDef*%
%ADD20RoundRect,0.225000X0.225000X0.250000X-0.225000X0.250000X-0.225000X-0.250000X0.225000X-0.250000X0*%
%TD*%
%TA.AperFunction,SMDPad,CuDef*%
%ADD21RoundRect,0.150000X0.150000X-0.512500X0.150000X0.512500X-0.150000X0.512500X-0.150000X-0.512500X0*%
%TD*%
%TA.AperFunction,SMDPad,CuDef*%
%ADD22RoundRect,0.150000X-0.150000X0.512500X-0.150000X-0.512500X0.150000X-0.512500X0.150000X0.512500X0*%
%TD*%
%TA.AperFunction,SMDPad,CuDef*%
%ADD23R,2.000000X0.700000*%
%TD*%
%TA.AperFunction,SMDPad,CuDef*%
%ADD24R,3.000000X1.500000*%
%TD*%
%TA.AperFunction,SMDPad,CuDef*%
%ADD25R,1.700000X0.650000*%
%TD*%
%TA.AperFunction,SMDPad,CuDef*%
%ADD26R,1.400000X1.200000*%
%TD*%
%TA.AperFunction,ComponentPad*%
%ADD27R,1.800000X1.800000*%
%TD*%
%TA.AperFunction,ComponentPad*%
%ADD28O,2.000000X2.000000*%
%TD*%
%TA.AperFunction,SMDPad,CuDef*%
%ADD29R,3.050000X2.290000*%
%TD*%
%TA.AperFunction,SMDPad,CuDef*%
%ADD30R,2.000000X1.500000*%
%TD*%
%TA.AperFunction,ComponentPad*%
%ADD31R,0.850000X0.850000*%
%TD*%
%TA.AperFunction,ComponentPad*%
%ADD32O,0.850000X0.850000*%
%TD*%
%TA.AperFunction,ComponentPad*%
%ADD33R,2.000000X2.000000*%
%TD*%
%TA.AperFunction,ComponentPad*%
%ADD34O,3.300000X2.000000*%
%TD*%
%TA.AperFunction,ComponentPad*%
%ADD35R,4.000000X2.000000*%
%TD*%
%TA.AperFunction,ViaPad*%
%ADD36C,0.450000*%
%TD*%
%TA.AperFunction,ViaPad*%
%ADD37C,0.800000*%
%TD*%
%TA.AperFunction,ViaPad*%
%ADD38C,2.000000*%
%TD*%
%TA.AperFunction,Conductor*%
%ADD39C,0.349250*%
%TD*%
%TA.AperFunction,Conductor*%
%ADD40C,0.200000*%
%TD*%
%TA.AperFunction,Conductor*%
%ADD41C,0.500000*%
%TD*%
%TA.AperFunction,Conductor*%
%ADD42C,1.000000*%
%TD*%
G04 APERTURE END LIST*
D10*
%TO.P,D2,1,K*%
%TO.N,5V*%
X125417600Y-76504800D03*
%TO.P,D2,2,A*%
%TO.N,+5V*%
X128917600Y-76504800D03*
%TD*%
D11*
%TO.P,C20,1*%
%TO.N,5V*%
X127889000Y-39817000D03*
%TO.P,C20,2*%
%TO.N,GND*%
X127889000Y-41717000D03*
%TD*%
%TO.P,C27,1*%
%TO.N,Vdd1*%
X129426000Y-68252000D03*
%TO.P,C27,2*%
%TO.N,GND*%
X129426000Y-70152000D03*
%TD*%
D12*
%TO.P,R6,1*%
%TO.N,GND*%
X125362000Y-65834000D03*
%TO.P,R6,2*%
%TO.N,Net-(U2-RSET)*%
X125362000Y-63934000D03*
%TD*%
D13*
%TO.P,C5,1*%
%TO.N,Net-(U2-VREF)*%
X130061000Y-63969000D03*
%TO.P,C5,2*%
%TO.N,GND*%
X130061000Y-65519000D03*
%TD*%
D14*
%TO.P,R7,1*%
%TO.N,Net-(U2-PDB_RF)*%
X135951000Y-55626000D03*
%TO.P,R7,2*%
%TO.N,Vdd2*%
X134051000Y-55626000D03*
%TD*%
%TO.P,C16,1*%
%TO.N,Net-(C16-Pad1)*%
X110297000Y-52832000D03*
%TO.P,C16,2*%
%TO.N,GND*%
X108397000Y-52832000D03*
%TD*%
D13*
%TO.P,C35,1*%
%TO.N,Vdd4*%
X115697000Y-51028000D03*
%TO.P,C35,2*%
%TO.N,GND*%
X115697000Y-52578000D03*
%TD*%
D12*
%TO.P,R12,1*%
%TO.N,Net-(C12-Pad1)*%
X119253000Y-47305000D03*
%TO.P,R12,2*%
%TO.N,GND*%
X119253000Y-45405000D03*
%TD*%
D15*
%TO.P,C18,1*%
%TO.N,5V*%
X108397000Y-43815000D03*
%TO.P,C18,2*%
%TO.N,GND*%
X110297000Y-43815000D03*
%TD*%
D13*
%TO.P,R11,1*%
%TO.N,Net-(U2-RF_OUT_A-)*%
X118631000Y-64109000D03*
%TO.P,R11,2*%
%TO.N,Vdd3*%
X118631000Y-65659000D03*
%TD*%
D16*
%TO.P,C34,1*%
%TO.N,Vdd3*%
X114694000Y-65659000D03*
%TO.P,C34,2*%
%TO.N,GND*%
X114694000Y-64109000D03*
%TD*%
D11*
%TO.P,R5,1*%
%TO.N,Net-(J3-Pin_5)*%
X131699000Y-50866000D03*
%TO.P,R5,2*%
%TO.N,Net-(U2-CLK)*%
X131699000Y-52766000D03*
%TD*%
D14*
%TO.P,C14,1*%
%TO.N,Net-(U2-RF_OUT_A+)*%
X124648000Y-58039000D03*
%TO.P,C14,2*%
%TO.N,Net-(U3--)*%
X122748000Y-58039000D03*
%TD*%
D11*
%TO.P,R3,1*%
%TO.N,Net-(J3-Pin_2)*%
X126365000Y-50866000D03*
%TO.P,R3,2*%
%TO.N,Net-(U2-LE)*%
X126365000Y-52766000D03*
%TD*%
D12*
%TO.P,R8,1*%
%TO.N,Net-(U2-CE)*%
X123698000Y-52766000D03*
%TO.P,R8,2*%
%TO.N,Vdd2*%
X123698000Y-50866000D03*
%TD*%
D14*
%TO.P,C17,1*%
%TO.N,Net-(C16-Pad1)*%
X110297000Y-49911000D03*
%TO.P,C17,2*%
%TO.N,GND*%
X108397000Y-49911000D03*
%TD*%
D16*
%TO.P,L1,1,1*%
%TO.N,Net-(C11-Pad1)*%
X117729000Y-52591000D03*
%TO.P,L1,2,2*%
%TO.N,Vdd4*%
X117729000Y-51041000D03*
%TD*%
D13*
%TO.P,C25,1*%
%TO.N,Net-(U6-BP)*%
X120409000Y-68548500D03*
%TO.P,C25,2*%
%TO.N,GND*%
X120409000Y-70098500D03*
%TD*%
%TO.P,C37,1*%
%TO.N,Vdd2*%
X138684000Y-51549000D03*
%TO.P,C37,2*%
%TO.N,GND*%
X138684000Y-53099000D03*
%TD*%
D12*
%TO.P,R13,1*%
%TO.N,Net-(U2-CPout)*%
X124333000Y-47305000D03*
%TO.P,R13,2*%
%TO.N,Net-(U2-VTUNE)*%
X124333000Y-45405000D03*
%TD*%
D16*
%TO.P,C9,1*%
%TO.N,Net-(C11-Pad1)*%
X119634000Y-52591000D03*
%TO.P,C9,2*%
%TO.N,GND*%
X119634000Y-51041000D03*
%TD*%
D15*
%TO.P,R14,1*%
%TO.N,5V*%
X108397000Y-46863000D03*
%TO.P,R14,2*%
%TO.N,Net-(C16-Pad1)*%
X110297000Y-46863000D03*
%TD*%
D16*
%TO.P,C26,1*%
%TO.N,Net-(U7-BP)*%
X118999000Y-41542000D03*
%TO.P,C26,2*%
%TO.N,GND*%
X118999000Y-39992000D03*
%TD*%
D17*
%TO.P,U2,1,CLK*%
%TO.N,Net-(U2-CLK)*%
X130896000Y-55905000D03*
%TO.P,U2,2,DATA*%
%TO.N,Net-(U2-DATA)*%
X130396000Y-55905000D03*
%TO.P,U2,3,LE*%
%TO.N,Net-(U2-LE)*%
X129896000Y-55905000D03*
%TO.P,U2,4,CE*%
%TO.N,Net-(U2-CE)*%
X129396000Y-55905000D03*
%TO.P,U2,5,SW*%
%TO.N,unconnected-(U2-SW-Pad5)*%
X128896000Y-55905000D03*
%TO.P,U2,6,Vp*%
%TO.N,Vdd4*%
X128396000Y-55905000D03*
%TO.P,U2,7,CPout*%
%TO.N,Net-(U2-CPout)*%
X127896000Y-55905000D03*
%TO.P,U2,8,CPGND*%
%TO.N,GND*%
X127396000Y-55905000D03*
D18*
%TO.P,U2,9,AGND*%
X126746000Y-56555000D03*
%TO.P,U2,10,AVDD*%
%TO.N,Vdd4*%
X126746000Y-57055000D03*
%TO.P,U2,11,AGNDVCO*%
%TO.N,GND*%
X126746000Y-57555000D03*
%TO.P,U2,12,RF_OUT_A+*%
%TO.N,Net-(U2-RF_OUT_A+)*%
X126746000Y-58055000D03*
%TO.P,U2,13,RF_OUT_A-*%
%TO.N,Net-(U2-RF_OUT_A-)*%
X126746000Y-58555000D03*
%TO.P,U2,14,RF_OUT_B+*%
%TO.N,unconnected-(U2-RF_OUT_B+-Pad14)*%
X126746000Y-59055000D03*
%TO.P,U2,15,RF_OUT_B-*%
%TO.N,unconnected-(U2-RF_OUT_B--Pad15)*%
X126746000Y-59555000D03*
%TO.P,U2,16,VVCO*%
%TO.N,Net-(C11-Pad1)*%
X126746000Y-60055000D03*
D17*
%TO.P,U2,17,VVCO*%
X127396000Y-60705000D03*
%TO.P,U2,18,AGNDVCO*%
%TO.N,GND*%
X127896000Y-60705000D03*
%TO.P,U2,19,TEMP*%
%TO.N,Net-(U2-TEMP)*%
X128396000Y-60705000D03*
%TO.P,U2,20,VTUNE*%
%TO.N,Net-(U2-VTUNE)*%
X128896000Y-60705000D03*
%TO.P,U2,21,AGNDVCO*%
%TO.N,GND*%
X129396000Y-60705000D03*
%TO.P,U2,22,RSET*%
%TO.N,Net-(U2-RSET)*%
X129896000Y-60705000D03*
%TO.P,U2,23,VCOM*%
%TO.N,Net-(U2-VCOM)*%
X130396000Y-60705000D03*
%TO.P,U2,24,VREF*%
%TO.N,Net-(U2-VREF)*%
X130896000Y-60705000D03*
D18*
%TO.P,U2,25,LD*%
%TO.N,unconnected-(U2-LD-Pad25)*%
X131546000Y-60055000D03*
%TO.P,U2,26,PDB_RF*%
%TO.N,Net-(U2-PDB_RF)*%
X131546000Y-59555000D03*
%TO.P,U2,27,DGND*%
%TO.N,GND*%
X131546000Y-59055000D03*
%TO.P,U2,28,DVDD*%
%TO.N,Vdd2*%
X131546000Y-58555000D03*
%TO.P,U2,29,REFIN*%
%TO.N,Net-(U2-REFIN)*%
X131546000Y-58055000D03*
%TO.P,U2,30,MUXOUT*%
%TO.N,Net-(U2-MUXOUT)*%
X131546000Y-57555000D03*
%TO.P,U2,31,SDGND*%
%TO.N,GND*%
X131546000Y-57055000D03*
%TO.P,U2,32,SDVDD*%
%TO.N,Vdd2*%
X131546000Y-56555000D03*
D19*
%TO.P,U2,33,EP*%
%TO.N,GND*%
X129146000Y-58305000D03*
%TD*%
D11*
%TO.P,C22,1*%
%TO.N,5V*%
X116586000Y-39690000D03*
%TO.P,C22,2*%
%TO.N,GND*%
X116586000Y-41590000D03*
%TD*%
D16*
%TO.P,C31,1*%
%TO.N,Vdd3*%
X112662000Y-65659000D03*
%TO.P,C31,2*%
%TO.N,GND*%
X112662000Y-64109000D03*
%TD*%
D13*
%TO.P,C6,1*%
%TO.N,Net-(U2-TEMP)*%
X123076000Y-64109000D03*
%TO.P,C6,2*%
%TO.N,GND*%
X123076000Y-65659000D03*
%TD*%
D20*
%TO.P,L2,1,1*%
%TO.N,Net-(C15-Pad1)*%
X110109000Y-55372000D03*
%TO.P,L2,2,2*%
%TO.N,Net-(C16-Pad1)*%
X108559000Y-55372000D03*
%TD*%
D11*
%TO.P,R1,1*%
%TO.N,Net-(R1-Pad1)*%
X132093000Y-63715000D03*
%TO.P,R1,2*%
%TO.N,Vdd1*%
X132093000Y-65615000D03*
%TD*%
D13*
%TO.P,C8,1*%
%TO.N,Net-(U2-VREF)*%
X128029000Y-63982000D03*
%TO.P,C8,2*%
%TO.N,GND*%
X128029000Y-65532000D03*
%TD*%
D12*
%TO.P,C28,1*%
%TO.N,Vdd2*%
X136525000Y-41656000D03*
%TO.P,C28,2*%
%TO.N,GND*%
X136525000Y-39756000D03*
%TD*%
D21*
%TO.P,U4,1,VIN*%
%TO.N,5V*%
X131905000Y-70199500D03*
%TO.P,U4,2,GND*%
%TO.N,GND*%
X132855000Y-70199500D03*
%TO.P,U4,3,ON/~{OFF}*%
%TO.N,5V*%
X133805000Y-70199500D03*
%TO.P,U4,4,BP*%
%TO.N,Net-(U4-BP)*%
X133805000Y-67924500D03*
%TO.P,U4,5,VOUT*%
%TO.N,Vdd1*%
X131905000Y-67924500D03*
%TD*%
D11*
%TO.P,R4,1*%
%TO.N,Net-(J3-Pin_4)*%
X129032000Y-50866000D03*
%TO.P,R4,2*%
%TO.N,Net-(U2-DATA)*%
X129032000Y-52766000D03*
%TD*%
%TO.P,C10,1*%
%TO.N,GND*%
X116713000Y-45405000D03*
%TO.P,C10,2*%
%TO.N,Net-(U2-CPout)*%
X116713000Y-47305000D03*
%TD*%
D22*
%TO.P,U7,1,VIN*%
%TO.N,5V*%
X122997000Y-39629500D03*
%TO.P,U7,2,GND*%
%TO.N,GND*%
X122047000Y-39629500D03*
%TO.P,U7,3,ON/~{OFF}*%
%TO.N,5V*%
X121097000Y-39629500D03*
%TO.P,U7,4,BP*%
%TO.N,Net-(U7-BP)*%
X121097000Y-41904500D03*
%TO.P,U7,5,VOUT*%
%TO.N,Vdd4*%
X122997000Y-41904500D03*
%TD*%
D20*
%TO.P,C32,1*%
%TO.N,Vdd4*%
X124600000Y-55499000D03*
%TO.P,C32,2*%
%TO.N,GND*%
X123050000Y-55499000D03*
%TD*%
D22*
%TO.P,U5,1,VIN*%
%TO.N,5V*%
X134046000Y-39502500D03*
%TO.P,U5,2,GND*%
%TO.N,GND*%
X133096000Y-39502500D03*
%TO.P,U5,3,ON/~{OFF}*%
%TO.N,5V*%
X132146000Y-39502500D03*
%TO.P,U5,4,BP*%
%TO.N,Net-(U5-BP)*%
X132146000Y-41777500D03*
%TO.P,U5,5,VOUT*%
%TO.N,Vdd2*%
X134046000Y-41777500D03*
%TD*%
D11*
%TO.P,C1,1*%
%TO.N,Net-(U2-REFIN)*%
X136144000Y-58384400D03*
%TO.P,C1,2*%
%TO.N,Net-(C1-Pad2)*%
X136144000Y-60284400D03*
%TD*%
D12*
%TO.P,C21,1*%
%TO.N,5V*%
X122756000Y-70273500D03*
%TO.P,C21,2*%
%TO.N,GND*%
X122756000Y-68373500D03*
%TD*%
D16*
%TO.P,CC,1*%
%TO.N,GND*%
X134252000Y-65313000D03*
%TO.P,CC,2*%
%TO.N,Net-(R1-Pad1)*%
X134252000Y-63763000D03*
%TD*%
D11*
%TO.P,C29,1*%
%TO.N,Vdd3*%
X113612000Y-68506000D03*
%TO.P,C29,2*%
%TO.N,GND*%
X113612000Y-70406000D03*
%TD*%
D16*
%TO.P,C13,1*%
%TO.N,GND*%
X126619000Y-47130000D03*
%TO.P,C13,2*%
%TO.N,Net-(U2-VTUNE)*%
X126619000Y-45580000D03*
%TD*%
D12*
%TO.P,C19,1*%
%TO.N,5V*%
X138570000Y-70139000D03*
%TO.P,C19,2*%
%TO.N,GND*%
X138570000Y-68239000D03*
%TD*%
D23*
%TO.P,SW1,1*%
%TO.N,Net-(U1-PB3)*%
X147040600Y-46456600D03*
%TO.P,SW1,2*%
%TO.N,Net-(U1-PB4)*%
X147040600Y-45059600D03*
%TO.P,SW1,3*%
%TO.N,GND*%
X150164800Y-45059600D03*
%TO.P,SW1,4*%
X150139400Y-46431200D03*
%TD*%
D16*
%TO.P,C11,1*%
%TO.N,Net-(C11-Pad1)*%
X121539000Y-52591000D03*
%TO.P,C11,2*%
%TO.N,GND*%
X121539000Y-51041000D03*
%TD*%
D13*
%TO.P,R10,1*%
%TO.N,Net-(U2-RF_OUT_A+)*%
X116599000Y-64109000D03*
%TO.P,R10,2*%
%TO.N,Vdd3*%
X116599000Y-65659000D03*
%TD*%
D14*
%TO.P,C15,1*%
%TO.N,Net-(C15-Pad1)*%
X110170000Y-58039000D03*
%TO.P,C15,2*%
%TO.N,Net-(J2-In)*%
X108270000Y-58039000D03*
%TD*%
D24*
%TO.P,J2,1,In*%
%TO.N,Net-(J2-In)*%
X102895400Y-58000000D03*
%TO.P,J2,2,Ext*%
%TO.N,GND*%
X102895400Y-62250000D03*
X102895400Y-53750000D03*
%TD*%
D11*
%TO.P,C12,1*%
%TO.N,Net-(C12-Pad1)*%
X121869200Y-45405000D03*
%TO.P,C12,2*%
%TO.N,Net-(U2-CPout)*%
X121869200Y-47305000D03*
%TD*%
D25*
%TO.P,U1,1,~{RESET}/PB5*%
%TO.N,Net-(J3-Pin_6)*%
X141318000Y-48641000D03*
%TO.P,U1,2,PB3*%
%TO.N,Net-(U1-PB3)*%
X141318000Y-47371000D03*
%TO.P,U1,3,PB4*%
%TO.N,Net-(U1-PB4)*%
X141318000Y-46101000D03*
%TO.P,U1,4,GND*%
%TO.N,GND*%
X141318000Y-44831000D03*
%TO.P,U1,5,PB0*%
%TO.N,Net-(J3-Pin_2)*%
X134018000Y-44831000D03*
%TO.P,U1,6,PB1*%
%TO.N,Net-(J3-Pin_4)*%
X134018000Y-46101000D03*
%TO.P,U1,7,PB2*%
%TO.N,Net-(J3-Pin_5)*%
X134018000Y-47371000D03*
%TO.P,U1,8,VCC*%
%TO.N,Vdd2*%
X134018000Y-48641000D03*
%TD*%
D26*
%TO.P,Y1,1,1*%
%TO.N,unconnected-(Y1-Pad1)*%
X136454000Y-65261000D03*
%TO.P,Y1,2,2*%
%TO.N,GND*%
X138654000Y-65261000D03*
%TO.P,Y1,3,3*%
%TO.N,Net-(C1-Pad2)*%
X138654000Y-63561000D03*
%TO.P,Y1,4,1*%
%TO.N,Net-(R1-Pad1)*%
X136454000Y-63561000D03*
%TD*%
D13*
%TO.P,C4,1*%
%TO.N,Net-(U2-VCOM)*%
X125108000Y-68427000D03*
%TO.P,C4,2*%
%TO.N,GND*%
X125108000Y-69977000D03*
%TD*%
D27*
%TO.P,D1,1,K*%
%TO.N,GND*%
X149833800Y-49733200D03*
D28*
%TO.P,D1,2,A*%
%TO.N,Net-(D1-A)*%
X147243000Y-49733200D03*
%TD*%
D11*
%TO.P,C33,1*%
%TO.N,Vdd2*%
X134366000Y-51374000D03*
%TO.P,C33,2*%
%TO.N,GND*%
X134366000Y-53274000D03*
%TD*%
D13*
%TO.P,C23,1*%
%TO.N,Net-(U4-BP)*%
X136157000Y-68414000D03*
%TO.P,C23,2*%
%TO.N,GND*%
X136157000Y-69964000D03*
%TD*%
D29*
%TO.P,U3,1,+*%
%TO.N,GND*%
X116583400Y-55345400D03*
D30*
%TO.P,U3,2,-*%
%TO.N,Net-(U3--)*%
X119183400Y-58045400D03*
D24*
%TO.P,U3,3*%
%TO.N,Net-(C15-Pad1)*%
X113383400Y-58045400D03*
D29*
%TO.P,U3,4,V+*%
%TO.N,GND*%
X116583400Y-60745400D03*
%TD*%
D24*
%TO.P,J1,1,In*%
%TO.N,Net-(J1-In)*%
X150749000Y-58000000D03*
%TO.P,J1,2,Ext*%
%TO.N,GND*%
X150749000Y-53758200D03*
X150749000Y-62250000D03*
%TD*%
D21*
%TO.P,U6,1,VIN*%
%TO.N,5V*%
X116157000Y-70461000D03*
%TO.P,U6,2,GND*%
%TO.N,GND*%
X117107000Y-70461000D03*
%TO.P,U6,3,ON/~{OFF}*%
%TO.N,5V*%
X118057000Y-70461000D03*
%TO.P,U6,4,BP*%
%TO.N,Net-(U6-BP)*%
X118057000Y-68186000D03*
%TO.P,U6,5,VOUT*%
%TO.N,Vdd3*%
X116157000Y-68186000D03*
%TD*%
D31*
%TO.P,J3,1,Pin_1*%
%TO.N,Vdd2*%
X139192000Y-41275000D03*
D32*
%TO.P,J3,2,Pin_2*%
%TO.N,Net-(J3-Pin_2)*%
X139192000Y-40275000D03*
%TO.P,J3,3,Pin_3*%
%TO.N,GND*%
X140192000Y-40275000D03*
%TO.P,J3,4,Pin_4*%
%TO.N,Net-(J3-Pin_4)*%
X140192000Y-41275000D03*
%TO.P,J3,5,Pin_5*%
%TO.N,Net-(J3-Pin_5)*%
X141192000Y-41275000D03*
%TO.P,J3,6,Pin_6*%
%TO.N,Net-(J3-Pin_6)*%
X141192000Y-40275000D03*
%TD*%
D12*
%TO.P,R2,1*%
%TO.N,Vdd2*%
X141097000Y-53274000D03*
%TO.P,R2,2*%
%TO.N,Net-(J3-Pin_6)*%
X141097000Y-51374000D03*
%TD*%
D15*
%TO.P,R9,1*%
%TO.N,Net-(U2-MUXOUT)*%
X138496000Y-55626000D03*
%TO.P,R9,2*%
%TO.N,Net-(D1-A)*%
X140396000Y-55626000D03*
%TD*%
D14*
%TO.P,R15,1*%
%TO.N,5V*%
X121346000Y-76504800D03*
%TO.P,R15,2*%
%TO.N,Net-(D3-A)*%
X119446000Y-76504800D03*
%TD*%
D16*
%TO.P,C24,1*%
%TO.N,Net-(U5-BP)*%
X130175000Y-41542000D03*
%TO.P,C24,2*%
%TO.N,GND*%
X130175000Y-39992000D03*
%TD*%
D13*
%TO.P,C36,1*%
%TO.N,Vdd2*%
X136652000Y-51549000D03*
%TO.P,C36,2*%
%TO.N,GND*%
X136652000Y-53099000D03*
%TD*%
D14*
%TO.P,C2,1*%
%TO.N,Net-(J1-In)*%
X140396000Y-58369200D03*
%TO.P,C2,2*%
%TO.N,Net-(U2-REFIN)*%
X138496000Y-58369200D03*
%TD*%
D33*
%TO.P,D3,1,K*%
%TO.N,GND*%
X113167200Y-76200000D03*
D28*
%TO.P,D3,2,A*%
%TO.N,Net-(D3-A)*%
X115707200Y-76200000D03*
%TD*%
D13*
%TO.P,C7,1*%
%TO.N,Net-(U2-VCOM)*%
X127140000Y-68427000D03*
%TO.P,C7,2*%
%TO.N,GND*%
X127140000Y-69977000D03*
%TD*%
D12*
%TO.P,C30,1*%
%TO.N,Vdd4*%
X125222000Y-41717000D03*
%TO.P,C30,2*%
%TO.N,GND*%
X125222000Y-39817000D03*
%TD*%
D13*
%TO.P,C3,1*%
%TO.N,Net-(U2-TEMP)*%
X120917000Y-64109000D03*
%TO.P,C3,2*%
%TO.N,GND*%
X120917000Y-65659000D03*
%TD*%
D34*
%TO.P,J4,1*%
%TO.N,GND*%
X148031200Y-75543200D03*
D35*
%TO.P,J4,2*%
%TO.N,+5V*%
X148031200Y-69543200D03*
%TD*%
D36*
%TO.N,GND*%
X117449600Y-61671200D03*
D37*
X111506000Y-72644000D03*
X106172000Y-70104000D03*
X107391200Y-72644000D03*
X117703600Y-73609200D03*
D36*
X110642400Y-43281600D03*
D37*
X140208000Y-37490400D03*
X136093200Y-72745600D03*
X105206800Y-69088000D03*
X106172000Y-52222400D03*
X105206800Y-49072800D03*
X151384000Y-61569600D03*
X125780800Y-37490400D03*
D36*
X138646200Y-66458800D03*
D37*
X106172000Y-42875200D03*
X109423200Y-73609200D03*
X105206800Y-61823600D03*
D36*
X115214400Y-55626000D03*
X117957600Y-60452000D03*
X132855000Y-69557600D03*
X116941600Y-59842400D03*
D37*
X129946400Y-72745600D03*
X126847600Y-73710800D03*
X106172000Y-44958000D03*
D36*
X123304600Y-67932000D03*
D37*
X142290800Y-37490400D03*
X147523200Y-42519600D03*
X144322800Y-63652400D03*
D36*
X120409000Y-71081600D03*
X115824000Y-59842400D03*
D37*
X151688800Y-47853600D03*
D36*
X117906800Y-55016400D03*
D37*
X113588800Y-72644000D03*
D36*
X117398800Y-55626000D03*
X115824000Y-60452000D03*
X107950000Y-50444400D03*
X114211400Y-70827600D03*
D37*
X144373600Y-41554400D03*
D36*
X119837200Y-45059600D03*
X115773200Y-54406800D03*
D37*
X143306800Y-63652400D03*
X143306800Y-42519600D03*
D36*
X124117400Y-66814400D03*
D37*
X137058400Y-37490400D03*
X106172000Y-71170800D03*
X105206800Y-73253600D03*
X131927600Y-37490400D03*
D36*
X128029000Y-66509600D03*
X117449600Y-61061600D03*
X128320800Y-42113200D03*
D37*
X124815600Y-37490400D03*
X150571200Y-44704000D03*
D36*
X117957600Y-59842400D03*
X122021600Y-40843200D03*
D37*
X144322800Y-62636400D03*
D36*
X121716800Y-55473600D03*
D37*
X114554000Y-36525200D03*
X104241600Y-54254400D03*
X149606000Y-46786800D03*
D36*
X147472400Y-53797200D03*
D37*
X140208000Y-36525200D03*
D36*
X116332000Y-54406800D03*
X139103400Y-67881200D03*
D37*
X149606000Y-44704000D03*
X141325600Y-72745600D03*
X118719600Y-72644000D03*
X138226800Y-72745600D03*
D38*
X129082800Y-58369200D03*
D37*
X115570000Y-36525200D03*
X105206800Y-36525200D03*
X136042400Y-36525200D03*
X124866400Y-73609200D03*
D36*
X115265200Y-61671200D03*
D37*
X105206800Y-42875200D03*
X105206800Y-41859200D03*
X127812800Y-36525200D03*
X106172000Y-43891200D03*
D36*
X120599200Y-51054000D03*
D37*
X103276400Y-54305200D03*
X144373600Y-38608000D03*
X144322800Y-61569600D03*
X121716800Y-37490400D03*
X106172000Y-39725600D03*
X123799600Y-37490400D03*
X148539200Y-42519600D03*
X119684800Y-36525200D03*
D36*
X137718800Y-53086000D03*
D37*
X149606000Y-47802800D03*
X110490000Y-72644000D03*
X129946400Y-73710800D03*
D36*
X115265200Y-59842400D03*
D37*
X150368000Y-61569600D03*
X106172000Y-67005200D03*
X105206800Y-70104000D03*
X149402800Y-61569600D03*
X139242800Y-72745600D03*
X126847600Y-72745600D03*
X144373600Y-36525200D03*
D36*
X101701600Y-53746400D03*
D37*
X117703600Y-72644000D03*
X143306800Y-67818000D03*
D36*
X135801400Y-70319600D03*
D37*
X119735600Y-72644000D03*
X105206800Y-67005200D03*
X149606000Y-43637200D03*
D36*
X116382800Y-60452000D03*
D37*
X105206800Y-63906400D03*
X117652800Y-36525200D03*
X143306800Y-36525200D03*
D36*
X116941600Y-61671200D03*
D37*
X144322800Y-68834000D03*
X150571200Y-42570400D03*
D36*
X117449600Y-59842400D03*
D37*
X112522000Y-73609200D03*
D36*
X116890800Y-54406800D03*
D37*
X103225600Y-62890400D03*
X122834400Y-73609200D03*
D36*
X133921800Y-65696800D03*
D37*
X105206800Y-62890400D03*
D36*
X136461800Y-70319600D03*
D37*
X150571200Y-43637200D03*
X105206800Y-51155600D03*
X106172000Y-72186800D03*
X148386800Y-61569600D03*
X109372400Y-36525200D03*
D36*
X126695200Y-54931300D03*
D37*
X145389600Y-41554400D03*
X151688800Y-49479200D03*
X151688800Y-51562000D03*
X149352000Y-62636400D03*
X111455200Y-36525200D03*
X110439200Y-37490400D03*
X142290800Y-36525200D03*
D36*
X116890800Y-55626000D03*
D37*
X116636800Y-37490400D03*
D36*
X132804200Y-70827600D03*
X151892000Y-53746400D03*
X127254000Y-42113200D03*
D37*
X133959600Y-36525200D03*
X106172000Y-46990000D03*
X108356400Y-36525200D03*
X123850400Y-72644000D03*
X116636800Y-36525200D03*
D36*
X137985800Y-67881200D03*
D37*
X111455200Y-37490400D03*
X102260400Y-62890400D03*
D36*
X115773200Y-55626000D03*
X117957600Y-61061600D03*
D37*
X149606000Y-51562000D03*
D36*
X130061000Y-66458800D03*
X115824000Y-61671200D03*
D37*
X109372400Y-37490400D03*
X108407200Y-73609200D03*
X138176000Y-37490400D03*
X126796800Y-37490400D03*
X135026400Y-36525200D03*
X146456400Y-41554400D03*
D36*
X135686800Y-53086000D03*
D37*
X143357600Y-69900800D03*
X105206800Y-40792400D03*
X105206800Y-68021200D03*
X122783600Y-36525200D03*
D36*
X115265200Y-60452000D03*
D37*
X102311200Y-54305200D03*
X128930400Y-72745600D03*
X143306800Y-64719200D03*
X104241600Y-62890400D03*
X137109200Y-72745600D03*
X114554000Y-37490400D03*
X151688800Y-50495200D03*
X136042400Y-37490400D03*
X130962400Y-72745600D03*
X144322800Y-70916800D03*
X106172000Y-65989200D03*
X130962400Y-73710800D03*
X148539200Y-41554400D03*
X151688800Y-46837600D03*
X117652800Y-37490400D03*
D36*
X117449600Y-60452000D03*
X116382800Y-61671200D03*
D37*
X111506000Y-73609200D03*
X105206800Y-48056800D03*
X143357600Y-70916800D03*
D36*
X113043000Y-70776800D03*
X110642400Y-44399200D03*
X117906800Y-54406800D03*
D37*
X112471200Y-36525200D03*
X138176000Y-36525200D03*
D36*
X121780600Y-66763600D03*
D37*
X105206800Y-50139600D03*
X105206800Y-65989200D03*
X110490000Y-73609200D03*
D36*
X140716000Y-44805600D03*
D37*
X118668800Y-36525200D03*
D36*
X115265200Y-61061600D03*
D37*
X107340400Y-37490400D03*
D36*
X117957600Y-61671200D03*
D37*
X105206800Y-54254400D03*
X143306800Y-39573200D03*
X114604800Y-72644000D03*
X106273600Y-36525200D03*
X120700800Y-37490400D03*
X119735600Y-73609200D03*
X106172000Y-48056800D03*
X113538000Y-37490400D03*
X149606000Y-45720000D03*
X127812800Y-37490400D03*
X125831600Y-72745600D03*
X144322800Y-66802000D03*
X114604800Y-73609200D03*
X105206800Y-43891200D03*
X143357600Y-61569600D03*
X143306800Y-65735200D03*
D36*
X116586000Y-43535600D03*
D37*
X121716800Y-36525200D03*
D36*
X115773200Y-56235600D03*
D37*
X144322800Y-69900800D03*
X132994400Y-72745600D03*
D36*
X108051600Y-52273200D03*
D37*
X102311200Y-53238400D03*
X150571200Y-45720000D03*
D36*
X115214400Y-56235600D03*
X117957600Y-45415200D03*
D37*
X150368000Y-62636400D03*
X113538000Y-36525200D03*
X106172000Y-73253600D03*
X112522000Y-72644000D03*
X109423200Y-72644000D03*
X150571200Y-54711600D03*
D36*
X117398800Y-56235600D03*
D37*
X150571200Y-53644800D03*
D36*
X122187000Y-67932000D03*
D37*
X121767600Y-73609200D03*
X104241600Y-53238400D03*
X108407200Y-72644000D03*
X106273600Y-37490400D03*
X143306800Y-41554400D03*
X105206800Y-44958000D03*
D36*
X116382800Y-61061600D03*
D37*
X107391200Y-73609200D03*
X123799600Y-36525200D03*
X106172000Y-62890400D03*
X134010400Y-72745600D03*
D36*
X108000800Y-49377600D03*
D37*
X150571200Y-41554400D03*
X128879600Y-37490400D03*
X143306800Y-38608000D03*
X104241600Y-61823600D03*
X105206800Y-46990000D03*
D36*
X117107000Y-71081600D03*
X116382800Y-59842400D03*
D37*
X143306800Y-40538400D03*
X121767600Y-72644000D03*
D36*
X111569800Y-64122000D03*
D37*
X105206800Y-64922400D03*
X144322800Y-65735200D03*
D36*
X117398800Y-55016400D03*
X115976400Y-42011600D03*
X130454400Y-56997600D03*
X127762000Y-59639200D03*
X115824000Y-61061600D03*
X115773200Y-55016400D03*
X130403600Y-59537600D03*
D37*
X124815600Y-36525200D03*
X144322800Y-67818000D03*
X106172000Y-50139600D03*
D36*
X116332000Y-55626000D03*
D37*
X144373600Y-42519600D03*
X108356400Y-37490400D03*
X145389600Y-42519600D03*
D36*
X116941600Y-61061600D03*
D37*
X128930400Y-73710800D03*
X141274800Y-37490400D03*
X115620800Y-73609200D03*
D36*
X117398800Y-54406800D03*
D37*
X106172000Y-64922400D03*
X107340400Y-36525200D03*
X146456400Y-42519600D03*
X135026400Y-37490400D03*
X142341600Y-72745600D03*
X106172000Y-41859200D03*
X144322800Y-64719200D03*
D36*
X126492000Y-40792400D03*
D37*
X144373600Y-37490400D03*
X119684800Y-37490400D03*
X129895600Y-37490400D03*
X118668800Y-37490400D03*
D36*
X116890800Y-56235600D03*
D37*
X103276400Y-61823600D03*
D36*
X119342200Y-70116400D03*
X115214400Y-55016400D03*
X129959400Y-70522800D03*
D37*
X112471200Y-37490400D03*
X122834400Y-72644000D03*
X115570000Y-37490400D03*
X147523200Y-41554400D03*
X113588800Y-73609200D03*
X105206800Y-72186800D03*
X127863600Y-72745600D03*
X110439200Y-36525200D03*
X137058400Y-36525200D03*
X105206800Y-45974000D03*
X149606000Y-54711600D03*
X147370800Y-61569600D03*
X115620800Y-72644000D03*
D36*
X127762000Y-56997600D03*
D37*
X141274800Y-36525200D03*
X143306800Y-71932800D03*
X129895600Y-36525200D03*
X131978400Y-72745600D03*
X125780800Y-36525200D03*
X140258800Y-72745600D03*
X151384000Y-62636400D03*
D36*
X117094000Y-42062400D03*
D37*
X144373600Y-40538400D03*
X123850400Y-73609200D03*
X143306800Y-68834000D03*
X150571200Y-52628800D03*
D36*
X116941600Y-60452000D03*
D37*
X128879600Y-36525200D03*
D36*
X115214400Y-54406800D03*
X116332000Y-56235600D03*
D37*
X106172000Y-68021200D03*
X116687600Y-73609200D03*
X120751600Y-73609200D03*
X148386800Y-62636400D03*
X149606000Y-53644800D03*
X120751600Y-72644000D03*
D36*
X128791000Y-70522800D03*
D37*
X149606000Y-52628800D03*
X144373600Y-39573200D03*
X105206800Y-71170800D03*
X102260400Y-61823600D03*
X124866400Y-72644000D03*
X132943600Y-36525200D03*
X130911600Y-37490400D03*
X150571200Y-51562000D03*
D36*
X116890800Y-55016400D03*
D37*
X150571200Y-46786800D03*
D36*
X130175000Y-39116000D03*
D37*
X118719600Y-73609200D03*
D36*
X116332000Y-55016400D03*
D37*
X143306800Y-66751200D03*
X105206800Y-52222400D03*
D36*
X139916200Y-65239600D03*
X127419400Y-70268800D03*
D37*
X122783600Y-37490400D03*
D36*
X125387400Y-70268800D03*
D37*
X127863600Y-73710800D03*
X106172000Y-63906400D03*
D36*
X113703400Y-64122000D03*
D37*
X106172000Y-45974000D03*
X139192000Y-37490400D03*
X116687600Y-72644000D03*
X133959600Y-37490400D03*
X135077200Y-72745600D03*
X143306800Y-37490400D03*
X150571200Y-47802800D03*
X126796800Y-36525200D03*
X130911600Y-36525200D03*
X143306800Y-62636400D03*
X132943600Y-37490400D03*
X106172000Y-69088000D03*
D36*
X117107000Y-69862400D03*
D37*
X125831600Y-73710800D03*
D36*
X108051600Y-53390800D03*
D37*
X147370800Y-62636400D03*
D36*
X126809800Y-70268800D03*
D37*
X106172000Y-53238400D03*
D36*
X137058400Y-39268400D03*
D37*
X139192000Y-36525200D03*
X105206800Y-53238400D03*
X106172000Y-40792400D03*
X103276400Y-53238400D03*
D36*
X117906800Y-55626000D03*
D37*
X120700800Y-36525200D03*
X149606000Y-41554400D03*
D36*
X117957600Y-40741600D03*
D37*
X131927600Y-36525200D03*
X149606000Y-42570400D03*
D36*
X136042400Y-39268400D03*
D37*
X106172000Y-61823600D03*
D36*
X124777800Y-70268800D03*
D37*
X106172000Y-51155600D03*
X106172000Y-54254400D03*
D36*
X117906800Y-56235600D03*
D37*
X106172000Y-49072800D03*
D36*
%TO.N,Net-(C11-Pad1)*%
X125425200Y-60452000D03*
X119634000Y-54051200D03*
%TO.N,Net-(U2-CPout)*%
X124307600Y-48412400D03*
X127812800Y-54965600D03*
%TO.N,Net-(U2-VTUNE)*%
X128981200Y-61823600D03*
X125577600Y-45567600D03*
%TO.N,5V*%
X139103400Y-70573600D03*
X133820200Y-70827600D03*
X137935000Y-70573600D03*
X122986800Y-39065200D03*
X121107200Y-39014400D03*
X107950000Y-43230800D03*
D37*
X124830800Y-75692000D03*
D36*
X131889800Y-69557600D03*
D37*
X126050000Y-77266800D03*
D36*
X107950000Y-47396400D03*
X115938600Y-71030800D03*
X123304600Y-70726000D03*
X132130800Y-40081200D03*
X128473200Y-39420800D03*
X134061200Y-40081200D03*
X116027200Y-39217600D03*
X117144800Y-39217600D03*
X132181600Y-38912800D03*
X107950000Y-44297600D03*
X134061200Y-38963600D03*
X122986800Y-40132000D03*
X121107200Y-40182800D03*
X118275400Y-71081600D03*
X127254000Y-39420800D03*
X133820200Y-69557600D03*
D37*
X126050000Y-75742800D03*
D36*
X131889800Y-70827600D03*
X108000800Y-46278800D03*
D37*
X124830800Y-77317600D03*
D36*
X115938600Y-69913200D03*
X122136200Y-70675200D03*
%TO.N,Vdd1*%
X130823000Y-68287600D03*
X128892600Y-67932000D03*
X131889800Y-66763600D03*
%TO.N,Vdd2*%
X135229600Y-41656000D03*
X133197600Y-59334400D03*
X124206000Y-50596800D03*
X123190000Y-50596800D03*
X137668000Y-51409600D03*
X132638800Y-56540400D03*
X139750800Y-51917600D03*
X135534400Y-48463200D03*
X134018000Y-49979600D03*
X135636000Y-51409600D03*
X130352800Y-43992800D03*
%TO.N,Vdd3*%
X113144600Y-68490800D03*
X113703400Y-65646000D03*
X117615000Y-65646000D03*
X111569800Y-65646000D03*
X116040200Y-68389200D03*
X116141800Y-66814400D03*
%TO.N,Vdd4*%
X125018800Y-55168800D03*
X125780800Y-42113200D03*
X122986800Y-42519600D03*
X128524000Y-54965600D03*
X116687600Y-51054000D03*
%TO.N,+5V*%
X129438400Y-75742800D03*
X128371600Y-75742800D03*
X128879600Y-76555600D03*
X128371600Y-77165200D03*
X129438400Y-77216000D03*
%TO.N,Net-(J3-Pin_2)*%
X135382000Y-44856400D03*
%TO.N,Net-(J3-Pin_4)*%
X135432800Y-46075600D03*
%TO.N,Net-(J3-Pin_5)*%
X135432800Y-47345600D03*
%TO.N,Net-(J3-Pin_6)*%
X139395200Y-48666400D03*
%TO.N,Net-(U2-PDB_RF)*%
X133197600Y-60452000D03*
X136296400Y-55016400D03*
%TD*%
D39*
%TO.N,Net-(U2-REFIN)*%
X138496000Y-58369200D02*
X136159200Y-58369200D01*
X136159200Y-58369200D02*
X136144000Y-58384400D01*
D40*
X131546000Y-58055000D02*
X135814600Y-58055000D01*
X135814600Y-58055000D02*
X136144000Y-58384400D01*
D39*
%TO.N,Net-(C1-Pad2)*%
X138654000Y-62758200D02*
X138617800Y-62758200D01*
X138617800Y-62758200D02*
X136144000Y-60284400D01*
X138654000Y-62758200D02*
X138654000Y-63561000D01*
%TO.N,Net-(J1-In)*%
X140765200Y-58000000D02*
X150749000Y-58000000D01*
X140396000Y-58039000D02*
X140435000Y-58000000D01*
X140396000Y-58369200D02*
X140765200Y-58000000D01*
D40*
%TO.N,Net-(U2-TEMP)*%
X123076000Y-64071200D02*
X125425200Y-61722000D01*
D41*
X120917000Y-64109000D02*
X123076000Y-64109000D01*
D40*
X125425200Y-61722000D02*
X128029000Y-61722000D01*
X123076000Y-64109000D02*
X123076000Y-64071200D01*
X128396000Y-61355000D02*
X128396000Y-60705000D01*
X123229000Y-64109000D02*
X123076000Y-64109000D01*
X128029000Y-61722000D02*
X128396000Y-61355000D01*
D41*
%TO.N,GND*%
X115697000Y-52578000D02*
X115697000Y-54459000D01*
D40*
X130397000Y-57055000D02*
X130396000Y-57055000D01*
D41*
X125187000Y-65659000D02*
X125362000Y-65834000D01*
X124117400Y-65659000D02*
X124117400Y-66814400D01*
X117957600Y-45415200D02*
X117947400Y-45405000D01*
X137718800Y-53086000D02*
X137705800Y-53099000D01*
D40*
X129082800Y-58368200D02*
X129146000Y-58305000D01*
X129082800Y-58369200D02*
X129082800Y-58368200D01*
D41*
X125465800Y-39817000D02*
X126441200Y-40792400D01*
D40*
X131546000Y-57055000D02*
X130511800Y-57055000D01*
X126746000Y-56555000D02*
X127396000Y-56555000D01*
D41*
X120917000Y-65659000D02*
X121780600Y-65659000D01*
X115697000Y-54459000D02*
X116583400Y-55345400D01*
X116586000Y-41590000D02*
X117109200Y-41590000D01*
X120409000Y-71081600D02*
X120409000Y-71030800D01*
X133096000Y-39502500D02*
X133096000Y-37592000D01*
X124117400Y-65659000D02*
X125187000Y-65659000D01*
D40*
X126746000Y-57555000D02*
X128396000Y-57555000D01*
D41*
X135673800Y-53099000D02*
X134541000Y-53099000D01*
X130048000Y-65532000D02*
X130061000Y-65519000D01*
X125222000Y-39817000D02*
X125465800Y-39817000D01*
D40*
X130511800Y-57055000D02*
X130454400Y-56997600D01*
D41*
X140192000Y-40275000D02*
X140192000Y-37608000D01*
X113690400Y-64109000D02*
X111582800Y-64109000D01*
X135699800Y-53099000D02*
X135686800Y-53086000D01*
D40*
X129396000Y-60705000D02*
X129396000Y-58555000D01*
D41*
X126619000Y-47130000D02*
X127368000Y-47130000D01*
X121716800Y-55473600D02*
X121742200Y-55499000D01*
D40*
X127762000Y-59639200D02*
X127896000Y-59555000D01*
D41*
X126492000Y-40792400D02*
X126492000Y-40843200D01*
X126492000Y-40843200D02*
X127365800Y-41717000D01*
D40*
X129396000Y-58555000D02*
X129146000Y-58305000D01*
D41*
X127365800Y-41717000D02*
X127889000Y-41717000D01*
X138684000Y-53099000D02*
X137731800Y-53099000D01*
X120612200Y-51041000D02*
X121539000Y-51041000D01*
X120409000Y-70098500D02*
X120409000Y-71081600D01*
D40*
X127396000Y-56555000D02*
X127762000Y-56921000D01*
D41*
X121742200Y-55499000D02*
X123050000Y-55499000D01*
X137731800Y-53099000D02*
X137718800Y-53086000D01*
D40*
X129081800Y-58369200D02*
X129082800Y-58369200D01*
D41*
X118707200Y-39992000D02*
X118999000Y-39992000D01*
X128029000Y-65532000D02*
X128029000Y-66509600D01*
X117109200Y-41590000D02*
X117957600Y-40741600D01*
D40*
X127896000Y-60705000D02*
X127762000Y-59639200D01*
X130454400Y-56997600D02*
X130397000Y-57055000D01*
D41*
X128320800Y-46177200D02*
X128320800Y-42113200D01*
X122047000Y-39629500D02*
X122047000Y-40817800D01*
D40*
X127762000Y-56997600D02*
X127838600Y-56997600D01*
D41*
X122047000Y-40817800D02*
X122021600Y-40843200D01*
X135686800Y-53086000D02*
X135673800Y-53099000D01*
D40*
X127762000Y-56921000D02*
X127762000Y-56997600D01*
X126746000Y-56555000D02*
X127396000Y-55905000D01*
D41*
X121780600Y-65659000D02*
X124117400Y-65659000D01*
X138654000Y-65261000D02*
X138654000Y-66451000D01*
D40*
X129896000Y-59055000D02*
X129146000Y-58305000D01*
D41*
X127368000Y-47130000D02*
X128320800Y-46177200D01*
X117967800Y-45405000D02*
X117957600Y-45415200D01*
X138654000Y-65261000D02*
X139894800Y-65261000D01*
D40*
X128396000Y-57555000D02*
X129146000Y-58305000D01*
X127838600Y-56997600D02*
X129146000Y-58305000D01*
D41*
X117957600Y-40741600D02*
X118707200Y-39992000D01*
X119253000Y-45405000D02*
X117967800Y-45405000D01*
X114694000Y-64109000D02*
X113716400Y-64109000D01*
X119634000Y-51041000D02*
X120586200Y-51041000D01*
D40*
X127896000Y-59555000D02*
X129081800Y-58369200D01*
D41*
X126441200Y-40792400D02*
X126492000Y-40792400D01*
X130061000Y-65519000D02*
X130061000Y-66458800D01*
X116586000Y-43535600D02*
X116586000Y-45278000D01*
X113703400Y-64122000D02*
X113690400Y-64109000D01*
X111582800Y-64109000D02*
X111569800Y-64122000D01*
X119342200Y-70116400D02*
X119360100Y-70098500D01*
X120599200Y-51054000D02*
X120612200Y-51041000D01*
X116586000Y-45278000D02*
X116713000Y-45405000D01*
X128029000Y-65532000D02*
X130048000Y-65532000D01*
X140192000Y-37404800D02*
X140208000Y-37388800D01*
D40*
X127396000Y-55905000D02*
X127396000Y-56555000D01*
X127396000Y-55632100D02*
X127396000Y-55905000D01*
X131546000Y-59055000D02*
X129896000Y-59055000D01*
D41*
X138654000Y-66451000D02*
X138646200Y-66458800D01*
X121780600Y-65659000D02*
X121780600Y-66763600D01*
X116586000Y-41590000D02*
X116586000Y-43535600D01*
X117947400Y-45405000D02*
X116713000Y-45405000D01*
X113716400Y-64109000D02*
X113703400Y-64122000D01*
X120409000Y-70098500D02*
X119360100Y-70098500D01*
D40*
X126695200Y-54931300D02*
X127396000Y-55632100D01*
D41*
X139894800Y-65261000D02*
X139916200Y-65239600D01*
X120586200Y-51041000D02*
X120599200Y-51054000D01*
D40*
X130396000Y-57055000D02*
X129146000Y-58305000D01*
D41*
X137705800Y-53099000D02*
X135699800Y-53099000D01*
X134541000Y-53099000D02*
X134366000Y-53274000D01*
X130175000Y-39116000D02*
X130175000Y-39992000D01*
D40*
%TO.N,Net-(U2-VCOM)*%
X127177800Y-63042800D02*
X129438400Y-63042800D01*
D41*
X125108000Y-68427000D02*
X127140000Y-68427000D01*
D40*
X130396000Y-62085200D02*
X130396000Y-60705000D01*
X127140000Y-68427000D02*
X126962200Y-68249200D01*
X126962200Y-63258400D02*
X127177800Y-63042800D01*
X126962200Y-68249200D02*
X126962200Y-63258400D01*
X129438400Y-63042800D02*
X130396000Y-62085200D01*
%TO.N,Net-(U2-VREF)*%
X128369000Y-63642000D02*
X128029000Y-63982000D01*
D41*
X128029000Y-63982000D02*
X130048000Y-63982000D01*
D40*
X130896000Y-60705000D02*
X130896000Y-62347200D01*
X130896000Y-62347200D02*
X130061000Y-63182200D01*
X130061000Y-63182200D02*
X130061000Y-63969000D01*
D41*
X130048000Y-63982000D02*
X130061000Y-63969000D01*
D39*
%TO.N,Net-(C11-Pad1)*%
X119634000Y-54051200D02*
X119634000Y-54102000D01*
D40*
X127396000Y-60705000D02*
X126746000Y-60055000D01*
D41*
X117729000Y-52591000D02*
X121539000Y-52591000D01*
D40*
X126746000Y-60055000D02*
X125822200Y-60055000D01*
D39*
X119634000Y-52591000D02*
X119634000Y-54051200D01*
D40*
X125822200Y-60055000D02*
X125425200Y-60452000D01*
D41*
%TO.N,Net-(U2-CPout)*%
X124333000Y-47305000D02*
X124333000Y-48387000D01*
X120954800Y-48564800D02*
X121869200Y-47650400D01*
D40*
X127896000Y-55048800D02*
X127812800Y-54965600D01*
D41*
X116713000Y-47929800D02*
X117348000Y-48564800D01*
D40*
X127896000Y-55905000D02*
X127896000Y-55048800D01*
D41*
X121869200Y-47650400D02*
X121869200Y-47305000D01*
X116713000Y-47305000D02*
X116713000Y-47929800D01*
X124333000Y-48387000D02*
X124307600Y-48412400D01*
X121869200Y-47305000D02*
X124333000Y-47305000D01*
X117348000Y-48564800D02*
X120954800Y-48564800D01*
%TO.N,Net-(C12-Pad1)*%
X119253000Y-47305000D02*
X119776200Y-47305000D01*
X119776200Y-47305000D02*
X121676200Y-45405000D01*
X121676200Y-45405000D02*
X121869200Y-45405000D01*
%TO.N,Net-(U2-VTUNE)*%
X125577600Y-45567600D02*
X125565200Y-45580000D01*
X125565200Y-45580000D02*
X124508000Y-45580000D01*
D40*
X128896000Y-61738400D02*
X128981200Y-61823600D01*
X128896000Y-60705000D02*
X128896000Y-61738400D01*
D41*
X124508000Y-45580000D02*
X124333000Y-45405000D01*
X125590000Y-45580000D02*
X125577600Y-45567600D01*
X126619000Y-45580000D02*
X125590000Y-45580000D01*
D39*
%TO.N,Net-(U2-RF_OUT_A+)*%
X117348000Y-62382400D02*
X118973600Y-62382400D01*
X121742200Y-59613800D02*
X123875800Y-59613800D01*
X124648000Y-58841600D02*
X124648000Y-58039000D01*
D40*
X124664000Y-58055000D02*
X124648000Y-58039000D01*
D39*
X116599000Y-63131400D02*
X117348000Y-62382400D01*
X123875800Y-59613800D02*
X124648000Y-58841600D01*
D40*
X126746000Y-58055000D02*
X124664000Y-58055000D01*
D39*
X118973600Y-62382400D02*
X121742200Y-59613800D01*
X116599000Y-64109000D02*
X116599000Y-63131400D01*
%TO.N,Net-(U3--)*%
X119183400Y-58045400D02*
X122741600Y-58045400D01*
X122741600Y-58045400D02*
X122748000Y-58039000D01*
%TO.N,Net-(C15-Pad1)*%
X113377000Y-58039000D02*
X113383400Y-58045400D01*
X110170000Y-58039000D02*
X110170000Y-55433000D01*
X110170000Y-58039000D02*
X113377000Y-58039000D01*
X110170000Y-55433000D02*
X110109000Y-55372000D01*
%TO.N,Net-(J2-In)*%
X102895400Y-58000000D02*
X108231000Y-58000000D01*
X108231000Y-58000000D02*
X108270000Y-58039000D01*
%TO.N,Net-(C16-Pad1)*%
X108559000Y-54915400D02*
X110297000Y-53177400D01*
X110297000Y-49911000D02*
X110297000Y-52832000D01*
X108559000Y-55372000D02*
X108559000Y-54915400D01*
X110297000Y-46863000D02*
X110297000Y-49911000D01*
X110297000Y-53177400D02*
X110297000Y-52832000D01*
D42*
%TO.N,5V*%
X121346000Y-76504800D02*
X125417600Y-76504800D01*
D41*
%TO.N,Net-(U4-BP)*%
X135667500Y-67924500D02*
X136157000Y-68414000D01*
X133805000Y-67924500D02*
X135667500Y-67924500D01*
%TO.N,Net-(U5-BP)*%
X130175000Y-41542000D02*
X131910500Y-41542000D01*
X131910500Y-41542000D02*
X132146000Y-41777500D01*
%TO.N,Net-(U6-BP)*%
X120046500Y-68186000D02*
X120409000Y-68548500D01*
X118057000Y-68186000D02*
X120046500Y-68186000D01*
%TO.N,Net-(U7-BP)*%
X118999000Y-41542000D02*
X120734500Y-41542000D01*
X120734500Y-41542000D02*
X121097000Y-41904500D01*
%TO.N,Vdd1*%
X131905000Y-67924500D02*
X131905000Y-66778800D01*
X131905000Y-66778800D02*
X131889800Y-66763600D01*
X130823000Y-68287600D02*
X130858600Y-68252000D01*
X130858600Y-68252000D02*
X131577500Y-68252000D01*
X131577500Y-68252000D02*
X131905000Y-67924500D01*
X130787400Y-68252000D02*
X130823000Y-68287600D01*
X131905000Y-66748400D02*
X131905000Y-65803000D01*
X131905000Y-65803000D02*
X132093000Y-65615000D01*
X131889800Y-66763600D02*
X131905000Y-66748400D01*
X129426000Y-68252000D02*
X130787400Y-68252000D01*
D40*
%TO.N,Vdd2*%
X132624200Y-56555000D02*
X132638800Y-56540400D01*
D41*
X139750800Y-51927800D02*
X141097000Y-53274000D01*
D40*
X132418200Y-58555000D02*
X133197600Y-59334400D01*
D41*
X139750800Y-51917600D02*
X139750800Y-51927800D01*
X136525000Y-41656000D02*
X136525000Y-47484000D01*
X139192000Y-41275000D02*
X136906000Y-41275000D01*
X134018000Y-49979600D02*
X134018000Y-48641000D01*
X135671600Y-51374000D02*
X137632400Y-51374000D01*
D40*
X132638800Y-56540400D02*
X132653400Y-56555000D01*
D41*
X135600400Y-51374000D02*
X135636000Y-51409600D01*
X135534400Y-48463200D02*
X135534400Y-48474600D01*
X136525000Y-41656000D02*
X135229600Y-41656000D01*
D40*
X133122000Y-56555000D02*
X134051000Y-55626000D01*
D41*
X138509000Y-51374000D02*
X138684000Y-51549000D01*
X135636000Y-51409600D02*
X135671600Y-51374000D01*
X134018000Y-49979600D02*
X134018000Y-51026000D01*
X134167500Y-41656000D02*
X134046000Y-41777500D01*
X136525000Y-47484000D02*
X135545800Y-48463200D01*
X137632400Y-51374000D02*
X137668000Y-51409600D01*
X134366000Y-51374000D02*
X135600400Y-51374000D01*
X137668000Y-51409600D02*
X137703600Y-51374000D01*
X136906000Y-41275000D02*
X136525000Y-41656000D01*
D40*
X133197600Y-59334400D02*
X133197600Y-59232800D01*
D41*
X135534400Y-48474600D02*
X135368000Y-48641000D01*
D40*
X131546000Y-56555000D02*
X132624200Y-56555000D01*
D41*
X138684000Y-51549000D02*
X139372000Y-51549000D01*
X137703600Y-51374000D02*
X138509000Y-51374000D01*
X135368000Y-48641000D02*
X134018000Y-48641000D01*
X139372000Y-51549000D02*
X139740600Y-51917600D01*
D40*
X132653400Y-56555000D02*
X133122000Y-56555000D01*
X131546000Y-58555000D02*
X132418200Y-58555000D01*
D41*
X135229600Y-41656000D02*
X134167500Y-41656000D01*
X135545800Y-48463200D02*
X135534400Y-48463200D01*
X139740600Y-51917600D02*
X139750800Y-51917600D01*
X134018000Y-51026000D02*
X134366000Y-51374000D01*
%TO.N,Vdd3*%
X117615000Y-65646000D02*
X117628000Y-65659000D01*
X116157000Y-68186000D02*
X116157000Y-66829600D01*
X116040200Y-68302800D02*
X116157000Y-68186000D01*
X117602000Y-65659000D02*
X117615000Y-65646000D01*
X113716400Y-65659000D02*
X117602000Y-65659000D01*
X116040200Y-68389200D02*
X116040200Y-68302800D01*
X115837000Y-68506000D02*
X115953800Y-68389200D01*
X113690400Y-65659000D02*
X113703400Y-65646000D01*
X113596800Y-68506000D02*
X113144600Y-68490800D01*
X116141800Y-66814400D02*
X116157000Y-66799200D01*
X117628000Y-65659000D02*
X118631000Y-65659000D01*
X113612000Y-68506000D02*
X113596800Y-68506000D01*
X116157000Y-66101000D02*
X116599000Y-65659000D01*
X112662000Y-65659000D02*
X113690400Y-65659000D01*
X111582800Y-65659000D02*
X111569800Y-65646000D01*
X112662000Y-65659000D02*
X111582800Y-65659000D01*
X115953800Y-68389200D02*
X116040200Y-68389200D01*
X116157000Y-66799200D02*
X116157000Y-66101000D01*
X113627200Y-68506000D02*
X115837000Y-68506000D01*
X113703400Y-65646000D02*
X113716400Y-65659000D01*
X116157000Y-66829600D02*
X116141800Y-66814400D01*
X113144600Y-68490800D02*
X113627200Y-68506000D01*
D40*
%TO.N,Vdd4*%
X126156000Y-57055000D02*
X126746000Y-57055000D01*
D41*
X117716000Y-51028000D02*
X117729000Y-51041000D01*
D40*
X124600000Y-55499000D02*
X126156000Y-57055000D01*
D41*
X116687600Y-51054000D02*
X116713600Y-51028000D01*
X123184500Y-41717000D02*
X122997000Y-41904500D01*
X125222000Y-41717000D02*
X123184500Y-41717000D01*
D40*
X128396000Y-55905000D02*
X128396000Y-55093600D01*
D41*
X116661600Y-51028000D02*
X116687600Y-51054000D01*
X116713600Y-51028000D02*
X117716000Y-51028000D01*
D40*
X128396000Y-55093600D02*
X128524000Y-54965600D01*
D41*
X115697000Y-51028000D02*
X116661600Y-51028000D01*
%TO.N,Net-(D1-A)*%
X140396000Y-55626000D02*
X141884400Y-55626000D01*
X141884400Y-55626000D02*
X147243000Y-50267400D01*
X147243000Y-50267400D02*
X147243000Y-49733200D01*
D39*
%TO.N,Net-(J3-Pin_2)*%
X134018000Y-44831000D02*
X135382000Y-44856400D01*
X135407400Y-44831000D02*
X135432800Y-44805600D01*
X132400000Y-44831000D02*
X134018000Y-44831000D01*
X135382000Y-44856400D02*
X135407400Y-44831000D01*
X126365000Y-50866000D02*
X132400000Y-44831000D01*
%TO.N,Net-(J3-Pin_4)*%
X129032000Y-49631600D02*
X132562600Y-46101000D01*
X135407400Y-46101000D02*
X135432800Y-46075600D01*
X129032000Y-50866000D02*
X129032000Y-49631600D01*
X132562600Y-46101000D02*
X134018000Y-46101000D01*
X134018000Y-46101000D02*
X135407400Y-46101000D01*
%TO.N,Net-(J3-Pin_5)*%
X135432800Y-47345600D02*
X135432800Y-47294800D01*
X131699000Y-50866000D02*
X131699000Y-48285400D01*
X132613400Y-47371000D02*
X134018000Y-47371000D01*
X134018000Y-47371000D02*
X135356600Y-47371000D01*
X131699000Y-48285400D02*
X132613400Y-47371000D01*
X135382000Y-47345600D02*
X135432800Y-47345600D01*
X135432800Y-47294800D02*
X135382000Y-47345600D01*
X135356600Y-47371000D02*
X135382000Y-47345600D01*
%TO.N,Net-(J3-Pin_6)*%
X139369800Y-48641000D02*
X139344400Y-48666400D01*
X139395200Y-48666400D02*
X139369800Y-48641000D01*
X141318000Y-48641000D02*
X139395200Y-48666400D01*
X141318000Y-48641000D02*
X141318000Y-51153000D01*
X141318000Y-51153000D02*
X141097000Y-51374000D01*
D41*
%TO.N,Net-(R1-Pad1)*%
X136300000Y-63715000D02*
X136454000Y-63561000D01*
X132093000Y-63715000D02*
X136300000Y-63715000D01*
D40*
%TO.N,Net-(U2-LE)*%
X126365000Y-52766000D02*
X127035600Y-52766000D01*
X128168400Y-53898800D02*
X129082800Y-53898800D01*
X129082800Y-53898800D02*
X129896000Y-54712000D01*
X127035600Y-52766000D02*
X128168400Y-53898800D01*
X129896000Y-54712000D02*
X129896000Y-55905000D01*
%TO.N,Net-(U2-DATA)*%
X130396000Y-54130000D02*
X130396000Y-55905000D01*
X129032000Y-52766000D02*
X130396000Y-54130000D01*
%TO.N,Net-(U2-CLK)*%
X130896000Y-53569000D02*
X130896000Y-55905000D01*
X131699000Y-52766000D02*
X130896000Y-53569000D01*
%TO.N,Net-(U2-RSET)*%
X126542800Y-62636400D02*
X129235200Y-62636400D01*
X125362000Y-63934000D02*
X125362000Y-63817200D01*
X129896000Y-61975600D02*
X129896000Y-60705000D01*
X125362000Y-63817200D02*
X126542800Y-62636400D01*
X129235200Y-62636400D02*
X129896000Y-61975600D01*
%TO.N,Net-(U2-PDB_RF)*%
X133197600Y-60452000D02*
X133197600Y-60299600D01*
X132453000Y-59555000D02*
X131546000Y-59555000D01*
X133197600Y-60299600D02*
X132453000Y-59555000D01*
%TO.N,Net-(U2-CE)*%
X129396000Y-55905000D02*
X129396000Y-54974000D01*
X129396000Y-54974000D02*
X128828800Y-54406800D01*
X125338800Y-54406800D02*
X123698000Y-52766000D01*
X128828800Y-54406800D02*
X125338800Y-54406800D01*
%TO.N,Net-(U2-MUXOUT)*%
X131546000Y-57555000D02*
X132687685Y-57555000D01*
X136972000Y-57150000D02*
X138496000Y-55626000D01*
X133092685Y-57150000D02*
X136972000Y-57150000D01*
X132687685Y-57555000D02*
X133092685Y-57150000D01*
%TO.N,Net-(U2-RF_OUT_A-)*%
X126746000Y-58555000D02*
X126096000Y-58555000D01*
X121862200Y-62788800D02*
X119951200Y-62788800D01*
X119951200Y-62788800D02*
X118631000Y-64109000D01*
X126096000Y-58555000D02*
X121862200Y-62788800D01*
D41*
%TO.N,Net-(U1-PB3)*%
X141318000Y-47371000D02*
X143078200Y-47371000D01*
X143992600Y-46456600D02*
X147040600Y-46456600D01*
X143078200Y-47371000D02*
X143992600Y-46456600D01*
%TO.N,Net-(U1-PB4)*%
X141394200Y-46177200D02*
X141318000Y-46101000D01*
X143709400Y-45059600D02*
X147040600Y-45059600D01*
X141318000Y-46101000D02*
X142668000Y-46101000D01*
X142668000Y-46101000D02*
X143709400Y-45059600D01*
D42*
%TO.N,Net-(D3-A)*%
X116012000Y-76504800D02*
X115707200Y-76200000D01*
X119446000Y-76504800D02*
X116012000Y-76504800D01*
%TD*%
%TA.AperFunction,Conductor*%
%TO.N,GND*%
G36*
X106977378Y-37947600D02*
G01*
X106934312Y-55045112D01*
X106914458Y-55112102D01*
X106861539Y-55157724D01*
X106810312Y-55168800D01*
X101478192Y-55168800D01*
X101411153Y-55149115D01*
X101365398Y-55096311D01*
X101354192Y-55044479D01*
X101376883Y-46285431D01*
X101397165Y-38456473D01*
X101397300Y-38456019D01*
X101397300Y-38408044D01*
X101397470Y-38401555D01*
X101397551Y-38400000D01*
X103343140Y-38400000D01*
X103363736Y-38635407D01*
X103424896Y-38863662D01*
X103424897Y-38863663D01*
X103524765Y-39077829D01*
X103660305Y-39271401D01*
X103827399Y-39438495D01*
X104020971Y-39574035D01*
X104235137Y-39673903D01*
X104463392Y-39735063D01*
X104639834Y-39750500D01*
X104642542Y-39750500D01*
X104755058Y-39750500D01*
X104757766Y-39750500D01*
X104934208Y-39735063D01*
X105162463Y-39673903D01*
X105376629Y-39574035D01*
X105570201Y-39438495D01*
X105737295Y-39271401D01*
X105872835Y-39077830D01*
X105972703Y-38863663D01*
X106033863Y-38635408D01*
X106054459Y-38400000D01*
X106033863Y-38164592D01*
X105972703Y-37936337D01*
X105872835Y-37722171D01*
X105737295Y-37528599D01*
X105570201Y-37361505D01*
X105376629Y-37225965D01*
X105162463Y-37126097D01*
X104934207Y-37064936D01*
X104760467Y-37049736D01*
X104760459Y-37049735D01*
X104757766Y-37049500D01*
X104639834Y-37049500D01*
X104637141Y-37049735D01*
X104637132Y-37049736D01*
X104463392Y-37064936D01*
X104235136Y-37126097D01*
X104020970Y-37225965D01*
X103827398Y-37361505D01*
X103660308Y-37528595D01*
X103660305Y-37528598D01*
X103660305Y-37528599D01*
X103534815Y-37707818D01*
X103524764Y-37722172D01*
X103424897Y-37936337D01*
X103363736Y-38164592D01*
X103343140Y-38400000D01*
X101397551Y-38400000D01*
X101404284Y-38271533D01*
X101416577Y-38052636D01*
X101417902Y-38040258D01*
X101443533Y-37878429D01*
X101474961Y-37693462D01*
X101477423Y-37682187D01*
X101521577Y-37517402D01*
X101571905Y-37342711D01*
X101575271Y-37332676D01*
X101636955Y-37171984D01*
X101638042Y-37169259D01*
X101706249Y-37004593D01*
X101710297Y-36995811D01*
X101789012Y-36841325D01*
X101790884Y-36837798D01*
X101876440Y-36682995D01*
X101880940Y-36675498D01*
X101975718Y-36529551D01*
X101978546Y-36525385D01*
X102080467Y-36381741D01*
X102085199Y-36375502D01*
X102194959Y-36239961D01*
X102198824Y-36235417D01*
X102315988Y-36104311D01*
X102320698Y-36099330D01*
X102444130Y-35975898D01*
X102449111Y-35971188D01*
X102580217Y-35854024D01*
X102584761Y-35850159D01*
X102720302Y-35740399D01*
X102726541Y-35735667D01*
X102870185Y-35633746D01*
X102874351Y-35630918D01*
X103020298Y-35536140D01*
X103027795Y-35531640D01*
X103182598Y-35446084D01*
X103186125Y-35444212D01*
X103340611Y-35365497D01*
X103349393Y-35361449D01*
X103514059Y-35293242D01*
X103516784Y-35292155D01*
X103677462Y-35230476D01*
X103687540Y-35227097D01*
X103862227Y-35176770D01*
X104027005Y-35132618D01*
X104038264Y-35130160D01*
X104223245Y-35098730D01*
X104385051Y-35073103D01*
X104397449Y-35071776D01*
X104616333Y-35059484D01*
X104739651Y-35053021D01*
X104746357Y-35052670D01*
X104752845Y-35052500D01*
X104800844Y-35052500D01*
X104801377Y-35052440D01*
X106984675Y-35049930D01*
X106977378Y-37947600D01*
G37*
%TD.AperFunction*%
%TD*%
%TA.AperFunction,Conductor*%
%TO.N,Vdd1*%
G36*
X132100247Y-65622756D02*
G01*
X132501943Y-66108107D01*
X132504578Y-66116666D01*
X132502491Y-66122310D01*
X132158496Y-66610043D01*
X132150927Y-66614829D01*
X132148935Y-66615000D01*
X131663748Y-66615000D01*
X131655475Y-66611573D01*
X131652526Y-66606610D01*
X131499178Y-66086633D01*
X131500125Y-66077728D01*
X131503202Y-66074099D01*
X132084038Y-65620990D01*
X132092668Y-65618604D01*
X132100247Y-65622756D01*
G37*
%TD.AperFunction*%
%TD*%
%TA.AperFunction,Conductor*%
%TO.N,GND*%
G36*
X138662947Y-65268596D02*
G01*
X139244644Y-65854778D01*
X139248039Y-65863064D01*
X139246582Y-65868673D01*
X138831221Y-66621228D01*
X138824223Y-66626815D01*
X138815324Y-66625817D01*
X138812705Y-66623847D01*
X138470153Y-66281295D01*
X138059069Y-65869294D01*
X138055652Y-65861018D01*
X138059087Y-65852750D01*
X138646403Y-65268552D01*
X138654684Y-65265148D01*
X138662947Y-65268596D01*
G37*
%TD.AperFunction*%
%TD*%
%TA.AperFunction,Conductor*%
%TO.N,Net-(C15-Pad1)*%
G36*
X110116298Y-55376683D02*
G01*
X110116437Y-55376792D01*
X110535336Y-55703013D01*
X110539758Y-55710800D01*
X110539241Y-55715960D01*
X110347299Y-56289016D01*
X110341422Y-56295772D01*
X110336205Y-56297000D01*
X110002350Y-56297000D01*
X109994077Y-56293573D01*
X109992058Y-56290864D01*
X109886386Y-56095407D01*
X109685316Y-55723495D01*
X109684397Y-55714590D01*
X109688283Y-55708811D01*
X110101787Y-55376791D01*
X110110381Y-55374284D01*
X110116298Y-55376683D01*
G37*
%TD.AperFunction*%
%TD*%
%TA.AperFunction,Conductor*%
%TO.N,Vdd4*%
G36*
X117394186Y-50611321D02*
G01*
X117397761Y-50614374D01*
X117724401Y-51033811D01*
X117726781Y-51042444D01*
X117724401Y-51048189D01*
X117397975Y-51467350D01*
X117390188Y-51471772D01*
X117385051Y-51471263D01*
X116812007Y-51280663D01*
X116805239Y-51274800D01*
X116804000Y-51269561D01*
X116804000Y-50786802D01*
X116807427Y-50778529D01*
X116812455Y-50775560D01*
X117385289Y-50610321D01*
X117394186Y-50611321D01*
G37*
%TD.AperFunction*%
%TD*%
%TA.AperFunction,Conductor*%
%TO.N,GND*%
G36*
X128171021Y-57991518D02*
G01*
X129079155Y-58366812D01*
X129085492Y-58373139D01*
X129085500Y-58373158D01*
X129460361Y-59280680D01*
X129460352Y-59289635D01*
X129454014Y-59295961D01*
X129452502Y-59296468D01*
X127823503Y-59721704D01*
X127814633Y-59720478D01*
X127810641Y-59716608D01*
X127711576Y-59558954D01*
X127710077Y-59550128D01*
X127710231Y-59549530D01*
X128155307Y-57999101D01*
X128160883Y-57992096D01*
X128169780Y-57991085D01*
X128171021Y-57991518D01*
G37*
%TD.AperFunction*%
%TD*%
%TA.AperFunction,Conductor*%
%TO.N,Net-(U2-VREF)*%
G36*
X130906646Y-60732543D02*
G01*
X130906957Y-60733294D01*
X131044550Y-61101124D01*
X131044692Y-61108923D01*
X130998667Y-61247000D01*
X130992799Y-61253765D01*
X130987567Y-61255000D01*
X130804433Y-61255000D01*
X130796160Y-61251573D01*
X130793333Y-61247000D01*
X130749761Y-61116283D01*
X130749296Y-61110815D01*
X130750158Y-61105182D01*
X130750016Y-61097383D01*
X130750015Y-61097380D01*
X130750002Y-61096631D01*
X130750740Y-61092326D01*
X130885042Y-60733291D01*
X130891149Y-60726746D01*
X130900098Y-60726435D01*
X130906646Y-60732543D01*
G37*
%TD.AperFunction*%
%TD*%
%TA.AperFunction,Conductor*%
%TO.N,Net-(U2-VCOM)*%
G36*
X125451832Y-67996527D02*
G01*
X125464665Y-68000512D01*
X126024770Y-68174444D01*
X126031654Y-68180171D01*
X126033000Y-68185618D01*
X126033000Y-68668381D01*
X126029573Y-68676654D01*
X126024770Y-68679555D01*
X125451832Y-68857472D01*
X125442915Y-68856652D01*
X125439131Y-68853487D01*
X125294978Y-68668381D01*
X125112597Y-68434188D01*
X125110218Y-68425556D01*
X125112597Y-68419812D01*
X125439132Y-68000511D01*
X125446918Y-67996090D01*
X125451832Y-67996527D01*
G37*
%TD.AperFunction*%
%TD*%
%TA.AperFunction,Conductor*%
%TO.N,Net-(J3-Pin_2)*%
G36*
X135377816Y-44635236D02*
G01*
X135382004Y-44643151D01*
X135382056Y-44644197D01*
X135382999Y-44856418D01*
X135382058Y-45068140D01*
X135378594Y-45076398D01*
X135370306Y-45079788D01*
X135368851Y-45079691D01*
X134940004Y-45023980D01*
X134932241Y-45019515D01*
X134929813Y-45012159D01*
X134935926Y-44683891D01*
X134939506Y-44675683D01*
X134946523Y-44672462D01*
X135369259Y-44632601D01*
X135377816Y-44635236D01*
G37*
%TD.AperFunction*%
%TD*%
%TA.AperFunction,Conductor*%
%TO.N,Net-(U2-REFIN)*%
G36*
X132088000Y-57952333D02*
G01*
X132094765Y-57958201D01*
X132096000Y-57963433D01*
X132096000Y-58146566D01*
X132092573Y-58154839D01*
X132088000Y-58157666D01*
X131949923Y-58203692D01*
X131942124Y-58203550D01*
X131574294Y-58065958D01*
X131567746Y-58059850D01*
X131567435Y-58050901D01*
X131573543Y-58044353D01*
X131574294Y-58044042D01*
X131942126Y-57906448D01*
X131949921Y-57906307D01*
X132088000Y-57952333D01*
G37*
%TD.AperFunction*%
%TD*%
%TA.AperFunction,Conductor*%
%TO.N,Net-(U2-CE)*%
G36*
X124414163Y-52783666D02*
G01*
X124422344Y-52787304D01*
X124425195Y-52792455D01*
X124616458Y-53538231D01*
X124615194Y-53547097D01*
X124613398Y-53549411D01*
X124482282Y-53680527D01*
X124474009Y-53683954D01*
X124469422Y-53683017D01*
X123501529Y-53270532D01*
X123495262Y-53264136D01*
X123495298Y-53255311D01*
X123694225Y-52772734D01*
X123700545Y-52766393D01*
X123705339Y-52765499D01*
X124414163Y-52783666D01*
G37*
%TD.AperFunction*%
%TD*%
%TA.AperFunction,Conductor*%
%TO.N,Net-(C16-Pad1)*%
G36*
X110304532Y-49919220D02*
G01*
X110305953Y-49920641D01*
X110773156Y-50475949D01*
X110775860Y-50484485D01*
X110774799Y-50488442D01*
X110474780Y-51129261D01*
X110468169Y-51135301D01*
X110464184Y-51136000D01*
X110129816Y-51136000D01*
X110121543Y-51132573D01*
X110119220Y-51129261D01*
X109819200Y-50488442D01*
X109818795Y-50479496D01*
X109820840Y-50475953D01*
X110288047Y-49920640D01*
X110295996Y-49916516D01*
X110304532Y-49919220D01*
G37*
%TD.AperFunction*%
%TD*%
%TA.AperFunction,Conductor*%
%TO.N,Net-(C15-Pad1)*%
G36*
X110672992Y-57544132D02*
G01*
X111164637Y-57860919D01*
X111169736Y-57868281D01*
X111170000Y-57870754D01*
X111170000Y-58207245D01*
X111166573Y-58215518D01*
X111164637Y-58217080D01*
X110672994Y-58533866D01*
X110664184Y-58535467D01*
X110658351Y-58532271D01*
X110177173Y-58047239D01*
X110173780Y-58038953D01*
X110177173Y-58030760D01*
X110658353Y-57545726D01*
X110666610Y-57542268D01*
X110672992Y-57544132D01*
G37*
%TD.AperFunction*%
%TD*%
%TA.AperFunction,Conductor*%
%TO.N,Net-(D1-A)*%
G36*
X140898582Y-55129740D02*
G01*
X141389491Y-55372777D01*
X141395385Y-55379518D01*
X141396000Y-55383262D01*
X141396000Y-55868737D01*
X141392573Y-55877010D01*
X141389491Y-55879222D01*
X140898584Y-56122258D01*
X140889649Y-56122858D01*
X140885088Y-56120013D01*
X140403173Y-55634239D01*
X140399780Y-55625953D01*
X140403173Y-55617760D01*
X140885089Y-55131984D01*
X140893346Y-55128526D01*
X140898582Y-55129740D01*
G37*
%TD.AperFunction*%
%TD*%
%TA.AperFunction,Conductor*%
%TO.N,Net-(C1-Pad2)*%
G36*
X136860925Y-60302086D02*
G01*
X136869107Y-60305724D01*
X136871668Y-60309916D01*
X137114453Y-61003386D01*
X137113952Y-61012327D01*
X137111683Y-61015525D01*
X136875923Y-61251285D01*
X136867650Y-61254712D01*
X136862361Y-61253448D01*
X135946544Y-60789291D01*
X135940713Y-60782494D01*
X135941015Y-60774398D01*
X136140225Y-60291134D01*
X136146545Y-60284793D01*
X136151339Y-60283899D01*
X136860925Y-60302086D01*
G37*
%TD.AperFunction*%
%TD*%
%TA.AperFunction,Conductor*%
%TO.N,Net-(U2-TEMP)*%
G36*
X122741084Y-63679347D02*
G01*
X122744868Y-63682512D01*
X123071401Y-64101810D01*
X123073781Y-64110443D01*
X123071401Y-64116188D01*
X122744868Y-64535487D01*
X122737081Y-64539909D01*
X122732167Y-64539472D01*
X122159230Y-64361555D01*
X122152346Y-64355828D01*
X122151000Y-64350381D01*
X122151000Y-63867618D01*
X122154427Y-63859345D01*
X122159228Y-63856444D01*
X122732167Y-63678527D01*
X122741084Y-63679347D01*
G37*
%TD.AperFunction*%
%TD*%
%TA.AperFunction,Conductor*%
%TO.N,GND*%
G36*
X121204084Y-50611347D02*
G01*
X121207868Y-50614512D01*
X121534401Y-51033811D01*
X121536781Y-51042444D01*
X121534401Y-51048189D01*
X121207868Y-51467487D01*
X121200081Y-51471909D01*
X121195167Y-51471472D01*
X120622230Y-51293555D01*
X120615346Y-51287828D01*
X120614000Y-51282381D01*
X120614000Y-50799618D01*
X120617427Y-50791345D01*
X120622228Y-50788444D01*
X121195167Y-50610527D01*
X121204084Y-50611347D01*
G37*
%TD.AperFunction*%
%TD*%
%TA.AperFunction,Conductor*%
%TO.N,Net-(U2-CPout)*%
G36*
X124341239Y-47312174D02*
G01*
X124827013Y-47794087D01*
X124830473Y-47802346D01*
X124829258Y-47807584D01*
X124586222Y-48298491D01*
X124579481Y-48304385D01*
X124575737Y-48305000D01*
X124090263Y-48305000D01*
X124081990Y-48301573D01*
X124079778Y-48298491D01*
X123836740Y-47807584D01*
X123836140Y-47798649D01*
X123838982Y-47794091D01*
X124324761Y-47312172D01*
X124333046Y-47308780D01*
X124341239Y-47312174D01*
G37*
%TD.AperFunction*%
%TD*%
%TA.AperFunction,Conductor*%
%TO.N,Net-(U7-BP)*%
G36*
X119342832Y-41111527D02*
G01*
X119355665Y-41115512D01*
X119915770Y-41289444D01*
X119922654Y-41295171D01*
X119924000Y-41300618D01*
X119924000Y-41783381D01*
X119920573Y-41791654D01*
X119915770Y-41794555D01*
X119342832Y-41972472D01*
X119333915Y-41971652D01*
X119330131Y-41968487D01*
X119185978Y-41783381D01*
X119003597Y-41549188D01*
X119001218Y-41540556D01*
X119003597Y-41534812D01*
X119330132Y-41115511D01*
X119337918Y-41111090D01*
X119342832Y-41111527D01*
G37*
%TD.AperFunction*%
%TD*%
%TA.AperFunction,Conductor*%
%TO.N,Net-(J3-Pin_4)*%
G36*
X133172608Y-45777760D02*
G01*
X133990380Y-46090070D01*
X133996886Y-46096223D01*
X133997136Y-46105174D01*
X133990983Y-46111680D01*
X133990380Y-46111930D01*
X133172608Y-46424239D01*
X133163657Y-46423989D01*
X133163521Y-46423927D01*
X132849787Y-46278765D01*
X132843718Y-46272181D01*
X132843000Y-46268147D01*
X132843000Y-45933852D01*
X132846427Y-45925579D01*
X132849783Y-45923236D01*
X133163521Y-45778071D01*
X133172468Y-45777708D01*
X133172608Y-45777760D01*
G37*
%TD.AperFunction*%
%TD*%
%TA.AperFunction,Conductor*%
%TO.N,Net-(J3-Pin_2)*%
G36*
X134872338Y-44523842D02*
G01*
X134872424Y-44523882D01*
X135189392Y-44675041D01*
X135195385Y-44681696D01*
X135196054Y-44685820D01*
X135189836Y-45019708D01*
X135186256Y-45027916D01*
X135182479Y-45030355D01*
X134872244Y-45154304D01*
X134863729Y-45154368D01*
X134511145Y-45019708D01*
X134046335Y-44842185D01*
X134039829Y-44836032D01*
X134039579Y-44827081D01*
X134045732Y-44820575D01*
X134046493Y-44820265D01*
X134863392Y-44523446D01*
X134872338Y-44523842D01*
G37*
%TD.AperFunction*%
%TD*%
%TA.AperFunction,Conductor*%
%TO.N,GND*%
G36*
X119977832Y-50610527D02*
G01*
X119990665Y-50614512D01*
X120550770Y-50788444D01*
X120557654Y-50794171D01*
X120559000Y-50799618D01*
X120559000Y-51282381D01*
X120555573Y-51290654D01*
X120550770Y-51293555D01*
X119977832Y-51471472D01*
X119968915Y-51470652D01*
X119965131Y-51467487D01*
X119820978Y-51282381D01*
X119638597Y-51048188D01*
X119636218Y-51039556D01*
X119638597Y-51033812D01*
X119965132Y-50614511D01*
X119972918Y-50610090D01*
X119977832Y-50610527D01*
G37*
%TD.AperFunction*%
%TD*%
%TA.AperFunction,Conductor*%
%TO.N,GND*%
G36*
X122727816Y-55052383D02*
G01*
X122732204Y-55056074D01*
X123046080Y-55492165D01*
X123048132Y-55500882D01*
X123046080Y-55505835D01*
X122732204Y-55941925D01*
X122724590Y-55946638D01*
X122718877Y-55946145D01*
X122157869Y-55751727D01*
X122151174Y-55745780D01*
X122150000Y-55740672D01*
X122150000Y-55257327D01*
X122153427Y-55249054D01*
X122157865Y-55246274D01*
X122718877Y-55051854D01*
X122727816Y-55052383D01*
G37*
%TD.AperFunction*%
%TD*%
%TA.AperFunction,Conductor*%
%TO.N,GND*%
G36*
X130425062Y-39119427D02*
G01*
X130427792Y-39123722D01*
X130621994Y-39660801D01*
X130621584Y-39669746D01*
X130617826Y-39674275D01*
X130181834Y-39988080D01*
X130173117Y-39990132D01*
X130168164Y-39988080D01*
X129732172Y-39674276D01*
X129727459Y-39666662D01*
X129728003Y-39660803D01*
X129922208Y-39123720D01*
X129928244Y-39117107D01*
X129933211Y-39116000D01*
X130416789Y-39116000D01*
X130425062Y-39119427D01*
G37*
%TD.AperFunction*%
%TD*%
%TA.AperFunction,Conductor*%
%TO.N,GND*%
G36*
X134846688Y-52774568D02*
G01*
X135580464Y-52847946D01*
X135588355Y-52852179D01*
X135591000Y-52859588D01*
X135591000Y-53342354D01*
X135587573Y-53350627D01*
X135585293Y-53352403D01*
X135034873Y-53680681D01*
X135026012Y-53681975D01*
X135022728Y-53680584D01*
X134486327Y-53349000D01*
X134377259Y-53281578D01*
X134372025Y-53274314D01*
X134373460Y-53265475D01*
X134374934Y-53263564D01*
X134837055Y-52778143D01*
X134845240Y-52774515D01*
X134846688Y-52774568D01*
G37*
%TD.AperFunction*%
%TD*%
%TA.AperFunction,Conductor*%
%TO.N,GND*%
G36*
X129797182Y-57671361D02*
G01*
X129798060Y-57672345D01*
X130815584Y-58951802D01*
X130818127Y-58959085D01*
X130818128Y-59144655D01*
X130814701Y-59152928D01*
X130807861Y-59156267D01*
X129095919Y-59367580D01*
X129087289Y-59365192D01*
X129082874Y-59357401D01*
X129082786Y-59355992D01*
X129081804Y-58374054D01*
X129085221Y-58365783D01*
X129780639Y-57671347D01*
X129788911Y-57667928D01*
X129797182Y-57671361D01*
G37*
%TD.AperFunction*%
%TD*%
%TA.AperFunction,Conductor*%
%TO.N,Net-(U2-TEMP)*%
G36*
X121260832Y-63678527D02*
G01*
X121273665Y-63682512D01*
X121833770Y-63856444D01*
X121840654Y-63862171D01*
X121842000Y-63867618D01*
X121842000Y-64350381D01*
X121838573Y-64358654D01*
X121833770Y-64361555D01*
X121260832Y-64539472D01*
X121251915Y-64538652D01*
X121248131Y-64535487D01*
X121103978Y-64350381D01*
X120921597Y-64116188D01*
X120919218Y-64107556D01*
X120921597Y-64101812D01*
X121248132Y-63682511D01*
X121255918Y-63678090D01*
X121260832Y-63678527D01*
G37*
%TD.AperFunction*%
%TD*%
%TA.AperFunction,Conductor*%
%TO.N,Net-(J3-Pin_4)*%
G36*
X134872342Y-45778010D02*
G01*
X134872478Y-45778072D01*
X135186214Y-45923235D01*
X135192282Y-45929818D01*
X135193000Y-45933852D01*
X135193000Y-46268147D01*
X135189573Y-46276420D01*
X135186213Y-46278765D01*
X134872478Y-46423927D01*
X134863531Y-46424291D01*
X134863391Y-46424239D01*
X134267225Y-46196562D01*
X134045618Y-46111929D01*
X134039113Y-46105777D01*
X134038863Y-46096826D01*
X134045016Y-46090320D01*
X134045609Y-46090073D01*
X134863391Y-45777760D01*
X134872342Y-45778010D01*
G37*
%TD.AperFunction*%
%TD*%
%TA.AperFunction,Conductor*%
%TO.N,Net-(U2-MUXOUT)*%
G36*
X132088000Y-57452333D02*
G01*
X132094765Y-57458201D01*
X132096000Y-57463433D01*
X132096000Y-57646566D01*
X132092573Y-57654839D01*
X132088000Y-57657666D01*
X131957292Y-57701235D01*
X131951823Y-57701700D01*
X131946206Y-57700840D01*
X131937628Y-57700996D01*
X131933318Y-57700256D01*
X131574294Y-57565957D01*
X131567746Y-57559849D01*
X131567435Y-57550900D01*
X131573543Y-57544352D01*
X131574265Y-57544052D01*
X131942126Y-57406448D01*
X131949921Y-57406307D01*
X132088000Y-57452333D01*
G37*
%TD.AperFunction*%
%TD*%
%TA.AperFunction,Conductor*%
%TO.N,Net-(C11-Pad1)*%
G36*
X126349873Y-59906448D02*
G01*
X126717706Y-60044042D01*
X126724253Y-60050149D01*
X126724564Y-60059098D01*
X126718456Y-60065646D01*
X126717705Y-60065957D01*
X126349875Y-60203550D01*
X126342076Y-60203692D01*
X126204000Y-60157666D01*
X126197235Y-60151798D01*
X126196000Y-60146566D01*
X126196000Y-59963433D01*
X126199427Y-59955160D01*
X126203998Y-59952333D01*
X126342078Y-59906307D01*
X126349873Y-59906448D01*
G37*
%TD.AperFunction*%
%TD*%
%TA.AperFunction,Conductor*%
%TO.N,Vdd2*%
G36*
X133561688Y-55423298D02*
G01*
X134044263Y-55622224D01*
X134050606Y-55628545D01*
X134051500Y-55633341D01*
X134033333Y-56342162D01*
X134029695Y-56350344D01*
X134024544Y-56353195D01*
X133278768Y-56544458D01*
X133269902Y-56543194D01*
X133267588Y-56541398D01*
X133136472Y-56410282D01*
X133133045Y-56402009D01*
X133133980Y-56397426D01*
X133546467Y-55429528D01*
X133552863Y-55423262D01*
X133561688Y-55423298D01*
G37*
%TD.AperFunction*%
%TD*%
%TA.AperFunction,Conductor*%
%TO.N,Vdd4*%
G36*
X128495840Y-55358427D02*
G01*
X128498667Y-55363000D01*
X128544692Y-55501076D01*
X128544550Y-55508875D01*
X128406957Y-55876705D01*
X128400849Y-55883253D01*
X128391900Y-55883564D01*
X128385352Y-55877456D01*
X128385048Y-55876724D01*
X128250741Y-55517676D01*
X128250002Y-55513366D01*
X128250070Y-55509639D01*
X128250158Y-55504817D01*
X128249296Y-55499182D01*
X128249760Y-55493718D01*
X128293333Y-55362999D01*
X128299201Y-55356235D01*
X128304433Y-55355000D01*
X128487567Y-55355000D01*
X128495840Y-55358427D01*
G37*
%TD.AperFunction*%
%TD*%
%TA.AperFunction,Conductor*%
%TO.N,GND*%
G36*
X130067833Y-65522918D02*
G01*
X130369984Y-65740390D01*
X130503925Y-65836794D01*
X130508638Y-65844408D01*
X130508145Y-65850121D01*
X130313727Y-66411131D01*
X130307780Y-66417826D01*
X130302672Y-66419000D01*
X129819328Y-66419000D01*
X129811055Y-66415573D01*
X129808273Y-66411131D01*
X129613854Y-65850121D01*
X129614383Y-65841182D01*
X129618072Y-65836795D01*
X130054165Y-65522918D01*
X130062882Y-65520867D01*
X130067833Y-65522918D01*
G37*
%TD.AperFunction*%
%TD*%
%TA.AperFunction,Conductor*%
%TO.N,Net-(C12-Pad1)*%
G36*
X120157305Y-46575809D02*
G01*
X120159342Y-46577436D01*
X120500334Y-46918428D01*
X120503761Y-46926701D01*
X120500612Y-46934687D01*
X119982753Y-47489177D01*
X119974601Y-47492884D01*
X119971260Y-47492515D01*
X119259094Y-47307474D01*
X119251948Y-47302077D01*
X119250657Y-47298874D01*
X119135187Y-46816510D01*
X119136594Y-46807668D01*
X119143841Y-46802409D01*
X120148480Y-46574299D01*
X120157305Y-46575809D01*
G37*
%TD.AperFunction*%
%TD*%
%TA.AperFunction,Conductor*%
%TO.N,GND*%
G36*
X126963120Y-46700053D02*
G01*
X127313245Y-46827886D01*
X127317504Y-46830602D01*
X127657965Y-47171063D01*
X127661392Y-47179336D01*
X127657965Y-47187609D01*
X127655113Y-47189704D01*
X127012000Y-47525981D01*
X127003081Y-47526778D01*
X126998166Y-47523744D01*
X126625344Y-47138002D01*
X126622059Y-47129672D01*
X126624515Y-47122696D01*
X126949869Y-46703864D01*
X126957650Y-46699435D01*
X126963120Y-46700053D01*
G37*
%TD.AperFunction*%
%TD*%
%TA.AperFunction,Conductor*%
%TO.N,GND*%
G36*
X129153033Y-58315905D02*
G01*
X129157167Y-58319458D01*
X130314688Y-59921664D01*
X130316755Y-59930377D01*
X130313216Y-59937042D01*
X130127304Y-60111747D01*
X130118929Y-60114915D01*
X130117010Y-60114696D01*
X130065749Y-60104500D01*
X130065748Y-60104500D01*
X129726252Y-60104500D01*
X129667768Y-60116133D01*
X129601448Y-60160448D01*
X129557133Y-60226768D01*
X129545499Y-60285251D01*
X129545499Y-60653422D01*
X129542072Y-60661695D01*
X129541811Y-60661948D01*
X129499378Y-60701826D01*
X129491366Y-60705000D01*
X129300048Y-60705000D01*
X129292818Y-60702499D01*
X129250970Y-60669609D01*
X129246583Y-60661802D01*
X129246500Y-60660410D01*
X129246500Y-60637275D01*
X129246500Y-60285252D01*
X129234867Y-60226769D01*
X129190552Y-60160448D01*
X129124231Y-60116133D01*
X129065748Y-60104500D01*
X128726252Y-60104500D01*
X128667770Y-60116132D01*
X128652500Y-60126335D01*
X128643717Y-60128081D01*
X128639500Y-60126335D01*
X128637490Y-60124992D01*
X128624231Y-60116133D01*
X128624230Y-60116132D01*
X128624229Y-60116132D01*
X128565748Y-60104500D01*
X128535978Y-60104500D01*
X128528748Y-60101999D01*
X128317487Y-59935964D01*
X128313100Y-59928157D01*
X128314312Y-59921415D01*
X129137279Y-58320958D01*
X129144109Y-58315169D01*
X129153033Y-58315905D01*
G37*
%TD.AperFunction*%
%TD*%
%TA.AperFunction,Conductor*%
%TO.N,GND*%
G36*
X128372832Y-65101527D02*
G01*
X128945769Y-65279444D01*
X128952653Y-65285171D01*
X128953999Y-65290618D01*
X128953999Y-65773381D01*
X128950572Y-65781654D01*
X128945769Y-65784555D01*
X128372832Y-65962472D01*
X128363915Y-65961652D01*
X128360131Y-65958487D01*
X128215978Y-65773381D01*
X128033597Y-65539188D01*
X128031218Y-65530556D01*
X128033597Y-65524812D01*
X128360132Y-65105511D01*
X128367918Y-65101090D01*
X128372832Y-65101527D01*
G37*
%TD.AperFunction*%
%TD*%
%TA.AperFunction,Conductor*%
%TO.N,Net-(J3-Pin_5)*%
G36*
X134872342Y-47048010D02*
G01*
X134872478Y-47048072D01*
X135186214Y-47193235D01*
X135192282Y-47199818D01*
X135193000Y-47203852D01*
X135193000Y-47538147D01*
X135189573Y-47546420D01*
X135186213Y-47548765D01*
X134872478Y-47693927D01*
X134863531Y-47694291D01*
X134863391Y-47694239D01*
X134267225Y-47466562D01*
X134045618Y-47381929D01*
X134039113Y-47375777D01*
X134038863Y-47366826D01*
X134045016Y-47360320D01*
X134045609Y-47360073D01*
X134863391Y-47047760D01*
X134872342Y-47048010D01*
G37*
%TD.AperFunction*%
%TD*%
%TA.AperFunction,Conductor*%
%TO.N,GND*%
G36*
X128035030Y-59285741D02*
G01*
X128164096Y-59414807D01*
X128167523Y-59423080D01*
X128165580Y-59429536D01*
X127975174Y-59717292D01*
X127967751Y-59722301D01*
X127960984Y-59721664D01*
X127765830Y-59641764D01*
X127759472Y-59635458D01*
X127759435Y-59635369D01*
X127680260Y-59441985D01*
X127680297Y-59433033D01*
X127686486Y-59426798D01*
X128022159Y-59283255D01*
X128031111Y-59283154D01*
X128035030Y-59285741D01*
G37*
%TD.AperFunction*%
%TD*%
%TA.AperFunction,Conductor*%
%TO.N,Vdd4*%
G36*
X125048045Y-55317114D02*
G01*
X125054365Y-55323458D01*
X125054402Y-55323549D01*
X125380136Y-56133427D01*
X125380044Y-56142381D01*
X125377554Y-56146066D01*
X125246971Y-56276649D01*
X125238698Y-56280076D01*
X125234508Y-56279300D01*
X124449093Y-55978024D01*
X124442596Y-55971861D01*
X124442198Y-55963356D01*
X124597589Y-55503336D01*
X124603483Y-55496596D01*
X124604197Y-55496272D01*
X125039092Y-55317097D01*
X125048045Y-55317114D01*
G37*
%TD.AperFunction*%
%TD*%
%TA.AperFunction,Conductor*%
%TO.N,GND*%
G36*
X139361659Y-64668985D02*
G01*
X139739424Y-65062824D01*
X140082267Y-65405667D01*
X140085694Y-65413940D01*
X140082267Y-65422213D01*
X140079911Y-65424034D01*
X139361117Y-65845361D01*
X139352246Y-65846588D01*
X139347680Y-65844231D01*
X139232624Y-65747710D01*
X138663861Y-65270572D01*
X138659727Y-65262631D01*
X138662418Y-65254090D01*
X138663761Y-65252732D01*
X139345600Y-64668200D01*
X139354111Y-64665418D01*
X139361659Y-64668985D01*
G37*
%TD.AperFunction*%
%TD*%
%TA.AperFunction,Conductor*%
%TO.N,Net-(J3-Pin_5)*%
G36*
X131875519Y-49869427D02*
G01*
X131877081Y-49871363D01*
X132193866Y-50363004D01*
X132195467Y-50371814D01*
X132192271Y-50377647D01*
X131707240Y-50858825D01*
X131698953Y-50862219D01*
X131690760Y-50858825D01*
X131205728Y-50377647D01*
X131202268Y-50369388D01*
X131204132Y-50363007D01*
X131520919Y-49871362D01*
X131528281Y-49866264D01*
X131530754Y-49866000D01*
X131867246Y-49866000D01*
X131875519Y-49869427D01*
G37*
%TD.AperFunction*%
%TD*%
%TA.AperFunction,Conductor*%
%TO.N,GND*%
G36*
X127926182Y-60147155D02*
G01*
X127929722Y-60151701D01*
X127995283Y-60301334D01*
X127995914Y-60308880D01*
X127898222Y-60697642D01*
X127892882Y-60704831D01*
X127887529Y-60706473D01*
X127758854Y-60713674D01*
X127750402Y-60710714D01*
X127746518Y-60702646D01*
X127746500Y-60701992D01*
X127746500Y-60285251D01*
X127734867Y-60226770D01*
X127734867Y-60226769D01*
X127731299Y-60221430D01*
X127729337Y-60215327D01*
X127728135Y-60179311D01*
X127731282Y-60170931D01*
X127738364Y-60167316D01*
X127917548Y-60144787D01*
X127926182Y-60147155D01*
G37*
%TD.AperFunction*%
%TD*%
%TA.AperFunction,Conductor*%
%TO.N,Net-(U3--)*%
G36*
X120190437Y-57300798D02*
G01*
X120928822Y-57867263D01*
X120933300Y-57875017D01*
X120933400Y-57876545D01*
X120933400Y-58214254D01*
X120929973Y-58222527D01*
X120928822Y-58223537D01*
X120190438Y-58790000D01*
X120181788Y-58792317D01*
X120176300Y-58790080D01*
X119716491Y-58445568D01*
X119194895Y-58054762D01*
X119190330Y-58047060D01*
X119192549Y-58038384D01*
X119194896Y-58036037D01*
X119407765Y-57876545D01*
X120176301Y-57300718D01*
X120184976Y-57298500D01*
X120190437Y-57300798D01*
G37*
%TD.AperFunction*%
%TD*%
%TA.AperFunction,Conductor*%
%TO.N,Net-(U2-CPout)*%
G36*
X116721525Y-47310388D02*
G01*
X117352049Y-47726709D01*
X117357064Y-47734127D01*
X117355366Y-47742919D01*
X117355064Y-47743354D01*
X117155621Y-48017588D01*
X117154432Y-48018979D01*
X116810692Y-48362719D01*
X116802419Y-48366146D01*
X116794146Y-48362719D01*
X116793353Y-48361840D01*
X116345743Y-47812059D01*
X116343178Y-47803482D01*
X116345426Y-47797696D01*
X116705691Y-47313170D01*
X116713376Y-47308578D01*
X116721525Y-47310388D01*
G37*
%TD.AperFunction*%
%TD*%
%TA.AperFunction,Conductor*%
%TO.N,Net-(U1-PB4)*%
G36*
X142483931Y-45848907D02*
G01*
X142491222Y-45854106D01*
X142493000Y-45860307D01*
X142493000Y-46341692D01*
X142489573Y-46349965D01*
X142483931Y-46353092D01*
X142171474Y-46425198D01*
X142164669Y-46424728D01*
X141968905Y-46349965D01*
X141345618Y-46111929D01*
X141339113Y-46105777D01*
X141338863Y-46096826D01*
X141345016Y-46090320D01*
X141345609Y-46090073D01*
X142164672Y-45777270D01*
X142171471Y-45776801D01*
X142483931Y-45848907D01*
G37*
%TD.AperFunction*%
%TD*%
%TA.AperFunction,Conductor*%
%TO.N,GND*%
G36*
X127406647Y-55932543D02*
G01*
X127406958Y-55933294D01*
X127544550Y-56301124D01*
X127544692Y-56308923D01*
X127498667Y-56447000D01*
X127492799Y-56453765D01*
X127487567Y-56455000D01*
X127304433Y-56455000D01*
X127296160Y-56451573D01*
X127293333Y-56447000D01*
X127247307Y-56308921D01*
X127247448Y-56301126D01*
X127385042Y-55933293D01*
X127391150Y-55926746D01*
X127400099Y-55926435D01*
X127406647Y-55932543D01*
G37*
%TD.AperFunction*%
%TD*%
%TA.AperFunction,Conductor*%
%TO.N,GND*%
G36*
X138349084Y-52669347D02*
G01*
X138352868Y-52672512D01*
X138679401Y-53091811D01*
X138681781Y-53100444D01*
X138679401Y-53106189D01*
X138352868Y-53525487D01*
X138345081Y-53529909D01*
X138340167Y-53529472D01*
X137767230Y-53351555D01*
X137760346Y-53345828D01*
X137759000Y-53340381D01*
X137759000Y-52857618D01*
X137762427Y-52849345D01*
X137767228Y-52846444D01*
X138340167Y-52668527D01*
X138349084Y-52669347D01*
G37*
%TD.AperFunction*%
%TD*%
%TA.AperFunction,Conductor*%
%TO.N,Vdd2*%
G36*
X132551298Y-56336619D02*
G01*
X132556912Y-56342590D01*
X132637905Y-56535878D01*
X132637942Y-56544833D01*
X132637905Y-56544922D01*
X132556609Y-56738933D01*
X132550251Y-56745239D01*
X132542891Y-56745739D01*
X132200477Y-56657266D01*
X132193324Y-56651878D01*
X132191704Y-56645938D01*
X132191704Y-56463385D01*
X132195131Y-56455112D01*
X132199641Y-56452306D01*
X132542364Y-56336032D01*
X132551298Y-56336619D01*
G37*
%TD.AperFunction*%
%TD*%
%TA.AperFunction,Conductor*%
%TO.N,Net-(J1-In)*%
G36*
X149255541Y-57253268D02*
G01*
X150395508Y-57822872D01*
X150729054Y-57989534D01*
X150734923Y-57996297D01*
X150734290Y-58005230D01*
X150729054Y-58010466D01*
X149255546Y-58746729D01*
X149246613Y-58747362D01*
X149243194Y-58745546D01*
X148503578Y-58178137D01*
X148499100Y-58170382D01*
X148499000Y-58168854D01*
X148499000Y-57831145D01*
X148502427Y-57822872D01*
X148503569Y-57821869D01*
X149243196Y-57254452D01*
X149251844Y-57252136D01*
X149255541Y-57253268D01*
G37*
%TD.AperFunction*%
%TD*%
%TA.AperFunction,Conductor*%
%TO.N,Net-(U2-TEMP)*%
G36*
X128406646Y-60732543D02*
G01*
X128406957Y-60733294D01*
X128541256Y-61092318D01*
X128541996Y-61096628D01*
X128541840Y-61105206D01*
X128542700Y-61110823D01*
X128542235Y-61116292D01*
X128498667Y-61247000D01*
X128492799Y-61253765D01*
X128487567Y-61255000D01*
X128304433Y-61255000D01*
X128296160Y-61251573D01*
X128293333Y-61247000D01*
X128247307Y-61108921D01*
X128247448Y-61101126D01*
X128385042Y-60733291D01*
X128391149Y-60726746D01*
X128400098Y-60726435D01*
X128406646Y-60732543D01*
G37*
%TD.AperFunction*%
%TD*%
%TA.AperFunction,Conductor*%
%TO.N,Net-(U2-VREF)*%
G36*
X130078618Y-63039887D02*
G01*
X130079835Y-63040947D01*
X130210836Y-63171948D01*
X130212448Y-63173962D01*
X130472039Y-63583932D01*
X130512815Y-63648328D01*
X130514346Y-63657151D01*
X130509509Y-63664262D01*
X130068060Y-63964425D01*
X130059291Y-63966243D01*
X130053457Y-63963265D01*
X129659540Y-63592099D01*
X129655869Y-63583932D01*
X129658231Y-63576528D01*
X130062229Y-63042164D01*
X130069952Y-63037631D01*
X130078618Y-63039887D01*
G37*
%TD.AperFunction*%
%TD*%
%TA.AperFunction,Conductor*%
%TO.N,Net-(U2-CPout)*%
G36*
X127995840Y-55358427D02*
G01*
X127998667Y-55363000D01*
X128044692Y-55501076D01*
X128044550Y-55508875D01*
X127906958Y-55876705D01*
X127900850Y-55883253D01*
X127891901Y-55883564D01*
X127885353Y-55877456D01*
X127885042Y-55876705D01*
X127747449Y-55508873D01*
X127747307Y-55501078D01*
X127793333Y-55362999D01*
X127799201Y-55356235D01*
X127804433Y-55355000D01*
X127987567Y-55355000D01*
X127995840Y-55358427D01*
G37*
%TD.AperFunction*%
%TD*%
%TA.AperFunction,Conductor*%
%TO.N,Net-(U2-VTUNE)*%
G36*
X126284084Y-45150347D02*
G01*
X126287868Y-45153512D01*
X126614401Y-45572811D01*
X126616781Y-45581444D01*
X126614401Y-45587189D01*
X126287868Y-46006487D01*
X126280081Y-46010909D01*
X126275167Y-46010472D01*
X125702230Y-45832555D01*
X125695346Y-45826828D01*
X125694000Y-45821381D01*
X125694000Y-45338618D01*
X125697427Y-45330345D01*
X125702228Y-45327444D01*
X126275167Y-45149527D01*
X126284084Y-45150347D01*
G37*
%TD.AperFunction*%
%TD*%
%TA.AperFunction,Conductor*%
%TO.N,Vdd2*%
G36*
X134026260Y-48648285D02*
G01*
X134026286Y-48648311D01*
X134338430Y-48961416D01*
X134341844Y-48969694D01*
X134341544Y-48972307D01*
X134270093Y-49281931D01*
X134264894Y-49289222D01*
X134258693Y-49291000D01*
X133777307Y-49291000D01*
X133769034Y-49287573D01*
X133765907Y-49281931D01*
X133694455Y-48972307D01*
X133695933Y-48963475D01*
X133697565Y-48961420D01*
X134009714Y-48648310D01*
X134017982Y-48644871D01*
X134026260Y-48648285D01*
G37*
%TD.AperFunction*%
%TD*%
%TA.AperFunction,Conductor*%
%TO.N,Net-(U2-REFIN)*%
G36*
X135671895Y-57887564D02*
G01*
X135672926Y-57888524D01*
X136133678Y-58372507D01*
X136136900Y-58380862D01*
X136133271Y-58389048D01*
X136130062Y-58391218D01*
X135441650Y-58705459D01*
X135432701Y-58705777D01*
X135428099Y-58702646D01*
X134937801Y-58158338D01*
X134934794Y-58150507D01*
X134934794Y-57965628D01*
X134938221Y-57957355D01*
X134945372Y-57953982D01*
X135663332Y-57884945D01*
X135671895Y-57887564D01*
G37*
%TD.AperFunction*%
%TD*%
%TA.AperFunction,Conductor*%
%TO.N,Net-(U2-RF_OUT_A+)*%
G36*
X125152736Y-57553488D02*
G01*
X125392816Y-57748121D01*
X125643667Y-57951488D01*
X125647936Y-57959360D01*
X125647999Y-57960577D01*
X125648000Y-58149259D01*
X125644573Y-58157532D01*
X125643460Y-58158512D01*
X125149701Y-58540574D01*
X125141061Y-58542927D01*
X125134157Y-58539482D01*
X124655096Y-58047317D01*
X124651781Y-58038998D01*
X124655252Y-58030838D01*
X125137144Y-57554258D01*
X125145435Y-57550878D01*
X125152736Y-57553488D01*
G37*
%TD.AperFunction*%
%TD*%
%TA.AperFunction,Conductor*%
%TO.N,Vdd2*%
G36*
X135956963Y-41177734D02*
G01*
X135959447Y-41179336D01*
X136515358Y-41647046D01*
X136519483Y-41654995D01*
X136516779Y-41663531D01*
X136515358Y-41664952D01*
X135959447Y-42132663D01*
X135950911Y-42135367D01*
X135948021Y-42134743D01*
X135307806Y-41908755D01*
X135301145Y-41902770D01*
X135300000Y-41897722D01*
X135300000Y-41414277D01*
X135303427Y-41406004D01*
X135307803Y-41403245D01*
X135948022Y-41177256D01*
X135956963Y-41177734D01*
G37*
%TD.AperFunction*%
%TD*%
%TA.AperFunction,Conductor*%
%TO.N,GND*%
G36*
X148948887Y-35001872D02*
G01*
X149078917Y-35008686D01*
X149297759Y-35020977D01*
X149310146Y-35022302D01*
X149472008Y-35047939D01*
X149656928Y-35079359D01*
X149668226Y-35081827D01*
X149832957Y-35125966D01*
X150007674Y-35176301D01*
X150017737Y-35179676D01*
X150178362Y-35241334D01*
X150181192Y-35242463D01*
X150345786Y-35310641D01*
X150354607Y-35314707D01*
X150509023Y-35393386D01*
X150512649Y-35395311D01*
X150667374Y-35480824D01*
X150674928Y-35485357D01*
X150820819Y-35580100D01*
X150825039Y-35582965D01*
X150968636Y-35684852D01*
X150974917Y-35689616D01*
X151110413Y-35799339D01*
X151115004Y-35803245D01*
X151246050Y-35920354D01*
X151251104Y-35925133D01*
X151374465Y-36048494D01*
X151379244Y-36053548D01*
X151496353Y-36184594D01*
X151500259Y-36189185D01*
X151609982Y-36324681D01*
X151614746Y-36330962D01*
X151716633Y-36474559D01*
X151719498Y-36478779D01*
X151814241Y-36624670D01*
X151818774Y-36632224D01*
X151904271Y-36786919D01*
X151906228Y-36790605D01*
X151984886Y-36944981D01*
X151988962Y-36953823D01*
X152057098Y-37118315D01*
X152058301Y-37121331D01*
X152119915Y-37281843D01*
X152123305Y-37291952D01*
X152173633Y-37466643D01*
X152217771Y-37631369D01*
X152220240Y-37642676D01*
X152251671Y-37827663D01*
X152277292Y-37989426D01*
X152278623Y-38001865D01*
X152290917Y-38220760D01*
X152297730Y-38350756D01*
X152297900Y-38357245D01*
X152297900Y-38405149D01*
X152297967Y-38405769D01*
X152319426Y-54993840D01*
X152299828Y-55060904D01*
X152247083Y-55106728D01*
X152195426Y-55118000D01*
X148714000Y-55118000D01*
X148646961Y-55098315D01*
X148601206Y-55045511D01*
X148590000Y-54994000D01*
X148590000Y-50134498D01*
X148593794Y-50104058D01*
X148629134Y-49964505D01*
X148648300Y-49733200D01*
X148629134Y-49501895D01*
X148593794Y-49362341D01*
X148590000Y-49331901D01*
X148590000Y-43129200D01*
X149434968Y-39661916D01*
X149623429Y-39574035D01*
X149817001Y-39438495D01*
X149984095Y-39271401D01*
X150119635Y-39077830D01*
X150219503Y-38863663D01*
X150280663Y-38635408D01*
X150301259Y-38400000D01*
X150280663Y-38164592D01*
X150219503Y-37936337D01*
X150119635Y-37722171D01*
X149984095Y-37528599D01*
X149960582Y-37505086D01*
X150063200Y-37084000D01*
X149461393Y-37150406D01*
X149409263Y-37126097D01*
X149380220Y-37118315D01*
X149181007Y-37064936D01*
X149007267Y-37049736D01*
X149007259Y-37049735D01*
X149004566Y-37049500D01*
X148886634Y-37049500D01*
X148883941Y-37049735D01*
X148883932Y-37049736D01*
X148710192Y-37064936D01*
X148590000Y-37097141D01*
X148590000Y-35002108D01*
X148942316Y-35001703D01*
X148948887Y-35001872D01*
G37*
%TD.AperFunction*%
%TD*%
%TA.AperFunction,Conductor*%
%TO.N,Net-(U2-RSET)*%
G36*
X126033873Y-63015567D02*
G01*
X126165461Y-63147155D01*
X126168888Y-63155428D01*
X126168809Y-63156782D01*
X126088084Y-63849903D01*
X126083724Y-63857724D01*
X126077674Y-63860186D01*
X125369660Y-63933836D01*
X125361076Y-63931284D01*
X125357803Y-63927053D01*
X125326874Y-63859216D01*
X125137783Y-63444485D01*
X125137470Y-63435538D01*
X125143417Y-63429063D01*
X126020591Y-63013267D01*
X126029532Y-63012821D01*
X126033873Y-63015567D01*
G37*
%TD.AperFunction*%
%TD*%
%TA.AperFunction,Conductor*%
%TO.N,Vdd2*%
G36*
X134271087Y-50377427D02*
G01*
X134271483Y-50377843D01*
X134714871Y-50867039D01*
X134717888Y-50875470D01*
X134715747Y-50881663D01*
X134372272Y-51366152D01*
X134364691Y-51370919D01*
X134356702Y-51369415D01*
X133703412Y-50977002D01*
X133698085Y-50969804D01*
X133697818Y-50965594D01*
X133766775Y-50384322D01*
X133771153Y-50376510D01*
X133778394Y-50374000D01*
X134262814Y-50374000D01*
X134271087Y-50377427D01*
G37*
%TD.AperFunction*%
%TD*%
%TA.AperFunction,Conductor*%
%TO.N,Net-(C11-Pad1)*%
G36*
X127250178Y-60355237D02*
G01*
X127252710Y-60359022D01*
X127392188Y-60694829D01*
X127392197Y-60703784D01*
X127385871Y-60710122D01*
X127385799Y-60710152D01*
X127254562Y-60763642D01*
X127245607Y-60763591D01*
X127240625Y-60759607D01*
X127074984Y-60527709D01*
X127072964Y-60518986D01*
X127076230Y-60512638D01*
X127210645Y-60378224D01*
X127233633Y-60355236D01*
X127241905Y-60351810D01*
X127250178Y-60355237D01*
G37*
%TD.AperFunction*%
%TD*%
%TA.AperFunction,Conductor*%
%TO.N,Net-(D1-A)*%
G36*
X147247124Y-49735917D02*
G01*
X147247138Y-49735931D01*
X147940100Y-50430280D01*
X147943519Y-50438557D01*
X147940084Y-50446826D01*
X147938371Y-50448239D01*
X146333791Y-51532754D01*
X146325017Y-51534547D01*
X146318966Y-51531333D01*
X145976599Y-51188966D01*
X145973172Y-51180693D01*
X145973370Y-51178547D01*
X146109609Y-50448239D01*
X146241219Y-49742744D01*
X146246104Y-49735243D01*
X146252711Y-49733193D01*
X147238850Y-49732496D01*
X147247124Y-49735917D01*
G37*
%TD.AperFunction*%
%TD*%
%TA.AperFunction,Conductor*%
%TO.N,GND*%
G36*
X148074195Y-37361508D02*
G01*
X147907108Y-37528595D01*
X147771564Y-37722172D01*
X147671697Y-37936337D01*
X147610536Y-38164592D01*
X147589940Y-38400000D01*
X147610536Y-38635407D01*
X147671696Y-38863663D01*
X147671697Y-38863663D01*
X147771565Y-39077829D01*
X147907105Y-39271401D01*
X148074199Y-39438495D01*
X148267771Y-39574035D01*
X148481937Y-39673903D01*
X148710192Y-39735063D01*
X148886634Y-39750500D01*
X148889342Y-39750500D01*
X149001858Y-39750500D01*
X149004566Y-39750500D01*
X149181008Y-39735063D01*
X149409263Y-39673903D01*
X149434967Y-39661916D01*
X148590000Y-43129200D01*
X142821200Y-43129200D01*
X142754161Y-43109515D01*
X142708406Y-43056711D01*
X142697200Y-43005200D01*
X142697200Y-37947600D01*
X142697200Y-37896800D01*
X148172576Y-37292620D01*
X148074195Y-37361508D01*
G37*
%TD.AperFunction*%
%TA.AperFunction,Conductor*%
G36*
X149960582Y-37505086D02*
G01*
X149817001Y-37361505D01*
X149623429Y-37225965D01*
X149461394Y-37150406D01*
X150063200Y-37084000D01*
X149960582Y-37505086D01*
G37*
%TD.AperFunction*%
%TD*%
%TA.AperFunction,Conductor*%
%TO.N,GND*%
G36*
X120074084Y-69668847D02*
G01*
X120077868Y-69672012D01*
X120404401Y-70091311D01*
X120406781Y-70099944D01*
X120404401Y-70105689D01*
X120077868Y-70524987D01*
X120070081Y-70529409D01*
X120065167Y-70528972D01*
X119492230Y-70351055D01*
X119485346Y-70345328D01*
X119484000Y-70339881D01*
X119484000Y-69857118D01*
X119487427Y-69848845D01*
X119492228Y-69845944D01*
X120065167Y-69668027D01*
X120074084Y-69668847D01*
G37*
%TD.AperFunction*%
%TD*%
%TA.AperFunction,Conductor*%
%TO.N,GND*%
G36*
X152341667Y-72186741D02*
G01*
X152348695Y-77619075D01*
X152348525Y-77625724D01*
X152341717Y-77755638D01*
X152329424Y-77974530D01*
X152328092Y-77986975D01*
X152302471Y-78148736D01*
X152271041Y-78333717D01*
X152268569Y-78345034D01*
X152224433Y-78509756D01*
X152174104Y-78684453D01*
X152170718Y-78694548D01*
X152109101Y-78855067D01*
X152107898Y-78858083D01*
X152039762Y-79022575D01*
X152035686Y-79031417D01*
X151957028Y-79185793D01*
X151955071Y-79189479D01*
X151869574Y-79344174D01*
X151865041Y-79351728D01*
X151770298Y-79497619D01*
X151767433Y-79501839D01*
X151665546Y-79645436D01*
X151660782Y-79651717D01*
X151551059Y-79787213D01*
X151547153Y-79791804D01*
X151430044Y-79922850D01*
X151425265Y-79927904D01*
X151301904Y-80051265D01*
X151296850Y-80056044D01*
X151165804Y-80173153D01*
X151161213Y-80177059D01*
X151025717Y-80286782D01*
X151019436Y-80291546D01*
X150875839Y-80393433D01*
X150871619Y-80396298D01*
X150725728Y-80491041D01*
X150718174Y-80495574D01*
X150563479Y-80581071D01*
X150559793Y-80583028D01*
X150405417Y-80661686D01*
X150396575Y-80665762D01*
X150232083Y-80733898D01*
X150229067Y-80735101D01*
X150068555Y-80796715D01*
X150058446Y-80800105D01*
X149883756Y-80850433D01*
X149719029Y-80894571D01*
X149707722Y-80897040D01*
X149522736Y-80928471D01*
X149360972Y-80954092D01*
X149348533Y-80955423D01*
X149129639Y-80967717D01*
X148999643Y-80974530D01*
X148993154Y-80974700D01*
X104651246Y-80974700D01*
X104644756Y-80974530D01*
X104514760Y-80967717D01*
X104295868Y-80955424D01*
X104283423Y-80954092D01*
X104121663Y-80928471D01*
X103936681Y-80897041D01*
X103925364Y-80894569D01*
X103760643Y-80850433D01*
X103585945Y-80800104D01*
X103575850Y-80796718D01*
X103415331Y-80735101D01*
X103412329Y-80733903D01*
X103370403Y-80716537D01*
X103247823Y-80665762D01*
X103238981Y-80661686D01*
X103084605Y-80583028D01*
X103080919Y-80581071D01*
X102926224Y-80495574D01*
X102918670Y-80491041D01*
X102772779Y-80396298D01*
X102768559Y-80393433D01*
X102624962Y-80291546D01*
X102618681Y-80286782D01*
X102483185Y-80177059D01*
X102478594Y-80173153D01*
X102347548Y-80056044D01*
X102342494Y-80051265D01*
X102219133Y-79927904D01*
X102214354Y-79922850D01*
X102097245Y-79791804D01*
X102093339Y-79787213D01*
X101983616Y-79651717D01*
X101978852Y-79645436D01*
X101876965Y-79501839D01*
X101874100Y-79497619D01*
X101779357Y-79351728D01*
X101776880Y-79347600D01*
X147001017Y-79347600D01*
X147021299Y-79553532D01*
X147021300Y-79553534D01*
X147081368Y-79751554D01*
X147178915Y-79934050D01*
X147230208Y-79996552D01*
X147310189Y-80094010D01*
X147334114Y-80113644D01*
X147470150Y-80225285D01*
X147652646Y-80322832D01*
X147850666Y-80382900D01*
X148004992Y-80398100D01*
X148008042Y-80398100D01*
X148105158Y-80398100D01*
X148108208Y-80398100D01*
X148262534Y-80382900D01*
X148460554Y-80322832D01*
X148643050Y-80225285D01*
X148803010Y-80094010D01*
X148934285Y-79934050D01*
X149031832Y-79751554D01*
X149091900Y-79553534D01*
X149112183Y-79347600D01*
X149091900Y-79141666D01*
X149031832Y-78943646D01*
X148934285Y-78761150D01*
X148862791Y-78674034D01*
X148803010Y-78601189D01*
X148669338Y-78491489D01*
X148643050Y-78469915D01*
X148460554Y-78372368D01*
X148333154Y-78333722D01*
X148262532Y-78312299D01*
X148111241Y-78297398D01*
X148111226Y-78297397D01*
X148108208Y-78297100D01*
X148004992Y-78297100D01*
X148001974Y-78297397D01*
X148001958Y-78297398D01*
X147850667Y-78312299D01*
X147652643Y-78372369D01*
X147470151Y-78469914D01*
X147310189Y-78601189D01*
X147178914Y-78761151D01*
X147081369Y-78943643D01*
X147021299Y-79141667D01*
X147001017Y-79347600D01*
X101776880Y-79347600D01*
X101774824Y-79344174D01*
X101689311Y-79189449D01*
X101687386Y-79185823D01*
X101608707Y-79031407D01*
X101604641Y-79022586D01*
X101536463Y-78857992D01*
X101535334Y-78855162D01*
X101473681Y-78694551D01*
X101470293Y-78684445D01*
X101419966Y-78509755D01*
X101409291Y-78469915D01*
X101375821Y-78345003D01*
X101373358Y-78333722D01*
X101373357Y-78333717D01*
X101341927Y-78148730D01*
X101334638Y-78102710D01*
X101316303Y-77986952D01*
X101314976Y-77974546D01*
X101302693Y-77755845D01*
X101295877Y-77625782D01*
X101295708Y-77619031D01*
X101296016Y-77499999D01*
X103343140Y-77499999D01*
X103363736Y-77735407D01*
X103422475Y-77954623D01*
X103424897Y-77963663D01*
X103524765Y-78177829D01*
X103660305Y-78371401D01*
X103827399Y-78538495D01*
X104020971Y-78674035D01*
X104235137Y-78773903D01*
X104463392Y-78835063D01*
X104639834Y-78850500D01*
X104642542Y-78850500D01*
X104755058Y-78850500D01*
X104757766Y-78850500D01*
X104934208Y-78835063D01*
X105162463Y-78773903D01*
X105376629Y-78674035D01*
X105570201Y-78538495D01*
X105737295Y-78371401D01*
X105872835Y-78177830D01*
X105972703Y-77963663D01*
X106033863Y-77735408D01*
X106054459Y-77500000D01*
X106033863Y-77264592D01*
X105972703Y-77036337D01*
X105872835Y-76822171D01*
X105737295Y-76628599D01*
X105570201Y-76461505D01*
X105376629Y-76325965D01*
X105162463Y-76226097D01*
X105162463Y-76226096D01*
X105065070Y-76200000D01*
X114101751Y-76200000D01*
X114121517Y-76451149D01*
X114180326Y-76696110D01*
X114208117Y-76763203D01*
X114276734Y-76928859D01*
X114408364Y-77143659D01*
X114571976Y-77335224D01*
X114763541Y-77498836D01*
X114978341Y-77630466D01*
X115211089Y-77726873D01*
X115456052Y-77785683D01*
X115707200Y-77805449D01*
X115760261Y-77801272D01*
X115773774Y-77800949D01*
X115780697Y-77801161D01*
X115847520Y-77794434D01*
X115850174Y-77794195D01*
X115958348Y-77785683D01*
X115967410Y-77783506D01*
X115983932Y-77780704D01*
X117696682Y-77608315D01*
X117709320Y-77606524D01*
X117726709Y-77605300D01*
X118572978Y-77605300D01*
X118640017Y-77624985D01*
X118650666Y-77632653D01*
X118735247Y-77700642D01*
X118735248Y-77700642D01*
X118735249Y-77700643D01*
X118738649Y-77702329D01*
X118900979Y-77782837D01*
X119080505Y-77827483D01*
X119122046Y-77830300D01*
X119124144Y-77830300D01*
X119767856Y-77830300D01*
X119769954Y-77830300D01*
X119811495Y-77827483D01*
X119991021Y-77782837D01*
X120156753Y-77700642D01*
X120300940Y-77584740D01*
X120300941Y-77584737D01*
X120311450Y-77576291D01*
X120312481Y-77577574D01*
X120356694Y-77546796D01*
X120426516Y-77544215D01*
X120486649Y-77579792D01*
X120490653Y-77584412D01*
X120491058Y-77584737D01*
X120491060Y-77584740D01*
X120635247Y-77700642D01*
X120800979Y-77782837D01*
X120980505Y-77827483D01*
X121022046Y-77830300D01*
X121024144Y-77830300D01*
X121667856Y-77830300D01*
X121669954Y-77830300D01*
X121711495Y-77827483D01*
X121891021Y-77782837D01*
X122056753Y-77700642D01*
X122141333Y-77632653D01*
X122205918Y-77605994D01*
X122219022Y-77605300D01*
X123780589Y-77605300D01*
X123847628Y-77624985D01*
X123893383Y-77677789D01*
X123899245Y-77693294D01*
X123901986Y-77702327D01*
X123994890Y-77876138D01*
X124119917Y-78028483D01*
X124272262Y-78153510D01*
X124446073Y-78246414D01*
X124634668Y-78303624D01*
X124830800Y-78322941D01*
X125026932Y-78303624D01*
X125215527Y-78246414D01*
X125343839Y-78177830D01*
X125389335Y-78153512D01*
X125389336Y-78153510D01*
X125389338Y-78153510D01*
X125403054Y-78142252D01*
X125467364Y-78114939D01*
X125536232Y-78126729D01*
X125540168Y-78128744D01*
X125665273Y-78195614D01*
X125853868Y-78252824D01*
X126050000Y-78272141D01*
X126246132Y-78252824D01*
X126434727Y-78195614D01*
X126608538Y-78102710D01*
X126760883Y-77977683D01*
X126885910Y-77825338D01*
X126978814Y-77651527D01*
X127036024Y-77462932D01*
X127055341Y-77266800D01*
X127045334Y-77165200D01*
X127541553Y-77165200D01*
X127559692Y-77337776D01*
X127559693Y-77337779D01*
X127613313Y-77502810D01*
X127699176Y-77651526D01*
X127700078Y-77653089D01*
X127816190Y-77782045D01*
X127945697Y-77876138D01*
X127956576Y-77884042D01*
X128115103Y-77954623D01*
X128284834Y-77990700D01*
X128284836Y-77990700D01*
X128458365Y-77990700D01*
X128585564Y-77963663D01*
X128612159Y-77958009D01*
X128637940Y-77955300D01*
X129042967Y-77955300D01*
X129093402Y-77966020D01*
X129181903Y-78005423D01*
X129351634Y-78041500D01*
X129351636Y-78041500D01*
X129525166Y-78041500D01*
X129694896Y-78005423D01*
X129694897Y-78005422D01*
X129694899Y-78005422D01*
X129853424Y-77934842D01*
X129993810Y-77832845D01*
X130109922Y-77703889D01*
X130196686Y-77553611D01*
X130207347Y-77520800D01*
X132908740Y-77520800D01*
X132929336Y-77756207D01*
X132977201Y-77934842D01*
X132990497Y-77984463D01*
X133090365Y-78198629D01*
X133225905Y-78392201D01*
X133392999Y-78559295D01*
X133586571Y-78694835D01*
X133800737Y-78794703D01*
X134028992Y-78855863D01*
X134205434Y-78871300D01*
X134208142Y-78871300D01*
X134320658Y-78871300D01*
X134323366Y-78871300D01*
X134499808Y-78855863D01*
X134728063Y-78794703D01*
X134942229Y-78694835D01*
X135135801Y-78559295D01*
X135302895Y-78392201D01*
X135438435Y-78198630D01*
X135538303Y-77984463D01*
X135599463Y-77756208D01*
X135620059Y-77520800D01*
X135599463Y-77285392D01*
X135538303Y-77057137D01*
X135438435Y-76842971D01*
X135302895Y-76649399D01*
X135135801Y-76482305D01*
X134942229Y-76346765D01*
X134728063Y-76246897D01*
X134728062Y-76246896D01*
X134499807Y-76185736D01*
X134326067Y-76170536D01*
X134326059Y-76170535D01*
X134323366Y-76170300D01*
X134205434Y-76170300D01*
X134202741Y-76170535D01*
X134202732Y-76170536D01*
X134028992Y-76185736D01*
X133800736Y-76246897D01*
X133586570Y-76346765D01*
X133392998Y-76482305D01*
X133225908Y-76649395D01*
X133225905Y-76649398D01*
X133225905Y-76649399D01*
X133104930Y-76822170D01*
X133090364Y-76842972D01*
X132990497Y-77057137D01*
X132929336Y-77285392D01*
X132908740Y-77520800D01*
X130207347Y-77520800D01*
X130250308Y-77388576D01*
X130268447Y-77216000D01*
X130250308Y-77043424D01*
X130196686Y-76878389D01*
X130184712Y-76857650D01*
X130168100Y-76795651D01*
X130168100Y-76163148D01*
X130184715Y-76101144D01*
X130196686Y-76080411D01*
X130250308Y-75915376D01*
X130268447Y-75742800D01*
X130250308Y-75570224D01*
X130196686Y-75405189D01*
X130109922Y-75254911D01*
X129993810Y-75125955D01*
X129853424Y-75023958D01*
X129853423Y-75023957D01*
X129694896Y-74953376D01*
X129525166Y-74917300D01*
X129525164Y-74917300D01*
X129351636Y-74917300D01*
X129351634Y-74917300D01*
X129181905Y-74953376D01*
X129023375Y-75023958D01*
X129014210Y-75030618D01*
X128948404Y-75054098D01*
X128941324Y-75054300D01*
X128868677Y-75054300D01*
X128801638Y-75034615D01*
X128795791Y-75030618D01*
X128786623Y-75023957D01*
X128628096Y-74953376D01*
X128458366Y-74917300D01*
X128458364Y-74917300D01*
X128284836Y-74917300D01*
X128284834Y-74917300D01*
X128115105Y-74953376D01*
X127956575Y-75023958D01*
X127816189Y-75125956D01*
X127700077Y-75254911D01*
X127613313Y-75405189D01*
X127559693Y-75570220D01*
X127559692Y-75570224D01*
X127541553Y-75742800D01*
X127559692Y-75915376D01*
X127559693Y-75915379D01*
X127613312Y-76080407D01*
X127613313Y-76080408D01*
X127613314Y-76080411D01*
X127640516Y-76127526D01*
X127650487Y-76144795D01*
X127667100Y-76206796D01*
X127667100Y-76701203D01*
X127650487Y-76763203D01*
X127613313Y-76827589D01*
X127559693Y-76992620D01*
X127559692Y-76992624D01*
X127541553Y-77165200D01*
X127045334Y-77165200D01*
X127036024Y-77070668D01*
X126978814Y-76882073D01*
X126885910Y-76708262D01*
X126783490Y-76583464D01*
X126756178Y-76519155D01*
X126767969Y-76450288D01*
X126783491Y-76426135D01*
X126885910Y-76301338D01*
X126978814Y-76127527D01*
X127036024Y-75938932D01*
X127055341Y-75742800D01*
X127036024Y-75546668D01*
X126978814Y-75358073D01*
X126885910Y-75184262D01*
X126760883Y-75031917D01*
X126608538Y-74906890D01*
X126513498Y-74856090D01*
X126434726Y-74813985D01*
X126246133Y-74756776D01*
X126050000Y-74737459D01*
X125853866Y-74756776D01*
X125665275Y-74813985D01*
X125540172Y-74880853D01*
X125471769Y-74895094D01*
X125406526Y-74870093D01*
X125403056Y-74867348D01*
X125400836Y-74865526D01*
X125389338Y-74856090D01*
X125310565Y-74813985D01*
X125215526Y-74763185D01*
X125026933Y-74705976D01*
X124830800Y-74686659D01*
X124634666Y-74705976D01*
X124446073Y-74763185D01*
X124272263Y-74856089D01*
X124119917Y-74981117D01*
X123994889Y-75133463D01*
X123901987Y-75307270D01*
X123901986Y-75307272D01*
X123901986Y-75307273D01*
X123899248Y-75316297D01*
X123860952Y-75374734D01*
X123797140Y-75403190D01*
X123780589Y-75404300D01*
X122219022Y-75404300D01*
X122151983Y-75384615D01*
X122141334Y-75376947D01*
X122117854Y-75358073D01*
X122056753Y-75308958D01*
X122056751Y-75308957D01*
X122056750Y-75308956D01*
X121891024Y-75226764D01*
X121891022Y-75226763D01*
X121891021Y-75226763D01*
X121845672Y-75215485D01*
X121711494Y-75182116D01*
X121672045Y-75179441D01*
X121672021Y-75179440D01*
X121669954Y-75179300D01*
X121022046Y-75179300D01*
X121019979Y-75179440D01*
X121019954Y-75179441D01*
X120980505Y-75182116D01*
X120800977Y-75226763D01*
X120635245Y-75308959D01*
X120480549Y-75433308D01*
X120479518Y-75432025D01*
X120435297Y-75462806D01*
X120365474Y-75465382D01*
X120305344Y-75429801D01*
X120301346Y-75425187D01*
X120300941Y-75424861D01*
X120300940Y-75424860D01*
X120156753Y-75308958D01*
X120156749Y-75308956D01*
X119991022Y-75226763D01*
X119811494Y-75182116D01*
X119772045Y-75179441D01*
X119772021Y-75179440D01*
X119769954Y-75179300D01*
X119122046Y-75179300D01*
X119119979Y-75179440D01*
X119119954Y-75179441D01*
X119080505Y-75182116D01*
X118900975Y-75226764D01*
X118735249Y-75308956D01*
X118650666Y-75376947D01*
X118586082Y-75403606D01*
X118572978Y-75404300D01*
X117819542Y-75404300D01*
X117766972Y-75392605D01*
X116442854Y-74772790D01*
X116439290Y-74770873D01*
X116437215Y-74770013D01*
X116432116Y-74767764D01*
X116357658Y-74732911D01*
X116345982Y-74727611D01*
X116345962Y-74727603D01*
X116344697Y-74727029D01*
X116344224Y-74726821D01*
X116342015Y-74726043D01*
X116342007Y-74726040D01*
X116272126Y-74701434D01*
X116265870Y-74699039D01*
X116203311Y-74673127D01*
X116203307Y-74673126D01*
X115958349Y-74614317D01*
X115707200Y-74594551D01*
X115456050Y-74614317D01*
X115211089Y-74673126D01*
X115055777Y-74737459D01*
X114982615Y-74767764D01*
X114978339Y-74769535D01*
X114763542Y-74901163D01*
X114571976Y-75064776D01*
X114408363Y-75256342D01*
X114276735Y-75471139D01*
X114180326Y-75703889D01*
X114121517Y-75948850D01*
X114101751Y-76200000D01*
X105065070Y-76200000D01*
X104934207Y-76164936D01*
X104760467Y-76149736D01*
X104760459Y-76149735D01*
X104757766Y-76149500D01*
X104639834Y-76149500D01*
X104637141Y-76149735D01*
X104637132Y-76149736D01*
X104463392Y-76164936D01*
X104235136Y-76226097D01*
X104020970Y-76325965D01*
X103827398Y-76461505D01*
X103660308Y-76628595D01*
X103660305Y-76628598D01*
X103660305Y-76628599D01*
X103566055Y-76763203D01*
X103524764Y-76822172D01*
X103424897Y-77036337D01*
X103363736Y-77264592D01*
X103343140Y-77499999D01*
X101296016Y-77499999D01*
X101309913Y-72136014D01*
X152341667Y-72186741D01*
G37*
%TD.AperFunction*%
%TD*%
%TA.AperFunction,Conductor*%
%TO.N,Net-(J2-In)*%
G36*
X104401203Y-57254452D02*
G01*
X105140822Y-57821863D01*
X105145300Y-57829617D01*
X105145400Y-57831145D01*
X105145400Y-58168854D01*
X105141973Y-58177127D01*
X105140822Y-58178137D01*
X104401205Y-58745546D01*
X104392555Y-58747863D01*
X104388854Y-58746729D01*
X102915344Y-58010465D01*
X102909476Y-58003703D01*
X102910109Y-57994770D01*
X102915344Y-57989534D01*
X104388856Y-57253269D01*
X104397786Y-57252637D01*
X104401203Y-57254452D01*
G37*
%TD.AperFunction*%
%TD*%
%TA.AperFunction,Conductor*%
%TO.N,GND*%
G36*
X125948695Y-39742856D02*
G01*
X125950950Y-39745284D01*
X126406065Y-40401252D01*
X126407965Y-40410002D01*
X126404725Y-40416194D01*
X126063762Y-40757157D01*
X126055489Y-40760584D01*
X126050741Y-40759577D01*
X125063601Y-40321315D01*
X125057431Y-40314826D01*
X125057253Y-40306914D01*
X125218908Y-39823425D01*
X125224780Y-39816667D01*
X125228770Y-39815502D01*
X125940108Y-39740318D01*
X125948695Y-39742856D01*
G37*
%TD.AperFunction*%
%TD*%
%TA.AperFunction,Conductor*%
%TO.N,Net-(C11-Pad1)*%
G36*
X119640833Y-52594918D02*
G01*
X119950573Y-52817852D01*
X120076065Y-52908175D01*
X120080778Y-52915789D01*
X120079789Y-52922710D01*
X119811803Y-53484339D01*
X119805148Y-53490329D01*
X119801244Y-53491000D01*
X119466756Y-53491000D01*
X119458483Y-53487573D01*
X119456197Y-53484339D01*
X119188210Y-52922710D01*
X119187740Y-52913767D01*
X119191933Y-52908176D01*
X119627165Y-52594918D01*
X119635882Y-52592867D01*
X119640833Y-52594918D01*
G37*
%TD.AperFunction*%
%TD*%
%TA.AperFunction,Conductor*%
%TO.N,Net-(U7-BP)*%
G36*
X120537489Y-41295742D02*
G01*
X120797702Y-41362439D01*
X120804865Y-41367813D01*
X120805065Y-41368165D01*
X121092399Y-41894245D01*
X121093357Y-41903148D01*
X121087752Y-41910114D01*
X120804740Y-42065156D01*
X120795838Y-42066126D01*
X120790797Y-42063119D01*
X120526266Y-41795418D01*
X120522888Y-41787194D01*
X120522888Y-41307077D01*
X120526315Y-41298804D01*
X120534588Y-41295377D01*
X120537489Y-41295742D01*
G37*
%TD.AperFunction*%
%TD*%
%TA.AperFunction,Conductor*%
%TO.N,Net-(U2-TEMP)*%
G36*
X123700541Y-63316440D02*
G01*
X123831149Y-63447048D01*
X123834576Y-63455321D01*
X123833911Y-63459210D01*
X123554777Y-64251284D01*
X123548795Y-64257948D01*
X123540175Y-64258538D01*
X123080381Y-64111336D01*
X123073546Y-64105550D01*
X123073191Y-64104794D01*
X122887103Y-63669749D01*
X122887000Y-63660795D01*
X122893249Y-63654395D01*
X123687659Y-63313958D01*
X123696614Y-63313850D01*
X123700541Y-63316440D01*
G37*
%TD.AperFunction*%
%TD*%
%TA.AperFunction,Conductor*%
%TO.N,Vdd2*%
G36*
X138768751Y-40852984D02*
G01*
X138772514Y-40855501D01*
X139184697Y-41266716D01*
X139188134Y-41274985D01*
X139184717Y-41283262D01*
X139184697Y-41283282D01*
X138772514Y-41694498D01*
X138764237Y-41697915D01*
X138759797Y-41697034D01*
X138513465Y-41595603D01*
X138349245Y-41527983D01*
X138342900Y-41521664D01*
X138342000Y-41517164D01*
X138342000Y-41032835D01*
X138345427Y-41024562D01*
X138349242Y-41022017D01*
X138759799Y-40852965D01*
X138768751Y-40852984D01*
G37*
%TD.AperFunction*%
%TD*%
%TA.AperFunction,Conductor*%
%TO.N,Vdd1*%
G36*
X132152801Y-66965427D02*
G01*
X132156156Y-66972408D01*
X132204572Y-67408150D01*
X132203046Y-67415344D01*
X131915102Y-67908208D01*
X131907970Y-67913623D01*
X131899098Y-67912408D01*
X131894898Y-67908208D01*
X131779719Y-67711062D01*
X131606952Y-67415342D01*
X131605427Y-67408152D01*
X131653844Y-66972408D01*
X131658163Y-66964564D01*
X131665472Y-66962000D01*
X132144528Y-66962000D01*
X132152801Y-66965427D01*
G37*
%TD.AperFunction*%
%TD*%
%TA.AperFunction,Conductor*%
%TO.N,Net-(C16-Pad1)*%
G36*
X110304532Y-46871220D02*
G01*
X110305953Y-46872641D01*
X110773156Y-47427949D01*
X110775860Y-47436485D01*
X110774799Y-47440442D01*
X110474780Y-48081261D01*
X110468169Y-48087301D01*
X110464184Y-48088000D01*
X110129816Y-48088000D01*
X110121543Y-48084573D01*
X110119220Y-48081261D01*
X109819200Y-47440442D01*
X109818795Y-47431496D01*
X109820840Y-47427953D01*
X110288047Y-46872640D01*
X110295996Y-46868516D01*
X110304532Y-46871220D01*
G37*
%TD.AperFunction*%
%TD*%
%TA.AperFunction,Conductor*%
%TO.N,GND*%
G36*
X121260832Y-65228527D02*
G01*
X121273665Y-65232512D01*
X121833770Y-65406444D01*
X121840654Y-65412171D01*
X121842000Y-65417618D01*
X121842000Y-65900381D01*
X121838573Y-65908654D01*
X121833770Y-65911555D01*
X121260832Y-66089472D01*
X121251915Y-66088652D01*
X121248131Y-66085487D01*
X121103978Y-65900381D01*
X120921597Y-65666188D01*
X120919218Y-65657556D01*
X120921597Y-65651812D01*
X121248132Y-65232511D01*
X121255918Y-65228090D01*
X121260832Y-65228527D01*
G37*
%TD.AperFunction*%
%TD*%
%TA.AperFunction,Conductor*%
%TO.N,GND*%
G36*
X117289975Y-44926255D02*
G01*
X117930195Y-45152244D01*
X117936855Y-45158229D01*
X117938000Y-45163277D01*
X117938000Y-45646722D01*
X117934573Y-45654995D01*
X117930194Y-45657755D01*
X117289978Y-45883743D01*
X117281036Y-45883265D01*
X117278552Y-45881663D01*
X116722641Y-45413952D01*
X116718516Y-45406003D01*
X116721220Y-45397467D01*
X116722632Y-45396054D01*
X117278553Y-44928335D01*
X117287088Y-44925632D01*
X117289975Y-44926255D01*
G37*
%TD.AperFunction*%
%TD*%
%TA.AperFunction,Conductor*%
%TO.N,Vdd3*%
G36*
X116593497Y-65657232D02*
G01*
X116601217Y-65661769D01*
X116601882Y-65662749D01*
X116864909Y-66096090D01*
X116866272Y-66104941D01*
X116862310Y-66111221D01*
X116410231Y-66480638D01*
X116402828Y-66483278D01*
X115921889Y-66483278D01*
X115913616Y-66479851D01*
X115910189Y-66471578D01*
X115910521Y-66468811D01*
X115997561Y-66111221D01*
X116121497Y-65602041D01*
X116126783Y-65594814D01*
X116134479Y-65593221D01*
X116593497Y-65657232D01*
G37*
%TD.AperFunction*%
%TD*%
%TA.AperFunction,Conductor*%
%TO.N,Vdd3*%
G36*
X116404801Y-67226927D02*
G01*
X116408156Y-67233908D01*
X116456572Y-67669649D01*
X116455046Y-67676843D01*
X116167101Y-68169708D01*
X116159969Y-68175123D01*
X116151097Y-68173908D01*
X116146898Y-68169709D01*
X115858952Y-67676842D01*
X115857427Y-67669652D01*
X115905844Y-67233908D01*
X115910163Y-67226064D01*
X115917472Y-67223500D01*
X116396528Y-67223500D01*
X116404801Y-67226927D01*
G37*
%TD.AperFunction*%
%TD*%
%TA.AperFunction,Conductor*%
%TO.N,Vdd2*%
G36*
X132957789Y-58949657D02*
G01*
X133274482Y-59121522D01*
X133280117Y-59128479D01*
X133279728Y-59136237D01*
X133200164Y-59330569D01*
X133193858Y-59336927D01*
X133193769Y-59336964D01*
X132999437Y-59416528D01*
X132990482Y-59416491D01*
X132984722Y-59411282D01*
X132812857Y-59094589D01*
X132811924Y-59085684D01*
X132814866Y-59080738D01*
X132943937Y-58951667D01*
X132952209Y-58948241D01*
X132957789Y-58949657D01*
G37*
%TD.AperFunction*%
%TD*%
%TA.AperFunction,Conductor*%
%TO.N,GND*%
G36*
X117490305Y-40860809D02*
G01*
X117492342Y-40862436D01*
X117833334Y-41203428D01*
X117836761Y-41211701D01*
X117833612Y-41219687D01*
X117315753Y-41774177D01*
X117307601Y-41777884D01*
X117304260Y-41777515D01*
X116592094Y-41592474D01*
X116584948Y-41587077D01*
X116583657Y-41583874D01*
X116468187Y-41101510D01*
X116469594Y-41092668D01*
X116476841Y-41087409D01*
X117481480Y-40859299D01*
X117490305Y-40860809D01*
G37*
%TD.AperFunction*%
%TD*%
%TA.AperFunction,Conductor*%
%TO.N,Net-(U2-CPout)*%
G36*
X122446175Y-46826255D02*
G01*
X123086395Y-47052244D01*
X123093055Y-47058229D01*
X123094200Y-47063277D01*
X123094200Y-47546722D01*
X123090773Y-47554995D01*
X123086394Y-47557755D01*
X122446178Y-47783743D01*
X122437236Y-47783265D01*
X122434752Y-47781663D01*
X121878841Y-47313953D01*
X121874716Y-47306004D01*
X121877420Y-47297468D01*
X121878841Y-47296047D01*
X122434753Y-46828335D01*
X122443288Y-46825632D01*
X122446175Y-46826255D01*
G37*
%TD.AperFunction*%
%TD*%
%TA.AperFunction,Conductor*%
%TO.N,Vdd2*%
G36*
X134942975Y-50895255D02*
G01*
X135583195Y-51121244D01*
X135589855Y-51127229D01*
X135591000Y-51132277D01*
X135591000Y-51615722D01*
X135587573Y-51623995D01*
X135583194Y-51626755D01*
X134942978Y-51852743D01*
X134934036Y-51852265D01*
X134931552Y-51850663D01*
X134375641Y-51382952D01*
X134371516Y-51375003D01*
X134374220Y-51366467D01*
X134375632Y-51365054D01*
X134931553Y-50897335D01*
X134940088Y-50894632D01*
X134942975Y-50895255D01*
G37*
%TD.AperFunction*%
%TD*%
%TA.AperFunction,Conductor*%
%TO.N,Net-(U4-BP)*%
G36*
X135367564Y-67679213D02*
G01*
X136273135Y-67960624D01*
X136280018Y-67966352D01*
X136280929Y-67974952D01*
X136159389Y-68409036D01*
X136153858Y-68416078D01*
X136153397Y-68416324D01*
X135693869Y-68648439D01*
X135684940Y-68649111D01*
X135678985Y-68644671D01*
X135518757Y-68414000D01*
X135354488Y-68177510D01*
X135352397Y-68170835D01*
X135352397Y-67690387D01*
X135355824Y-67682114D01*
X135364097Y-67678687D01*
X135367564Y-67679213D01*
G37*
%TD.AperFunction*%
%TD*%
%TA.AperFunction,Conductor*%
%TO.N,GND*%
G36*
X127288000Y-57452333D02*
G01*
X127294765Y-57458201D01*
X127296000Y-57463433D01*
X127296000Y-57646566D01*
X127292573Y-57654839D01*
X127288000Y-57657666D01*
X127149923Y-57703692D01*
X127142124Y-57703550D01*
X126774294Y-57565958D01*
X126767746Y-57559850D01*
X126767435Y-57550901D01*
X126773543Y-57544353D01*
X126774294Y-57544042D01*
X127142126Y-57406448D01*
X127149921Y-57406307D01*
X127288000Y-57452333D01*
G37*
%TD.AperFunction*%
%TD*%
%TA.AperFunction,Conductor*%
%TO.N,Vdd2*%
G36*
X136533239Y-41663173D02*
G01*
X137019013Y-42145087D01*
X137022473Y-42153346D01*
X137021258Y-42158584D01*
X136778222Y-42649491D01*
X136771481Y-42655385D01*
X136767737Y-42656000D01*
X136282263Y-42656000D01*
X136273990Y-42652573D01*
X136271778Y-42649491D01*
X136028741Y-42158584D01*
X136028141Y-42149649D01*
X136030983Y-42145091D01*
X136516760Y-41663173D01*
X136525047Y-41659780D01*
X136533239Y-41663173D01*
G37*
%TD.AperFunction*%
%TD*%
%TA.AperFunction,Conductor*%
%TO.N,Net-(J3-Pin_4)*%
G36*
X129208519Y-49869427D02*
G01*
X129210081Y-49871363D01*
X129526866Y-50363004D01*
X129528467Y-50371814D01*
X129525271Y-50377647D01*
X129040239Y-50858825D01*
X129031952Y-50862219D01*
X129023759Y-50858825D01*
X128538726Y-50377646D01*
X128535267Y-50369388D01*
X128537131Y-50363007D01*
X128853919Y-49871362D01*
X128861281Y-49866264D01*
X128863754Y-49866000D01*
X129200246Y-49866000D01*
X129208519Y-49869427D01*
G37*
%TD.AperFunction*%
%TD*%
%TA.AperFunction,Conductor*%
%TO.N,Vdd2*%
G36*
X139104649Y-51175470D02*
G01*
X139703443Y-51532114D01*
X139708797Y-51539292D01*
X139707508Y-51548153D01*
X139705729Y-51550439D01*
X139365064Y-51891104D01*
X139359717Y-51894159D01*
X139027551Y-51979949D01*
X139018684Y-51978700D01*
X139015386Y-51975800D01*
X138689927Y-51556833D01*
X138687558Y-51548197D01*
X138691285Y-51541008D01*
X138701043Y-51532114D01*
X139090782Y-51176874D01*
X139099203Y-51173835D01*
X139104649Y-51175470D01*
G37*
%TD.AperFunction*%
%TD*%
%TA.AperFunction,Conductor*%
%TO.N,Net-(U2-MUXOUT)*%
G36*
X138006688Y-55423298D02*
G01*
X138489263Y-55622224D01*
X138495606Y-55628545D01*
X138496500Y-55633341D01*
X138478333Y-56342162D01*
X138474695Y-56350344D01*
X138469544Y-56353195D01*
X137723768Y-56544458D01*
X137714902Y-56543194D01*
X137712588Y-56541398D01*
X137581472Y-56410282D01*
X137578045Y-56402009D01*
X137578980Y-56397426D01*
X137991467Y-55429528D01*
X137997863Y-55423262D01*
X138006688Y-55423298D01*
G37*
%TD.AperFunction*%
%TD*%
%TA.AperFunction,Conductor*%
%TO.N,Net-(U2-RF_OUT_A-)*%
G36*
X119274381Y-63328955D02*
G01*
X119278066Y-63331445D01*
X119408649Y-63462028D01*
X119412076Y-63470301D01*
X119411300Y-63474491D01*
X119110023Y-64259905D01*
X119103860Y-64266402D01*
X119095355Y-64266800D01*
X118635338Y-64111411D01*
X118628596Y-64105516D01*
X118628264Y-64104783D01*
X118449098Y-63669909D01*
X118449115Y-63660954D01*
X118455459Y-63654634D01*
X119265429Y-63328863D01*
X119274381Y-63328955D01*
G37*
%TD.AperFunction*%
%TD*%
%TA.AperFunction,Conductor*%
%TO.N,Net-(U2-VTUNE)*%
G36*
X125001869Y-44998315D02*
G01*
X125552293Y-45326596D01*
X125557643Y-45333777D01*
X125558000Y-45336645D01*
X125558000Y-45819411D01*
X125554573Y-45827684D01*
X125547464Y-45831053D01*
X124813692Y-45904430D01*
X124805119Y-45901843D01*
X124804054Y-45900855D01*
X124341938Y-45415439D01*
X124338716Y-45407084D01*
X124342345Y-45398898D01*
X124344251Y-45397426D01*
X124989730Y-44998413D01*
X124998567Y-44996979D01*
X125001869Y-44998315D01*
G37*
%TD.AperFunction*%
%TD*%
%TA.AperFunction,Conductor*%
%TO.N,Vdd3*%
G36*
X115864187Y-68011836D02*
G01*
X116147897Y-68180011D01*
X116153266Y-68187178D01*
X116151996Y-68196042D01*
X116151973Y-68196080D01*
X115859565Y-68685144D01*
X115852378Y-68690486D01*
X115852126Y-68690547D01*
X115579587Y-68752736D01*
X115570759Y-68751235D01*
X115565577Y-68743932D01*
X115565284Y-68741329D01*
X115565284Y-68261404D01*
X115568711Y-68253131D01*
X115569390Y-68252502D01*
X115850638Y-68012993D01*
X115859158Y-68010239D01*
X115864187Y-68011836D01*
G37*
%TD.AperFunction*%
%TD*%
%TA.AperFunction,Conductor*%
%TO.N,Net-(C1-Pad2)*%
G36*
X138635655Y-62594621D02*
G01*
X139182301Y-62932825D01*
X139215570Y-62953408D01*
X139220802Y-62960675D01*
X139219364Y-62969514D01*
X139217876Y-62971437D01*
X138663078Y-63552538D01*
X138654887Y-63556156D01*
X138646538Y-63552921D01*
X138046296Y-62979849D01*
X138042678Y-62971658D01*
X138045913Y-62963308D01*
X138053816Y-62959700D01*
X138617800Y-62932825D01*
X138617800Y-62604572D01*
X138621227Y-62596299D01*
X138629500Y-62592872D01*
X138635655Y-62594621D01*
G37*
%TD.AperFunction*%
%TD*%
%TA.AperFunction,Conductor*%
%TO.N,GND*%
G36*
X127254559Y-55846356D02*
G01*
X127385799Y-55899847D01*
X127392167Y-55906143D01*
X127392218Y-55915098D01*
X127392188Y-55915170D01*
X127252710Y-56250978D01*
X127246372Y-56257304D01*
X127237417Y-56257295D01*
X127233632Y-56254763D01*
X127076232Y-56097363D01*
X127072805Y-56089090D01*
X127074983Y-56082291D01*
X127240626Y-55850391D01*
X127248223Y-55845651D01*
X127254559Y-55846356D01*
G37*
%TD.AperFunction*%
%TD*%
%TA.AperFunction,Conductor*%
%TO.N,Vdd2*%
G36*
X133077956Y-56452306D02*
G01*
X133084689Y-56458208D01*
X133085896Y-56463385D01*
X133085896Y-56645938D01*
X133082469Y-56654211D01*
X133077123Y-56657266D01*
X132734708Y-56745739D01*
X132725841Y-56744491D01*
X132720990Y-56738933D01*
X132639693Y-56544919D01*
X132639657Y-56535968D01*
X132720687Y-56342589D01*
X132727045Y-56336284D01*
X132735235Y-56336032D01*
X133077956Y-56452306D01*
G37*
%TD.AperFunction*%
%TD*%
%TA.AperFunction,Conductor*%
%TO.N,Net-(J1-In)*%
G36*
X141386791Y-57823369D02*
G01*
X141394144Y-57828477D01*
X141396000Y-57834800D01*
X141396000Y-58170056D01*
X141392905Y-58177984D01*
X140902908Y-58709841D01*
X140894782Y-58713603D01*
X140887626Y-58711521D01*
X140403830Y-58375335D01*
X140398992Y-58367800D01*
X140400370Y-58359884D01*
X140780969Y-57699748D01*
X140788070Y-57694293D01*
X140793591Y-57694161D01*
X141386791Y-57823369D01*
G37*
%TD.AperFunction*%
%TD*%
%TA.AperFunction,Conductor*%
%TO.N,Net-(J3-Pin_6)*%
G36*
X139407984Y-48442671D02*
G01*
X139831881Y-48484820D01*
X139839773Y-48489049D01*
X139842421Y-48496308D01*
X139846757Y-48824603D01*
X139843440Y-48832921D01*
X139836506Y-48836368D01*
X139408289Y-48889767D01*
X139399655Y-48887390D01*
X139395231Y-48879605D01*
X139395141Y-48878209D01*
X139394955Y-48836368D01*
X139394201Y-48666413D01*
X139395142Y-48454260D01*
X139398606Y-48446005D01*
X139406894Y-48442615D01*
X139407984Y-48442671D01*
G37*
%TD.AperFunction*%
%TD*%
%TA.AperFunction,Conductor*%
%TO.N,Net-(U2-RF_OUT_A+)*%
G36*
X126349873Y-57906448D02*
G01*
X126717706Y-58044042D01*
X126724253Y-58050149D01*
X126724564Y-58059098D01*
X126718456Y-58065646D01*
X126717705Y-58065957D01*
X126349875Y-58203550D01*
X126342076Y-58203692D01*
X126204000Y-58157666D01*
X126197235Y-58151798D01*
X126196000Y-58146566D01*
X126196000Y-57963433D01*
X126199427Y-57955160D01*
X126203998Y-57952333D01*
X126342078Y-57906307D01*
X126349873Y-57906448D01*
G37*
%TD.AperFunction*%
%TD*%
%TA.AperFunction,Conductor*%
%TO.N,Net-(U5-BP)*%
G36*
X130518832Y-41111527D02*
G01*
X131091769Y-41289444D01*
X131098653Y-41295171D01*
X131099999Y-41300618D01*
X131099999Y-41783381D01*
X131096572Y-41791654D01*
X131091769Y-41794555D01*
X130518832Y-41972472D01*
X130509915Y-41971652D01*
X130506131Y-41968487D01*
X130361978Y-41783381D01*
X130179597Y-41549188D01*
X130177218Y-41540556D01*
X130179597Y-41534812D01*
X130506132Y-41115511D01*
X130513918Y-41111090D01*
X130518832Y-41111527D01*
G37*
%TD.AperFunction*%
%TD*%
%TA.AperFunction,Conductor*%
%TO.N,Net-(C11-Pad1)*%
G36*
X121204084Y-52161347D02*
G01*
X121207868Y-52164512D01*
X121534401Y-52583810D01*
X121536781Y-52592443D01*
X121534401Y-52598188D01*
X121207868Y-53017487D01*
X121200081Y-53021909D01*
X121195167Y-53021472D01*
X120622230Y-52843555D01*
X120615346Y-52837828D01*
X120614000Y-52832381D01*
X120614000Y-52349618D01*
X120617427Y-52341345D01*
X120622228Y-52338444D01*
X121195167Y-52160527D01*
X121204084Y-52161347D01*
G37*
%TD.AperFunction*%
%TD*%
%TA.AperFunction,Conductor*%
%TO.N,Net-(U2-VTUNE)*%
G36*
X128997394Y-61393974D02*
G01*
X128999345Y-61396558D01*
X129182714Y-61726069D01*
X129183742Y-61734964D01*
X129178179Y-61741982D01*
X129177012Y-61742549D01*
X128983394Y-61823680D01*
X128978820Y-61824589D01*
X128768967Y-61823656D01*
X128760709Y-61820192D01*
X128757319Y-61811904D01*
X128757367Y-61810898D01*
X128795023Y-61401175D01*
X128799193Y-61393251D01*
X128806674Y-61390547D01*
X128989121Y-61390547D01*
X128997394Y-61393974D01*
G37*
%TD.AperFunction*%
%TD*%
%TA.AperFunction,Conductor*%
%TO.N,GND*%
G36*
X133343801Y-38543427D02*
G01*
X133347156Y-38550408D01*
X133395572Y-38986150D01*
X133394046Y-38993344D01*
X133106102Y-39486208D01*
X133098970Y-39491623D01*
X133090098Y-39490408D01*
X133085898Y-39486208D01*
X132970720Y-39289062D01*
X132797952Y-38993342D01*
X132796427Y-38986152D01*
X132844844Y-38550408D01*
X132849163Y-38542564D01*
X132856472Y-38540000D01*
X133335528Y-38540000D01*
X133343801Y-38543427D01*
G37*
%TD.AperFunction*%
%TD*%
%TA.AperFunction,Conductor*%
%TO.N,Vdd3*%
G36*
X112327084Y-65229347D02*
G01*
X112330868Y-65232512D01*
X112657401Y-65651811D01*
X112659781Y-65660444D01*
X112657401Y-65666189D01*
X112330868Y-66085487D01*
X112323081Y-66089909D01*
X112318167Y-66089472D01*
X111745230Y-65911555D01*
X111738346Y-65905828D01*
X111737000Y-65900381D01*
X111737000Y-65417618D01*
X111740427Y-65409345D01*
X111745228Y-65406444D01*
X112318167Y-65228527D01*
X112327084Y-65229347D01*
G37*
%TD.AperFunction*%
%TD*%
%TA.AperFunction,Conductor*%
%TO.N,Vdd2*%
G36*
X132088000Y-56452333D02*
G01*
X132094765Y-56458201D01*
X132096000Y-56463433D01*
X132096000Y-56646566D01*
X132092573Y-56654839D01*
X132088000Y-56657666D01*
X131949923Y-56703692D01*
X131942124Y-56703550D01*
X131574294Y-56565958D01*
X131567746Y-56559850D01*
X131567435Y-56550901D01*
X131573543Y-56544353D01*
X131574294Y-56544042D01*
X131942126Y-56406448D01*
X131949921Y-56406307D01*
X132088000Y-56452333D01*
G37*
%TD.AperFunction*%
%TD*%
%TA.AperFunction,Conductor*%
%TO.N,GND*%
G36*
X130551103Y-56794707D02*
G01*
X130551531Y-56794897D01*
X130886251Y-56951843D01*
X130892286Y-56958457D01*
X130892983Y-56962435D01*
X130892983Y-57144965D01*
X130889556Y-57153238D01*
X130883065Y-57156528D01*
X130467821Y-57220531D01*
X130459123Y-57218405D01*
X130454476Y-57210750D01*
X130454339Y-57209028D01*
X130453410Y-56999976D01*
X130454318Y-56995408D01*
X130535790Y-56800975D01*
X130542148Y-56794670D01*
X130551103Y-56794707D01*
G37*
%TD.AperFunction*%
%TD*%
%TA.AperFunction,Conductor*%
%TO.N,Vdd4*%
G36*
X124653963Y-41238734D02*
G01*
X124656447Y-41240336D01*
X125212358Y-41708047D01*
X125216483Y-41715996D01*
X125213779Y-41724532D01*
X125212358Y-41725953D01*
X124656447Y-42193663D01*
X124647911Y-42196367D01*
X124645021Y-42195743D01*
X124004806Y-41969755D01*
X123998145Y-41963770D01*
X123997000Y-41958722D01*
X123997000Y-41475277D01*
X124000427Y-41467004D01*
X124004803Y-41464245D01*
X124645022Y-41238256D01*
X124653963Y-41238734D01*
G37*
%TD.AperFunction*%
%TD*%
%TA.AperFunction,Conductor*%
%TO.N,Net-(C11-Pad1)*%
G36*
X118072832Y-52160527D02*
G01*
X118085665Y-52164512D01*
X118645770Y-52338444D01*
X118652654Y-52344171D01*
X118654000Y-52349618D01*
X118654000Y-52832381D01*
X118650573Y-52840654D01*
X118645770Y-52843555D01*
X118072832Y-53021472D01*
X118063915Y-53020652D01*
X118060131Y-53017487D01*
X117733598Y-52598188D01*
X117731218Y-52589555D01*
X117733596Y-52583813D01*
X118060132Y-52164511D01*
X118067918Y-52160090D01*
X118072832Y-52160527D01*
G37*
%TD.AperFunction*%
%TD*%
%TA.AperFunction,Conductor*%
%TO.N,Net-(U2-VREF)*%
G36*
X128372832Y-63551527D02*
G01*
X128945769Y-63729444D01*
X128952653Y-63735171D01*
X128953999Y-63740618D01*
X128953999Y-64223381D01*
X128950572Y-64231654D01*
X128945769Y-64234555D01*
X128372832Y-64412472D01*
X128363915Y-64411652D01*
X128360131Y-64408487D01*
X128033598Y-63989188D01*
X128031218Y-63980555D01*
X128033596Y-63974813D01*
X128360132Y-63555511D01*
X128367918Y-63551090D01*
X128372832Y-63551527D01*
G37*
%TD.AperFunction*%
%TD*%
%TA.AperFunction,Conductor*%
%TO.N,Vdd3*%
G36*
X118296084Y-65229347D02*
G01*
X118299868Y-65232512D01*
X118626401Y-65651810D01*
X118628781Y-65660443D01*
X118626401Y-65666188D01*
X118299868Y-66085487D01*
X118292081Y-66089909D01*
X118287167Y-66089472D01*
X117714230Y-65911555D01*
X117707346Y-65905828D01*
X117706000Y-65900381D01*
X117706000Y-65417618D01*
X117709427Y-65409345D01*
X117714228Y-65406444D01*
X118287167Y-65228527D01*
X118296084Y-65229347D01*
G37*
%TD.AperFunction*%
%TD*%
%TA.AperFunction,Conductor*%
%TO.N,Net-(U1-PB3)*%
G36*
X142483931Y-47118907D02*
G01*
X142491222Y-47124106D01*
X142493000Y-47130307D01*
X142493000Y-47611692D01*
X142489573Y-47619965D01*
X142483931Y-47623092D01*
X142171474Y-47695198D01*
X142164669Y-47694728D01*
X141968905Y-47619965D01*
X141345618Y-47381929D01*
X141339113Y-47375777D01*
X141338863Y-47366826D01*
X141345016Y-47360320D01*
X141345609Y-47360073D01*
X142164672Y-47047270D01*
X142171471Y-47046801D01*
X142483931Y-47118907D01*
G37*
%TD.AperFunction*%
%TD*%
%TA.AperFunction,Conductor*%
%TO.N,GND*%
G36*
X131149873Y-56906448D02*
G01*
X131302211Y-56963433D01*
X131517705Y-57044042D01*
X131524253Y-57050150D01*
X131524564Y-57059099D01*
X131518456Y-57065647D01*
X131517705Y-57065958D01*
X131149875Y-57203550D01*
X131142076Y-57203692D01*
X131004000Y-57157666D01*
X130997235Y-57151798D01*
X130996000Y-57146566D01*
X130996000Y-56963433D01*
X130999427Y-56955160D01*
X131003998Y-56952333D01*
X131142078Y-56906307D01*
X131149873Y-56906448D01*
G37*
%TD.AperFunction*%
%TD*%
%TA.AperFunction,Conductor*%
%TO.N,Vdd3*%
G36*
X114188975Y-68027255D02*
G01*
X114829193Y-68253244D01*
X114835854Y-68259229D01*
X114836999Y-68264277D01*
X114836999Y-68747722D01*
X114833572Y-68755995D01*
X114829193Y-68758755D01*
X114188978Y-68984743D01*
X114180036Y-68984265D01*
X114177552Y-68982663D01*
X113621641Y-68514953D01*
X113617516Y-68507004D01*
X113620220Y-68498468D01*
X113621641Y-68497047D01*
X114177553Y-68029335D01*
X114186088Y-68026632D01*
X114188975Y-68027255D01*
G37*
%TD.AperFunction*%
%TD*%
%TA.AperFunction,Conductor*%
%TO.N,Net-(R1-Pad1)*%
G36*
X132669975Y-63236255D02*
G01*
X133310195Y-63462244D01*
X133316855Y-63468229D01*
X133318000Y-63473277D01*
X133318000Y-63956722D01*
X133314573Y-63964995D01*
X133310194Y-63967755D01*
X132669978Y-64193743D01*
X132661036Y-64193265D01*
X132658552Y-64191663D01*
X132102641Y-63723952D01*
X132098516Y-63716003D01*
X132101220Y-63707467D01*
X132102632Y-63706054D01*
X132658553Y-63238335D01*
X132667088Y-63235632D01*
X132669975Y-63236255D01*
G37*
%TD.AperFunction*%
%TD*%
%TA.AperFunction,Conductor*%
%TO.N,GND*%
G36*
X129090030Y-58371202D02*
G01*
X129996668Y-58747725D01*
X130002995Y-58754063D01*
X130003297Y-58762181D01*
X129498643Y-60298852D01*
X129492806Y-60305642D01*
X129487527Y-60306901D01*
X129301860Y-60306901D01*
X129293587Y-60303474D01*
X129292490Y-60302208D01*
X129224924Y-60211862D01*
X129224585Y-60211381D01*
X129190552Y-60160448D01*
X129184068Y-60156115D01*
X129181199Y-60153394D01*
X128381757Y-59084415D01*
X128379547Y-59075737D01*
X128382847Y-59069142D01*
X129077267Y-58373740D01*
X129085537Y-58370308D01*
X129090030Y-58371202D01*
G37*
%TD.AperFunction*%
%TD*%
%TA.AperFunction,Conductor*%
%TO.N,Net-(U4-BP)*%
G36*
X134110917Y-67625486D02*
G01*
X134395224Y-67672870D01*
X134402821Y-67677611D01*
X134405000Y-67684411D01*
X134405000Y-68164588D01*
X134401573Y-68172861D01*
X134395223Y-68176129D01*
X134110926Y-68223512D01*
X134102203Y-68221492D01*
X134100744Y-68220258D01*
X134044888Y-68164588D01*
X133812313Y-67932785D01*
X133808873Y-67924519D01*
X133812285Y-67916241D01*
X134100745Y-67628740D01*
X134109022Y-67625328D01*
X134110917Y-67625486D01*
G37*
%TD.AperFunction*%
%TD*%
%TA.AperFunction,Conductor*%
%TO.N,Net-(U2-RSET)*%
G36*
X129906646Y-60732543D02*
G01*
X129906957Y-60733294D01*
X130041256Y-61092318D01*
X130041996Y-61096628D01*
X130041840Y-61105206D01*
X130042700Y-61110823D01*
X130042235Y-61116292D01*
X129998667Y-61247000D01*
X129992799Y-61253765D01*
X129987567Y-61255000D01*
X129804433Y-61255000D01*
X129796160Y-61251573D01*
X129793333Y-61247000D01*
X129747307Y-61108921D01*
X129747448Y-61101126D01*
X129885042Y-60733291D01*
X129891149Y-60726746D01*
X129900098Y-60726435D01*
X129906646Y-60732543D01*
G37*
%TD.AperFunction*%
%TD*%
%TA.AperFunction,Conductor*%
%TO.N,GND*%
G36*
X116837843Y-44408427D02*
G01*
X116839447Y-44410429D01*
X117148742Y-44897593D01*
X117150284Y-44906414D01*
X117147652Y-44911589D01*
X116720617Y-45397335D01*
X116712581Y-45401286D01*
X116704229Y-45398505D01*
X116153872Y-44928228D01*
X116149809Y-44920248D01*
X116150476Y-44915338D01*
X116333199Y-44412703D01*
X116339247Y-44406098D01*
X116344196Y-44405000D01*
X116829570Y-44405000D01*
X116837843Y-44408427D01*
G37*
%TD.AperFunction*%
%TD*%
%TA.AperFunction,Conductor*%
%TO.N,GND*%
G36*
X116594239Y-41597173D02*
G01*
X117080013Y-42079087D01*
X117083473Y-42087346D01*
X117082258Y-42092584D01*
X116839222Y-42583491D01*
X116832481Y-42589385D01*
X116828737Y-42590000D01*
X116343263Y-42590000D01*
X116334990Y-42586573D01*
X116332778Y-42583491D01*
X116089741Y-42092584D01*
X116089141Y-42083649D01*
X116091983Y-42079091D01*
X116577760Y-41597173D01*
X116586047Y-41593780D01*
X116594239Y-41597173D01*
G37*
%TD.AperFunction*%
%TD*%
%TA.AperFunction,Conductor*%
%TO.N,Vdd2*%
G36*
X138435233Y-51102383D02*
G01*
X138437490Y-51105258D01*
X138680504Y-51540940D01*
X138681541Y-51549834D01*
X138678209Y-51555248D01*
X138278531Y-51923037D01*
X138270122Y-51926118D01*
X138264631Y-51924486D01*
X137764723Y-51627401D01*
X137759361Y-51620229D01*
X137759000Y-51617343D01*
X137759000Y-51135274D01*
X137762427Y-51127001D01*
X137770265Y-51123582D01*
X138426839Y-51099265D01*
X138435233Y-51102383D01*
G37*
%TD.AperFunction*%
%TD*%
%TA.AperFunction,Conductor*%
%TO.N,Net-(J3-Pin_6)*%
G36*
X140472607Y-48328898D02*
G01*
X140702801Y-48413777D01*
X141289750Y-48630202D01*
X141296325Y-48636279D01*
X141296679Y-48645227D01*
X141290601Y-48651803D01*
X141289875Y-48652109D01*
X140472370Y-48964330D01*
X140463684Y-48964195D01*
X140152421Y-48834091D01*
X140146109Y-48827739D01*
X140145234Y-48823453D01*
X140140821Y-48489430D01*
X140144138Y-48481113D01*
X140147518Y-48478699D01*
X140463559Y-48329297D01*
X140472503Y-48328861D01*
X140472607Y-48328898D01*
G37*
%TD.AperFunction*%
%TD*%
%TA.AperFunction,Conductor*%
%TO.N,Net-(C11-Pad1)*%
G36*
X127091978Y-60198290D02*
G01*
X127098304Y-60204628D01*
X127098295Y-60213583D01*
X127095763Y-60217368D01*
X127072776Y-60240355D01*
X126938363Y-60374767D01*
X126930090Y-60378194D01*
X126923290Y-60376015D01*
X126691392Y-60210374D01*
X126686651Y-60202776D01*
X126687356Y-60196440D01*
X126740847Y-60065199D01*
X126747143Y-60058832D01*
X126756098Y-60058781D01*
X127091978Y-60198290D01*
G37*
%TD.AperFunction*%
%TD*%
%TA.AperFunction,Conductor*%
%TO.N,Net-(U2-REFIN)*%
G36*
X136721357Y-57906405D02*
G01*
X137362056Y-58191485D01*
X137368222Y-58197980D01*
X137369000Y-58202175D01*
X137369000Y-58536537D01*
X137365573Y-58544810D01*
X137362460Y-58547038D01*
X136721521Y-58862003D01*
X136712585Y-58862576D01*
X136708829Y-58860455D01*
X136153641Y-58393353D01*
X136149516Y-58385404D01*
X136152220Y-58376868D01*
X136153641Y-58375447D01*
X136709071Y-57908141D01*
X136717605Y-57905438D01*
X136721357Y-57906405D01*
G37*
%TD.AperFunction*%
%TD*%
%TA.AperFunction,Conductor*%
%TO.N,GND*%
G36*
X127568506Y-56583842D02*
G01*
X127753588Y-56717517D01*
X127910011Y-56830493D01*
X127914712Y-56838115D01*
X127912646Y-56846828D01*
X127911471Y-56848214D01*
X127764382Y-56996616D01*
X127760505Y-56999208D01*
X127565322Y-57079120D01*
X127556367Y-57079083D01*
X127550061Y-57072725D01*
X127549931Y-57072393D01*
X127421619Y-56726464D01*
X127421955Y-56717517D01*
X127424313Y-56714127D01*
X127553386Y-56585054D01*
X127561658Y-56581628D01*
X127568506Y-56583842D01*
G37*
%TD.AperFunction*%
%TD*%
%TA.AperFunction,Conductor*%
%TO.N,Net-(J3-Pin_2)*%
G36*
X133172608Y-44507760D02*
G01*
X133990380Y-44820070D01*
X133996886Y-44826223D01*
X133997136Y-44835174D01*
X133990983Y-44841680D01*
X133990380Y-44841930D01*
X133172608Y-45154239D01*
X133163657Y-45153989D01*
X133163521Y-45153927D01*
X132849787Y-45008765D01*
X132843718Y-45002181D01*
X132843000Y-44998147D01*
X132843000Y-44663852D01*
X132846427Y-44655579D01*
X132849783Y-44653236D01*
X133163521Y-44508071D01*
X133172468Y-44507708D01*
X133172608Y-44507760D01*
G37*
%TD.AperFunction*%
%TD*%
%TA.AperFunction,Conductor*%
%TO.N,Vdd2*%
G36*
X134642446Y-41409482D02*
G01*
X134645999Y-41417701D01*
X134646000Y-41417880D01*
X134646000Y-41897997D01*
X134642573Y-41906270D01*
X134638542Y-41908901D01*
X134352349Y-42020246D01*
X134343397Y-42020052D01*
X134340717Y-42018413D01*
X134054102Y-41784915D01*
X134049853Y-41777033D01*
X134052421Y-41768454D01*
X134052446Y-41768423D01*
X134342559Y-41414774D01*
X134350455Y-41410553D01*
X134351420Y-41410497D01*
X134634121Y-41406181D01*
X134642446Y-41409482D01*
G37*
%TD.AperFunction*%
%TD*%
%TA.AperFunction,Conductor*%
%TO.N,Net-(U2-VREF)*%
G36*
X129725983Y-63539377D02*
G01*
X129729975Y-63542649D01*
X130056401Y-63961811D01*
X130058781Y-63970444D01*
X130056401Y-63976189D01*
X129729761Y-64395625D01*
X129721974Y-64400047D01*
X129717287Y-64399678D01*
X129144457Y-64234439D01*
X129137458Y-64228853D01*
X129136000Y-64223197D01*
X129136000Y-63740438D01*
X129139427Y-63732165D01*
X129144004Y-63729337D01*
X129717051Y-63538736D01*
X129725983Y-63539377D01*
G37*
%TD.AperFunction*%
%TD*%
%TA.AperFunction,Conductor*%
%TO.N,Net-(J3-Pin_5)*%
G36*
X133172608Y-47047760D02*
G01*
X133990380Y-47360070D01*
X133996886Y-47366223D01*
X133997136Y-47375174D01*
X133990983Y-47381680D01*
X133990380Y-47381930D01*
X133172608Y-47694239D01*
X133163657Y-47693989D01*
X133163521Y-47693927D01*
X132849787Y-47548765D01*
X132843718Y-47542181D01*
X132843000Y-47538147D01*
X132843000Y-47203852D01*
X132846427Y-47195579D01*
X132849783Y-47193236D01*
X133163521Y-47048071D01*
X133172468Y-47047708D01*
X133172608Y-47047760D01*
G37*
%TD.AperFunction*%
%TD*%
%TA.AperFunction,Conductor*%
%TO.N,Net-(U2-VCOM)*%
G36*
X130406647Y-60732543D02*
G01*
X130406958Y-60733294D01*
X130544550Y-61101124D01*
X130544692Y-61108923D01*
X130498667Y-61247000D01*
X130492799Y-61253765D01*
X130487567Y-61255000D01*
X130304433Y-61255000D01*
X130296160Y-61251573D01*
X130293333Y-61247000D01*
X130247307Y-61108921D01*
X130247448Y-61101126D01*
X130385042Y-60733293D01*
X130391150Y-60726746D01*
X130400099Y-60726435D01*
X130406647Y-60732543D01*
G37*
%TD.AperFunction*%
%TD*%
%TA.AperFunction,Conductor*%
%TO.N,Net-(U2-RF_OUT_A-)*%
G36*
X126345817Y-58409158D02*
G01*
X126353616Y-58409016D01*
X126353618Y-58409015D01*
X126354366Y-58409002D01*
X126358676Y-58409741D01*
X126502211Y-58463433D01*
X126717705Y-58544042D01*
X126724253Y-58550150D01*
X126724564Y-58559099D01*
X126718456Y-58565647D01*
X126717705Y-58565958D01*
X126349875Y-58703550D01*
X126342076Y-58703692D01*
X126204000Y-58657666D01*
X126197235Y-58651798D01*
X126196000Y-58646566D01*
X126196000Y-58463433D01*
X126199427Y-58455160D01*
X126203998Y-58452333D01*
X126334718Y-58408760D01*
X126340182Y-58408296D01*
X126345817Y-58409158D01*
G37*
%TD.AperFunction*%
%TD*%
%TA.AperFunction,Conductor*%
%TO.N,GND*%
G36*
X148590000Y-37097141D02*
G01*
X148481936Y-37126097D01*
X148267770Y-37225965D01*
X148172575Y-37292620D01*
X142697200Y-37896800D01*
X142697200Y-37947600D01*
X106977378Y-37947600D01*
X106984677Y-35049930D01*
X148590000Y-35002107D01*
X148590000Y-37097141D01*
G37*
%TD.AperFunction*%
%TD*%
%TA.AperFunction,Conductor*%
%TO.N,Net-(U2-CPout)*%
G36*
X128024976Y-54965543D02*
G01*
X128033232Y-54969006D01*
X128036622Y-54977294D01*
X128036568Y-54978365D01*
X127997020Y-55388474D01*
X127992815Y-55396380D01*
X127985374Y-55399051D01*
X127802917Y-55399051D01*
X127794644Y-55395624D01*
X127792666Y-55392990D01*
X127764544Y-55341867D01*
X127611197Y-55063103D01*
X127610213Y-55054205D01*
X127615810Y-55047215D01*
X127616916Y-55046680D01*
X127810608Y-54965518D01*
X127815176Y-54964610D01*
X128024976Y-54965543D01*
G37*
%TD.AperFunction*%
%TD*%
%TA.AperFunction,Conductor*%
%TO.N,Net-(J3-Pin_6)*%
G36*
X141326260Y-48648285D02*
G01*
X141326286Y-48648311D01*
X141637244Y-48960226D01*
X141640658Y-48968504D01*
X141639576Y-48973399D01*
X141495765Y-49284213D01*
X141489181Y-49290282D01*
X141485147Y-49291000D01*
X141150853Y-49291000D01*
X141142580Y-49287573D01*
X141140235Y-49284213D01*
X140996423Y-48973399D01*
X140996059Y-48964452D01*
X140998752Y-48960229D01*
X141309714Y-48648310D01*
X141317982Y-48644871D01*
X141326260Y-48648285D01*
G37*
%TD.AperFunction*%
%TD*%
%TA.AperFunction,Conductor*%
%TO.N,Net-(C16-Pad1)*%
G36*
X110290681Y-52829168D02*
G01*
X110297608Y-52834843D01*
X110298851Y-52838543D01*
X110411084Y-53549478D01*
X110408989Y-53558184D01*
X110405874Y-53561131D01*
X109720261Y-54003906D01*
X109711452Y-54005515D01*
X109705641Y-54002350D01*
X109470342Y-53767051D01*
X109466915Y-53758778D01*
X109467428Y-53755350D01*
X109526945Y-53561131D01*
X109793585Y-52691022D01*
X109799285Y-52684118D01*
X109808157Y-52683253D01*
X110290681Y-52829168D01*
G37*
%TD.AperFunction*%
%TD*%
%TA.AperFunction,Conductor*%
%TO.N,Vdd2*%
G36*
X131957283Y-58408761D02*
G01*
X132088000Y-58452333D01*
X132094765Y-58458201D01*
X132096000Y-58463433D01*
X132096000Y-58646566D01*
X132092573Y-58654839D01*
X132088000Y-58657666D01*
X131949923Y-58703692D01*
X131942124Y-58703550D01*
X131574294Y-58565957D01*
X131567746Y-58559849D01*
X131567435Y-58550900D01*
X131573543Y-58544352D01*
X131574265Y-58544052D01*
X131933326Y-58409740D01*
X131937631Y-58409002D01*
X131938380Y-58409015D01*
X131938383Y-58409016D01*
X131946182Y-58409158D01*
X131951815Y-58408296D01*
X131957283Y-58408761D01*
G37*
%TD.AperFunction*%
%TD*%
%TA.AperFunction,Conductor*%
%TO.N,Vdd2*%
G36*
X135183931Y-48388907D02*
G01*
X135191222Y-48394106D01*
X135193000Y-48400307D01*
X135193000Y-48881692D01*
X135189573Y-48889965D01*
X135183931Y-48893092D01*
X134871474Y-48965198D01*
X134864669Y-48964728D01*
X134668905Y-48889965D01*
X134045618Y-48651929D01*
X134039113Y-48645777D01*
X134038863Y-48636826D01*
X134045016Y-48630320D01*
X134045609Y-48630073D01*
X134864672Y-48317270D01*
X134871471Y-48316801D01*
X135183931Y-48388907D01*
G37*
%TD.AperFunction*%
%TD*%
%TA.AperFunction,Conductor*%
%TO.N,Net-(U2-LE)*%
G36*
X129995840Y-55358427D02*
G01*
X129998667Y-55363000D01*
X130044692Y-55501076D01*
X130044550Y-55508875D01*
X129906958Y-55876705D01*
X129900850Y-55883253D01*
X129891901Y-55883564D01*
X129885353Y-55877456D01*
X129885042Y-55876705D01*
X129747449Y-55508873D01*
X129747307Y-55501078D01*
X129793333Y-55362999D01*
X129799201Y-55356235D01*
X129804433Y-55355000D01*
X129987567Y-55355000D01*
X129995840Y-55358427D01*
G37*
%TD.AperFunction*%
%TD*%
%TA.AperFunction,Conductor*%
%TO.N,Net-(J3-Pin_6)*%
G36*
X141492949Y-50377427D02*
G01*
X141495553Y-50381390D01*
X141705996Y-50912495D01*
X141705858Y-50921449D01*
X141702089Y-50926202D01*
X141106053Y-51368285D01*
X141097367Y-51370461D01*
X141089952Y-51366204D01*
X140701769Y-50881736D01*
X140699271Y-50873137D01*
X140702183Y-50866616D01*
X141139887Y-50377893D01*
X141147960Y-50374018D01*
X141148603Y-50374000D01*
X141484676Y-50374000D01*
X141492949Y-50377427D01*
G37*
%TD.AperFunction*%
%TD*%
%TA.AperFunction,Conductor*%
%TO.N,GND*%
G36*
X122052901Y-39641591D02*
G01*
X122057101Y-39645791D01*
X122345046Y-40138655D01*
X122346572Y-40145849D01*
X122298156Y-40581592D01*
X122293837Y-40589436D01*
X122286528Y-40592000D01*
X121807472Y-40592000D01*
X121799199Y-40588573D01*
X121795844Y-40581592D01*
X121776477Y-40407294D01*
X121747427Y-40145846D01*
X121748952Y-40138658D01*
X122036899Y-39645789D01*
X122044029Y-39640376D01*
X122052901Y-39641591D01*
G37*
%TD.AperFunction*%
%TD*%
%TA.AperFunction,Conductor*%
%TO.N,GND*%
G36*
X127777279Y-56902512D02*
G01*
X129453407Y-57441437D01*
X129460234Y-57447231D01*
X129460964Y-57456156D01*
X129460640Y-57457042D01*
X129085653Y-58364712D01*
X129079326Y-58371050D01*
X129079312Y-58371056D01*
X128171574Y-58746646D01*
X128162619Y-58746643D01*
X128156290Y-58740308D01*
X128155726Y-58738571D01*
X127762323Y-57098946D01*
X127762000Y-57096216D01*
X127762000Y-56913651D01*
X127765427Y-56905378D01*
X127773700Y-56901951D01*
X127777279Y-56902512D01*
G37*
%TD.AperFunction*%
%TD*%
%TA.AperFunction,Conductor*%
%TO.N,Net-(J3-Pin_5)*%
G36*
X135427928Y-47124905D02*
G01*
X135432695Y-47132486D01*
X135432861Y-47134398D01*
X135433800Y-47345600D01*
X135432854Y-47558279D01*
X135429390Y-47566537D01*
X135421102Y-47569927D01*
X135420498Y-47569909D01*
X134998896Y-47546244D01*
X134990828Y-47542358D01*
X134987852Y-47534562D01*
X134987852Y-47206250D01*
X134991279Y-47197977D01*
X134997585Y-47194717D01*
X135419198Y-47122916D01*
X135427928Y-47124905D01*
G37*
%TD.AperFunction*%
%TD*%
%TA.AperFunction,Conductor*%
%TO.N,Net-(U2-DATA)*%
G36*
X130495840Y-55358427D02*
G01*
X130498667Y-55363000D01*
X130542237Y-55493712D01*
X130542703Y-55499178D01*
X130541841Y-55504821D01*
X130541996Y-55513366D01*
X130541256Y-55517677D01*
X130406957Y-55876705D01*
X130400849Y-55883253D01*
X130391900Y-55883564D01*
X130385352Y-55877456D01*
X130385048Y-55876724D01*
X130250741Y-55517676D01*
X130250002Y-55513366D01*
X130250016Y-55512616D01*
X130250158Y-55504817D01*
X130249296Y-55499182D01*
X130249760Y-55493718D01*
X130293333Y-55362999D01*
X130299201Y-55356235D01*
X130304433Y-55355000D01*
X130487567Y-55355000D01*
X130495840Y-55358427D01*
G37*
%TD.AperFunction*%
%TD*%
%TA.AperFunction,Conductor*%
%TO.N,GND*%
G36*
X128035833Y-65535918D02*
G01*
X128337984Y-65753390D01*
X128471925Y-65849794D01*
X128476638Y-65857408D01*
X128476145Y-65863121D01*
X128281727Y-66424131D01*
X128275780Y-66430826D01*
X128270672Y-66432000D01*
X127787328Y-66432000D01*
X127779055Y-66428573D01*
X127776273Y-66424131D01*
X127581854Y-65863121D01*
X127582383Y-65854182D01*
X127586072Y-65849795D01*
X128022165Y-65535918D01*
X128030882Y-65533867D01*
X128035833Y-65535918D01*
G37*
%TD.AperFunction*%
%TD*%
%TA.AperFunction,Conductor*%
%TO.N,Net-(J3-Pin_4)*%
G36*
X135427928Y-45854905D02*
G01*
X135432695Y-45862486D01*
X135432861Y-45864398D01*
X135433800Y-46075600D01*
X135432854Y-46288279D01*
X135429390Y-46296537D01*
X135421102Y-46299927D01*
X135420498Y-46299909D01*
X134998896Y-46276244D01*
X134990828Y-46272358D01*
X134987852Y-46264562D01*
X134987852Y-45936250D01*
X134991279Y-45927977D01*
X134997585Y-45924717D01*
X135419198Y-45852916D01*
X135427928Y-45854905D01*
G37*
%TD.AperFunction*%
%TD*%
%TA.AperFunction,Conductor*%
%TO.N,Net-(U2-VTUNE)*%
G36*
X128906647Y-60732543D02*
G01*
X128906958Y-60733294D01*
X129044550Y-61101123D01*
X129044692Y-61108922D01*
X128998667Y-61247000D01*
X128992799Y-61253765D01*
X128987567Y-61255000D01*
X128804433Y-61255000D01*
X128796160Y-61251573D01*
X128793333Y-61247000D01*
X128747307Y-61108921D01*
X128747448Y-61101126D01*
X128885042Y-60733293D01*
X128891150Y-60726746D01*
X128900099Y-60726435D01*
X128906647Y-60732543D01*
G37*
%TD.AperFunction*%
%TD*%
%TA.AperFunction,Conductor*%
%TO.N,Vdd4*%
G36*
X128527389Y-54968010D02*
G01*
X128536483Y-54977161D01*
X128675916Y-55117471D01*
X128679317Y-55125755D01*
X128676927Y-55132805D01*
X128499512Y-55365866D01*
X128491774Y-55370373D01*
X128490202Y-55370479D01*
X128307787Y-55370479D01*
X128299514Y-55367052D01*
X128296087Y-55358779D01*
X128296087Y-55358692D01*
X128297821Y-55124699D01*
X128298914Y-54977160D01*
X128302402Y-54968914D01*
X128310560Y-54965548D01*
X128519103Y-54964621D01*
X128527389Y-54968010D01*
G37*
%TD.AperFunction*%
%TD*%
%TA.AperFunction,Conductor*%
%TO.N,GND*%
G36*
X130385870Y-56929803D02*
G01*
X130388671Y-56931872D01*
X130520127Y-57063328D01*
X130523554Y-57071601D01*
X130523036Y-57075044D01*
X130010459Y-58739608D01*
X130004749Y-58746507D01*
X129995834Y-58747347D01*
X129994810Y-58746979D01*
X129086584Y-58371762D01*
X129080246Y-58365435D01*
X129080237Y-58365415D01*
X128705020Y-57457189D01*
X128705029Y-57448235D01*
X128711367Y-57441908D01*
X128712383Y-57441542D01*
X130376956Y-56928963D01*
X130385870Y-56929803D01*
G37*
%TD.AperFunction*%
%TD*%
%TA.AperFunction,Conductor*%
%TO.N,GND*%
G36*
X129078932Y-57372838D02*
G01*
X129082795Y-57380916D01*
X129082812Y-57381528D01*
X129083792Y-58361370D01*
X129080373Y-58369647D01*
X129076565Y-58372193D01*
X128168078Y-58748093D01*
X128159123Y-58748090D01*
X128153677Y-58743471D01*
X127477057Y-57657841D01*
X127475286Y-57651653D01*
X127475286Y-57466091D01*
X127478713Y-57457818D01*
X127486359Y-57454408D01*
X129070488Y-57369857D01*
X129078932Y-57372838D01*
G37*
%TD.AperFunction*%
%TD*%
%TA.AperFunction,Conductor*%
%TO.N,Net-(U6-BP)*%
G36*
X118362917Y-67886986D02*
G01*
X118647224Y-67934370D01*
X118654821Y-67939111D01*
X118657000Y-67945911D01*
X118657000Y-68426088D01*
X118653573Y-68434361D01*
X118647223Y-68437629D01*
X118362926Y-68485012D01*
X118354203Y-68482992D01*
X118352744Y-68481758D01*
X118296888Y-68426088D01*
X118064313Y-68194285D01*
X118060873Y-68186019D01*
X118064285Y-68177741D01*
X118352745Y-67890240D01*
X118361022Y-67886828D01*
X118362917Y-67886986D01*
G37*
%TD.AperFunction*%
%TD*%
%TA.AperFunction,Conductor*%
%TO.N,Net-(U2-CPout)*%
G36*
X121869645Y-47308009D02*
G01*
X121874706Y-47312762D01*
X122148895Y-47796637D01*
X122149993Y-47805524D01*
X122146351Y-47811271D01*
X121546052Y-48328243D01*
X121537547Y-48331045D01*
X121530144Y-48327650D01*
X121187251Y-47984757D01*
X121183876Y-47977580D01*
X121145059Y-47564150D01*
X121147698Y-47555593D01*
X121152886Y-47551999D01*
X121860707Y-47307471D01*
X121869645Y-47308009D01*
G37*
%TD.AperFunction*%
%TD*%
%TA.AperFunction,Conductor*%
%TO.N,Net-(U2-VCOM)*%
G36*
X126805084Y-67997347D02*
G01*
X126808868Y-68000512D01*
X127135401Y-68419811D01*
X127137781Y-68428444D01*
X127135401Y-68434189D01*
X126808868Y-68853487D01*
X126801081Y-68857909D01*
X126796167Y-68857472D01*
X126223229Y-68679555D01*
X126216345Y-68673828D01*
X126215000Y-68668385D01*
X126215000Y-68185615D01*
X126218426Y-68177345D01*
X126223226Y-68174445D01*
X126796167Y-67996527D01*
X126805084Y-67997347D01*
G37*
%TD.AperFunction*%
%TD*%
%TA.AperFunction,Conductor*%
%TO.N,Net-(J2-In)*%
G36*
X107785326Y-57526270D02*
G01*
X108263016Y-58030571D01*
X108266218Y-58038934D01*
X108262634Y-58047048D01*
X107778057Y-58513281D01*
X107769719Y-58516548D01*
X107763307Y-58514485D01*
X107275062Y-58178112D01*
X107270194Y-58170596D01*
X107270000Y-58168477D01*
X107270000Y-58030571D01*
X107270000Y-57831988D01*
X107273426Y-57823718D01*
X107275662Y-57821970D01*
X107770807Y-57524288D01*
X107779660Y-57522963D01*
X107785326Y-57526270D01*
G37*
%TD.AperFunction*%
%TD*%
%TA.AperFunction,Conductor*%
%TO.N,Net-(U2-CPout)*%
G36*
X123764963Y-46826734D02*
G01*
X123767447Y-46828336D01*
X124323358Y-47296047D01*
X124327483Y-47303996D01*
X124324779Y-47312532D01*
X124323358Y-47313953D01*
X123767447Y-47781663D01*
X123758911Y-47784367D01*
X123756021Y-47783743D01*
X123115805Y-47557755D01*
X123109144Y-47551770D01*
X123108000Y-47546726D01*
X123108000Y-47063274D01*
X123111426Y-47055004D01*
X123115801Y-47052246D01*
X123756022Y-46826256D01*
X123764963Y-46826734D01*
G37*
%TD.AperFunction*%
%TD*%
%TA.AperFunction,Conductor*%
%TO.N,Net-(U2-REFIN)*%
G36*
X138007648Y-57875928D02*
G01*
X138488825Y-58360960D01*
X138492219Y-58369247D01*
X138488825Y-58377440D01*
X138007648Y-58862471D01*
X137999389Y-58865931D01*
X137993005Y-58864066D01*
X137501363Y-58547280D01*
X137496264Y-58539918D01*
X137496000Y-58537445D01*
X137496000Y-58200954D01*
X137499427Y-58192681D01*
X137501360Y-58191120D01*
X137993007Y-57874332D01*
X138001815Y-57872732D01*
X138007648Y-57875928D01*
G37*
%TD.AperFunction*%
%TD*%
%TA.AperFunction,Conductor*%
%TO.N,Net-(U3--)*%
G36*
X122259052Y-57548876D02*
G01*
X122740794Y-58030791D01*
X122744219Y-58039065D01*
X122740856Y-58047271D01*
X122260245Y-58535431D01*
X122251999Y-58538923D01*
X122245621Y-58537090D01*
X121753413Y-58223473D01*
X121748277Y-58216138D01*
X121748000Y-58213606D01*
X121748000Y-57877116D01*
X121751427Y-57868843D01*
X121753313Y-57867313D01*
X122244391Y-57547344D01*
X122253192Y-57545700D01*
X122259052Y-57548876D01*
G37*
%TD.AperFunction*%
%TD*%
%TA.AperFunction,Conductor*%
%TO.N,GND*%
G36*
X126902317Y-54849208D02*
G01*
X126908077Y-54854417D01*
X126949417Y-54930593D01*
X127079941Y-55171109D01*
X127080875Y-55180015D01*
X127077931Y-55184963D01*
X126948863Y-55314031D01*
X126940590Y-55317458D01*
X126935009Y-55316041D01*
X126800758Y-55243185D01*
X126618317Y-55144177D01*
X126612682Y-55137220D01*
X126613070Y-55129464D01*
X126692635Y-54935129D01*
X126698941Y-54928772D01*
X126698957Y-54928765D01*
X126893364Y-54849171D01*
X126902317Y-54849208D01*
G37*
%TD.AperFunction*%
%TD*%
%TA.AperFunction,Conductor*%
%TO.N,GND*%
G36*
X120415833Y-70102418D02*
G01*
X120717984Y-70319890D01*
X120851925Y-70416294D01*
X120856638Y-70423908D01*
X120856145Y-70429621D01*
X120661727Y-70990631D01*
X120655780Y-70997326D01*
X120650672Y-70998500D01*
X120167328Y-70998500D01*
X120159055Y-70995073D01*
X120156273Y-70990631D01*
X119961854Y-70429621D01*
X119962383Y-70420682D01*
X119966072Y-70416295D01*
X120402165Y-70102418D01*
X120410882Y-70100367D01*
X120415833Y-70102418D01*
G37*
%TD.AperFunction*%
%TD*%
%TA.AperFunction,Conductor*%
%TO.N,Net-(U2-RF_OUT_A+)*%
G36*
X124653366Y-58050004D02*
G01*
X124655524Y-58053196D01*
X124970432Y-58741644D01*
X124970757Y-58750593D01*
X124968177Y-58754670D01*
X124481068Y-59255259D01*
X124472843Y-59258799D01*
X124464524Y-59255485D01*
X124464410Y-59255373D01*
X124228543Y-59019506D01*
X124225255Y-59013025D01*
X124148937Y-58520052D01*
X124151058Y-58511353D01*
X124152436Y-58509785D01*
X124636826Y-58049580D01*
X124645183Y-58046367D01*
X124653366Y-58050004D01*
G37*
%TD.AperFunction*%
%TD*%
%TA.AperFunction,Conductor*%
%TO.N,Net-(C16-Pad1)*%
G36*
X110472457Y-51610427D02*
G01*
X110474780Y-51613739D01*
X110774799Y-52254557D01*
X110775204Y-52263503D01*
X110773156Y-52267050D01*
X110305953Y-52822358D01*
X110298004Y-52826483D01*
X110289468Y-52823779D01*
X110288047Y-52822358D01*
X109820843Y-52267050D01*
X109818139Y-52258514D01*
X109819199Y-52254559D01*
X110119219Y-51613739D01*
X110125831Y-51607699D01*
X110129816Y-51607000D01*
X110464184Y-51607000D01*
X110472457Y-51610427D01*
G37*
%TD.AperFunction*%
%TD*%
%TA.AperFunction,Conductor*%
%TO.N,GND*%
G36*
X127528889Y-56756981D02*
G01*
X129124245Y-58283231D01*
X129132956Y-58291564D01*
X129136565Y-58299759D01*
X129133322Y-58308106D01*
X129128554Y-58311122D01*
X127529563Y-58841895D01*
X127520631Y-58841249D01*
X127516077Y-58837180D01*
X127348395Y-58579764D01*
X127346500Y-58573381D01*
X127346500Y-58385251D01*
X127344185Y-58373618D01*
X127334867Y-58326769D01*
X127324663Y-58311499D01*
X127322917Y-58302718D01*
X127324664Y-58298500D01*
X127334867Y-58283231D01*
X127346500Y-58224748D01*
X127346500Y-57885252D01*
X127334867Y-57826769D01*
X127290552Y-57760448D01*
X127224231Y-57716133D01*
X127165748Y-57704500D01*
X126784586Y-57704500D01*
X126776313Y-57701073D01*
X126774786Y-57699191D01*
X126747896Y-57657910D01*
X126746000Y-57651524D01*
X126746000Y-57460171D01*
X126749427Y-57451898D01*
X126749824Y-57451519D01*
X126797024Y-57408548D01*
X126804900Y-57405500D01*
X127165748Y-57405500D01*
X127224231Y-57393867D01*
X127290552Y-57349552D01*
X127334867Y-57283231D01*
X127346500Y-57224748D01*
X127346500Y-56913471D01*
X127349927Y-56905198D01*
X127350308Y-56904832D01*
X127512927Y-56756782D01*
X127521350Y-56753749D01*
X127528889Y-56756981D01*
G37*
%TD.AperFunction*%
%TD*%
%TA.AperFunction,Conductor*%
%TO.N,Net-(U2-DATA)*%
G36*
X129748162Y-52783666D02*
G01*
X129756343Y-52787304D01*
X129759194Y-52792455D01*
X129950458Y-53538231D01*
X129949194Y-53547097D01*
X129947398Y-53549411D01*
X129816282Y-53680527D01*
X129808009Y-53683954D01*
X129803422Y-53683017D01*
X128835529Y-53270532D01*
X128829262Y-53264136D01*
X128829298Y-53255311D01*
X129028225Y-52772734D01*
X129034545Y-52766393D01*
X129039339Y-52765499D01*
X129748162Y-52783666D01*
G37*
%TD.AperFunction*%
%TD*%
%TA.AperFunction,Conductor*%
%TO.N,GND*%
G36*
X106861909Y-61009702D02*
G01*
X106928768Y-61029984D01*
X106974050Y-61083195D01*
X106984800Y-61133696D01*
X106984800Y-72141655D01*
X101309912Y-72136014D01*
X101338542Y-61085172D01*
X101358400Y-61018189D01*
X101411322Y-60972571D01*
X101463645Y-60961503D01*
X106861909Y-61009702D01*
G37*
%TD.AperFunction*%
%TD*%
%TA.AperFunction,Conductor*%
%TO.N,Net-(C15-Pad1)*%
G36*
X111889906Y-57298651D02*
G01*
X113363394Y-58034904D01*
X113369263Y-58041667D01*
X113368630Y-58050600D01*
X113363370Y-58055848D01*
X111889949Y-58787881D01*
X111881015Y-58788493D01*
X111877605Y-58786673D01*
X111137962Y-58217137D01*
X111133498Y-58209375D01*
X111133400Y-58207867D01*
X111133400Y-57870184D01*
X111136827Y-57861911D01*
X111138029Y-57860863D01*
X111877605Y-57299796D01*
X111886267Y-57297526D01*
X111889906Y-57298651D01*
G37*
%TD.AperFunction*%
%TD*%
%TA.AperFunction,Conductor*%
%TO.N,Net-(C12-Pad1)*%
G36*
X121862313Y-45403686D02*
G01*
X121870286Y-45407760D01*
X121872424Y-45411483D01*
X122041707Y-45895091D01*
X122041206Y-45904032D01*
X122035700Y-45909518D01*
X121067292Y-46371365D01*
X121058350Y-46371833D01*
X121053983Y-46369077D01*
X120712972Y-46028066D01*
X120709545Y-46019793D01*
X120711429Y-46013426D01*
X121140406Y-45352221D01*
X121147781Y-45347148D01*
X121151145Y-45346928D01*
X121862313Y-45403686D01*
G37*
%TD.AperFunction*%
%TD*%
%TA.AperFunction,Conductor*%
%TO.N,Net-(U2-PDB_RF)*%
G36*
X133056915Y-60016840D02*
G01*
X133347770Y-60284679D01*
X133351534Y-60292803D01*
X133348451Y-60301211D01*
X133348154Y-60301521D01*
X133199982Y-60451016D01*
X133196105Y-60453608D01*
X133002687Y-60532797D01*
X132993732Y-60532760D01*
X132987426Y-60526402D01*
X132986810Y-60524405D01*
X132908559Y-60156871D01*
X132910188Y-60148066D01*
X132911725Y-60146167D01*
X133040718Y-60017174D01*
X133048990Y-60013748D01*
X133056915Y-60016840D01*
G37*
%TD.AperFunction*%
%TD*%
%TA.AperFunction,Conductor*%
%TO.N,Net-(C16-Pad1)*%
G36*
X110472457Y-48689427D02*
G01*
X110474780Y-48692739D01*
X110774799Y-49333557D01*
X110775204Y-49342503D01*
X110773156Y-49346050D01*
X110305953Y-49901358D01*
X110298004Y-49905483D01*
X110289468Y-49902779D01*
X110288047Y-49901358D01*
X109820843Y-49346050D01*
X109818139Y-49337514D01*
X109819199Y-49333559D01*
X110119219Y-48692739D01*
X110125831Y-48686699D01*
X110129816Y-48686000D01*
X110464184Y-48686000D01*
X110472457Y-48689427D01*
G37*
%TD.AperFunction*%
%TD*%
%TA.AperFunction,Conductor*%
%TO.N,GND*%
G36*
X114359084Y-63679347D02*
G01*
X114362868Y-63682512D01*
X114689401Y-64101811D01*
X114691781Y-64110444D01*
X114689401Y-64116189D01*
X114362868Y-64535487D01*
X114355081Y-64539909D01*
X114350167Y-64539472D01*
X113777230Y-64361555D01*
X113770346Y-64355828D01*
X113769000Y-64350381D01*
X113769000Y-63867618D01*
X113772427Y-63859345D01*
X113777228Y-63856444D01*
X114350167Y-63678527D01*
X114359084Y-63679347D01*
G37*
%TD.AperFunction*%
%TD*%
%TA.AperFunction,Conductor*%
%TO.N,Vdd3*%
G36*
X113005832Y-65228527D02*
G01*
X113018665Y-65232512D01*
X113578770Y-65406444D01*
X113585654Y-65412171D01*
X113587000Y-65417618D01*
X113587000Y-65900381D01*
X113583573Y-65908654D01*
X113578770Y-65911555D01*
X113005832Y-66089472D01*
X112996915Y-66088652D01*
X112993131Y-66085487D01*
X112848978Y-65900381D01*
X112666597Y-65666188D01*
X112664218Y-65657556D01*
X112666597Y-65651812D01*
X112993132Y-65232511D01*
X113000918Y-65228090D01*
X113005832Y-65228527D01*
G37*
%TD.AperFunction*%
%TD*%
%TA.AperFunction,Conductor*%
%TO.N,GND*%
G36*
X127927931Y-56848202D02*
G01*
X127929106Y-56849588D01*
X128175756Y-57191091D01*
X128177822Y-57199804D01*
X128174544Y-57206214D01*
X128045475Y-57335283D01*
X128037202Y-57338710D01*
X128033133Y-57337980D01*
X127687238Y-57209680D01*
X127680673Y-57203590D01*
X127680337Y-57194641D01*
X127680461Y-57194322D01*
X127760393Y-56999090D01*
X127762981Y-56995219D01*
X127911386Y-56848127D01*
X127919673Y-56844738D01*
X127927931Y-56848202D01*
G37*
%TD.AperFunction*%
%TD*%
%TA.AperFunction,Conductor*%
%TO.N,Net-(C11-Pad1)*%
G36*
X119806435Y-53604627D02*
G01*
X119809789Y-53611598D01*
X119857550Y-54038255D01*
X119855065Y-54046858D01*
X119847225Y-54051184D01*
X119845975Y-54051257D01*
X119634000Y-54052200D01*
X119422024Y-54051257D01*
X119413766Y-54047793D01*
X119410376Y-54039505D01*
X119410449Y-54038255D01*
X119458211Y-53611598D01*
X119462537Y-53603758D01*
X119469838Y-53601200D01*
X119798162Y-53601200D01*
X119806435Y-53604627D01*
G37*
%TD.AperFunction*%
%TD*%
%TA.AperFunction,Conductor*%
%TO.N,Vdd4*%
G36*
X116040832Y-50597527D02*
G01*
X116053665Y-50601512D01*
X116613770Y-50775444D01*
X116620654Y-50781171D01*
X116622000Y-50786618D01*
X116622000Y-51269381D01*
X116618573Y-51277654D01*
X116613770Y-51280555D01*
X116040832Y-51458472D01*
X116031915Y-51457652D01*
X116028131Y-51454487D01*
X115883978Y-51269381D01*
X115701597Y-51035188D01*
X115699218Y-51026556D01*
X115701597Y-51020812D01*
X116028132Y-50601511D01*
X116035918Y-50597090D01*
X116040832Y-50597527D01*
G37*
%TD.AperFunction*%
%TD*%
%TA.AperFunction,Conductor*%
%TO.N,GND*%
G36*
X129495840Y-60158427D02*
G01*
X129498667Y-60163000D01*
X129544692Y-60301076D01*
X129544550Y-60308875D01*
X129406958Y-60676705D01*
X129400850Y-60683253D01*
X129391901Y-60683564D01*
X129385353Y-60677456D01*
X129385042Y-60676705D01*
X129247449Y-60308873D01*
X129247307Y-60301078D01*
X129293333Y-60162999D01*
X129299201Y-60156235D01*
X129304433Y-60155000D01*
X129487567Y-60155000D01*
X129495840Y-60158427D01*
G37*
%TD.AperFunction*%
%TD*%
%TA.AperFunction,Conductor*%
%TO.N,Net-(C11-Pad1)*%
G36*
X125678863Y-60069268D02*
G01*
X125807931Y-60198336D01*
X125811358Y-60206609D01*
X125809941Y-60212190D01*
X125638078Y-60528881D01*
X125631120Y-60534517D01*
X125623362Y-60534128D01*
X125429030Y-60454564D01*
X125422672Y-60448258D01*
X125422635Y-60448169D01*
X125343071Y-60253837D01*
X125343108Y-60244882D01*
X125348315Y-60239123D01*
X125665010Y-60067257D01*
X125673915Y-60066324D01*
X125678863Y-60069268D01*
G37*
%TD.AperFunction*%
%TD*%
%TA.AperFunction,Conductor*%
%TO.N,GND*%
G36*
X118684963Y-44926734D02*
G01*
X118687447Y-44928336D01*
X119243358Y-45396046D01*
X119247483Y-45403995D01*
X119244779Y-45412531D01*
X119243358Y-45413952D01*
X118687447Y-45881663D01*
X118678911Y-45884367D01*
X118676021Y-45883743D01*
X118035806Y-45657755D01*
X118029145Y-45651770D01*
X118028000Y-45646722D01*
X118028000Y-45163277D01*
X118031427Y-45155004D01*
X118035803Y-45152245D01*
X118676022Y-44926256D01*
X118684963Y-44926734D01*
G37*
%TD.AperFunction*%
%TD*%
%TA.AperFunction,Conductor*%
%TO.N,GND*%
G36*
X130771367Y-57768749D02*
G01*
X130775924Y-57772820D01*
X130943603Y-58030232D01*
X130945500Y-58036617D01*
X130945500Y-58224748D01*
X130957132Y-58283229D01*
X130967335Y-58298500D01*
X130969081Y-58307283D01*
X130967335Y-58311500D01*
X130957132Y-58326770D01*
X130945500Y-58385251D01*
X130945500Y-58385252D01*
X130945500Y-58724748D01*
X130957133Y-58783231D01*
X131001448Y-58849552D01*
X131067769Y-58893867D01*
X131126252Y-58905500D01*
X131507414Y-58905500D01*
X131515687Y-58908927D01*
X131517213Y-58910808D01*
X131544104Y-58952089D01*
X131546000Y-58958475D01*
X131546000Y-59149828D01*
X131542573Y-59158101D01*
X131542177Y-59158480D01*
X131494977Y-59201452D01*
X131487100Y-59204500D01*
X131126252Y-59204500D01*
X131067768Y-59216133D01*
X131001448Y-59260448D01*
X130957133Y-59326768D01*
X130945500Y-59385251D01*
X130945500Y-59696527D01*
X130942073Y-59704800D01*
X130941677Y-59705179D01*
X130779074Y-59853214D01*
X130770649Y-59856249D01*
X130763109Y-59853016D01*
X130143710Y-59260448D01*
X129159042Y-58318434D01*
X129155434Y-58310240D01*
X129158677Y-58301893D01*
X129163443Y-58298877D01*
X130762437Y-57768103D01*
X130771367Y-57768749D01*
G37*
%TD.AperFunction*%
%TD*%
%TA.AperFunction,Conductor*%
%TO.N,Net-(U2-CLK)*%
G36*
X131699263Y-52768416D02*
G01*
X131702285Y-52772552D01*
X131912135Y-53254949D01*
X131912293Y-53263902D01*
X131906073Y-53270345D01*
X131905754Y-53270478D01*
X130998094Y-53633790D01*
X130993746Y-53634628D01*
X130810507Y-53634628D01*
X130802234Y-53631201D01*
X130798807Y-53622928D01*
X130799072Y-53620450D01*
X130972133Y-52821738D01*
X130977233Y-52814382D01*
X130982790Y-52812545D01*
X131690782Y-52765545D01*
X131699263Y-52768416D01*
G37*
%TD.AperFunction*%
%TD*%
%TA.AperFunction,Conductor*%
%TO.N,Vdd4*%
G36*
X126349873Y-56906448D02*
G01*
X126502211Y-56963433D01*
X126717705Y-57044042D01*
X126724253Y-57050150D01*
X126724564Y-57059099D01*
X126718456Y-57065647D01*
X126717705Y-57065958D01*
X126349875Y-57203550D01*
X126342076Y-57203692D01*
X126204000Y-57157666D01*
X126197235Y-57151798D01*
X126196000Y-57146566D01*
X126196000Y-56963433D01*
X126199427Y-56955160D01*
X126203998Y-56952333D01*
X126342078Y-56906307D01*
X126349873Y-56906448D01*
G37*
%TD.AperFunction*%
%TD*%
%TA.AperFunction,Conductor*%
%TO.N,GND*%
G36*
X127288000Y-56452333D02*
G01*
X127294765Y-56458201D01*
X127296000Y-56463433D01*
X127296000Y-56646566D01*
X127292573Y-56654839D01*
X127288000Y-56657666D01*
X127149923Y-56703692D01*
X127142124Y-56703550D01*
X126774294Y-56565958D01*
X126767746Y-56559850D01*
X126767435Y-56550901D01*
X126773543Y-56544353D01*
X126774294Y-56544042D01*
X127142126Y-56406448D01*
X127149921Y-56406307D01*
X127288000Y-56452333D01*
G37*
%TD.AperFunction*%
%TD*%
%TA.AperFunction,Conductor*%
%TO.N,Net-(C15-Pad1)*%
G36*
X110345457Y-56817427D02*
G01*
X110347780Y-56820739D01*
X110647799Y-57461557D01*
X110648204Y-57470503D01*
X110646156Y-57474050D01*
X110178953Y-58029358D01*
X110171004Y-58033483D01*
X110162468Y-58030779D01*
X110161047Y-58029358D01*
X109693843Y-57474050D01*
X109691139Y-57465514D01*
X109692199Y-57461559D01*
X109992219Y-56820739D01*
X109998831Y-56814699D01*
X110002816Y-56814000D01*
X110337184Y-56814000D01*
X110345457Y-56817427D01*
G37*
%TD.AperFunction*%
%TD*%
%TA.AperFunction,Conductor*%
%TO.N,Net-(U2-RF_OUT_A+)*%
G36*
X116774517Y-63212427D02*
G01*
X116776803Y-63215661D01*
X117044789Y-63777288D01*
X117045259Y-63786231D01*
X117041065Y-63791823D01*
X116605834Y-64105080D01*
X116597117Y-64107132D01*
X116592164Y-64105080D01*
X116156933Y-63791823D01*
X116152220Y-63784209D01*
X116153208Y-63777290D01*
X116421196Y-63215661D01*
X116427852Y-63209670D01*
X116431756Y-63209000D01*
X116766244Y-63209000D01*
X116774517Y-63212427D01*
G37*
%TD.AperFunction*%
%TD*%
%TA.AperFunction,Conductor*%
%TO.N,Net-(U1-PB3)*%
G36*
X146044103Y-46107824D02*
G01*
X146951914Y-46425241D01*
X147010014Y-46445556D01*
X147016692Y-46451521D01*
X147017196Y-46460462D01*
X147011231Y-46467140D01*
X147010014Y-46467644D01*
X146044106Y-46805374D01*
X146037030Y-46805580D01*
X145699086Y-46709024D01*
X145692072Y-46703456D01*
X145690600Y-46697774D01*
X145690600Y-46215425D01*
X145694027Y-46207152D01*
X145699084Y-46204175D01*
X146037033Y-46107619D01*
X146044103Y-46107824D01*
G37*
%TD.AperFunction*%
%TD*%
%TA.AperFunction,Conductor*%
%TO.N,Vdd1*%
G36*
X130002975Y-67773255D02*
G01*
X130643195Y-67999244D01*
X130649855Y-68005229D01*
X130651000Y-68010277D01*
X130651000Y-68493722D01*
X130647573Y-68501995D01*
X130643194Y-68504755D01*
X130002978Y-68730743D01*
X129994036Y-68730265D01*
X129991552Y-68728663D01*
X129435641Y-68260953D01*
X129431516Y-68253004D01*
X129434220Y-68244468D01*
X129435641Y-68243047D01*
X129991553Y-67775335D01*
X130000088Y-67772632D01*
X130002975Y-67773255D01*
G37*
%TD.AperFunction*%
%TD*%
%TA.AperFunction,Conductor*%
%TO.N,GND*%
G36*
X152270278Y-60928885D02*
G01*
X152316033Y-60981689D01*
X152327239Y-61033040D01*
X152341667Y-72186742D01*
X142748000Y-72177205D01*
X142748000Y-72177204D01*
X142748000Y-70598514D01*
X145030700Y-70598514D01*
X145030701Y-70601236D01*
X145030942Y-70603951D01*
X145030943Y-70603965D01*
X145041314Y-70720617D01*
X145097291Y-70916250D01*
X145191501Y-71096606D01*
X145191502Y-71096607D01*
X145320091Y-71254309D01*
X145477793Y-71382898D01*
X145658151Y-71477109D01*
X145853782Y-71533086D01*
X145973163Y-71543700D01*
X150089236Y-71543699D01*
X150208618Y-71533086D01*
X150404249Y-71477109D01*
X150584607Y-71382898D01*
X150742309Y-71254309D01*
X150870898Y-71096607D01*
X150965109Y-70916249D01*
X151021086Y-70720618D01*
X151031700Y-70601237D01*
X151031699Y-68485164D01*
X151021086Y-68365782D01*
X150965109Y-68170151D01*
X150870898Y-67989793D01*
X150742309Y-67832091D01*
X150584607Y-67703502D01*
X150584606Y-67703501D01*
X150404250Y-67609291D01*
X150306433Y-67581302D01*
X150208618Y-67553314D01*
X150189506Y-67551614D01*
X150091964Y-67542942D01*
X150091953Y-67542941D01*
X150089237Y-67542700D01*
X150086493Y-67542700D01*
X145975907Y-67542700D01*
X145975884Y-67542700D01*
X145973164Y-67542701D01*
X145970449Y-67542942D01*
X145970434Y-67542943D01*
X145853782Y-67553314D01*
X145658149Y-67609291D01*
X145477793Y-67703501D01*
X145320091Y-67832091D01*
X145191501Y-67989793D01*
X145097291Y-68170149D01*
X145041314Y-68365782D01*
X145030942Y-68482435D01*
X145030941Y-68482447D01*
X145030700Y-68485163D01*
X145030700Y-68487905D01*
X145030700Y-68487906D01*
X145030700Y-70598492D01*
X145030700Y-70598514D01*
X142748000Y-70598514D01*
X142748000Y-61033200D01*
X142767685Y-60966161D01*
X142820489Y-60920406D01*
X142872000Y-60909200D01*
X152203239Y-60909200D01*
X152270278Y-60928885D01*
G37*
%TD.AperFunction*%
%TD*%
%TA.AperFunction,Conductor*%
%TO.N,Net-(U2-LE)*%
G36*
X127088324Y-52508004D02*
G01*
X127092875Y-52511803D01*
X127508519Y-53095180D01*
X127510528Y-53103906D01*
X127507263Y-53110242D01*
X127376077Y-53241428D01*
X127368272Y-53244846D01*
X126845297Y-53265787D01*
X126836893Y-53262694D01*
X126836347Y-53262155D01*
X126376635Y-52778283D01*
X126373421Y-52769925D01*
X126377058Y-52761742D01*
X126381146Y-52759219D01*
X127079380Y-52507585D01*
X127088324Y-52508004D01*
G37*
%TD.AperFunction*%
%TD*%
%TA.AperFunction,Conductor*%
%TO.N,Net-(R1-Pad1)*%
G36*
X135760816Y-63044856D02*
G01*
X136443236Y-63552253D01*
X136447830Y-63559939D01*
X136445644Y-63568623D01*
X136443863Y-63570531D01*
X135758993Y-64156726D01*
X135750479Y-64159502D01*
X135747752Y-64158959D01*
X135162067Y-63967635D01*
X135155267Y-63961808D01*
X135154000Y-63956513D01*
X135154000Y-63471048D01*
X135157427Y-63462775D01*
X135158930Y-63461505D01*
X135747070Y-63044698D01*
X135755801Y-63042711D01*
X135760816Y-63044856D01*
G37*
%TD.AperFunction*%
%TD*%
%TA.AperFunction,Conductor*%
%TO.N,Net-(C16-Pad1)*%
G36*
X108779963Y-54463168D02*
G01*
X109015584Y-54698789D01*
X109019011Y-54707062D01*
X109019010Y-54707217D01*
X109009186Y-55448600D01*
X109005650Y-55456827D01*
X108997332Y-55460144D01*
X108995197Y-55459919D01*
X108563207Y-55373687D01*
X108555764Y-55368707D01*
X108555612Y-55368472D01*
X108270990Y-54918935D01*
X108269459Y-54910112D01*
X108273051Y-54903978D01*
X108763870Y-54462739D01*
X108772311Y-54459758D01*
X108779963Y-54463168D01*
G37*
%TD.AperFunction*%
%TD*%
%TA.AperFunction,Conductor*%
%TO.N,Net-(U2-VCOM)*%
G36*
X127065342Y-67530427D02*
G01*
X127065675Y-67530773D01*
X127511320Y-68014588D01*
X127514404Y-68022995D01*
X127511264Y-68030501D01*
X127146849Y-68420666D01*
X127138698Y-68424373D01*
X127131709Y-68422348D01*
X126689244Y-68120747D01*
X126684338Y-68113255D01*
X126684644Y-68107662D01*
X126859668Y-67535278D01*
X126865365Y-67528369D01*
X126870857Y-67527000D01*
X127057069Y-67527000D01*
X127065342Y-67530427D01*
G37*
%TD.AperFunction*%
%TD*%
%TA.AperFunction,Conductor*%
%TO.N,GND*%
G36*
X126938363Y-56235232D02*
G01*
X127095763Y-56392632D01*
X127099190Y-56400905D01*
X127095763Y-56409178D01*
X127091978Y-56411710D01*
X126756170Y-56551188D01*
X126747215Y-56551197D01*
X126740877Y-56544871D01*
X126740847Y-56544799D01*
X126687357Y-56413560D01*
X126687408Y-56404607D01*
X126691390Y-56399626D01*
X126923291Y-56233983D01*
X126932013Y-56231964D01*
X126938363Y-56235232D01*
G37*
%TD.AperFunction*%
%TD*%
%TA.AperFunction,Conductor*%
%TO.N,GND*%
G36*
X130256221Y-56915465D02*
G01*
X130450569Y-56995035D01*
X130456927Y-57001341D01*
X130456964Y-57001430D01*
X130536520Y-57195743D01*
X130536483Y-57204698D01*
X130531253Y-57210470D01*
X130214181Y-57381765D01*
X130205273Y-57382682D01*
X130200347Y-57379744D01*
X130071278Y-57250675D01*
X130067851Y-57242402D01*
X130069276Y-57236806D01*
X130241515Y-56920693D01*
X130248482Y-56915070D01*
X130256221Y-56915465D01*
G37*
%TD.AperFunction*%
%TD*%
%TA.AperFunction,Conductor*%
%TO.N,Net-(U2-CE)*%
G36*
X129495840Y-55358427D02*
G01*
X129498667Y-55363000D01*
X129542237Y-55493712D01*
X129542703Y-55499178D01*
X129541841Y-55504821D01*
X129541996Y-55513366D01*
X129541256Y-55517677D01*
X129406957Y-55876705D01*
X129400849Y-55883253D01*
X129391900Y-55883564D01*
X129385352Y-55877456D01*
X129385048Y-55876724D01*
X129250742Y-55517677D01*
X129247449Y-55508873D01*
X129247307Y-55501078D01*
X129293333Y-55362999D01*
X129299201Y-55356235D01*
X129304433Y-55355000D01*
X129487567Y-55355000D01*
X129495840Y-55358427D01*
G37*
%TD.AperFunction*%
%TD*%
%TA.AperFunction,Conductor*%
%TO.N,5V*%
G36*
X124780022Y-75857751D02*
G01*
X124782118Y-75859436D01*
X125410497Y-76496584D01*
X125413867Y-76504881D01*
X125410497Y-76513016D01*
X124782118Y-77150163D01*
X124773869Y-77153647D01*
X124771195Y-77153356D01*
X124126707Y-77006869D01*
X124119399Y-77001694D01*
X124117600Y-76995460D01*
X124117600Y-76014139D01*
X124121027Y-76005866D01*
X124126707Y-76002730D01*
X124771196Y-75856243D01*
X124780022Y-75857751D01*
G37*
%TD.AperFunction*%
%TD*%
%TA.AperFunction,Conductor*%
%TO.N,GND*%
G36*
X140440752Y-39428427D02*
G01*
X140443935Y-39434323D01*
X140582685Y-40102899D01*
X140581011Y-40111695D01*
X140575730Y-40116076D01*
X140196501Y-40274124D01*
X140187546Y-40274143D01*
X140187499Y-40274124D01*
X139808269Y-40116076D01*
X139801951Y-40109730D01*
X139801314Y-40102899D01*
X139940065Y-39434323D01*
X139945102Y-39426918D01*
X139951521Y-39425000D01*
X140432479Y-39425000D01*
X140440752Y-39428427D01*
G37*
%TD.AperFunction*%
%TD*%
%TA.AperFunction,Conductor*%
%TO.N,Net-(U2-CLK)*%
G36*
X130995840Y-55358427D02*
G01*
X130998667Y-55363000D01*
X131044692Y-55501076D01*
X131044550Y-55508875D01*
X130906958Y-55876705D01*
X130900850Y-55883253D01*
X130891901Y-55883564D01*
X130885353Y-55877456D01*
X130885042Y-55876705D01*
X130747449Y-55508873D01*
X130747307Y-55501078D01*
X130793333Y-55362999D01*
X130799201Y-55356235D01*
X130804433Y-55355000D01*
X130987567Y-55355000D01*
X130995840Y-55358427D01*
G37*
%TD.AperFunction*%
%TD*%
%TA.AperFunction,Conductor*%
%TO.N,Net-(J3-Pin_2)*%
G36*
X127096923Y-49899114D02*
G01*
X127332683Y-50134874D01*
X127336110Y-50143147D01*
X127335453Y-50147013D01*
X127092668Y-50840482D01*
X127086700Y-50847158D01*
X127081925Y-50848312D01*
X126372341Y-50866500D01*
X126363983Y-50863286D01*
X126361224Y-50859263D01*
X126356234Y-50847158D01*
X126162016Y-50376002D01*
X126162031Y-50367048D01*
X126167542Y-50361109D01*
X127083361Y-49896950D01*
X127092289Y-49896267D01*
X127096923Y-49899114D01*
G37*
%TD.AperFunction*%
%TD*%
%TA.AperFunction,Conductor*%
%TO.N,Net-(D3-A)*%
G36*
X116100484Y-75281096D02*
G01*
X116100957Y-75281304D01*
X117639832Y-76001645D01*
X117645872Y-76008257D01*
X117646572Y-76012242D01*
X117646572Y-76994218D01*
X117643145Y-77002491D01*
X117636044Y-77005859D01*
X115720059Y-77198705D01*
X115711484Y-77196124D01*
X115707246Y-77188236D01*
X115707187Y-77187076D01*
X115706202Y-76202338D01*
X115707097Y-76197839D01*
X115784175Y-76012242D01*
X116085193Y-75287412D01*
X116091530Y-75281087D01*
X116100484Y-75281096D01*
G37*
%TD.AperFunction*%
%TD*%
%TA.AperFunction,Conductor*%
%TO.N,GND*%
G36*
X131149873Y-58906448D02*
G01*
X131302211Y-58963433D01*
X131517705Y-59044042D01*
X131524253Y-59050150D01*
X131524564Y-59059099D01*
X131518456Y-59065647D01*
X131517705Y-59065958D01*
X131149875Y-59203550D01*
X131142076Y-59203692D01*
X131004000Y-59157666D01*
X130997235Y-59151798D01*
X130996000Y-59146566D01*
X130996000Y-58963433D01*
X130999427Y-58955160D01*
X131003998Y-58952333D01*
X131142078Y-58906307D01*
X131149873Y-58906448D01*
G37*
%TD.AperFunction*%
%TD*%
%TA.AperFunction,Conductor*%
%TO.N,GND*%
G36*
X115703833Y-52581918D02*
G01*
X116005984Y-52799390D01*
X116139925Y-52895794D01*
X116144638Y-52903408D01*
X116144145Y-52909121D01*
X115949727Y-53470131D01*
X115943780Y-53476826D01*
X115938672Y-53478000D01*
X115455328Y-53478000D01*
X115447055Y-53474573D01*
X115444273Y-53470131D01*
X115249854Y-52909121D01*
X115250383Y-52900182D01*
X115254072Y-52895795D01*
X115690165Y-52581918D01*
X115698882Y-52579867D01*
X115703833Y-52581918D01*
G37*
%TD.AperFunction*%
%TD*%
%TA.AperFunction,Conductor*%
%TO.N,Net-(U2-PDB_RF)*%
G36*
X132088000Y-59452333D02*
G01*
X132094765Y-59458201D01*
X132096000Y-59463433D01*
X132096000Y-59646566D01*
X132092573Y-59654839D01*
X132088000Y-59657666D01*
X131949923Y-59703692D01*
X131942124Y-59703550D01*
X131574294Y-59565957D01*
X131567746Y-59559849D01*
X131567435Y-59550900D01*
X131573543Y-59544352D01*
X131574265Y-59544052D01*
X131942126Y-59406448D01*
X131949921Y-59406307D01*
X132088000Y-59452333D01*
G37*
%TD.AperFunction*%
%TD*%
%TA.AperFunction,Conductor*%
%TO.N,Vdd1*%
G36*
X131612285Y-67752777D02*
G01*
X131895860Y-67918572D01*
X131901273Y-67925706D01*
X131900055Y-67934577D01*
X131900033Y-67934616D01*
X131607545Y-68430546D01*
X131600390Y-68435931D01*
X131600118Y-68435998D01*
X131330741Y-68498661D01*
X131321906Y-68497197D01*
X131316694Y-68489916D01*
X131316390Y-68487265D01*
X131316390Y-68007296D01*
X131319817Y-67999023D01*
X131320369Y-67998505D01*
X131393112Y-67934616D01*
X131598661Y-67754085D01*
X131607137Y-67751201D01*
X131612285Y-67752777D01*
G37*
%TD.AperFunction*%
%TD*%
%TA.AperFunction,Conductor*%
%TO.N,Vdd4*%
G36*
X123592729Y-41470860D02*
G01*
X123596944Y-41478760D01*
X123597000Y-41479899D01*
X123597000Y-41959935D01*
X123593573Y-41968208D01*
X123590748Y-41970289D01*
X123303465Y-42121452D01*
X123294548Y-42122272D01*
X123291106Y-42120539D01*
X123005473Y-41911435D01*
X123000822Y-41903783D01*
X123002942Y-41895086D01*
X123293908Y-41500525D01*
X123301575Y-41495901D01*
X123302179Y-41495826D01*
X123584161Y-41468255D01*
X123592729Y-41470860D01*
G37*
%TD.AperFunction*%
%TD*%
%TA.AperFunction,Conductor*%
%TO.N,GND*%
G36*
X129725983Y-65089377D02*
G01*
X129729975Y-65092649D01*
X130056401Y-65511811D01*
X130058781Y-65520444D01*
X130056401Y-65526189D01*
X129729761Y-65945625D01*
X129721974Y-65950047D01*
X129717287Y-65949678D01*
X129144457Y-65784439D01*
X129137458Y-65778853D01*
X129136000Y-65773197D01*
X129136000Y-65290438D01*
X129139427Y-65282165D01*
X129144004Y-65279337D01*
X129717051Y-65088736D01*
X129725983Y-65089377D01*
G37*
%TD.AperFunction*%
%TD*%
%TA.AperFunction,Conductor*%
%TO.N,Vdd2*%
G36*
X140432199Y-52252499D02*
G01*
X141295452Y-52768823D01*
X141300793Y-52776011D01*
X141300263Y-52783323D01*
X141100775Y-53267263D01*
X141094454Y-53273606D01*
X141089658Y-53274500D01*
X140379284Y-53256292D01*
X140371102Y-53252654D01*
X140368955Y-53249486D01*
X140309666Y-53120599D01*
X140074221Y-52608771D01*
X140073877Y-52599825D01*
X140076576Y-52595613D01*
X140417922Y-52254267D01*
X140426194Y-52250841D01*
X140432199Y-52252499D01*
G37*
%TD.AperFunction*%
%TD*%
%TA.AperFunction,Conductor*%
%TO.N,GND*%
G36*
X118533641Y-39762575D02*
G01*
X118995044Y-39989005D01*
X119000962Y-39995726D01*
X119001137Y-39996283D01*
X119125779Y-40430947D01*
X119124765Y-40439844D01*
X119117953Y-40445361D01*
X118389301Y-40668118D01*
X118380387Y-40667259D01*
X118377607Y-40665202D01*
X118036832Y-40324427D01*
X118033405Y-40316154D01*
X118036364Y-40308376D01*
X118519748Y-39765298D01*
X118527808Y-39761398D01*
X118533641Y-39762575D01*
G37*
%TD.AperFunction*%
%TD*%
%TA.AperFunction,Conductor*%
%TO.N,GND*%
G36*
X124889880Y-65337156D02*
G01*
X124890945Y-65338144D01*
X125353061Y-65823560D01*
X125356283Y-65831915D01*
X125352654Y-65840101D01*
X125350739Y-65841579D01*
X124705270Y-66240584D01*
X124696431Y-66242019D01*
X124693126Y-66240681D01*
X124526898Y-66141540D01*
X124142707Y-65912403D01*
X124137357Y-65905222D01*
X124137000Y-65902354D01*
X124137000Y-65419588D01*
X124140427Y-65411315D01*
X124147534Y-65407946D01*
X124881307Y-65334569D01*
X124889880Y-65337156D01*
G37*
%TD.AperFunction*%
%TD*%
%TA.AperFunction,Conductor*%
%TO.N,GND*%
G36*
X127973301Y-59639139D02*
G01*
X127981558Y-59642602D01*
X127984948Y-59650891D01*
X127984796Y-59652721D01*
X127918291Y-60060841D01*
X127913578Y-60068455D01*
X127908203Y-60070568D01*
X127727063Y-60093343D01*
X127718427Y-60090975D01*
X127714915Y-60086493D01*
X127558990Y-59736228D01*
X127558756Y-59727276D01*
X127564921Y-59720781D01*
X127565101Y-59720702D01*
X127759682Y-59639127D01*
X127764253Y-59638218D01*
X127973301Y-59639139D01*
G37*
%TD.AperFunction*%
%TD*%
%TA.AperFunction,Conductor*%
%TO.N,Net-(U1-PB4)*%
G36*
X146044103Y-44710824D02*
G01*
X146951914Y-45028241D01*
X147010014Y-45048556D01*
X147016692Y-45054521D01*
X147017196Y-45063462D01*
X147011231Y-45070140D01*
X147010014Y-45070644D01*
X146044106Y-45408374D01*
X146037030Y-45408580D01*
X145699086Y-45312024D01*
X145692072Y-45306456D01*
X145690600Y-45300774D01*
X145690600Y-44818425D01*
X145694027Y-44810152D01*
X145699084Y-44807175D01*
X146037033Y-44710619D01*
X146044103Y-44710824D01*
G37*
%TD.AperFunction*%
%TD*%
M02*
